<?xml version="1.0" encoding="utf-8"?>
<!-- Generator: Adobe Illustrator 24.0.0, SVG Export Plug-In . SVG Version: 6.00 Build 0)  -->
<svg version="1.1" id="Warstwa_1" xmlns="http://www.w3.org/2000/svg" xmlns:xlink="http://www.w3.org/1999/xlink" x="0px" y="0px"
	 viewBox="0 0 492.88 336.32" style="enable-background:new 0 0 492.88 336.32;" xml:space="preserve">
<style type="text/css">
	.st0{fill:#FFFFFF;}
</style>
<g>
	<g>
		<g>
			<path class="st0" d="M239.45,77.58c0.07,0.01,0.13-0.02,0.2-0.03C239.6,77.7,239.54,77.74,239.45,77.58z"/>
		</g>
		<g>
			<path class="st0" d="M241.18,76.48c-0.3,0.4-0.8,1.03-1.54,1.08C239.8,77.11,239.89,75.62,241.18,76.48z"/>
		</g>
		<g>
			<path class="st0" d="M237.44,76.08l0.76-0.2C238.29,76.43,237.76,75.92,237.44,76.08z"/>
		</g>
		<g>
			<polygon class="st0" points="238.71,76.81 239.13,77.19 238.49,77.11 			"/>
		</g>
		<g>
			<path class="st0" d="M224.72,106.05c0.24,0.08,0.49,0.18,0.77,0.39L224.72,106.05z"/>
		</g>
		<g>
			<path class="st0" d="M221.77,105.91c-0.15,0.06-0.23,0.12-0.29,0.17C221.49,105.98,221.58,105.95,221.77,105.91z"/>
		</g>
		<g>
			<path class="st0" d="M225.22,104.82l-0.07,0.26C225.13,104.96,225.14,104.87,225.22,104.82z"/>
		</g>
		<g>
			<path class="st0" d="M232.35,90.37c0.47,0.05,0.91,0.09,1.22,0.1C233.65,91.1,232.87,90.59,232.35,90.37z"/>
		</g>
		<g>
			<path class="st0" d="M211.2,107.23l0.35,0.29C211.35,107.47,211.16,107.39,211.2,107.23z"/>
		</g>
		<g>
			<path class="st0" d="M215.14,102.18c0.23,0.13,0.39,0.25,0.49,0.35c-0.05,0-0.08,0.01-0.13,0.01L215.14,102.18z"/>
		</g>
		<g>
			<path class="st0" d="M224.98,103.46c-0.01-0.01-0.02-0.02-0.03-0.04l0.35-0.02C225.32,103.54,225.21,103.56,224.98,103.46z"/>
		</g>
		<g>
			<path class="st0" d="M209.6,108.62c-0.26-0.06-0.58-0.15-0.98-0.31C208.9,108.25,209.32,108.41,209.6,108.62z"/>
		</g>
		<g>
			<path class="st0" d="M221.47,106.11l-0.02-0.01c0.01-0.01,0.03-0.02,0.04-0.02C221.48,106.1,221.47,106.1,221.47,106.11z"/>
		</g>
		<g>
			<path class="st0" d="M216.68,100.64c-0.13,0.05-0.23,0.11-0.38,0.16C216.29,100.62,216.47,100.59,216.68,100.64z"/>
		</g>
		<g>
			<path class="st0" d="M232.35,90.37c-0.13-0.01-0.26-0.03-0.4-0.04C232.02,90.26,232.16,90.29,232.35,90.37z"/>
		</g>
		<g>
			<path class="st0" d="M239.19,79.54c-0.12,0.16-0.4,0-0.69-0.18C238.69,79.37,238.91,79.42,239.19,79.54z"/>
		</g>
		<g>
			<path class="st0" d="M199.25,141.33l-0.06,0.06C199.19,141.34,199.22,141.33,199.25,141.33z"/>
		</g>
		<g>
			<path class="st0" d="M204.89,135.72c0.1,0.03,0.22,0.06,0.36,0.13C205.3,135.97,205.11,135.88,204.89,135.72z"/>
		</g>
		<g>
			<path class="st0" d="M199.98,123.5c0.26,0.79-1.15,0.44-1.45,0.75l0.55,0.2l-0.64,0.09l0.67,0.46c-0.72,0.38-0.55,1.6-1.76,1.07
				l1.11,0.68l-1.29,0.03l0.97,0.15c-0.28,0.86-1.87,1.34-1.97,1.49l0.44,0.22c0.12,0.26-0.2,0.16-0.42,0.19l0.65,0.33
				c-0.92,0.94,0.21,2.2-1.28,2.92c-0.1,0.42,0.32-0.04,0.65,0.2c0.33,0.51-0.41,0.6-0.74,0.5c0.98,0.58,1.07-0.12,1.52,0.79
				c-0.65-0.06,0.98,0.44,0.45,0.78l-1.31-0.67c0.01,0.41,0.88,0.72,0.45,1.06c-0.86,0.1-0.9-1.55-1.63-0.92
				c-0.2,0.44,2.1,2.8,0.93,3.08c0.13,1.09,2.06,1.01,1.1,1.68l1.19,0c0.22,0.39,0.87,0.73,0.34,0.94c-0.54-0.21-1.3-0.41-1.51-0.24
				c1.5-0.18,0.78,1.73,2.5,1.8l-0.26,0.26c0.07,0,0.19,0.07,0.26,0.16l-0.21,0.45c0.43-0.05,0.96-0.54,1.62,0.37l-0.21,0.72
				c0.75,0.33,0.87,0.74,1.41,1.1l2.48-0.74c-0.44-0.22-0.87-0.17-1.19-0.55c-0.01-0.7,0.97,0.16,0.75-0.66l-0.65-0.2
				c0.22,0.11,0.32,0.1,0.32,0.24c0.22,0.39-0.21,0.17-0.54-0.07c-0.55-0.63,0.21-0.73,0.75-0.52c0.32-0.6-1.1-0.98-1.21-1.25
				c1.3,0.53,0.64-0.92,1.4-0.88l-0.87-0.31c-0.56-1.04,0.42-0.89,0.85-0.95l-0.65-0.34c0.54-0.49-1.24-2.21,1.16-1.14l-0.43-0.22
				c-0.01-0.37-0.19-1.05,0.59-0.82c-0.24-0.18-0.52-0.44-0.52-0.59c0.9,0.45,0.46-0.23,0.57-0.69c-0.38,0.08-1.37-0.74-1.8-0.68
				c-0.69-1.3,1.52,0.35,1.83-0.12c-0.34-0.65-0.76-0.18-1.2-0.39c1.07-0.29-1.41-3.15,1.01-2.1l0.46,0.77
				c0.65,0.05,0.76-0.11,0.53-0.21c0,0.14-0.21,0.03-0.43-0.08c-0.49-1.6,2.47-0.23,2.64-1.39c-0.44-0.21-0.65-0.18-0.99-0.41
				c-0.14-0.68,2.32,1.04,1.94-0.17l-0.55-0.19c-0.13-0.4,0.64-0.1,0.76,0.02c-1.79-1.26,1.02-1.29-1.03-3.34
				c1.2,0.36,2.58-0.02,2.22-0.66c-0.83-1.13-1.43-0.46-2.35-1.29c0.2-0.31,1.31,0.2,1.26-0.5c1.02,0.67,1.44,2.28,2.6,1.8
				l-0.46-0.49c0.01,0.14,0.14,0.4-0.08,0.44c-0.77-0.15-0.58-0.6-0.81-0.84l0.93-0.73c1.13,0.65,0.5,1.04,0.73,1.28
				c0.27-0.89-0.72-2.82,0.45-3.04l-0.45-0.2c1.49-0.28-1.65-1.81,0.54-1.37c-0.04-0.55-1.24-0.62-0.96-1.23
				c0.1-0.16,0.45,0.2,0.57,0.31c0.83-0.44-0.84-0.97,0.57-0.95l-1.24-0.61c1.28-0.24,3.8,0.25,3.72-0.72
				c-0.92-0.53-1.09-0.07-1.87-0.34c2.17,0.14,1.55-2,2.93-2.27c0.61,0.72,2.02,0.72,2.32,1.64c-1.25-0.59-0.64,0.14-0.95,0.34
				c2.82,1.13-0.04-2.68,2.25-1.45l-0.82-0.68c0.21-0.04,1.09,0.06,1.23,0.45l-0.01-1.27c-0.88-0.1-2.86-0.4-2.02,0.41
				c-1.12-0.34-0.4-0.77-1.64-1.22c1.87,0.32-0.4-0.77,0.31-1.19c1.12,1.09,2.15,0.47,2.76,0.89c-0.11-0.36,0.77-0.44,1.32-0.34
				c0.35-0.29-0.19-1.77,0.62-2.07c-0.54-0.03-1.3-0.02-2.11-0.55c0.65,0.01,0.83-0.32-0.1-0.97c-2.39-0.07,2.01,1.7,0.3,1.91
				c-1.24-0.45-1.66-0.37-2.28-0.09c-0.5-0.61-0.83-0.68-1.53-1.24c2.68,0.86,1.16-1.37,2.77-1.42c0.88,0.1,2.18,1.24,2.88,0.68
				l0.32,1.06c-0.22-1.08,0.78,0.26,1.39-0.14l-0.89-0.24c0.07-0.43,0.28-0.48,0.94-0.33l-1.34-0.43c-0.03-0.27,0.04-0.71,0.73-0.29
				c-0.25-0.22-0.47-0.38-0.67-0.5c0.22,0.08,0.39,0.07,0.49-0.17c-0.21,0.04-0.2,0.18-0.54-0.03c0.79-0.65-1.14-0.98-0.71-1.42
				c-0.32-0.09-0.56-0.44-0.59-0.71c1.82,1.15,2.69,0.29,3.87,0.66l-0.03-0.01l1.16-0.22c-0.24,0.04-0.64-0.42-0.71-0.74l-0.01,0.04
				c-0.14-0.4-2.14-0.99-1.2-1.31l0.75,0c-0.1,0.02-0.34-0.22-0.46-0.34l0.72-0.04c-1.35-1.62,1.6-0.41,1.18-1.57
				c0.02,0.27-0.28,0.47-0.75,0c-0.13-0.26,0.19-0.31,0.52-0.23l-0.22-0.1l1.9-0.47c-0.67-0.3-1.15,0.34-1.65-0.41
				c-0.71-0.71,0.39-0.49,0.59-0.66c0.46,0.34,0.62,1.01,1.14,0.78c-0.2-0.2-0.44-0.9-0.9-0.95c0.75-0.09,1.44-0.49,2.51-0.3
				c-0.13-0.25-0.45-0.2-0.55-0.18l0.12,0.12c-0.42,0.07-1.24-0.77-1.06,0.04c-1.58-0.99,0.02-0.99,0.09-1.55l-1.51-0.03
				c-1.37-2.57,1.99-2.56,2.77-3.65c0.25,0.66-0.39,0.62,0.84,1.41c1.05-0.29,0.72-0.39,1.44-0.9l-0.1,0.01
				c-0.36-0.78,1.16-0.43,0.25-1.42c-0.76-0.31,0.26,0.93-1.07,0.01l0.71-0.79c-0.98-0.28-0.72,0.79-1.14,0.99
				c-0.09,0.29,0.52-0.35,1.31,0.37c-0.61,0.77-1.6,0.35-3.13-0.11c-1.09-0.39-0.7-1.02-0.6-1.17c1.75,0.44,2.91,0.14,2.86-1.1
				l-0.69-1.16c1.19,0.25,2.86,1.7,3.14,0.83l-0.87-0.3c-0.17-0.36-0.19-0.53-0.13-0.6c-0.76-0.08-1.61-0.19-2.37-0.31
				c-1.24-1.51,1.59-0.64,2.34-1c-0.22-0.11-0.43,0.05-0.86-0.17c0.3-1.15,2.78-0.75,3.52-1.25c-0.45-0.78-0.85,0.24-1.73-0.63
				c0.64-0.08,0.09-1.13,1.06-0.54c-1.41-0.81,0.52-0.9-1.2-1.12c0.41-1.72,2.7-2.23,4.41-2.95c-0.43-0.24-0.75-0.48-0.97-0.74
				c-0.32,0.45-1.18,0.81-2.26,0.37c-0.43-0.79,1.4-0.01,1.08-0.39c-0.43-0.1-0.65,0.2-1.29-0.29c-0.43-0.94,0.75-0.36,1.08-0.53
				l0.21,0.4c1.51-0.15,2.57,1.28,2.9,0.14c-0.52-0.92-0.64-0.5-1.6-1.25c0.54,0.09,0.02-1.38,1.2-0.79l-0.34,0.59
				c0.56-0.15,0.83-0.5,1.37-0.49c-0.23-0.14-0.45-0.28-0.6-0.27c0.54-0.04,0.76-0.48,1.51-0.12l-0.95-0.9
				c0.31,0.53-0.02,1.11-0.66,0.75c-0.85-0.76,0.12-0.84,0.24-1.13c-1.09,0.78-2.69-0.46-2.72,0.92l0.43,0.1
				c0.34,1.14-1.37,0.69-1.71,1.2c-0.11-0.3-0.46-0.62-0.68-0.69c-0.02,1.68-1.42,2.25-1.86,3.83l-1.3-0.41l0.76,0.61
				c-0.1,0.86-1.19-0.7-1.4-0.25c0.11-0.15,0.22-0.03,0.43,0.09c-1.4,0.03,0.44,0.93-0.1,1.14c0.97,0.44,0.86-0.53,1.83,0.48
				c-1.4,0.03-1.7,1.47-3.67,0.18c-0.21,1.84-2.55,2.61-3.5,3.61c0.23,0.39,0.33,0.09,0.56,0.34c-1.42-0.34-0.26,2.01-1.26,1.32
				c0.12,0.4,0.8,1,1.03,1.25c-0.67-0.05-1.14,0.13-1.52,0.4l0.46-0.07l0.12,0.12l-0.65,0.11l-0.05-0.06c-0.9,0.71-1.37,1.9-3,2.01
				c0.97-0.04,1.14,0.93,1.69,0.97c-1.88-0.65-2.58,0.34-2.95,1.26c0.34,0.22,0.57,0.46,0.91,0.54l-0.98,0.04l0.45,0.2
				c-0.26,1.04-2.65,0.81-2.24,1.86c0.41-0.23,0.76-0.01,1.33,0.31c-0.43,0.58-0.81,1.14-1.76,1.54c0.12,0.03,0.26,0.07,0.38,0.15
				c0.02,0.28-0.52,0.25-0.84,0.31l0.81,0.54c-0.61,0.13-0.48,0.86-1.4,0.88c0.8,0.73-1.49,0.52-1.42,1.26
				c-0.32,0.07,1.21,0.17,0.83,0.68c-1.84-1.03-0.47,0.66-2.43-0.49l0.42,0.9l-1.03-0.49c1.56,1.51-1.18,0.1-0.97,1.05
				c0.23,0.1,0.33,0.08,0.45,0.19c-0.32,0.07-0.71,0.43-1-0.22c-0.19,0.32-1.29,1.11,0.02,1.26c-0.57-0.31,0.17-0.45,0.48-0.52
				c0.81,0.54,0.19,0.81,1.02,1.48c-0.1-0.04-0.28-0.07-0.44-0.11l0.47,0.38c-1.27,0.02-0.99,1.02-2.43,0.72
				c0.24,0.18,0.37,0.41,0.19,0.57l-1.04-0.64l-0.36,0.63l1.68,0.65c-0.12,0.87-2.13,0.28-2.73,0.67c1.63,1.23-1.33,0.67-0.11,2.11
				l0.74-0.14c-0.9,0.72,0.05,1.54-1.09,2.02c-0.1-1.09,0.24-0.88-0.49-2.83c0.05,1.53-2.13,1.22-1.76,2.82
				c0.45,0.2,0.87,0.12,1.13,0.63c-1-0.38-0.56,0.93-1.49,0.12c0.15,0.53,1.08,1.2,1.1,1.48l-1.91,0.19l0.22,0.1
				c1.22,3.26-3.68,2.11-3.82,4.46l0.56,0.33l-1.08-0.12c0.75,0.03,0.57,0.6,1.02,0.95l-1.91,0.27
				C198.9,123.24,200,123.91,199.98,123.5z M209.91,109.31l0.24-0.22c-0.02-0.09,0-0.15,0.15-0.14l-0.15,0.14
				C210.2,109.31,210.57,109.69,209.91,109.31z M228.08,85.88c0.55,0.21,0.01,0.28,0.01,0.42l0.43-0.33
				C228.29,85.71,228.19,85.87,228.08,85.88z M216.59,113.46l0.6,0.58l-0.66-0.15L216.59,113.46z M214.25,117.31l0.64-0.13
				l0.12,0.12l-0.64,0.12L214.25,117.31z M206.04,117.93c0.06,0,0.1,0,0.18,0.02C206.18,117.96,206.11,117.95,206.04,117.93
				c-0.68-0.04,0.47,0.88-0.86,0.34C204.35,117.32,205.51,117.82,206.04,117.93z M210.23,111.35c0.21-0.04,0.32-0.06,0.3-0.2
				c-0.45-0.19-1.22-0.32-1.25-0.59c0.56,0.17,0.95-0.19,1.64,0.24C209.95,110.71,211.71,112.18,210.23,111.35z M216.26,102.65
				l0.01,0.14l0.76-0.02L216.26,102.65z M217.99,101.45c1.01,0.36,1.17-0.24,1.59-0.46c-0.7-0.57-1.8-0.77-1.98-0.31
				C216.62,100.73,218.66,101.6,217.99,101.45z M209.73,115.09l0.67,0.29l0.02,0.14l0.63-0.12c0.53,1.03-1.25,0.38-1.68,0.46
				C209.57,115.68,211.43,116.02,209.73,115.09z M220.64,98.23c0.76,0,1.83-0.2,2.4,0.26c-1.14-0.78-2-0.62-2.09-0.46
				C220.96,98.17,220.86,98.2,220.64,98.23z M222.81,99.66c-0.86,0.16-1.41-0.15-2.74-0.46c-0.17-0.82,1.41,0.01,1.98,0.46
				c0.76,0-0.03-0.42-0.05-0.69L222.81,99.66z M219.22,98.09l0.03,0.31c0.33,0.55,1.61,1.45,0.08,0.95l-0.08-0.95
				C219.17,98.27,219.14,98.16,219.22,98.09z M222.07,93.88l-0.53-0.06C221.71,93.64,221.9,93.74,222.07,93.88l0.45,0.05
				C222.63,94.66,222.39,94.16,222.07,93.88z M220.25,97.32l-0.51,0.52C220.31,98.16,220.27,97.6,220.25,97.32z M223,94.69
				c-0.1,0.3-0.36,1.06-0.38,0.92C222.05,95.15,222.56,94.63,223,94.69z M233.67,83.11l-0.33,0.31l-0.65-0.76L233.67,83.11z
				 M231.14,87.72l-0.33-0.38l0.21-0.16L231.14,87.72z M228.39,91.65c-0.16-0.14-0.39-0.28-0.59-0.38c-0.11,0.01-0.25-0.01-0.44-0.1
				c0.04-0.06,0.22,0,0.44,0.1c0.29-0.03,0.36-0.33,0.19-0.61c-0.44-0.22-0.54,0.08-0.87-0.01c-0.68-1.03,2.71,0.17-0.16-1.52
				c0.43,0.08,1.51,0.06,1.85,0.58C228.37,90,228.11,90.99,228.39,91.65c0.13,0.12,0.22,0.23,0.19,0.32
				C228.5,91.88,228.44,91.77,228.39,91.65z M225.34,97.38c-0.17,0.11-0.29,0.12-0.4,0.09c-0.29-0.01-0.66-0.11-1.02-0.4
				c0.54-0.1,0.72,0.31,1.02,0.4C225.11,97.47,225.26,97.45,225.34,97.38z M224.88,98.44l0.85-0.15l-0.76-0.15l1.61,0
				C226.85,98.94,225.67,98.87,224.88,98.44z M225.3,98.97l-0.73-0.33l0.78,0.29L225.3,98.97l0.17,0.08l-0.92,0.58L225.3,98.97z
				 M218.5,106.71c2.13,1.76,2.11,0.27,3.34,0.81c-0.75-0.52-1.76-1.59-2.25-0.75c-0.34-1.2,1.78,0.49,0.1-1.15
				c-0.07,0.43-0.93,0.47-1.03,0.49l0.17-0.45C217.25,105,219.15,106.72,218.5,106.71z M216.16,111.29l-0.38,0.5l0.5-0.38
				L216.16,111.29z M208.43,124.7c0.56,0.32,1.07,1.65-0.04,1.13C208.48,125.39,208.78,125.06,208.43,124.7z M204.52,130.08
				l0.85-0.27c1.12,0.95-0.41,0.48-0.39,0.9C204.31,130.39,204.86,130.45,204.52,130.08z M201.84,133.79l-0.32,0.04l1.31,0.66
				L201.84,133.79z M203.59,134.68c0.45,0.5,0.98,0.28,0.98,0.14L203.59,134.68z M202.17,138.78l0.1-0.29l-1.2-0.55L202.17,138.78z
				 M201.24,137.51c0.79,0.49,1.78,1.26,1.68,0.34c-0.77-0.6-0.87-0.45-1.65-1.32c-0.32,0.04-0.1,0.43-0.1,0.57
				c0.22-0.03-0.01-0.42,0.54-0.07C201.86,137.44,201.6,137.58,201.24,137.51c-0.28-0.18-0.54-0.32-0.71-0.33
				C200.77,137.34,201.02,137.46,201.24,137.51z M201.86,134.92c-0.04-0.14-0.1-0.28-0.21-0.4l0.22,0.11
				C202.16,134.95,202.04,134.96,201.86,134.92c0.05,0.15,0.07,0.31,0.09,0.47c0.62,0.54,1.34,0.5,1.79,0.66
				c-0.32,0.04-1.08-0.27-0.85,0.26c0.22,0.11,0.33,0.24,0.43,0.08l-0.09,0.43c-1.2-0.3-1.22-0.86-1.27-1.44
				c-0.14-0.12-0.27-0.26-0.39-0.44C201.5,134.82,201.7,134.89,201.86,134.92z M198.47,136.45l0.32-0.04
				c0.33,0.1,0.54,0.35,0.76,0.46C199.34,137.04,198.69,136.98,198.47,136.45z M205.9,125.53c0.12,0.26,1.11,0.53,1.09,0.11
				l0.91,0.83c-0.67-0.45-0.96,0.15-1.07,0.17C205.82,126.1,206.37,126.16,205.9,125.53z M214.24,112.66
				c1.37,0.71,1.03-0.49,1.47-0.44C215.77,112.77,215.54,113.81,214.24,112.66z M214.48,111.09c0.14-0.18,0.05-0.32,0.69,0.11
				c0.33,0.08,0.08-0.3,0.41-0.22C215.93,111.72,214.9,111.05,214.48,111.09c-0.04,0.05-0.08,0.1-0.17,0.15
				C214.32,111.14,214.39,111.1,214.48,111.09z M209.61,118.6l-1.11-0.36l-0.18,0.45L209.61,118.6z M205.12,121.75
				c0.56,0.33,0.27,0.79-0.06,0.71c0.73,0.45,0.84,0.08,1.07-0.11c0.08,0.01,0.15-0.02,0.2-0.1c-0.08,0.01-0.14,0.05-0.2,0.1
				c-0.23-0.02-0.55-0.33-0.79-0.49l-0.13-0.26l-0.42,0.2L205.12,121.75z M199.28,128.57c0.35,0.65,0.13,0.54-0.19,0.58
				C198.87,128.9,198.96,128.62,199.28,128.57z M206,119.1c0.05,0.69,1.22,0.49,1.37,1.02l0.09-0.29c0.5,0.89-0.99-0.26-0.96,0.16
				l-0.02-0.27c-0.59-0.59-0.65-0.03-1.21-0.35C205.12,118.97,205.97,118.83,206,119.1z M198.54,128.67
				c0.36,0.92-0.97-0.15-1.28,0.03C196.9,127.92,198.12,128.87,198.54,128.67z M202.03,120.57l-0.11-0.12l-0.63,0.1l0.12,0.12
				L202.03,120.57z"/>
		</g>
		<g>
			<path class="st0" d="M205.09,134.19c0.01,0.17-0.06,0.23-0.16,0.26C204.95,134.34,205,134.25,205.09,134.19z"/>
		</g>
		<g>
			<path class="st0" d="M220.12,113.01c-0.18-0.13-0.25-0.23-0.28-0.32C219.94,112.76,220.04,112.86,220.12,113.01z"/>
		</g>
		<g>
			<path class="st0" d="M221.14,112.38c0.01-0.01,0.01-0.02,0.03-0.03l0.08,0.01L221.14,112.38z"/>
		</g>
		<g>
			<path class="st0" d="M239.82,80.46c0.96,0.47,0,0.28-0.12,0.42C239.82,80.74,239.29,80.23,239.82,80.46z"/>
		</g>
		<g>
			<path class="st0" d="M237.56,80.51c0.31,0.11,0.57,0.12,0.76,0.02C238.27,80.64,238.1,80.68,237.56,80.51z"/>
		</g>
		<g>
			<path class="st0" d="M238.65,79.87c-0.01,0.36-0.13,0.57-0.33,0.67C238.4,80.36,238.18,79.99,238.65,79.87z"/>
		</g>
		<g>
			<path class="st0" d="M235.4,83.77c0.65,0.21,0.65-0.34,0.65-0.34c-0.11,1.12,1.08,0.59,1.5,0.82
				C237.01,84.58,236.37,84.09,235.4,83.77z"/>
		</g>
		<g>
			<path class="st0" d="M234.36,84.57c0.05-0.08,0.09-0.17,0.06-0.29C234.5,84.46,234.45,84.53,234.36,84.57z"/>
		</g>
		<g>
			<path class="st0" d="M234.64,85.23c-0.32,0.17-0.97-0.18-1.51-0.39c-0.17-0.63,0.91-0.14,1.23-0.26
				C234.23,84.76,234.03,84.9,234.64,85.23z"/>
		</g>
		<g>
			<path class="st0" d="M231.54,95.43c0.11-0.02,0.21-0.17,0.54,0.06l-0.3,0.45C231.47,95.99,231.55,95.57,231.54,95.43z"/>
		</g>
		<g>
			<path class="st0" d="M228.8,95.98c-0.3,0.33,0.69,0.73,0.37,0.77l-1.13-0.8L228.8,95.98z"/>
		</g>
		<g>
			<path class="st0" d="M223.17,91.84l0.19-0.03c-0.04,0.03-0.08,0.06-0.13,0.1L223.17,91.84z"/>
		</g>
		<g>
			<path class="st0" d="M228.75,98.49l1.44,0.6C229.66,99.17,228.64,98.5,228.75,98.49z"/>
		</g>
		<g>
			<polygon class="st0" points="228.69,100.44 229.23,100.49 228.41,100.9 			"/>
		</g>
		<g>
			<polygon class="st0" points="226.98,101.71 227.21,101.94 226.59,102.19 			"/>
		</g>
		<g>
			<path class="st0" d="M214.13,119.73c-1.14-0.63-0.19-1.09-0.34-1.49C215.07,119.27,212.95,118.55,214.13,119.73z"/>
		</g>
		<g>
			<path class="st0" d="M205.06,133.21l0.74-0.52C205.83,133.52,205.7,132.84,205.06,133.21z"/>
		</g>
	</g>
	<g>
		<g>
			<path class="st0" d="M282.35,136.08c-0.03,0.06-0.02,0.13-0.04,0.19C282.2,136.18,282.17,136.12,282.35,136.08z"/>
		</g>
		<g>
			<path class="st0" d="M282.83,137.98c-0.28-0.39-0.7-1.02-0.52-1.72C282.68,136.53,284.05,137.03,282.83,137.98z"/>
		</g>
		<g>
			<path class="st0" d="M284.39,134.62l-0.05,0.76C283.8,135.31,284.44,134.97,284.39,134.62z"/>
		</g>
		<g>
			<polygon class="st0" points="283.31,135.6 282.81,135.89 283.1,135.32 			"/>
		</g>
		<g>
			<path class="st0" d="M259.8,115.58c-0.14,0.21-0.31,0.43-0.58,0.64L259.8,115.58z"/>
		</g>
		<g>
			<path class="st0" d="M260.74,112.81c-0.02-0.15-0.05-0.24-0.08-0.32C260.74,112.52,260.75,112.62,260.74,112.81z"/>
		</g>
		<g>
			<path class="st0" d="M260.84,116.34l-0.23-0.12C260.73,116.22,260.82,116.26,260.84,116.34z"/>
		</g>
		<g>
			<path class="st0" d="M272.53,126.25c-0.17,0.43-0.33,0.83-0.44,1.12C271.49,127.3,272.18,126.69,272.53,126.25z"/>
		</g>
		<g>
			<path class="st0" d="M262.63,102.57l-0.38,0.26C262.36,102.65,262.49,102.49,262.63,102.57z"/>
		</g>
		<g>
			<path class="st0" d="M266.08,107.38c-0.19,0.18-0.34,0.31-0.46,0.39c0.01-0.04,0.01-0.08,0.03-0.13L266.08,107.38z"/>
		</g>
		<g>
			<path class="st0" d="M262.18,116.42c0.02-0.01,0.03-0.02,0.05-0.02l-0.07,0.34C262.02,116.72,262.03,116.61,262.18,116.42z"/>
		</g>
		<g>
			<path class="st0" d="M261.87,100.76c0.14-0.23,0.33-0.49,0.61-0.82C262.44,100.21,262.16,100.56,261.87,100.76z"/>
		</g>
		<g>
			<path class="st0" d="M260.63,112.47l0.01-0.02c0.01,0.01,0.01,0.03,0.01,0.04C260.64,112.48,260.64,112.47,260.63,112.47z"/>
		</g>
		<g>
			<path class="st0" d="M267.07,109.17c-0.01-0.13-0.04-0.24-0.04-0.39C267.19,108.8,267.17,108.97,267.07,109.17z"/>
		</g>
		<g>
			<path class="st0" d="M272.53,126.25c0.05-0.12,0.1-0.24,0.15-0.37C272.73,125.96,272.65,126.09,272.53,126.25z"/>
		</g>
		<g>
			<path class="st0" d="M280.6,135.31c-0.11-0.16,0.13-0.38,0.38-0.59C280.92,134.89,280.8,135.08,280.6,135.31z"/>
		</g>
		<g>
			<path class="st0" d="M236.44,80.69l-0.03-0.07C236.45,80.64,236.45,80.67,236.44,80.69z"/>
		</g>
		<g>
			<path class="st0" d="M239.12,87.86c-0.07,0.08-0.15,0.17-0.26,0.27C238.72,88.13,238.88,87.99,239.12,87.86z"/>
		</g>
		<g>
			<path class="st0" d="M252.08,87.77c-0.81-0.03,0.07-1.16-0.09-1.53l-0.4,0.42l0.18-0.59l-0.68,0.44
				c-0.06-0.75-1.18-1.05-0.22-1.93l-1.06,0.75l0.5-1.15l-0.53,0.81c-0.65-0.55-0.42-2.12-0.52-2.26l-0.38,0.31
				c-0.28,0.01-0.06-0.24,0-0.44l-0.57,0.46c-0.45-1.14-2.06-0.59-2.06-2.18c-0.33-0.24-0.1,0.3-0.45,0.51
				c-0.6,0.11-0.36-0.59-0.13-0.84c-0.93,0.66-0.34,0.99-1.35,1.06c0.33-0.55-0.8,0.71-0.88,0.11l1.15-0.91
				c-0.37-0.14-1.02,0.51-1.13,0.01c0.28-0.8,1.76-0.22,1.51-1.1c-0.3-0.34-3.39,0.82-3.14-0.32c-1.03-0.29-1.78,1.44-1.97,0.35
				l-0.5,1.05c-0.45,0.05-1.03,0.49-0.98-0.06c0.42-0.4,0.91-0.99,0.86-1.24c-0.48,1.39-1.88,0.03-2.67,1.52l-0.12-0.33
				c-0.03,0.06-0.15,0.14-0.25,0.17l-0.31-0.36c-0.14,0.4,0.08,1.06-1.01,1.29l-0.57-0.46c-0.62,0.54-1.03,0.48-1.58,0.83l-0.38,2.5
				c0.38-0.3,0.52-0.71,1-0.85c0.63,0.26-0.55,0.81,0.28,0.92l0.45-0.5c-0.19,0.15-0.23,0.25-0.35,0.2
				c-0.45,0.05-0.06-0.26,0.29-0.45c0.8-0.24,0.57,0.46,0.15,0.87c0.41,0.52,1.34-0.6,1.63-0.6c-1.03,0.96,0.56,0.93,0.21,1.59
				l0.64-0.66c1.17-0.1,0.62,0.72,0.49,1.12l0.57-0.46c0.22,0.67,2.48-0.27,0.53,1.48l0.38-0.31c0.34,0.13,1.03,0.21,0.51,0.84
				c0.26-0.15,0.61-0.3,0.75-0.25c-0.78,0.64,0.02,0.5,0.39,0.76c0.08-0.37,1.23-0.95,1.35-1.36c1.46-0.14-0.93,1.23-0.64,1.68
				c0.73-0.07,0.47-0.62,0.84-0.93c-0.17,1.07,3.4-0.12,1.48,1.67l-0.88,0.13c-0.3,0.57-0.21,0.72-0.02,0.56
				c-0.13-0.05,0.06-0.2,0.25-0.36c1.63,0.14-0.8,2.32,0.2,2.89c0.37-0.32,0.42-0.53,0.76-0.75c0.67,0.11-1.85,1.73-0.6,1.81
				l0.39-0.43c0.42,0.02-0.16,0.62-0.31,0.68c1.84-1.19,0.78,1.39,3.43,0.23c-0.81,0.98-0.99,2.37-0.25,2.25
				c1.34-0.38,0.95-1.15,2.06-1.71c0.21,0.28-0.67,1.12-0.02,1.31c-0.99,0.71-2.64,0.55-2.62,1.77l0.62-0.26
				c-0.13-0.04-0.42-0.01-0.37-0.22c0.42-0.65,0.77-0.32,1.08-0.46l0.32,1.09c-1.01,0.82-1.14,0.11-1.44,0.24
				c0.73,0.55,2.86,0.28,2.62,1.43l0.35-0.35c-0.28,1.47,2.25-0.95,1.07,0.94c0.53,0.13,1.01-0.95,1.47-0.51
				c0.11,0.14-0.34,0.35-0.49,0.43c0.11,0.9,1.18-0.48,0.68,0.82l0.99-0.96c-0.23,1.24-1.58,3.47-0.62,3.67
				c0.79-0.7,0.42-0.99,0.94-1.63c-0.85,1.97,1.35,2.01,1.15,3.38c-0.87,0.36-1.32,1.69-2.28,1.7c0.95-1,0.08-0.64-0.01-0.99
				c-1.95,2.32,2.51,0.77,0.65,2.55l0.89-0.58c-0.02,0.21-0.39,1.01-0.81,1.04l1.21,0.35c0.36-0.81,1.25-2.58,0.22-2.02
				c0.66-0.95,0.84-0.17,1.65-1.2c-0.88,1.67,0.84-0.17,1.02,0.61c-1.37,0.76-1.09,1.9-1.67,2.37c0.37-0.01,0.18,0.86-0.07,1.35
				c0.17,0.42,1.73,0.29,1.78,1.14c0.18-0.51,0.39-1.23,1.13-1.86c-0.19,0.61,0.06,0.87,0.94,0.15c0.76-2.24-2.18,1.48-1.89-0.19
				c0.78-1.05,0.83-1.48,0.77-2.13c0.71-0.31,0.88-0.6,1.62-1.12c-1.62,2.31,0.93,1.42,0.5,2.96c-0.35,0.8-1.79,1.76-1.46,2.57
				l-1.09,0.04c1.08,0.07-0.47,0.68-0.26,1.36l0.48-0.79c0.39,0.17,0.38,0.39,0.05,0.98l0.78-1.17c0.27,0.04,0.66,0.21,0.07,0.77
				c0.28-0.19,0.49-0.35,0.66-0.51c-0.14,0.18-0.18,0.36,0.02,0.51c0.02-0.21-0.12-0.23,0.18-0.51c0.4,0.9,1.23-0.85,1.53-0.34
				c0.17-0.28,0.57-0.43,0.83-0.39c-1.59,1.46-1.01,2.49-1.67,3.53l0.02-0.02l-0.1,1.16c0.02-0.24,0.57-0.51,0.89-0.5l-0.03-0.02
				c0.41-0.05,1.51-1.82,1.56-0.85l-0.2,0.72c0.01-0.1,0.29-0.28,0.44-0.36l-0.15,0.69c1.89-0.93-0.04,1.62,1.17,1.47
				c-0.27-0.04-0.37-0.37,0.2-0.72c0.28-0.07,0.25,0.25,0.09,0.54l0.15-0.19l-0.05,1.9c0.46-0.57-0.01-1.17,0.82-1.48
				c0.86-0.52,0.36,0.48,0.47,0.71c-0.44,0.36-1.11,0.37-1.03,0.91c0.24-0.15,0.97-0.23,1.13-0.65c-0.11,0.74,0.08,1.47-0.39,2.45
				c0.27-0.07,0.31-0.38,0.32-0.48l-0.14,0.08c0.04-0.42,1.05-1.01,0.24-1.02c1.35-1.29,0.92,0.24,1.44,0.42l0.42-1.42
				c2.8-0.76,1.88,2.44,2.7,3.42c-0.69,0.1-0.48-0.5-1.55,0.49c-0.01,1.06,0.17,0.77,0.46,1.55l0.01-0.1
				c0.83-0.17,0.08,1.19,1.25,0.55c0.5-0.65-0.94,0.04,0.29-1.02l0.54,0.85c0.54-0.86-0.54-0.85-0.61-1.29
				c-0.24-0.15,0.18,0.57-0.71,1.16c-0.55-0.75,0.09-1.58,0.94-2.93c0.66-0.95,1.14-0.44,1.27-0.31c-0.87,1.55-0.93,2.73,0.26,2.95
				l1.28-0.39c-0.57,1.07-2.39,2.31-1.65,2.77l0.53-0.75c0.38-0.08,0.55-0.06,0.6,0.01c0.29-0.69,0.63-1.47,0.95-2.16
				c1.76-0.81,0.18,1.64,0.3,2.43c0.17-0.18,0.07-0.42,0.4-0.78c0.99,0.56-0.09,2.8,0.16,3.61c0.86-0.23,0.02-0.86,1.09-1.47
				c-0.11,0.62,1.03,0.35,0.2,1.13c1.17-1.12,0.69,0.7,1.4-0.85c1.52,0.8,1.29,3.09,1.45,4.86c0.35-0.34,0.68-0.57,0.99-0.71
				c-0.32-0.42-0.4-1.31,0.34-2.21c0.87-0.2-0.41,1.31,0.04,1.11c0.22-0.38,0-0.66,0.66-1.13c1.01-0.16,0.11,0.8,0.17,1.15
				l-0.44,0.1c-0.32,1.44-1.98,2.07-1.01,2.66c1.02-0.25,0.66-0.46,1.66-1.16c-0.26,0.48,1.28,0.39,0.36,1.34l-0.44-0.47
				c-0.03,0.56,0.2,0.91,0.02,1.4c0.2-0.17,0.41-0.34,0.44-0.48c-0.13,0.51,0.21,0.84-0.37,1.44l1.14-0.64
				c-0.6,0.14-1.03-0.32-0.49-0.82c0.98-0.59,0.75,0.34,0.98,0.53c-0.39-1.23,1.28-2.39-0.01-2.79l-0.23,0.38
				c-1.17,0.01-0.23-1.46-0.61-1.91c0.31-0.02,0.72-0.27,0.85-0.46c-1.58-0.46-1.69-1.93-3.05-2.75l0.76-1.12l-0.8,0.56
				c-0.78-0.31,1-0.95,0.64-1.26c0.11,0.14-0.04,0.21-0.21,0.39c0.37-1.33-1.01,0.18-1.05-0.38c-0.69,0.81,0.25,0.94-0.98,1.61
				c0.38-1.32-0.9-1.96,0.88-3.51c-1.67-0.66-1.78-3.04-2.46-4.19c-0.43,0.13-0.18,0.29-0.47,0.45c0.71-1.28-1.84-0.72-0.92-1.51
				c-0.42,0.03-1.16,0.54-1.45,0.7c0.22-0.63,0.18-1.11,0.03-1.54l-0.05,0.45l-0.15,0.08l0.07-0.64l0.07-0.04
				c-0.43-1.02-1.44-1.73-1.12-3.29c-0.22,0.93-1.18,0.88-1.36,1.39c1.11-1.65,0.36-2.53-0.42-3.09c-0.29,0.28-0.58,0.45-0.74,0.75
				l0.22-0.93l-0.31,0.38c-0.91-0.45-0.05-2.68-1.15-2.52c0.1,0.44-0.2,0.72-0.64,1.19c-0.43-0.53-0.86-1.02-0.97-1.99
				c-0.06,0.11-0.14,0.22-0.24,0.33c-0.26-0.03-0.08-0.54-0.06-0.86l-0.73,0.64c0.05-0.6-0.67-0.64-0.43-1.52
				c-0.91,0.59-0.07-1.52-0.76-1.61c0.03-0.31-0.51,1.09-0.87,0.62c1.5-1.49-0.47-0.6,1.17-2.16l-0.95,0.18l0.76-0.84
				c-1.86,1.11,0.26-1.12-0.67-1.14c-0.16,0.19-0.17,0.29-0.31,0.38c0.04-0.31-0.16-0.76,0.51-0.87c-0.23-0.24-0.58-1.44-1.14-0.27
				c0.46-0.46,0.36,0.26,0.31,0.57c-0.74,0.63-0.79-0.01-1.67,0.6c0.07-0.08,0.15-0.24,0.24-0.39l-0.5,0.34
				c0.39-1.18-0.62-1.16,0.13-2.41c-0.25,0.18-0.49,0.24-0.59,0.04l0.92-0.8l-0.45-0.49l-1.15,1.38c-0.74-0.34,0.48-2.03,0.33-2.68
				c-1.67,1.17-0.14-1.38-1.87-0.64l-0.13,0.71c-0.35-1-1.4-0.38-1.42-1.55c1.02,0.2,0.69,0.49,2.71,0.33
				c-1.4-0.36-0.3-2.26-1.88-2.36c-0.34,0.35-0.43,0.75-0.98,0.84c0.71-0.8-0.64-0.77,0.44-1.38c-0.53-0.01-1.48,0.63-1.74,0.57
				c0.17-0.59,0.36-1.19,0.56-1.78l-0.18,0.17c-1.68,0.07-1.82-0.94-1.76-2.04c0.04-1.09,0.28-2.31-0.72-2.76l-0.52,0.39l0.54-0.92
				c-0.33,0.66-0.77,0.32-1.26,0.6l0.52-1.78C252.75,86.9,251.7,87.66,252.08,87.77z M261.14,100.88l0.12,0.27
				c0.09,0,0.14,0.04,0.08,0.17l-0.08-0.17C261.04,101.14,260.58,101.39,261.14,100.88z M277.96,123.27
				c-0.35,0.47-0.27-0.06-0.39-0.09l0.19,0.49C278.06,123.52,277.94,123.38,277.96,123.27z M255.17,105.99l-0.73,0.4l0.35-0.58
				L255.17,105.99z M252.36,102.7l-0.09,0.63l-0.15,0.07l0.1-0.63L252.36,102.7z M254.71,94.98c-0.02,0.05-0.04,0.09-0.08,0.16
				C254.64,95.1,254.67,95.04,254.71,94.98c0.29-0.6-0.96,0.15,0.03-0.89C255.91,93.63,255.01,94.54,254.71,94.98z M259.19,100.64
				c-0.03,0.21-0.05,0.31,0.08,0.33c0.33-0.37,0.7-1.04,0.96-0.99c-0.34,0.47-0.16,0.92-0.77,1.45
				C259.87,100.56,257.94,101.79,259.19,100.64z M265.32,108.34l-0.14-0.02l-0.2,0.72L265.32,108.34z M265.95,110.23
				c-0.61,0.87-0.1,1.15,0,1.6c0.72-0.54,1.21-1.54,0.83-1.8C267,109.09,265.63,110.82,265.95,110.23z M255.96,99.17l-0.5,0.53
				l-0.13-0.03l-0.12,0.62c-1.11,0.18,0.1-1.28,0.18-1.69C255.48,98.85,254.5,100.47,255.96,99.17z M268.25,113.44
				c-0.2,0.72-0.29,1.77-0.87,2.22c1.03-0.92,1.11-1.77,0.98-1.89C268.23,113.75,268.23,113.64,268.25,113.44z M266.34,115.19
				c0.07-0.84,0.52-1.31,1.16-2.5c0.81,0.01-0.38,1.33-0.96,1.78c-0.2,0.72,0.4,0.06,0.67,0.09L266.34,115.19z M268.77,112.12
				l-0.3-0.04c-0.61,0.19-1.79,1.22-0.91-0.13l0.91,0.13C268.61,112.03,268.73,112.03,268.77,112.12z M271.99,115.72l0.19-0.49
				C272.3,115.44,272.17,115.6,271.99,115.72l-0.17,0.41C271.11,116.09,271.64,115.97,271.99,115.72z M269.22,113.25l-0.36-0.59
				C268.41,113.14,268.95,113.21,269.22,113.25z M270.98,116.43c-0.26-0.15-0.9-0.57-0.77-0.55
				C270.79,115.44,271.15,116.03,270.98,116.43z M278.96,129.23l-0.19-0.39l0.91-0.41L278.96,129.23z M275.36,125.72l0.45-0.22
				l0.09,0.24L275.36,125.72z M272.42,122.22c0.18-0.12,0.37-0.3,0.52-0.48c0.02-0.11,0.08-0.24,0.21-0.39
				c0.04,0.05-0.06,0.21-0.21,0.39c-0.05,0.28,0.22,0.42,0.52,0.32c0.32-0.37,0.07-0.53,0.25-0.82c1.15-0.41-0.9,2.53,1.48,0.2
				c-0.19,0.39-0.47,1.42-1.05,1.62C273.98,122.58,273.12,122.11,272.42,122.22c-0.15,0.1-0.28,0.16-0.35,0.11
				C272.17,122.27,272.29,122.24,272.42,122.22z M267.82,118.08c-0.05-0.18-0.03-0.3,0.02-0.4c0.08-0.27,0.28-0.61,0.64-0.88
				c-0.05,0.54-0.49,0.62-0.64,0.88C267.8,117.84,267.78,117.99,267.82,118.08z M266.94,117.41l-0.08,0.84l0.34-0.69l-0.43,1.53
				C265.96,119.18,266.34,118.07,266.94,117.41z M266.34,117.7l0.5-0.62l-0.48,0.68L266.34,117.7l-0.11,0.14l-0.3-1.01L266.34,117.7
				z M260.89,109.52c-2.25,1.59-0.86,1.94-1.7,2.97c0.7-0.59,1.98-1.29,1.33-1.96c1.22-0.03-0.96,1.57,1.05,0.37
				c-0.39-0.16-0.18-0.99-0.17-1.09l0.38,0.27C262.85,108.74,260.7,110.13,260.89,109.52z M257.33,106.17l-0.34-0.49l0.2,0.57
				L257.33,106.17z M247.68,94.99c-0.51,0.4-1.92,0.42-1.01-0.42C247.03,94.81,247.23,95.19,247.68,94.99z M244.36,89.58l-0.11,0.86
				c-1.31,0.67-0.27-0.54-0.65-0.68C244.16,89.29,243.89,89.76,244.36,89.58z M242.1,85.84l0.09-0.3l-1.13,0.93L242.1,85.84z
				 M240.59,87.08c-0.63,0.22-0.66,0.77-0.53,0.82L240.59,87.08z M237.5,84.27l0.22,0.2l0.99-0.86L237.5,84.27z M239.03,83.92
				c-0.77,0.52-1.87,1.11-1.01,1.37c0.86-0.46,0.76-0.61,1.88-0.97c0.1-0.3-0.34-0.25-0.47-0.3c-0.07,0.21,0.38,0.15-0.17,0.51
				C238.82,84.49,238.81,84.22,239.03,83.92c0.28-0.18,0.51-0.36,0.6-0.51C239.37,83.56,239.16,83.74,239.03,83.92z M241.07,85.45
				c0.14,0.01,0.29,0.01,0.45-0.04l-0.19,0.16C240.93,85.7,240.97,85.59,241.07,85.45c-0.16-0.02-0.31-0.05-0.46-0.1
				c-0.75,0.35-1,1.02-1.34,1.35c0.09-0.3,0.69-0.86,0.12-0.86c-0.19,0.15-0.35,0.21-0.25,0.36l-0.35-0.25
				c0.77-0.96,1.29-0.77,1.81-0.6c0.16-0.08,0.34-0.15,0.56-0.19C241.31,85.16,241.17,85.32,241.07,85.45z M241.14,81.85l-0.1,0.3
				c-0.23,0.25-0.54,0.35-0.74,0.51C240.25,82.4,240.57,81.85,241.14,81.85z M247.92,92.41c-0.28,0.02-0.91,0.82-0.52,0.95
				l-1.1,0.54c0.67-0.46,0.24-0.93,0.26-1.03C247.43,92.15,247.17,92.62,247.92,92.41z M256.66,104.02
				c-1.11,1.09,0.13,1.09-0.06,1.49C256.06,105.41,255.17,104.92,256.66,104.02z M258.03,104.66c0.13,0.18,0.28,0.13-0.32,0.62
				c-0.17,0.29,0.25,0.15,0.08,0.44C257,105.84,257.95,105.05,258.03,104.66c-0.03-0.05-0.07-0.1-0.08-0.19
				C258.05,104.5,258.05,104.57,258.03,104.66z M252.8,98.02l0.73-0.9l-0.35-0.29L252.8,98.02z M251.63,92.95
				c-0.51,0.4-0.82-0.01-0.62-0.28c-0.68,0.51-0.39,0.73-0.31,1c-0.04,0.07-0.04,0.14,0.01,0.21c0.02-0.08,0.01-0.14-0.01-0.21
				c0.1-0.2,0.5-0.39,0.75-0.56l0.28-0.03l-0.03-0.44L251.63,92.95z M247.84,85.43c-0.72,0.08-0.54-0.07-0.44-0.37
				C247.71,84.95,247.93,85.13,247.84,85.43z M253.69,94.58c-0.64-0.17-0.9,0.96-1.43,0.93l0.23,0.17c-0.99,0.17,0.6-0.82,0.22-0.92
				l0.26,0.07c0.76-0.35,0.27-0.58,0.78-0.99C254.13,93.83,253.94,94.64,253.69,94.58z M248.06,84.73c-0.97,0,0.53-0.81,0.51-1.15
				C249.41,83.54,248.06,84.29,248.06,84.73z M253.88,90.56l0.15-0.07l0.16-0.59l-0.15,0.07L253.88,90.56z"/>
		</g>
		<g>
			<path class="st0" d="M240.42,88.61c-0.16-0.06-0.19-0.14-0.17-0.24C240.34,88.43,240.4,88.5,240.42,88.61z"/>
		</g>
		<g>
			<path class="st0" d="M254.51,109.43c0.17-0.14,0.29-0.18,0.39-0.18C254.8,109.34,254.68,109.4,254.51,109.43z"/>
		</g>
		<g>
			<path class="st0" d="M254.8,110.58c0,0.01,0.02,0.02,0.02,0.03l-0.03,0.08L254.8,110.58z"/>
		</g>
		<g>
			<path class="st0" d="M279.55,135.65c-0.75,0.77-0.26-0.08-0.36-0.22C279.29,135.58,279.93,135.22,279.55,135.65z"/>
		</g>
		<g>
			<path class="st0" d="M280.22,133.53c-0.2,0.26-0.29,0.5-0.26,0.7C279.87,134.16,279.89,134,280.22,133.53z"/>
		</g>
		<g>
			<path class="st0" d="M280.47,134.72c-0.33-0.1-0.49-0.27-0.52-0.48C280.09,134.36,280.51,134.26,280.47,134.72z"/>
		</g>
		<g>
			<path class="st0" d="M277.83,130.68c-0.39,0.55,0.12,0.69,0.12,0.69c-1.01-0.38-0.87,0.86-1.23,1.2
				C276.58,131.99,277.24,131.51,277.83,130.68z"/>
		</g>
		<g>
			<path class="st0" d="M277.39,129.52c0.06,0.07,0.13,0.13,0.25,0.13C277.45,129.67,277.4,129.61,277.39,129.52z"/>
		</g>
		<g>
			<path class="st0" d="M276.69,129.62c-0.06-0.35,0.45-0.87,0.81-1.32c0.66-0.01-0.14,0.88-0.11,1.22
				C277.25,129.34,277.18,129.12,276.69,129.62z"/>
		</g>
		<g>
			<path class="st0" d="M268.01,124.38c-0.01,0.1,0.1,0.23-0.2,0.49l-0.35-0.37C267.5,124.19,267.87,124.35,268.01,124.38z"/>
		</g>
		<g>
			<path class="st0" d="M268.23,121.66c-0.22-0.36-0.87,0.5-0.83,0.18l1.05-0.9L268.23,121.66z"/>
		</g>
		<g>
			<path class="st0" d="M273.63,117.23l-0.02,0.19c-0.02-0.05-0.04-0.09-0.06-0.14L273.63,117.23z"/>
		</g>
		<g>
			<path class="st0" d="M265.89,121.08l-0.95,1.24C265,121.8,265.9,120.98,265.89,121.08z"/>
		</g>
		<g>
			<polygon class="st0" points="264.06,120.61 263.87,121.11 263.7,120.24 			"/>
		</g>
		<g>
			<polygon class="st0" points="263.32,118.7 263.04,118.88 262.96,118.23 			"/>
		</g>
		<g>
			<path class="st0" d="M250.17,101.84c0.98-0.86,1.07,0.15,1.49,0.15C250.27,102.85,251.67,101.11,250.17,101.84z"/>
		</g>
		<g>
			<path class="st0" d="M241.32,88.94l0.17,0.86C240.73,89.52,241.39,89.64,241.32,88.94z"/>
		</g>
	</g>
	<g>
		<g>
			<path class="st0" d="M253.32,20.96c0.08,0,0.15-0.05,0.23-0.06C253.47,21.07,253.41,21.13,253.32,20.96z"/>
		</g>
		<g>
			<path class="st0" d="M255.46,19.37c-0.41,0.53-1.07,1.35-1.91,1.52C253.8,20.33,254.14,18.55,255.46,19.37z"/>
		</g>
		<g>
			<path class="st0" d="M251.3,19.46l0.88-0.35C252.2,19.75,251.69,19.22,251.3,19.46z"/>
		</g>
		<g>
			<polygon class="st0" points="252.62,20.14 253.03,20.54 252.32,20.53 			"/>
		</g>
		<g>
			<path class="st0" d="M230.96,56.94c0.25,0.08,0.49,0.2,0.74,0.44L230.96,56.94z"/>
		</g>
		<g>
			<path class="st0" d="M227.76,56.92c-0.18,0.08-0.28,0.16-0.36,0.22C227.43,57.02,227.54,56.98,227.76,56.92z"/>
		</g>
		<g>
			<path class="st0" d="M231.82,55.41l-0.14,0.32C231.68,55.59,231.73,55.48,231.82,55.41z"/>
		</g>
		<g>
			<path class="st0" d="M243.08,37.26c0.52,0.01,1,0,1.34-0.02C244.38,37.99,243.62,37.46,243.08,37.26z"/>
		</g>
		<g>
			<path class="st0" d="M215.83,59.06l0.32,0.34C215.93,59.35,215.74,59.27,215.83,59.06z"/>
		</g>
		<g>
			<path class="st0" d="M221.4,52.72c0.22,0.15,0.36,0.28,0.45,0.4c-0.05,0-0.09,0.02-0.15,0.01L221.4,52.72z"/>
		</g>
		<g>
			<path class="st0" d="M231.9,53.78c-0.01-0.02-0.02-0.03-0.03-0.05l0.39-0.05C232.24,53.85,232.12,53.88,231.9,53.78z"/>
		</g>
		<g>
			<path class="st0" d="M213.71,60.87c-0.28-0.05-0.6-0.15-1-0.32C213.03,60.47,213.46,60.63,213.71,60.87z"/>
		</g>
		<g>
			<path class="st0" d="M227.37,57.18c-0.01,0-0.01-0.01-0.02-0.01c0.01-0.01,0.03-0.02,0.05-0.03
				C227.39,57.16,227.37,57.17,227.37,57.18z"/>
		</g>
		<g>
			<path class="st0" d="M223.47,50.79c-0.15,0.07-0.28,0.15-0.45,0.21C223.04,50.79,223.24,50.75,223.47,50.79z"/>
		</g>
		<g>
			<path class="st0" d="M243.08,37.26c-0.15,0-0.29,0-0.44,0C242.73,37.16,242.89,37.18,243.08,37.26z"/>
		</g>
		<g>
			<path class="st0" d="M252.71,23.33c-0.16,0.21-0.45,0.06-0.74-0.11C252.18,23.2,252.42,23.23,252.71,23.33z"/>
		</g>
		<g>
			<path class="st0" d="M196.66,102.22l-0.07,0.08C196.59,102.25,196.62,102.23,196.66,102.22z"/>
		</g>
		<g>
			<path class="st0" d="M203.45,94.46c0.11,0.02,0.23,0.04,0.38,0.1C203.87,94.7,203.67,94.62,203.45,94.46z"/>
		</g>
		<g>
			<path class="st0" d="M199.8,80.37c0.15,0.93-1.36,0.72-1.75,1.17l0.58,0.16l-0.73,0.21l0.67,0.46c-0.87,0.59-0.88,2.06-2.14,1.62
				l1.13,0.65l-1.44,0.26l1.06,0.01c-0.44,1.11-2.29,1.99-2.42,2.2l0.46,0.19c0.1,0.3-0.25,0.24-0.49,0.32l0.68,0.29
				c-1.16,1.33-0.09,2.66-1.83,3.84c-0.16,0.54,0.36-0.11,0.7,0.11c0.31,0.56-0.53,0.82-0.88,0.76c1.02,0.51,1.2-0.36,1.6,0.67
				c-0.71,0.05,1.03,0.34,0.41,0.86l-1.37-0.57c-0.04,0.5,0.89,0.71,0.38,1.2c-0.96,0.29-0.82-1.73-1.7-0.8
				c-0.28,0.58,2.02,3,0.69,3.57c0.03,1.3,2.18,0.81,1.05,1.81l1.31-0.24c0.2,0.43,0.89,0.71,0.28,1.06
				c-0.58-0.15-1.4-0.23-1.65,0.01c1.68-0.51,0.69,1.92,2.59,1.67l-0.31,0.36c0.08-0.02,0.2,0.05,0.28,0.14l-0.27,0.58
				c0.48-0.14,1.11-0.83,1.75,0.12l-0.29,0.9c0.8,0.25,0.89,0.71,1.46,1.03l2.79-1.34c-0.46-0.19-0.94-0.04-1.26-0.44
				c0.05-0.83,1.05,0.01,0.88-0.92l-0.69-0.11c0.23,0.09,0.35,0.06,0.33,0.23c0.21,0.43-0.25,0.24-0.58,0.01
				c-0.54-0.65,0.29-0.91,0.87-0.75c0.4-0.78-1.11-0.97-1.21-1.27c1.38,0.4,0.79-1.22,1.62-1.31l-0.92-0.21
				c-0.51-1.15,0.55-1.14,1.03-1.28l-0.68-0.29c0.64-0.68-1.11-2.44,1.4-1.56l-0.45-0.19c0.03-0.44-0.09-1.22,0.75-1.08
				c-0.24-0.18-0.52-0.45-0.51-0.62c0.94,0.4,0.54-0.35,0.71-0.92c-0.42,0.16-1.41-0.67-1.89-0.53c-0.59-1.46,1.63,0.17,2.03-0.44
				c-0.29-0.73-0.81-0.09-1.27-0.28c1.21-0.52-1.13-3.59,1.39-2.69l0.4,0.86c0.71-0.05,0.84-0.25,0.62-0.34
				c-0.01,0.17-0.24,0.07-0.47-0.03c-0.32-1.86,2.75-0.64,3.1-2.05c-0.45-0.2-0.69-0.13-1.03-0.35c-0.05-0.8,2.39,0.94,2.16-0.46
				l-0.57-0.16c-0.08-0.47,0.72-0.21,0.83-0.07c-1.77-1.28,1.32-1.68-0.61-3.9c1.27,0.29,2.84-0.32,2.56-1.06
				c-0.71-1.26-1.5-0.39-2.36-1.29c0.27-0.4,1.41,0.09,1.48-0.74c1,0.7,1.18,2.59,2.54,1.89l-0.42-0.53
				c-0.01,0.17,0.08,0.47-0.17,0.53c-0.81-0.1-0.53-0.67-0.74-0.93l1.15-0.97c1.12,0.67,0.36,1.2,0.58,1.46
				c0.45-1.1-0.29-3.33,1.04-3.71l-0.45-0.2c1.69-0.47-1.46-2.03,0.87-1.7c0.06-0.66-1.24-0.63-0.81-1.4
				c0.14-0.2,0.45,0.2,0.56,0.33c1-0.6-0.72-1.1,0.82-1.2l-1.24-0.63c1.46-0.4,4.12,0.01,4.24-1.16c-0.89-0.57-1.18,0-1.97-0.27
				c2.35,0,2.14-2.53,3.72-2.95c0.5,0.84,2.04,0.75,2.17,1.85c-1.23-0.64-0.73,0.2-1.11,0.46c2.82,1.19,0.57-3.23,2.78-1.88
				l-0.74-0.78c0.24-0.06,1.18,0.01,1.24,0.48l0.28-1.53c-0.94-0.08-3.03-0.34-2.3,0.61c-1.14-0.34-0.26-0.91-1.51-1.38
				c1.97,0.29-0.26-0.91,0.63-1.46c0.97,1.26,2.25,0.45,2.81,0.93c-0.04-0.42,0.95-0.57,1.53-0.48c0.45-0.37,0.22-2.14,1.19-2.54
				c-0.59-0.01-1.42,0.04-2.17-0.57c0.71-0.02,0.99-0.42,0.13-1.17c-2.6,0.03,1.79,1.96-0.13,2.3c-1.24-0.49-1.73-0.36-2.47,0
				c-0.4-0.71-0.74-0.78-1.38-1.42c2.73,0.9,1.6-1.72,3.39-1.86c0.94,0.08,2.09,1.4,3,0.69l0.09,1.27c0.03-1.3,0.79,0.28,1.56-0.23
				l-0.92-0.25c0.18-0.53,0.42-0.59,1.12-0.45l-1.37-0.46c0.04-0.33,0.22-0.86,0.87-0.38c-0.22-0.26-0.42-0.44-0.61-0.58
				c0.22,0.09,0.41,0.07,0.58-0.23c-0.24,0.06-0.26,0.23-0.59-0.01c1.03-0.83-1-1.13-0.42-1.69c-0.33-0.09-0.51-0.51-0.47-0.84
				c1.71,1.31,2.88,0.22,4.09,0.6l-0.03-0.02l1.34-0.33c-0.27,0.07-0.6-0.47-0.59-0.86l-0.02,0.05c-0.06-0.47-2.11-1.09-1-1.53
				l0.83-0.05c-0.12,0.03-0.33-0.24-0.43-0.38l0.8-0.09c-1.09-1.89,1.87-0.59,1.69-1.98c-0.04,0.33-0.42,0.59-0.83,0.04
				c-0.08-0.3,0.29-0.39,0.63-0.32l-0.22-0.11l2.21-0.7c-0.67-0.32-1.36,0.49-1.72-0.38c-0.61-0.82,0.55-0.62,0.82-0.85
				c0.42,0.38,0.44,1.18,1.07,0.87c-0.17-0.23-0.27-1.07-0.77-1.09c0.86-0.16,1.71-0.7,2.87-0.55c-0.08-0.3-0.45-0.21-0.57-0.18
				l0.1,0.14c-0.49,0.12-1.19-0.84-1.19,0.13c-1.52-1.09,0.27-1.2,0.47-1.89l-1.66,0.08c-0.92-3.01,2.78-3.26,3.91-4.65
				c0.14,0.77-0.57,0.78,0.62,1.63c1.24-0.45,0.9-0.53,1.81-1.23l-0.12,0.03c-0.24-0.91,1.38-0.65,0.58-1.75
				c-0.79-0.3,0.09,1.11-1.2,0.12l0.96-1.03c-1.03-0.25-0.96,1.03-1.47,1.31c-0.17,0.36,0.65-0.48,1.38,0.32
				c-0.84,1.01-1.85,0.6-3.45,0.18c-1.13-0.38-0.55-1.16-0.41-1.36c1.84,0.37,3.2-0.12,3.41-1.61l-0.53-1.32
				c1.28,0.18,2.84,1.75,3.34,0.67l-0.91-0.27c-0.11-0.41-0.1-0.62-0.02-0.71c-0.83-0.02-1.76-0.06-2.59-0.13
				c-1.07-1.68,1.91-0.93,2.81-1.46c-0.22-0.11-0.49,0.11-0.93-0.1c0.55-1.42,3.25-1.23,4.18-1.93c-0.35-0.88-1.01,0.39-1.82-0.55
				c0.74-0.17,0.31-1.36,1.3-0.78c-1.42-0.8,0.75-1.14-1.13-1.19c0.77-2.11,3.4-3.02,5.46-4.12c-0.44-0.22-0.76-0.48-0.96-0.75
				c-0.44,0.58-1.47,1.13-2.6,0.74c-0.34-0.89,1.57-0.19,1.28-0.61c-0.46-0.06-0.76,0.33-1.4-0.17c-0.32-1.06,0.91-0.52,1.3-0.77
				l0.17,0.44c1.72-0.38,2.67,1.18,3.23-0.23c-0.44-1.03-0.63-0.5-1.58-1.26c0.59,0.03,0.25-1.66,1.48-1.13l-0.47,0.75
				c0.65-0.27,1.02-0.72,1.61-0.78c-0.23-0.13-0.46-0.27-0.63-0.24c0.61-0.13,0.93-0.68,1.72-0.37l-0.93-0.93
				c0.26,0.59-0.21,1.33-0.86,0.99c-0.83-0.78,0.28-1.02,0.45-1.38c-1.35,1.1-2.95-0.16-3.2,1.5l0.46,0.06
				c0.2,1.32-1.64,1.02-2.11,1.66c-0.07-0.34-0.41-0.67-0.65-0.73c-0.3,2-1.98,2.85-2.73,4.8l-1.38-0.33l0.74,0.64
				c-0.27,1.03-1.21-0.69-1.52-0.14c0.14-0.19,0.24-0.06,0.47,0.06c-1.57,0.2,0.32,1.06-0.32,1.36c1.01,0.41,1.05-0.72,1.96,0.36
				c-1.57,0.19-2.18,1.95-4.12,0.62c-0.55,2.23-3.31,3.36-4.56,4.63c0.18,0.44,0.35,0.08,0.55,0.35c-1.5-0.29-0.68,2.43-1.65,1.69
				c0.06,0.47,0.68,1.13,0.88,1.4c-0.73,0-1.29,0.24-1.77,0.59l0.52-0.12l0.1,0.14l-0.74,0.18l-0.05-0.06
				c-1.14,0.9-1.9,2.38-3.72,2.6c1.08-0.1,1.05,1.04,1.64,1.05c-1.93-0.66-2.91,0.56-3.53,1.68c0.33,0.24,0.52,0.52,0.87,0.59
				l-1.08,0.1l0.44,0.22c-0.51,1.26-3.09,1.11-2.89,2.35c0.51-0.29,0.83-0.05,1.38,0.3c-0.61,0.72-1.16,1.42-2.29,1.94
				c0.13,0.02,0.26,0.08,0.38,0.16c-0.04,0.33-0.63,0.32-0.99,0.42l0.75,0.62c-0.7,0.18-0.73,1.06-1.76,1.13
				c0.7,0.85-1.76,0.71-1.87,1.59c-0.37,0.1,1.28,0.15,0.74,0.78c-1.76-1.17-0.69,0.83-2.55-0.47l0.23,1.08l-1-0.55
				c1.34,1.76-1.32,0.19-1.33,1.33c0.23,0.11,0.35,0.07,0.45,0.21c-0.37,0.1-0.89,0.56-1.04-0.21c-0.28,0.4-1.7,1.43-0.29,1.54
				c-0.55-0.34,0.3-0.56,0.66-0.66c0.76,0.61,0.01,0.97,0.75,1.75c-0.1-0.04-0.29-0.07-0.46-0.1l0.42,0.44
				c-1.41,0.1-1.34,1.31-2.85,1.03c0.22,0.21,0.31,0.48,0.07,0.69l-0.99-0.71l-0.56,0.81l1.7,0.68c-0.35,1.07-2.42,0.5-3.18,1.03
				c1.51,1.38-1.64,0.94-0.63,2.62l0.85-0.23c-1.16,0.97-0.31,1.88-1.68,2.59c0.13-1.34,0.46-1.11,0.11-3.46
				c-0.31,1.88-2.65,1.71-2.61,3.67c0.45,0.2,0.94,0.06,1.11,0.66c-1.03-0.37-0.83,1.21-1.69,0.31c0.05,0.64,0.93,1.37,0.89,1.71
				l-2.16,0.45l0.23,0.1c0.69,3.89-4.55,3.09-5.16,6.06l0.56,0.33l-1.18,0.02c0.83-0.08,0.53,0.66,0.97,1.02l-2.18,0.64
				C198.63,80.21,199.75,80.87,199.8,80.37z M213.88,61.7l0.32-0.29c0-0.1,0.04-0.18,0.2-0.18l-0.2,0.18
				C214.21,61.69,214.52,62.12,213.88,61.7z M239.18,32.33c0.57,0.19-0.05,0.33-0.07,0.5l0.54-0.45
				C239.45,32.1,239.3,32.3,239.18,32.33z M220.23,66.34l0.52,0.67l-0.69-0.14L220.23,66.34z M216.8,71.16l0.73-0.2l0.1,0.14
				l-0.72,0.2L216.8,71.16z M207.61,72.67c0.06,0,0.11-0.01,0.2,0C207.76,72.68,207.69,72.68,207.61,72.67
				c-0.74,0.03,0.34,1.03-1.03,0.51C205.87,72.1,207.06,72.59,207.61,72.67z M213.74,64.18c0.25-0.07,0.37-0.1,0.38-0.27
				c-0.45-0.2-1.27-0.3-1.23-0.64c0.57,0.17,1.09-0.3,1.75,0.17C213.59,63.41,215.18,65.1,213.74,64.18z M222.52,53.24l-0.02,0.17
				l0.83-0.06L222.52,53.24z M224.71,51.71c1.02,0.39,1.34-0.34,1.85-0.63c-0.63-0.65-1.79-0.84-2.09-0.28
				C223.38,50.91,225.4,51.86,224.71,51.71z M212.32,68.81l0.67,0.3l-0.01,0.17l0.72-0.2c0.35,1.21-1.47,0.57-1.96,0.7
				C212.01,69.54,213.99,69.81,212.32,68.81z M228.39,47.7c0.83-0.05,2.05-0.35,2.58,0.17c-1.07-0.86-2.05-0.62-2.2-0.43
				C228.75,47.61,228.63,47.64,228.39,47.7z M230.43,49.29c-0.97,0.24-1.52-0.1-2.91-0.4c0-0.97,1.55-0.07,2.07,0.45
				c0.83-0.05,0.06-0.5,0.1-0.83L230.43,49.29z M226.86,47.6l-0.04,0.37c0.23,0.65,1.43,1.66-0.14,1.13l0.14-1.13
				C226.76,47.82,226.76,47.69,226.86,47.6z M230.94,42.39l-0.57-0.03C230.6,42.13,230.78,42.23,230.94,42.39l0.48,0.03
				C231.39,43.28,231.23,42.7,230.94,42.39z M228.16,46.62l-0.67,0.66C228.04,47.63,228.12,46.96,228.16,46.62z M231.78,43.3
				c-0.17,0.37-0.64,1.29-0.62,1.12C230.64,43.91,231.31,43.25,231.78,43.3z M245.91,28.37l-0.42,0.41l-0.59-0.83L245.91,28.37z
				 M242.23,34.2l-0.29-0.42l0.27-0.22L242.23,34.2z M238.39,39.21c-0.15-0.15-0.37-0.31-0.58-0.4c-0.13,0.02-0.28,0.01-0.46-0.08
				c0.05-0.07,0.24-0.02,0.46,0.08c0.33-0.06,0.46-0.44,0.34-0.75c-0.44-0.22-0.61,0.15-0.96,0.07c-0.55-1.17,2.97-0.06,0.13-1.81
				c0.46,0.05,1.67-0.07,1.94,0.51C238.71,37.23,238.21,38.43,238.39,39.21c0.12,0.13,0.2,0.26,0.15,0.37
				C238.46,39.47,238.42,39.34,238.39,39.21z M233.75,46.38c-0.21,0.14-0.35,0.16-0.47,0.13c-0.32,0.01-0.71-0.09-1.03-0.41
				c0.62-0.15,0.73,0.33,1.03,0.41C233.48,46.5,233.65,46.46,233.75,46.38z M233,47.69l0.97-0.24l-0.81-0.13l1.79-0.11
				C235.06,48.15,233.77,48.15,233,47.69z M233.34,48.3l-0.73-0.35l0.79,0.3L233.34,48.3l0.17,0.08l-1.16,0.77L233.34,48.3z
				 M223.97,58.06c1.89,2.03,2.25,0.23,3.46,0.82c-0.7-0.59-1.54-1.84-2.28-0.8c-0.07-1.44,1.83,0.5,0.4-1.4
				c-0.18,0.53-1.13,0.62-1.25,0.64l0.3-0.56C223.02,56.04,224.68,58.04,223.97,58.06z M220.28,63.73l-0.54,0.63l0.65-0.49
				L220.28,63.73z M208.96,80.67c0.56,0.33,0.9,1.87-0.24,1.37C208.88,81.5,209.27,81.06,208.96,80.67z M203.77,87.71l0.98-0.45
				c1.1,0.99-0.52,0.64-0.56,1.15C203.51,88.12,204.09,88.11,203.77,87.71z M200.33,92.65l-0.36,0.11l1.37,0.57L200.33,92.65z
				 M202.15,93.42c0.43,0.52,1.04,0.18,1.06,0.01L202.15,93.42z M200.13,98.6l0.14-0.37l-1.26-0.44L200.13,98.6z M199.23,97.24
				c0.81,0.45,1.82,1.19,1.81,0.1c-0.78-0.58-0.91-0.38-1.67-1.3c-0.36,0.11-0.16,0.54-0.17,0.71c0.24-0.07,0.04-0.5,0.6-0.18
				C199.92,97.06,199.62,97.27,199.23,97.24c-0.29-0.16-0.56-0.28-0.74-0.27C198.73,97.14,198.99,97.23,199.23,97.24z M200.21,94.01
				c-0.03-0.16-0.08-0.32-0.19-0.45l0.23,0.09C200.53,94,200.39,94.03,200.21,94.01c0.03,0.18,0.04,0.36,0.04,0.55
				c0.62,0.55,1.43,0.36,1.9,0.49c-0.36,0.1-1.16-0.15-0.97,0.45c0.23,0.1,0.34,0.23,0.46,0.02l-0.15,0.54
				c-1.29-0.15-1.25-0.83-1.24-1.51c-0.14-0.12-0.27-0.26-0.38-0.47C199.82,93.96,200.04,94,200.21,94.01z M196.28,96.49l0.36-0.11
				c0.35,0.06,0.56,0.32,0.79,0.41C197.18,97.04,196.48,97.09,196.28,96.49z M206.02,81.99c0.09,0.3,1.14,0.49,1.18-0.01l0.86,0.89
				c-0.67-0.46-1.08,0.31-1.21,0.35C205.84,82.7,206.43,82.7,206.02,81.99z M217.85,65.51c1.33,0.78,1.24-0.66,1.71-0.62
				C219.49,65.56,219.01,66.83,217.85,65.51z M218.48,63.59c0.2-0.23,0.13-0.39,0.73,0.09c0.35,0.07,0.16-0.36,0.5-0.29
				C219.92,64.27,218.95,63.51,218.48,63.59c-0.05,0.06-0.11,0.13-0.22,0.19C218.3,63.65,218.38,63.61,218.48,63.59z M211.42,73.12
				l-1.15-0.33l-0.29,0.57L211.42,73.12z M205.83,77.47c0.56,0.33,0.15,0.93-0.2,0.87c0.72,0.45,0.91,0,1.21-0.27
				c0.09,0,0.17-0.04,0.24-0.14c-0.09,0.03-0.17,0.08-0.24,0.14c-0.25,0-0.54-0.33-0.79-0.51l-0.09-0.3l-0.5,0.3L205.83,77.47z
				 M198.2,86.73c0.29,0.73,0.07,0.64-0.29,0.74C197.69,87.21,197.84,86.84,198.2,86.73z M207.32,74.11
				c-0.08,0.84,1.25,0.46,1.31,1.1l0.15-0.36c0.37,1.03-1.04-0.2-1.09,0.3l0.03-0.34c-0.53-0.66-0.71,0.04-1.27-0.29
				C206.38,74.05,207.35,73.78,207.32,74.11z M197.36,86.98c0.27,1.07-1.06-0.01-1.44,0.26C195.64,86.35,196.86,87.3,197.36,86.98z
				 M202.62,76.43l-0.1-0.13l-0.73,0.21l0.11,0.13L202.62,76.43z"/>
		</g>
		<g>
			<path class="st0" d="M203.86,92.58c-0.02,0.21-0.1,0.29-0.2,0.33C203.69,92.79,203.75,92.68,203.86,92.58z"/>
		</g>
		<g>
			<path class="st0" d="M224.2,65.61c-0.17-0.14-0.22-0.26-0.23-0.37C224.07,65.32,224.15,65.43,224.2,65.61z"/>
		</g>
		<g>
			<path class="st0" d="M225.46,64.8c0.02-0.01,0.02-0.03,0.04-0.04c0.03,0,0.06,0.01,0.09,0.01L225.46,64.8z"/>
		</g>
		<g>
			<path class="st0" d="M253.27,24.34c1,0.42-0.05,0.33-0.2,0.52C253.22,24.67,252.71,24.13,253.27,24.34z"/>
		</g>
		<g>
			<path class="st0" d="M250.72,24.73c0.33,0.08,0.62,0.05,0.85-0.09C251.5,24.79,251.31,24.85,250.72,24.73z"/>
		</g>
		<g>
			<path class="st0" d="M252.05,23.8c-0.07,0.43-0.24,0.7-0.48,0.85C251.69,24.42,251.51,24.01,252.05,23.8z"/>
		</g>
		<g>
			<path class="st0" d="M247.73,28.93c0.69,0.17,0.79-0.5,0.79-0.5c-0.32,1.36,1.1,0.56,1.55,0.78
				C249.39,29.68,248.76,29.18,247.73,28.93z"/>
		</g>
		<g>
			<path class="st0" d="M246.43,30.03c0.07-0.11,0.13-0.22,0.12-0.35C246.6,29.87,246.54,29.97,246.43,30.03z"/>
		</g>
		<g>
			<path class="st0" d="M246.63,30.78c-0.39,0.25-1.05-0.09-1.62-0.28c-0.08-0.74,1.03-0.28,1.42-0.48
				C246.25,30.28,246,30.47,246.63,30.78z"/>
		</g>
		<g>
			<path class="st0" d="M241.1,43.48c0.12-0.03,0.27-0.22,0.59,0.02l-0.43,0.59C240.89,44.17,241.08,43.65,241.1,43.48z"/>
		</g>
		<g>
			<path class="st0" d="M237.9,44.4c-0.41,0.42,0.61,0.82,0.24,0.91l-1.07-0.87L237.9,44.4z"/>
		</g>
		<g>
			<path class="st0" d="M232.58,39.87l0.21-0.05c-0.05,0.04-0.1,0.08-0.16,0.13L232.58,39.87z"/>
		</g>
		<g>
			<path class="st0" d="M237.28,47.45l1.46,0.62C238.13,48.22,237.16,47.48,237.28,47.45z"/>
		</g>
		<g>
			<polygon class="st0" points="236.75,49.84 237.33,49.86 236.32,50.43 			"/>
		</g>
		<g>
			<polygon class="st0" points="234.53,51.51 234.73,51.78 233.98,52.13 			"/>
		</g>
		<g>
			<path class="st0" d="M216.16,74.1c-1.11-0.67,0.01-1.3-0.07-1.77C217.28,73.47,215.11,72.76,216.16,74.1z"/>
		</g>
		<g>
			<path class="st0" d="M203.95,91.41l0.88-0.74C204.75,91.67,204.7,90.87,203.95,91.41z"/>
		</g>
	</g>
	<g>
		<g>
			<path class="st0" d="M279.33,96.78c-0.02,0.07-0.01,0.15-0.02,0.23C279.18,96.89,279.15,96.81,279.33,96.78z"/>
		</g>
		<g>
			<path class="st0" d="M280.08,99.14c-0.35-0.51-0.88-1.32-0.76-2.13C279.75,97.38,281.28,98.14,280.08,99.14z"/>
		</g>
		<g>
			<path class="st0" d="M281.37,95.32l0.03,0.9C280.81,96.07,281.47,95.74,281.37,95.32z"/>
		</g>
		<g>
			<polygon class="st0" points="280.31,96.34 279.82,96.62 280.06,95.97 			"/>
		</g>
		<g>
			<path class="st0" d="M253.13,67.78c-0.15,0.21-0.33,0.42-0.62,0.6L253.13,67.78z"/>
		</g>
		<g>
			<path class="st0" d="M254.08,64.81c-0.03-0.18-0.06-0.29-0.1-0.38C254.08,64.49,254.09,64.6,254.08,64.81z"/>
		</g>
		<g>
			<path class="st0" d="M254.28,68.91l-0.25-0.2C254.16,68.73,254.25,68.8,254.28,68.91z"/>
		</g>
		<g>
			<path class="st0" d="M267.62,83.39c-0.17,0.48-0.31,0.92-0.4,1.23C266.53,84.41,267.27,83.83,267.62,83.39z"/>
		</g>
		<g>
			<path class="st0" d="M255.49,53.24l-0.4,0.23C255.2,53.27,255.33,53.12,255.49,53.24z"/>
		</g>
		<g>
			<path class="st0" d="M259.82,59.8c-0.2,0.17-0.37,0.27-0.5,0.34c0.01-0.05,0.01-0.09,0.03-0.14L259.82,59.8z"/>
		</g>
		<g>
			<path class="st0" d="M255.77,69.33c0.02-0.01,0.03-0.01,0.05-0.02l-0.07,0.38C255.6,69.63,255.61,69.51,255.77,69.33z"/>
		</g>
		<g>
			<path class="st0" d="M254.4,50.88c0.13-0.25,0.3-0.53,0.58-0.87C254.96,50.33,254.69,50.7,254.4,50.88z"/>
		</g>
		<g>
			<path class="st0" d="M253.95,64.4c0-0.01,0.01-0.01,0.01-0.02c0.01,0.01,0.01,0.04,0.01,0.05
				C253.96,64.42,253.96,64.4,253.95,64.4z"/>
		</g>
		<g>
			<path class="st0" d="M261.02,62.15c-0.02-0.16-0.06-0.29-0.06-0.47C261.15,61.76,261.13,61.95,261.02,62.15z"/>
		</g>
		<g>
			<path class="st0" d="M267.62,83.39c0.05-0.13,0.09-0.26,0.14-0.4C267.82,83.09,267.75,83.23,267.62,83.39z"/>
		</g>
		<g>
			<path class="st0" d="M277.35,95.62c-0.14-0.2,0.1-0.43,0.35-0.65C277.64,95.17,277.54,95.38,277.35,95.62z"/>
		</g>
		<g>
			<path class="st0" d="M220.21,27.18l-0.06-0.08C220.2,27.11,220.22,27.15,220.21,27.18z"/>
		</g>
		<g>
			<path class="st0" d="M225.78,34.88c-0.04,0.1-0.1,0.21-0.18,0.34C225.46,35.24,225.58,35.06,225.78,34.88z"/>
		</g>
		<g>
			<path class="st0" d="M239.87,33.95c-0.91-0.03-0.33-1.42-0.65-1.87l-0.29,0.52l-0.02-0.72l-0.6,0.55
				c-0.33-0.93-1.71-1.2-0.98-2.32l-0.89,0.95l0.11-1.41l-0.28,1c-0.93-0.62-1.29-2.53-1.46-2.69l-0.29,0.4
				c-0.3,0.04-0.16-0.28-0.17-0.52l-0.44,0.59c-0.97-1.33-2.47-0.55-3.15-2.4c-0.46-0.25,0.02,0.36-0.28,0.65
				c-0.6,0.19-0.64-0.65-0.5-0.97c-0.73,0.88,0.05,1.2-1.01,1.4c0.13-0.68-0.57,0.92-0.9,0.24l0.86-1.2
				c-0.46-0.12-0.88,0.72-1.22,0.16c-0.04-0.96,1.81-0.48,1.16-1.48c-0.48-0.36-3.29,1.41-3.51,0.05c-1.22-0.19-1.28,1.93-1.94,0.69
				l-0.09,1.28c-0.45,0.12-0.88,0.72-1.06,0.09c0.28-0.52,0.55-1.28,0.38-1.56c0.08,1.68-1.95,0.34-2.18,2.18l-0.26-0.35
				c0,0.08-0.09,0.19-0.19,0.24l-0.47-0.35c0.02,0.48,0.51,1.19-0.54,1.64l-0.77-0.42c-0.43,0.72-0.88,0.73-1.31,1.21l0.57,2.85
				c0.28-0.4,0.27-0.88,0.71-1.12c0.76,0.18-0.26,0.99,0.64,0.97l0.28-0.64c-0.14,0.2-0.14,0.32-0.29,0.28
				c-0.45,0.13-0.16-0.27,0.13-0.55c0.74-0.41,0.77,0.42,0.49,0.94c0.62,0.51,1.18-0.89,1.48-0.93c-0.71,1.24,0.95,0.94,0.82,1.74
				l0.43-0.84c1.2-0.29,0.93,0.71,0.94,1.19l0.44-0.6c0.48,0.71,2.55-0.64,1.1,1.59l0.29-0.39c0.4,0.1,1.16,0.12,0.82,0.89
				c0.23-0.2,0.55-0.41,0.71-0.37c-0.6,0.81,0.2,0.57,0.68,0.82c-0.04-0.43,0.98-1.22,0.96-1.69c1.51-0.31-0.56,1.5-0.1,1.99
				c0.75-0.15,0.29-0.75,0.58-1.15c0.18,1.23,3.63-0.43,2.16,1.78l-0.91,0.22c-0.14,0.68,0.02,0.84,0.16,0.64
				c-0.15-0.04,0-0.24,0.15-0.43c1.82,0.03-0.1,2.7,1.12,3.28c0.3-0.39,0.3-0.63,0.59-0.9c0.76,0.09-1.49,2.08-0.13,2.11l0.3-0.51
				c0.46,0.01,0,0.72-0.15,0.79c1.65-1.44,1.22,1.54,3.79,0.14c-0.6,1.14-0.44,2.73,0.32,2.59c1.36-0.43,0.76-1.33,1.82-1.98
				c0.3,0.33-0.46,1.31,0.3,1.53c-0.91,0.8-2.72,0.62-2.43,2.03l0.61-0.3c-0.15-0.04-0.45-0.01-0.45-0.25
				c0.31-0.75,0.76-0.37,1.06-0.52l0.6,1.26c-0.92,0.92-1.21,0.11-1.51,0.27c0.9,0.62,3.18,0.36,3.17,1.67l0.31-0.39
				c-0.01,1.67,2.29-0.98,1.35,1.14c0.6,0.19,0.92-1.04,1.52-0.49c0.15,0.17-0.31,0.38-0.46,0.46c0.29,1.05,1.22-0.46,0.9,1
				l0.92-1.03c-0.02,1.44-1.13,3.85-0.07,4.19c0.78-0.72,0.33-1.1,0.79-1.79c-0.64,2.19,1.76,2.51,1.72,4.06
				c-0.92,0.3-1.27,1.75-2.32,1.65c0.94-1.02,0.02-0.72-0.12-1.12c-1.9,2.39,2.84,1.17,0.96,2.96L245.6,58
				c-0.01,0.24-0.34,1.09-0.8,1.06l1.34,0.57c0.34-0.86,1.17-2.76,0.09-2.27c0.64-0.99,0.91-0.06,1.71-1.12
				c-0.82,1.78,0.91-0.06,1.18,0.89c-1.44,0.65-1.06,2-1.66,2.43c0.4,0.05,0.26,1,0.01,1.52c0.21,0.49,1.92,0.65,2.02,1.62
				c0.18-0.54,0.36-1.32,1.15-1.9c-0.18,0.66,0.11,1,1.05,0.36c0.71-2.42-2.33,1.26-2.1-0.6c0.8-1.06,0.83-1.53,0.7-2.3
				c0.77-0.22,0.94-0.53,1.71-0.99c-1.61,2.36,1.15,1.85,0.77,3.54c-0.34,0.85-1.9,1.65-1.5,2.64l-1.2-0.18
				c1.19,0.3-0.49,0.68-0.23,1.5l0.5-0.8c0.44,0.28,0.43,0.52,0.09,1.13l0.82-1.17c0.3,0.1,0.74,0.38,0.1,0.89
				c0.3-0.15,0.53-0.3,0.71-0.44c-0.15,0.18-0.18,0.37,0.04,0.59c0.01-0.24-0.14-0.29,0.18-0.54c0.47,1.13,1.34-0.69,1.69-0.03
				c0.18-0.29,0.62-0.36,0.91-0.26c-1.71,1.31-1.04,2.63-1.75,3.66l0.02-0.02l-0.09,1.31c0.02-0.27,0.61-0.45,0.97-0.36l-0.04-0.03
				c0.46,0.05,1.63-1.72,1.71-0.59l-0.2,0.78c0.01-0.12,0.32-0.25,0.48-0.31l-0.16,0.76c2.07-0.6-0.01,1.86,1.33,1.99
				c-0.3-0.11-0.42-0.52,0.21-0.78c0.3-0.01,0.28,0.35,0.11,0.65l0.16-0.18l-0.01,2.2c0.5-0.55-0.04-1.37,0.87-1.51
				c0.94-0.38,0.41,0.65,0.54,0.94c-0.48,0.31-1.23,0.14-1.12,0.8c0.27-0.11,1.07-0.02,1.24-0.47c-0.11,0.83,0.13,1.74-0.36,2.77
				c0.3-0.01,0.33-0.37,0.34-0.48l-0.16,0.06c0.04-0.48,1.14-0.91,0.24-1.13c1.46-1.16,1.03,0.51,1.61,0.86l0.43-1.55
				c3.07-0.18,2.17,3.3,3.11,4.67c-0.76-0.05-0.55-0.71-1.69,0.19c0.04,1.24,0.22,0.95,0.58,1.95l0.01-0.12
				c0.92-0.01,0.17,1.42,1.44,0.94c0.52-0.65-1.05-0.17,0.26-1.13l0.65,1.13c0.55-0.89-0.65-1.13-0.76-1.66
				c-0.28-0.24,0.24,0.71-0.72,1.19c-0.67-1.01,0.02-1.84,0.9-3.22c0.7-0.96,1.24-0.24,1.38-0.06c-0.91,1.61-0.88,2.97,0.43,3.51
				l1.39-0.17c-0.57,1.13-2.51,2.2-1.66,2.91l0.54-0.77c0.42-0.01,0.6,0.05,0.66,0.15c0.28-0.76,0.61-1.6,0.93-2.35
				c1.89-0.58,0.26,1.98,0.47,2.93c0.17-0.18,0.05-0.47,0.39-0.83c1.15,0.84,0.11,3.28,0.45,4.3c0.92-0.11-0.04-1.02,1.08-1.54
				c-0.08,0.72,1.15,0.62,0.3,1.38c1.19-1.11,0.81,0.97,1.46-0.75c1.71,1.22,1.7,3.86,2.04,6.02c0.35-0.35,0.69-0.58,1-0.69
				c-0.39-0.55-0.56-1.63,0.16-2.57c0.93-0.09-0.33,1.49,0.15,1.32c0.2-0.41-0.06-0.78,0.61-1.24c1.08-0.03,0.19,0.96,0.29,1.39
				l-0.46,0.05c-0.21,1.67-1.95,2.15-0.84,3.02c1.09-0.14,0.67-0.45,1.68-1.13c-0.22,0.53,1.46,0.64,0.56,1.63l-0.53-0.62
				c0.03,0.66,0.33,1.11,0.19,1.67c0.2-0.18,0.4-0.35,0.42-0.51c-0.08,0.59,0.32,1.03-0.23,1.66l1.16-0.61
				c-0.63,0.09-1.16-0.53-0.63-1.04c0.99-0.56,0.85,0.51,1.12,0.76c-0.56-1.52,1.12-2.66-0.33-3.31l-0.21,0.41
				c-1.28-0.15-0.41-1.76-0.85-2.35c0.33,0.02,0.75-0.21,0.88-0.41c-1.75-0.78-1.99-2.54-3.55-3.7l0.74-1.18l-0.82,0.52
				c-0.87-0.5,1.02-0.94,0.61-1.37c0.13,0.18-0.03,0.24-0.2,0.41c0.32-1.49-1.08,0.03-1.16-0.62c-0.7,0.82,0.33,1.15-0.95,1.72
				c0.32-1.49-1.1-2.48,0.73-3.95c-1.9-1.05-2.08-3.86-2.87-5.32c-0.47,0.06-0.18,0.3-0.5,0.42c0.73-1.32-2.04-1.2-1.06-1.92
				c-0.45-0.06-1.26,0.36-1.57,0.48c0.23-0.68,0.17-1.25-0.01-1.77l-0.04,0.51l-0.16,0.06l0.06-0.72l0.07-0.03
				c-0.48-1.27-1.63-2.31-1.29-4.05c-0.23,1.02-1.28,0.73-1.47,1.28c1.19-1.63,0.35-2.83-0.51-3.66c-0.32,0.25-0.63,0.37-0.81,0.67
				l0.23-1.02l-0.33,0.36c-1.03-0.76-0.12-3.12-1.34-3.21c0.12,0.54-0.2,0.78-0.69,1.22c-0.49-0.73-0.97-1.4-1.13-2.57
				c-0.06,0.12-0.15,0.23-0.26,0.32c-0.3-0.11-0.11-0.66-0.1-1.02l-0.79,0.56c0.03-0.69-0.78-0.91-0.55-1.88
				c-0.99,0.47-0.15-1.8-0.95-2.09c0.02-0.36-0.51,1.16-0.94,0.52c1.59-1.39-0.57-0.82,1.17-2.28l-1.07-0.02l0.79-0.82
				c-2.02,0.87,0.2-1.27-0.87-1.53c-0.16,0.19-0.17,0.31-0.32,0.38c0.01-0.36-0.27-0.95,0.49-0.93c-0.29-0.35-0.86-1.89-1.35-0.6
				c0.47-0.45,0.44,0.4,0.43,0.76c-0.78,0.58-0.91-0.19-1.84,0.34c0.07-0.08,0.14-0.26,0.23-0.41l-0.53,0.3
				c0.3-1.34-0.84-1.54-0.17-2.89c-0.26,0.16-0.53,0.19-0.67-0.08l0.94-0.78l-0.6-0.69l-1.1,1.45c-0.91-0.55,0.2-2.36-0.09-3.19
				c-1.7,1.13-0.43-1.73-2.27-1.13l-0.01,0.84c-0.59-1.29-1.68-0.67-1.96-2.09c1.22,0.39,0.91,0.66,3.2,0.8
				c-1.68-0.67-0.89-2.84-2.73-3.2c-0.31,0.39-0.31,0.87-0.92,0.92c0.62-0.89-0.91-1.02,0.16-1.65c-0.61-0.08-1.53,0.6-1.83,0.5
				l0.15-2.12l-0.15,0.19c-3.82-0.1-1.7-4.89-4.34-6.03l-0.45,0.47l0.29-1.12c-0.14,0.8-0.76,0.38-1.21,0.72l-0.04-2.18
				C240.31,32.88,239.41,33.81,239.87,33.95z M253.57,50.87l0.18,0.36c0.1,0.02,0.16,0.07,0.12,0.23l-0.12-0.23
				C253.5,51.18,253.01,51.38,253.57,50.87z M273.4,80.98c-0.35,0.48-0.3-0.12-0.44-0.18l0.25,0.6
				C273.53,81.28,273.39,81.1,273.4,80.98z M247.49,55.85l-0.77,0.35l0.32-0.62L247.49,55.85z M243.96,51.68l-0.01,0.72l-0.16,0.07
				l0.02-0.71L243.96,51.68z M245.04,42.78c-0.01,0.06-0.02,0.1-0.05,0.19C244.98,42.92,245,42.85,245.04,42.78
				c0.17-0.7-1.05,0.12-0.2-1.07C246.03,41.25,245.26,42.27,245.04,42.78z M251.3,50.23c-0.01,0.24-0.01,0.36,0.14,0.41
				c0.31-0.38,0.63-1.12,0.94-1.02c-0.32,0.5-0.02,1.08-0.65,1.6C252.06,50.24,250.05,51.39,251.3,50.23z M259.01,60.73l-0.15-0.06
				l-0.19,0.79L259.01,60.73z M259.81,63.1c-0.66,0.86-0.08,1.32,0.04,1.86c0.79-0.44,1.31-1.48,0.87-1.89
				C260.94,62.05,259.47,63.72,259.81,63.1z M247.38,47.96l-0.47,0.57l-0.15-0.05l-0.01,0.72c-1.22,0.09-0.13-1.49-0.13-1.97
				C246.77,47.53,245.98,49.32,247.38,47.96z M262.45,67.41c-0.2,0.78-0.29,1.98-0.93,2.35c1.12-0.8,1.19-1.76,1.05-1.94
				C262.43,67.77,262.43,67.65,262.45,67.41z M260.36,68.96c0.06-0.96,0.55-1.38,1.23-2.6c0.9,0.22-0.39,1.45-1.03,1.82
				c-0.21,0.78,0.45,0.17,0.75,0.28L260.36,68.96z M262.99,66.02l-0.33-0.12c-0.67,0.07-1.96,0.95-1.01-0.38l1.01,0.38
				C262.82,65.88,262.94,65.91,262.99,66.02z M266.61,70.98l0.2-0.52C266.95,70.73,266.81,70.88,266.61,70.98l-0.18,0.44
				C265.65,71.2,266.23,71.18,266.61,70.98z M263.52,67.45l-0.41-0.77C262.62,67.11,263.22,67.33,263.52,67.45z M265.51,71.56
				c-0.29-0.24-1.01-0.88-0.86-0.83C265.29,70.36,265.7,71.14,265.51,71.56z M274.92,88.14l-0.25-0.48l0.96-0.34L274.92,88.14z
				 M270.72,83.34l0.48-0.17l0.12,0.3L270.72,83.34z M267.28,78.61c0.19-0.1,0.4-0.27,0.55-0.44c0.02-0.12,0.07-0.26,0.22-0.41
				c0.05,0.06-0.05,0.23-0.22,0.41c-0.04,0.32,0.26,0.53,0.59,0.49c0.34-0.36,0.05-0.6,0.23-0.9c1.25-0.24-0.87,2.76,1.63,0.55
				c-0.19,0.42-0.46,1.56-1.08,1.67C269.01,79.37,268.06,78.63,267.28,78.61c-0.16,0.08-0.3,0.12-0.38,0.05
				C267.02,78.62,267.15,78.61,267.28,78.61z M262.07,72.68c-0.06-0.23-0.04-0.36,0.02-0.46c0.08-0.3,0.29-0.64,0.69-0.86
				c-0.05,0.61-0.52,0.6-0.69,0.86C262.04,72.4,262.02,72.57,262.07,72.68z M261.08,71.69l-0.07,0.95l0.36-0.72l-0.44,1.68
				C260.03,73.49,260.42,72.3,261.08,71.69z M260.42,71.87l0.54-0.59l-0.51,0.67L260.42,71.87L260.29,72l-0.36-1.25L260.42,71.87z
				 M254.12,61.05c-2.43,1.33-0.86,2.04-1.76,3.04c0.75-0.52,2.15-1.04,1.4-1.95c1.36,0.24-1,1.6,1.18,0.67
				c-0.44-0.28-0.24-1.19-0.24-1.3l0.43,0.4C256.27,60.6,253.94,61.71,254.12,61.05z M249.9,56.42l-0.43-0.63l0.28,0.7L249.9,56.42z
				 M237.22,42.52c-0.45,0.46-1.97,0.5-1.22-0.47C236.47,42.29,236.77,42.74,237.22,42.52z M231.99,36.36l0.17,1
				c-1.2,0.86-0.47-0.61-0.93-0.73C231.68,36.04,231.54,36.59,231.99,36.36z M228.24,32.25l-0.01-0.36l-0.87,1.19L228.24,32.25z
				 M227.08,33.83c-0.6,0.32-0.43,0.95-0.27,1L227.08,33.83z M222.75,31.05l0.31,0.19l0.72-1.12L222.75,31.05z M224.24,30.43
				c-0.62,0.69-1.55,1.52-0.54,1.7c0.73-0.64,0.58-0.8,1.62-1.36c-0.01-0.36-0.46-0.24-0.62-0.28c0.01,0.24,0.46,0.12,0.02,0.6
				C224.24,31.11,224.12,30.8,224.24,30.43c0.22-0.25,0.4-0.48,0.43-0.66C224.46,29.97,224.31,30.21,224.24,30.43z M227,31.9
				c0.16,0,0.32-0.02,0.47-0.1l-0.15,0.2C226.94,32.21,226.95,32.07,227,31.9c-0.17,0-0.35-0.03-0.52-0.06
				c-0.66,0.49-0.69,1.28-0.93,1.7c-0.01-0.35,0.42-1.07-0.18-0.99c-0.15,0.2-0.3,0.28-0.14,0.43l-0.46-0.23
				c0.46-1.19,1.08-1.04,1.71-0.91c0.14-0.11,0.31-0.21,0.53-0.28C227.15,31.55,227.06,31.74,227,31.9z M225.65,27.77l0.01,0.36
				c-0.14,0.32-0.44,0.48-0.58,0.68C224.92,28.53,225.04,27.85,225.65,27.77z M236.75,39.51c-0.3,0.03-0.75,0.98-0.3,1.11
				l-1.06,0.65c0.6-0.54-0.01-1.08-0.01-1.2C236.14,39.22,235.99,39.77,236.75,39.51z M248.92,53.8c-1.1,1.09,0.27,1.29,0.1,1.72
				C248.42,55.32,247.38,54.61,248.92,53.8z M250.54,54.78c0.16,0.23,0.32,0.2-0.29,0.67c-0.17,0.31,0.29,0.22,0.13,0.53
				C249.51,55.98,250.48,55.23,250.54,54.78c-0.04-0.06-0.09-0.13-0.11-0.24C250.53,54.59,250.55,54.68,250.54,54.78z M243.59,46.27
				l0.62-1.02l-0.45-0.38L243.59,46.27z M241.02,40.18c-0.46,0.46-0.91-0.04-0.76-0.35c-0.61,0.59-0.23,0.86-0.07,1.19
				c-0.02,0.08-0.01,0.17,0.07,0.25c0-0.09-0.03-0.17-0.07-0.25c0.06-0.23,0.45-0.45,0.68-0.64l0.3-0.03l-0.15-0.53L241.02,40.18z
				 M234.31,31.28c-0.76,0.15-0.61-0.05-0.62-0.41C233.99,30.71,234.3,30.92,234.31,31.28z M243.76,42.23
				c-0.76-0.24-0.76,1.09-1.37,1.02l0.3,0.21c-1.06,0.15,0.46-0.94,0-1.08l0.31,0.1c0.76-0.37,0.15-0.68,0.61-1.14
				C244.07,41.36,244.07,42.32,243.76,42.23z M234.28,30.43c-1.07,0.06,0.28-1.01,0.11-1.41C235.31,28.92,234.11,29.91,234.28,30.43
				z M242.83,37.36l0.15-0.07l-0.01-0.72l-0.15,0.08L242.83,37.36z"/>
		</g>
		<g>
			<path class="st0" d="M227.43,35.58c-0.19-0.05-0.25-0.14-0.26-0.25C227.28,35.39,227.37,35.46,227.43,35.58z"/>
		</g>
		<g>
			<path class="st0" d="M247.05,59.7c0.18-0.13,0.31-0.15,0.41-0.14C247.35,59.63,247.23,59.69,247.05,59.7z"/>
		</g>
		<g>
			<path class="st0" d="M247.44,61.04c0.01,0.02,0.02,0.03,0.03,0.04l-0.03,0.08L247.44,61.04z"/>
		</g>
		<g>
			<path class="st0" d="M276.24,95.88c-0.72,0.81-0.29-0.13-0.42-0.32C275.95,95.75,276.61,95.41,276.24,95.88z"/>
		</g>
		<g>
			<path class="st0" d="M276.72,93.45c-0.18,0.28-0.25,0.55-0.2,0.8C276.41,94.14,276.41,93.95,276.72,93.45z"/>
		</g>
		<g>
			<path class="st0" d="M277.14,94.9c-0.37-0.17-0.57-0.4-0.62-0.65C276.68,94.41,277.12,94.35,277.14,94.9z"/>
		</g>
		<g>
			<path class="st0" d="M273.82,89.66c-0.38,0.59,0.2,0.84,0.2,0.84c-1.14-0.63-0.87,0.87-1.22,1.22
				C272.59,91,273.26,90.54,273.82,89.66z"/>
		</g>
		<g>
			<path class="st0" d="M273.23,88.2c0.07,0.09,0.16,0.18,0.29,0.2C273.31,88.4,273.25,88.32,273.23,88.2z"/>
		</g>
		<g>
			<path class="st0" d="M272.47,88.2c-0.1-0.42,0.42-0.94,0.77-1.41c0.71,0.11-0.07,1.02-0.01,1.42
				C273.05,87.98,272.96,87.7,272.47,88.2z"/>
		</g>
		<g>
			<path class="st0" d="M262.5,80.11c-0.01,0.12,0.12,0.3-0.2,0.54l-0.41-0.53C261.92,79.76,262.35,80.05,262.5,80.11z"/>
		</g>
		<g>
			<path class="st0" d="M262.63,76.96c-0.26-0.47-0.94,0.37-0.91,0.01l1.13-0.79L262.63,76.96z"/>
		</g>
		<g>
			<path class="st0" d="M268.45,73.09l-0.02,0.21c-0.02-0.06-0.04-0.12-0.07-0.18L268.45,73.09z"/>
		</g>
		<g>
			<path class="st0" d="M260,75.69l-1.01,1.21C259.04,76.31,260.02,75.58,260,75.69z"/>
		</g>
		<g>
			<polygon class="st0" points="257.96,74.67 257.76,75.21 257.55,74.15 			"/>
		</g>
		<g>
			<polygon class="st0" points="257.09,72.26 256.78,72.38 256.68,71.61 			"/>
		</g>
		<g>
			<path class="st0" d="M241.41,50.52c0.92-0.91,1.21,0.26,1.66,0.28C241.69,51.68,242.93,49.79,241.41,50.52z"/>
		</g>
		<g>
			<path class="st0" d="M228.5,35.88l0.47,0.96C228.06,36.59,228.81,36.67,228.5,35.88z"/>
		</g>
	</g>
	<g>
		<g>
			<path class="st0" d="M302.36,168.84c0.05,0.06,0.14,0.1,0.21,0.15C302.35,169.02,302.25,169,302.36,168.84z"/>
		</g>
		<g>
			<path class="st0" d="M305.27,169.73c-0.77-0.04-1.98-0.14-2.7-0.74C303.26,168.88,305.17,168.17,305.27,169.73z"/>
		</g>
		<g>
			<path class="st0" d="M302.42,166.32l0.92,0.54C302.75,167.23,302.91,166.51,302.42,166.32z"/>
		</g>
		<g>
			<polygon class="st0" points="302.65,167.79 302.56,168.36 302.09,167.76 			"/>
		</g>
		<g>
			<path class="st0" d="M253.73,172.18c0.1,0.24,0.17,0.51,0.12,0.86L253.73,172.18z"/>
		</g>
		<g>
			<path class="st0" d="M251.48,169.64c-0.2-0.09-0.34-0.13-0.46-0.15C251.16,169.44,251.27,169.5,251.48,169.64z"/>
		</g>
		<g>
			<path class="st0" d="M255.73,171.92l-0.39,0.08C255.46,171.92,255.6,171.88,255.73,171.92z"/>
		</g>
		<g>
			<path class="st0" d="M280.23,169.88c0.35,0.42,0.69,0.8,0.94,1.06C280.45,171.36,280.42,170.43,280.23,169.88z"/>
		</g>
		<g>
			<path class="st0" d="M241.13,161.53l-0.09,0.46C240.94,161.79,240.88,161.59,241.13,161.53z"/>
		</g>
		<g>
			<path class="st0" d="M250.84,162.04c0.01,0.26,0,0.46-0.04,0.6c-0.04-0.04-0.08-0.06-0.12-0.11L250.84,162.04z"/>
		</g>
		<g>
			<path class="st0" d="M257.28,170.98c0.01-0.02,0.01-0.03,0.02-0.05l0.32,0.28C257.45,171.3,257.34,171.22,257.28,170.98z"/>
		</g>
		<g>
			<path class="st0" d="M238.01,160.97c-0.14-0.25-0.28-0.57-0.41-0.99C237.9,160.18,238.05,160.62,238.01,160.97z"/>
		</g>
		<g>
			<path class="st0" d="M250.97,169.49c0-0.01,0-0.01,0-0.02c0.02,0,0.04,0.01,0.06,0.02C251,169.49,250.99,169.48,250.97,169.49z"
				/>
		</g>
		<g>
			<path class="st0" d="M254.06,162.49c-0.17-0.08-0.33-0.13-0.51-0.23C253.76,162.15,253.94,162.28,254.06,162.49z"/>
		</g>
		<g>
			<path class="st0" d="M280.23,169.88c-0.1-0.12-0.2-0.23-0.3-0.36C280.07,169.54,280.16,169.68,280.23,169.88z"/>
		</g>
		<g>
			<path class="st0" d="M299.72,169.66c-0.31-0.02-0.36-0.34-0.39-0.68C299.48,169.15,299.62,169.36,299.72,169.66z"/>
		</g>
		<g>
			<path class="st0" d="M187.85,171.39l-0.12-0.01C187.78,171.35,187.82,171.36,187.85,171.39z"/>
		</g>
		<g>
			<path class="st0" d="M199.75,172.69c0.06,0.1,0.11,0.22,0.16,0.36C199.81,173.17,199.75,172.96,199.75,172.69z"/>
		</g>
		<g>
			<path class="st0" d="M210.59,161.57c-0.76,0.67-1.57-0.68-2.24-0.74l0.23,0.56l-0.68-0.47l0.01,0.81
				c-1.12-0.37-2.5,0.48-2.91-0.81l0.14,1.3l-1.19-1.02l0.68,0.87c-1.33,0.29-3.35-0.72-3.63-0.72l0.12,0.48
				c-0.22,0.25-0.39-0.07-0.62-0.23l0.18,0.72c-2-0.2-2.55,1.43-4.79,0.67c-0.61,0.17,0.34,0.24,0.34,0.64
				c-0.34,0.57-1.12,0.03-1.28-0.3c0.17,1.13,1.12,0.79,0.4,1.69c-0.51-0.56,0.34,1.05-0.55,0.82l-0.34-1.45
				c-0.5,0.25-0.11,1.13-0.9,0.98c-0.89-0.64,1.11-1.63-0.33-1.86c-0.72,0.09-1.56,3.34-2.96,2.54c-1.23,0.74,0.61,2.26-1.07,1.88
				l1.07,0.96c-0.28,0.41-0.12,1.14-0.85,0.82c-0.22-0.56-0.67-1.29-1.06-1.37c1.57,1.12-1.41,1.64,0.04,3.08l-0.55-0.06
				c0.07,0.06,0.08,0.2,0.04,0.31l-0.73,0.09c0.45,0.32,1.52,0.47,1,1.53l-1.07,0.25c0.27,0.81-0.12,1.14-0.07,1.78l3.12,1.59
				c-0.12-0.49-0.57-0.8-0.39-1.29c0.84-0.42,0.67,0.88,1.47,0.22l-0.34-0.64c0.06,0.24,0.17,0.32,0,0.4
				c-0.28,0.41-0.4-0.07-0.39-0.48c0.29-0.81,1.07-0.26,1.3,0.31c1.02-0.09,0.22-1.46,0.45-1.71c0.51,1.37,1.7-0.02,2.32,0.62
				l-0.4-0.89c0.78-1.06,1.47-0.18,1.92,0.13l-0.17-0.73c1.08,0.14,1.61-2.3,2.43,0.27l-0.11-0.48c0.44-0.23,1.11-0.77,1.53,0
				c0.01-0.3,0.08-0.68,0.26-0.77c0.24,1,0.7,0.24,1.35,0.06c-0.43-0.26-0.3-1.55-0.75-1.86c1-1.32,0.92,1.44,1.76,1.42
				c0.5-0.66-0.45-0.72-0.58-1.2c1.3,0.71,2.65-2.99,3.48-0.42l-0.55,0.83c0.52,0.55,0.8,0.55,0.73,0.3
				c-0.17,0.08-0.22-0.16-0.28-0.4c1.55-1.34,2.45,1.87,4.02,1.34c-0.12-0.48-0.35-0.64-0.36-1.04c0.72-0.51,0.73,2.49,1.89,1.48
				l-0.24-0.56c0.39-0.34,0.68,0.46,0.63,0.63c0-2.19,2.48,0.07,3.25-2.79c0.59,1.19,2.24,2.11,2.73,1.44
				c0.7-1.32-0.66-1.43-0.41-2.66c0.56-0.02,0.88,1.19,1.71,0.75c0.04,1.22-1.62,2.5-0.03,3.16l0.21-0.66
				c-0.16,0.09-0.38,0.34-0.61,0.19c-0.47-0.71,0.26-0.82,0.36-1.15l1.7,0.34c0.15,1.29-0.87,1.01-0.97,1.34
				c1.34-0.3,2.91-2.23,4.17-1.39l-0.13-0.48c1.61,1.07,0.88-2.39,2.18-0.33c0.66-0.35-0.27-1.37,0.74-1.49
				c0.28-0.01,0.13,0.48,0.08,0.65c1.25,0.43,0.52-1.24,1.68-0.07l-0.27-1.37c1.38,0.91,2.86,3.28,4.02,2.67
				c-0.09-1.05-0.82-0.94-1.12-1.74c1.63,1.87,3.82,0.16,5.32,1.15c-0.42,0.91,0.74,2.08-0.18,2.85c-0.27-1.36-0.7-0.45-1.2-0.6
				c0.88,2.97,3.38-1.52,3.68,1.06l0.19-1.06c0.23,0.15,0.82,0.94,0.43,1.28l1.61-0.72c-0.59-0.79-1.83-2.6-2.18-1.45
				c-0.49-1.11,0.65-0.76,0.21-2.04c1.12,1.74,0.65-0.76,1.78-0.4c-0.48,1.54,1.16,2.05,1.13,2.79c0.36-0.29,1.19,0.4,1.52,0.92
				c0.65,0.13,2.12-1.13,3.17-0.62c-0.4-0.47-1.04-1.09-1.01-2.07c0.52,0.54,1.08,0.52,1.16-0.62c-1.85-2.03-0.54,2.62-2.2,1.31
				c-0.43-1.28-0.89-1.59-1.74-1.95c0.37-0.75,0.19-1.06,0.34-1.96c1.09,2.71,2.7,0.21,4.09,1.53c0.59,0.79,0.19,2.51,1.48,2.78
				l-1.1,0.85c1.21-0.78,0.3,0.8,1.31,1.08l-0.42-0.88c0.61-0.18,0.84-0.03,1.19,0.61l-0.54-1.36c0.33-0.17,0.94-0.36,0.96,0.45
				c0.08-0.33,0.11-0.6,0.1-0.83c0.07,0.23,0.23,0.37,0.62,0.32c-0.23-0.15-0.39-0.06-0.41-0.47c1.49,0.3,0.32-1.49,1.25-1.37
				c-0.15-0.31,0.11-0.71,0.43-0.89c0.01,2.15,1.84,2.41,2.33,3.6l-0.01-0.03l1.25,0.85c-0.25-0.17,0.01-0.76,0.37-0.99l-0.06,0.01
				c0.39-0.34-0.5-2.34,0.69-1.72l0.63,0.63c-0.11-0.08-0.01-0.41,0.05-0.57l0.65,0.58c0.96-2.02,1.86,1.12,3,0.12
				c-0.33,0.17-0.84,0.03-0.63-0.63c0.22-0.25,0.56-0.01,0.74,0.3l-0.06-0.24l2.2,1.31c-0.18-0.73-1.41-0.77-0.86-1.6
				c0.32-0.99,0.95,0.06,1.35,0.13c-0.05,0.57-0.77,1.07-0.04,1.38c0.09-0.28,0.78-0.87,0.45-1.27c0.75,0.58,1.84,0.93,2.51,1.94
				c0.21-0.25-0.12-0.48-0.23-0.56l-0.05,0.16c-0.45-0.32-0.07-1.46-0.96-0.87c-0.08-1.87,1.28-0.52,2.06-0.78l-1.24-1.27
				c2.1-2.57,4.93,0.22,7,0.29c-0.62,0.57-1.12,0.02-1.06,1.47c1.28,0.72,1.11,0.39,2.39,0.7l-0.11-0.08
				c0.67-0.74,1.56,0.71,2.01-0.59c-0.27-0.81-0.95,0.74-0.94-0.88l1.62,0.15c-0.49-0.97-1.62-0.15-2.23-0.38
				c-0.45,0.09,0.89,0.23,0.66,1.29c-1.51-0.07-1.84-1.12-2.57-2.65c-0.44-1.13,0.68-1.14,0.96-1.15c0.95,1.7,2.34,2.48,3.85,1.76
				l0.85-1.21c0.72,1.14,0.35,3.33,1.7,3.08l-0.38-0.89c0.3-0.34,0.5-0.45,0.64-0.44c-0.56-0.68-1.17-1.45-1.67-2.16
				c0.81-1.86,2.18,0.98,3.29,1.39c-0.05-0.24-0.44-0.32-0.55-0.81c1.7-0.41,3.38,1.88,4.66,2.24c0.58-0.8-1.05-0.59-0.74-1.8
				c0.66,0.5,1.47-0.54,1.61,0.6c-0.23-1.62,1.57-0.05,0.33-1.62c1.24-0.3,2.53-0.05,3.81,0.39c1.28,0.47,2.54,1.15,3.75,1.68
				c-0.09-0.49-0.07-0.89,0.06-1.22c-0.84-0.03-2.05-0.56-2.46-1.71c0.6-0.79,1.25,1.18,1.44,0.7c-0.26-0.41-0.82-0.44-0.79-1.24
				c0.77-0.87,1.11,0.44,1.61,0.63l-0.3,0.39c1.52,1.19,0.71,2.86,2.4,2.52c0.67-0.95,0.05-0.81,0.11-2.02
				c0.36,0.5,1.73-0.76,2.05,0.57l-1.02,0.03c0.69,0.38,1.36,0.44,1.82,0.89c-0.03-0.27-0.05-0.54-0.2-0.65
				c0.54,0.43,1.27,0.39,1.49,1.22l0.26-1.29c-0.38,0.55-1.39,0.57-1.51-0.16c0.18-1.13,1.15-0.34,1.6-0.4
				c-1.94-0.51-1.83-2.55-3.56-1.81l0.26,0.42c-1.1,0.92-2.07-0.76-2.99-0.78c0.27-0.25,0.35-0.72,0.25-0.95
				c-2.08,0.9-4.03,0-6.36,0.54l-0.64-1.31l-0.08,0.97c-1.15,0.38-0.19-1.38-0.92-1.32c0.28,0.01,0.22,0.17,0.27,0.41
				c-1.27-1.16-0.76,0.88-1.49,0.54c0.31,1.06,1.4,0.43,1.02,1.8c-1.26-1.16-3.31-0.63-3.43-2.98c-2.46,0.89-5.43-0.67-7.47-0.91
				c-0.29,0.41,0.17,0.32,0.06,0.65c-0.79-1.37-2.72,0.92-2.72-0.3c-0.4,0.33-0.57,1.22-0.68,1.55c-0.51-0.59-1.13-0.88-1.78-1.06
				l0.48,0.34l-0.05,0.16l-0.68-0.48l0.03-0.07c-1.64-0.38-3.52-0.06-5.01-1.37c0.85,0.79-0.22,1.46,0.19,1.94
				c-0.75-1.93-2.57-1.98-4.03-1.78c0.01,0.41-0.1,0.73,0.07,1.05l-0.85-0.79l0.12,0.48c-1.52,0.37-3.19-1.77-4.19-0.84
				c0.62,0.22,0.63,0.63,0.7,1.28c-1.09-0.04-2.12-0.06-3.4-0.62c0.07,0.12,0.12,0.25,0.12,0.4c-0.33,0.17-0.74-0.3-1.08-0.53
				l-0.03,0.97c-0.66-0.44-1.49,0.07-2.27-0.69c-0.29,1.07-1.89-0.96-2.77-0.5c-0.35-0.23,0.76,1.1-0.2,1.06
				c-0.17-2.11-1.24-0.03-1.36-2.3l-0.82,0.84l-0.21-1.13c-0.67,2.14-1.1-0.93-2.14-0.24c0.06,0.24,0.18,0.32,0.12,0.48
				c-0.35-0.23-1.14-0.36-0.54-0.95c-0.56,0.02-2.49-0.46-1.61,0.72c-0.08-0.65,0.72-0.11,1.07,0.12c-0.03,0.97-0.88,0.61-1.07,1.67
				c-0.03-0.11-0.14-0.27-0.23-0.43l-0.11,0.6c-1.08-1.05-2.14-0.25-2.93-1.62c-0.04,0.3-0.22,0.54-0.58,0.48l-0.04-1.22l-1.12,0.05
				l0.56,1.76c-1.22,0.38-2.13-1.61-3.15-1.89c-0.22,2.04-1.99-0.72-2.83,1.1l0.8,0.53c-1.69-0.33-1.94,0.9-3.52,0.23
				c1.32-0.71,1.34-0.3,3.24-2c-1.93,0.89-3.39-1.07-5.16,0.14c0.13,0.48,0.58,0.78,0.16,1.29c-0.37-1.04-1.68,0.07-1.44-1.16
				c-0.54,0.43-0.62,1.57-0.95,1.74l-1.89-1.46l0.06,0.24c-3.11,2.89-5.93-1.79-9.06-0.54l0.07,0.65l-0.8-0.94
				c0.63,0.63-0.26,0.82-0.3,1.39l-2.04-1.39C209.97,160.54,210.1,161.83,210.59,161.57z M237.37,161.61l0.48,0.08
				c0.1-0.06,0.2-0.08,0.31,0.05l-0.31-0.05C237.61,161.86,237.43,162.37,237.37,161.61z M282.08,163.81
				c0.22,0.57-0.34,0.16-0.51,0.24l0.79,0.17C282.48,163.9,282.2,163.9,282.08,163.81z M237.56,169.47l-0.25,0.82l-0.36-0.63
				L237.56,169.47z M230.72,169.69l0.69,0.46l-0.05,0.17l-0.69-0.46L230.72,169.69z M222.98,163.29c0.04,0.05,0.08,0.08,0.13,0.16
				C223.08,163.41,223.03,163.36,222.98,163.29c-0.54-0.58-0.72,0.89-1.17-0.52C222.31,161.54,222.67,162.79,222.98,163.29z
				 M235,163.01c0.23,0.15,0.35,0.23,0.51,0.14c-0.13-0.48-0.6-1.19-0.27-1.37c0.25,0.56,1.03,0.68,1.06,1.49
				C235.6,162.42,235.17,164.71,235,163.01z M251.15,163.24l-0.17,0.09l0.64,0.62L251.15,163.24z M254.1,164.02
				c0.36,1.04,1.26,0.85,1.88,1.07c0.15-0.9-0.49-1.93-1.22-1.83C253.89,162.49,254.45,164.66,254.1,164.02z M229.78,164.7
				l0.19,0.72l-0.16,0.09l0.69,0.46c-0.87,1.01-1.54-0.83-2-1.13C228.89,164.9,230.01,166.64,229.78,164.7z M260.36,164.48
				c0.63,0.63,1.76,1.4,1.66,2.14c0.03-1.38-0.87-2-1.16-1.99C260.7,164.71,260.58,164.63,260.36,164.48z M260.34,167.08
				c-0.91-0.62-0.98-1.27-1.68-2.55c0.89-0.59,1.15,1.18,1.05,1.91c0.63,0.63,0.5-0.26,0.83-0.43L260.34,167.08z M259.37,163.21
				l-0.37,0.19c-0.43,0.58-0.51,2.14-1.14,0.58l1.14-0.58C259.1,163.27,259.22,163.19,259.37,163.21z M267.02,163.26l-0.37-0.47
				C267.02,162.84,267.06,163.04,267.02,163.26l0.31,0.4C266.52,164.16,266.94,163.69,267.02,163.26z M261.19,163.64l-1.07-0.13
				C260.18,164.16,260.85,163.81,261.19,163.64z M266.78,164.49c-0.45,0.09-1.63,0.28-1.47,0.19
				C265.42,163.95,266.5,164.09,266.78,164.49z M290.41,166.95l-0.67-0.1l0.37-0.96L290.41,166.95z M282.47,167.38l0.18-0.48
				l0.39,0.08L282.47,167.38z M275.18,167.28c0.04-0.21,0.02-0.48-0.03-0.7c-0.11-0.09-0.2-0.21-0.25-0.42
				c0.1,0,0.19,0.18,0.25,0.42c0.29,0.22,0.73,0.11,0.93-0.19c-0.11-0.48-0.56-0.4-0.73-0.72c0.69-1.15,2.13,2.35,1.76-0.98
				c0.28,0.4,1.23,1.3,0.88,1.87C277.22,166.35,275.77,166.67,275.18,167.28c-0.04,0.18-0.1,0.31-0.23,0.34
				C274.98,167.5,275.07,167.39,275.18,167.28z M265.35,167.92c-0.28-0.08-0.4-0.18-0.45-0.29c-0.24-0.25-0.42-0.62-0.35-1.07
				c0.58,0.4,0.21,0.78,0.35,1.07C265.04,167.78,265.2,167.9,265.35,167.92z M263.61,168.12l0.9,0.63l-0.45-0.72l1.36,1.35
				C264.64,170.05,263.74,169.01,263.61,168.12z M263.3,168.76l-0.19-0.79l0.29,0.81L263.3,168.76l0.04,0.18l-1.52-0.45
				L263.3,168.76z M247.77,167.34c-0.52,2.74,1.38,1.92,1.69,3.23c0.05-0.92,0.6-2.35-0.88-2.29c1.27-0.94,0.83,1.76,1.56-0.54
				c-0.61,0.18-1.36-0.52-1.47-0.59l0.72-0.11C248.95,165.35,248.29,167.89,247.77,167.34z M239.98,167.91l-0.95-0.04l0.91,0.21
				L239.98,167.91z M216.49,169.14c0.08,0.64-1.13,1.83-1.44,0.62C215.67,169.58,216.34,169.63,216.49,169.14z M206.38,169.08
				l1.07,0.54c-0.19,1.47-0.96-0.05-1.46,0.21C205.82,169.1,206.22,169.57,206.38,169.08z M199.42,169.1l-0.34-0.24l0.36,1.45
				L199.42,169.1z M199.89,171.03c-0.22,0.65,0.52,0.96,0.69,0.88L199.89,171.03z M193.59,172.28l0.45-0.09l-0.4-1.29L193.59,172.28
				z M194.31,170.78c0.1,0.93,0.05,2.18,1.08,1.56c0.05-0.97-0.23-0.97,0.16-2.11c-0.34-0.24-0.62,0.18-0.79,0.26
				c0.23,0.16,0.5-0.25,0.56,0.4C194.94,171.25,194.55,171.12,194.31,170.78c-0.03-0.33-0.09-0.62-0.22-0.77
				C194.09,170.31,194.18,170.58,194.31,170.78z M198.05,169.77c0.14-0.12,0.25-0.24,0.31-0.41l0.06,0.24
				C198.28,170.03,198.16,169.93,198.05,169.77c-0.15,0.13-0.32,0.24-0.5,0.35c-0.12,0.82,0.59,1.38,0.77,1.84
				c-0.34-0.24-0.62-1.04-1.07-0.54c0.06,0.24,0,0.41,0.28,0.4l-0.62,0.18c-0.7-1.14-0.03-1.5,0.63-1.87
				c0.02-0.18,0.07-0.37,0.2-0.58C197.85,169.42,197.94,169.62,198.05,169.77z M193.13,167.91l0.33,0.24
				c0.17,0.32,0.06,0.65,0.12,0.89C193.19,168.97,192.68,168.4,193.13,167.91z M213.26,167.56c-0.22,0.25,0.31,1.21,0.81,0.95
				l-0.25,1.22c-0.02-0.81-1.03-0.69-1.14-0.77C212.48,167.83,212.88,168.3,213.26,167.56z M236.65,167.08
				c0.22,1.53,1.48,0.58,1.77,0.98C237.76,168.41,236.25,168.8,236.65,167.08z M238.86,166.41c0.35,0.01,0.45-0.14,0.43,0.64
				c0.18,0.32,0.45-0.1,0.62,0.22C239.24,167.96,239.26,166.72,238.86,166.41c-0.09,0-0.2-0.01-0.33-0.06
				C238.67,166.3,238.77,166.34,238.86,166.41z M225.18,166.6l-0.49-1.12l-0.72,0.11L225.18,166.6z M217.33,164.73
				c0.07,0.65-0.76,0.68-0.94,0.36c0.07,0.85,0.62,0.73,1.07,0.82c0.06,0.07,0.15,0.11,0.29,0.11c-0.09-0.06-0.19-0.09-0.29-0.11
				c-0.17-0.2-0.06-0.63-0.07-0.93l0.22-0.25l-0.62-0.22L217.33,164.73z M203.61,163.97c-0.49,0.67-0.55,0.43-0.89,0.19
				C202.83,163.83,203.27,163.74,203.61,163.97z M221.45,163.92c-0.83,0.44,0.43,1.28-0.12,1.71l0.44-0.1
				c-0.7,0.92-0.53-0.96-1.03-0.69l0.33-0.18c0.25-0.82-0.52-0.55-0.6-1.19C220.87,163.13,221.79,163.74,221.45,163.92z
				 M202.82,163.43c-0.83,0.83-0.68-0.88-1.19-1.03C202.29,161.65,202.2,163.2,202.82,163.43z M216.13,161.53l0.05-0.16l-0.68-0.46
				l-0.05,0.16L216.13,161.53z"/>
		</g>
		<g>
			<path class="st0" d="M201.82,171.96c-0.21,0.1-0.34,0.09-0.46,0.02C201.51,171.94,201.66,171.92,201.82,171.96z"/>
		</g>
		<g>
			<path class="st0" d="M241.02,172.16c0.01-0.22,0.08-0.34,0.18-0.41C241.19,171.88,241.14,172.01,241.02,172.16z"/>
		</g>
		<g>
			<path class="st0" d="M242.65,172.66c0.02,0.01,0.04,0,0.06,0c0.02,0.02,0.04,0.05,0.05,0.07L242.65,172.66z"/>
		</g>
		<g>
			<path class="st0" d="M299.15,170.69c0.27,1.07-0.35,0.14-0.62,0.13C298.81,170.83,298.96,170.11,299.15,170.69z"/>
		</g>
		<g>
			<path class="st0" d="M297.07,168.8c0.15,0.32,0.37,0.54,0.65,0.65C297.54,169.47,297.35,169.35,297.07,168.8z"/>
		</g>
		<g>
			<path class="st0" d="M298.84,169.37c-0.44,0.19-0.82,0.19-1.11,0.08C298.01,169.42,298.28,169.04,298.84,169.37z"/>
		</g>
		<g>
			<path class="st0" d="M291.13,168.75c0.31,0.66,1,0.36,1,0.36c-1.48,0.52,0.23,1.23,0.32,1.72
				C291.56,170.55,291.59,169.74,291.13,168.75z"/>
		</g>
		<g>
			<path class="st0" d="M289.22,168.34c0.15,0,0.29-0.02,0.41-0.11C289.48,168.39,289.35,168.39,289.22,168.34z"/>
		</g>
		<g>
			<path class="st0" d="M288.65,168.94c-0.5-0.17-0.64-0.9-0.85-1.47c0.63-0.5,0.97,0.67,1.42,0.87
				C288.87,168.34,288.52,168.25,288.65,168.94z"/>
		</g>
		<g>
			<path class="st0" d="M273.14,172.02c0.11,0.08,0.39,0.08,0.39,0.48l-0.84,0.01C272.36,172.27,272.97,172.1,273.14,172.02z"/>
		</g>
		<g>
			<path class="st0" d="M270.07,170.02c-0.67-0.07-0.33,0.98-0.67,0.74l0.05-1.38L270.07,170.02z"/>
		</g>
		<g>
			<path class="st0" d="M270.5,163.05l0.2,0.14c-0.08-0.02-0.15-0.03-0.23-0.05L270.5,163.05z"/>
		</g>
		<g>
			<path class="st0" d="M266.83,171.38l0.46,1.53C266.73,172.52,266.73,171.3,266.83,171.38z"/>
		</g>
		<g>
			<polygon class="st0" points="264.28,172.41 264.67,172.88 263.45,172.42 			"/>
		</g>
		<g>
			<polygon class="st0" points="261.2,171.67 261.1,172 260.25,171.62 			"/>
		</g>
		<g>
			<path class="st0" d="M227.56,170.96c-0.16-1.29,1.21-0.78,1.59-1.13C228.92,171.47,228.07,169.32,227.56,170.96z"/>
		</g>
		<g>
			<path class="st0" d="M202.99,171.37l1.3,0.29C203.29,172.17,204.01,171.66,202.99,171.37z"/>
		</g>
	</g>
	<g>
		<path class="st0" d="M22.91,211.58h8.59v44.71h18.13v7.41H22.91V211.58z"/>
		<path class="st0" d="M88.32,256.88v6.83H59.91v-52.12h27.9v6.83H68.49v15.12h18.13v6.83H68.49v16.52H88.32z"/>
		<path class="st0" d="M95.73,248.58l8.22-2.57c0.95,8.22,4.04,11.97,10.42,11.97c4.48,0,7.27-2.94,7.27-7.71
			c0-4.7-1.84-6.97-6.53-8.52l-6.83-2.13c-7.12-2.28-10.79-7.71-10.79-14.83c0-9.03,6.53-14.46,16.15-14.46
			c9.32,0,15.49,4.18,16.74,14.9l-7.78,2.72c-0.88-7.49-3.89-10.94-9.18-10.94c-4.62,0-7.34,2.79-7.34,7.05
			c0,3.89,2.06,6.61,6.39,8.08l6.97,2.35c7.49,2.5,11.01,7.34,11.01,15.2c0,9.1-5.95,15.27-16.3,15.27
			C103.22,264.95,97.05,259.45,95.73,248.58z M116.43,200.28h8l-7.27,8.07h-6.9L116.43,200.28z"/>
		<path class="st0" d="M141.69,211.58h9.69l16,32.23c1.17,2.42,1.91,4.85,2.57,8.08h0.15c-0.22-3.16-0.29-6.53-0.29-10.13v-30.17h8
			v52.12h-9.03l-16.52-33.33c-1.17-2.35-2.06-5.29-2.72-8.15h-0.15c0.15,2.79,0.29,5.95,0.29,9.4v32.08h-8V211.58z"/>
		<path class="st0" d="M215.69,249.9H200.2l-3.6,13.8h-8.74l14.98-52.12h10.13l15.05,52.12h-8.74L215.69,249.9z M213.93,243.37
			l-4.62-17.62c-0.51-2.13-0.88-4.18-1.32-6.61h-0.15c-0.37,2.42-0.81,4.48-1.25,6.61l-4.62,17.62H213.93z"/>
		<path class="st0" d="M271.92,238.6l-5.8,8.74v16.37h-8.59v-52.12h8.59v25.25l16.52-25.25h9.69l-14.46,20.7l15.34,31.42h-9.62
			L271.92,238.6z"/>
		<path class="st0" d="M341,272.22c-1.03,4.26-3.82,6.31-8.08,6.31c-4.55,0-7.71-2.35-7.71-6.61c0-3.45,2.2-6.17,6.31-8.22
			l-3.6-13.8h-15.49l-3.6,13.8h-8.74l14.98-52.12h10.13l15.05,52.12h-1.84c-5.29,1.69-7.71,4.62-7.71,7.63
			c0,1.76,0.95,2.72,2.57,2.72c1.54,0,2.42-1.1,3.01-3.16L341,272.22z M326.18,243.37l-4.62-17.62c-0.51-2.13-0.88-4.18-1.32-6.61
			h-0.15c-0.37,2.42-0.81,4.48-1.25,6.61l-4.62,17.62H326.18z"/>
		<path class="st0" d="M382.85,227c0,10.28-5.95,16.15-16,16.15h-7.85v20.55h-8.59v-52.12h16.3
			C376.9,211.58,382.85,217.45,382.85,227z M373.67,227c0-5.95-2.86-9.03-8.15-9.03h-6.53v18.72h6.61
			C370.74,236.69,373.67,233.38,373.67,227z"/>
		<path class="st0" d="M392.91,263.7v-52.12h8.59v52.12H392.91z"/>
		<path class="st0" d="M444.3,256.88v6.83h-28.41v-52.12h27.9v6.83h-19.31v15.12h18.13v6.83h-18.13v16.52H444.3z"/>
		<path class="st0" d="M456.19,211.58h8.59v44.71h18.13v7.41h-26.72V211.58z"/>
	</g>
	<g>
		<path class="st0" d="M104.17,310.67l1.1-0.08c0,4.3,2.05,5.88,5.09,5.88c2.84,0,4.42-1.62,4.42-4.38c0-2.21-0.99-3.63-3.59-4.49
			l-2.56-0.87c-2.8-0.95-4.02-2.48-4.02-5.17c0-3.12,2.01-4.85,5.32-4.85c3.35,0,5.68,1.46,5.68,6.35l-1.07,0.08
			c-0.2-4.5-1.89-5.52-4.65-5.52c-2.64,0-4.18,1.42-4.18,3.9c0,2.29,0.99,3.51,3.43,4.34l2.68,0.91c2.84,0.95,4.06,2.64,4.06,5.24
			c0,3.39-2.01,5.36-5.52,5.36C106.65,317.38,104.17,315.68,104.17,310.67z"/>
		<path class="st0" d="M122.26,316.9h-1.06v-28.59h1.06V316.9z"/>
		<path class="st0" d="M127.74,307.05c0-7.49,2.6-10.33,6.74-10.33c4.14,0,6.74,2.84,6.74,10.33c0,7.49-2.6,10.33-6.74,10.33
			C130.34,317.38,127.74,314.54,127.74,307.05z M140.12,307.05c0-6.94-2.29-9.38-5.64-9.38s-5.64,2.44-5.64,9.38
			s2.29,9.38,5.64,9.38S140.12,313.99,140.12,307.05z"/>
		<path class="st0" d="M144.1,297.19h1.06l3.75,15.93c0.12,0.67,0.32,1.58,0.43,2.37h0.08c0.12-0.83,0.32-1.62,0.47-2.37l3.98-15.93
			h1.06l3.98,15.93c0.16,0.75,0.35,1.54,0.47,2.37h0.08c0.08-0.79,0.32-1.7,0.43-2.37l3.75-15.93h1.06l-4.73,19.71h-1.1l-4.02-16.4
			c-0.16-0.59-0.28-1.3-0.43-2.05h-0.04c-0.16,0.75-0.28,1.46-0.43,2.05l-4.02,16.4h-1.1L144.1,297.19z"/>
		<path class="st0" d="M179.47,316.9h-1.06v-28.59h1.06V316.9z"/>
		<path class="st0" d="M186.25,289.38h1.14v4.53h-1.14V289.38z M186.29,297.19h1.06v19.71h-1.06V297.19z"/>
		<path class="st0" d="M200.64,298.1h-4.54v18.81h-1.02V298.1h-3.31v-0.91h3.31v-4.49c0-2.96,1.42-4.61,4.14-4.61
			c0.55,0,1.03,0.08,1.42,0.2v0.91c-0.39-0.08-0.79-0.16-1.34-0.16c-2.21,0-3.19,1.18-3.19,3.75v4.42h4.54V298.1z"/>
		<path class="st0" d="M215.54,306.77h-11.63c0.04,7.57,2.37,9.66,5.56,9.66c2.76,0,4.81-1.97,5.01-5.92l0.99,0.12
			c-0.2,4.38-2.64,6.74-5.99,6.74c-4.26,0-6.62-3.04-6.62-10.33c0-7.81,2.44-10.33,6.43-10.33c3.83,0,6.27,2.37,6.27,9.11V306.77z
			 M214.47,305.9c0-6.11-1.89-8.28-5.21-8.28c-3.19,0-5.32,2.21-5.36,8.28H214.47z"/>
		<path class="st0" d="M228.74,312.09c0-1.58,0.43-2.76,1.26-3.71c0.83-0.95,2.6-1.77,4.85-2.17l4.85-0.87v-2.01
			c0-4.02-1.22-5.68-4.5-5.68c-2.96,0-4.77,1.42-4.89,5.72h-1.1c0.04-4.53,2.44-6.66,5.99-6.66c3.82,0,5.56,1.77,5.56,6.35v7.18
			c0,2.68,0.08,4.85,0.39,6.66h-1.1c-0.16-1.26-0.28-2.84-0.28-4.5c-0.83,3.15-2.8,4.97-5.95,4.97
			C230.83,317.38,228.74,315.41,228.74,312.09z M239.71,309.25v-3.04l-4.81,0.87c-3.47,0.63-5.05,2.09-5.05,4.93
			c0,2.8,1.7,4.42,4.26,4.42C237.5,316.43,239.71,313.47,239.71,309.25z"/>
		<path class="st0" d="M247.08,297.19h1.06v4.85c0.75-3.35,3-5.32,5.95-5.32c3.79,0,6.31,2.48,6.31,10.13
			c0,7.41-2.64,10.53-6.51,10.53c-2.84,0-5.01-1.93-5.72-5.01v12.22h-1.1V297.19z M259.3,306.85c0-6.82-1.89-9.19-5.36-9.19
			c-3.43,0-5.8,3.23-5.8,7.89v3c0,4.77,2.25,7.89,5.6,7.89C257.21,316.43,259.3,313.83,259.3,306.85z"/>
		<path class="st0" d="M264.34,312.09c0-1.58,0.43-2.76,1.26-3.71c0.83-0.95,2.6-1.77,4.85-2.17l4.85-0.87v-2.01
			c0-4.02-1.22-5.68-4.5-5.68c-2.96,0-4.77,1.42-4.89,5.72h-1.1c0.04-4.53,2.44-6.66,5.99-6.66c3.82,0,5.56,1.77,5.56,6.35v7.18
			c0,2.68,0.08,4.85,0.39,6.66h-1.1c-0.16-1.26-0.28-2.84-0.28-4.5c-0.83,3.15-2.8,4.97-5.95,4.97
			C266.43,317.38,264.34,315.41,264.34,312.09z M275.3,309.25v-3.04l-4.81,0.87c-3.47,0.63-5.05,2.09-5.05,4.93
			c0,2.8,1.7,4.42,4.26,4.42C273.1,316.43,275.3,313.47,275.3,309.25z"/>
		<path class="st0" d="M288.98,296.72c0.2,0,0.32,0,0.55,0.04v1.06c-0.24-0.04-0.35-0.04-0.55-0.04c-1.26,0-2.33,0.51-3.19,1.54
			c-1.26,1.42-2.05,3.79-2.05,6.35v11.24h-1.06v-19.71h1.03v5.24C284.33,299,286.22,296.72,288.98,296.72z"/>
		<path class="st0" d="M292.02,297.19h2.96v-5.09l1.07-0.47v5.56h4.46v0.91h-4.46v14.94c0,2.25,1.14,3.23,3,3.23
			c0.51,0,0.95-0.04,1.46-0.16v0.91c-0.47,0.16-1.03,0.24-1.74,0.24c-2.25,0-3.79-1.38-3.79-4.1V298.1h-2.96V297.19z"/>
		<path class="st0" d="M306.17,297.19v4.42c0.51-3.08,2.44-4.89,5.12-4.89c2.64,0,4.22,1.54,4.65,4.5c0.67-2.88,2.52-4.5,5.17-4.5
			c3.27,0,4.97,2.13,4.97,6.23v13.96h-1.06v-13.8c0-3.55-1.38-5.44-4.06-5.44c-2.92,0-4.81,2.44-4.81,6.31v12.93h-1.06v-13.92
			c0-3.51-1.38-5.32-3.94-5.32c-3,0-4.93,2.76-4.93,7.18v12.07h-1.06v-19.71H306.17z"/>
		<path class="st0" d="M343.7,306.77h-11.63c0.04,7.57,2.37,9.66,5.56,9.66c2.76,0,4.81-1.97,5.01-5.92l0.99,0.12
			c-0.2,4.38-2.64,6.74-5.99,6.74c-4.26,0-6.62-3.04-6.62-10.33c0-7.81,2.44-10.33,6.43-10.33c3.83,0,6.27,2.37,6.27,9.11V306.77z
			 M342.64,305.9c0-6.11-1.89-8.28-5.21-8.28c-3.19,0-5.32,2.21-5.36,8.28H342.64z"/>
		<path class="st0" d="M349.18,297.19h1.03v4.77c0.71-3.39,2.76-5.24,5.8-5.24c3.63,0,5.44,2.25,5.44,6.74v13.45h-1.03V303.5
			c0-3.86-1.62-5.83-4.61-5.83c-3.43,0-5.56,2.92-5.56,7.81v11.43h-1.06V297.19z"/>
		<path class="st0" d="M365.03,297.19h2.96v-5.09l1.06-0.47v5.56h4.46v0.91h-4.46v14.94c0,2.25,1.14,3.23,3,3.23
			c0.51,0,0.95-0.04,1.46-0.16v0.91c-0.47,0.16-1.03,0.24-1.73,0.24c-2.25,0-3.79-1.38-3.79-4.1V298.1h-2.96V297.19z"/>
		<path class="st0" d="M376.5,310.67l1.1-0.08c0,4.3,2.05,5.88,5.09,5.88c2.84,0,4.42-1.62,4.42-4.38c0-2.21-0.99-3.63-3.59-4.49
			l-2.56-0.87c-2.8-0.95-4.02-2.48-4.02-5.17c0-3.12,2.01-4.85,5.32-4.85c3.35,0,5.68,1.46,5.68,6.35l-1.06,0.08
			c-0.2-4.5-1.89-5.52-4.65-5.52c-2.64,0-4.18,1.42-4.18,3.9c0,2.29,0.99,3.51,3.43,4.34l2.68,0.91c2.84,0.95,4.06,2.64,4.06,5.24
			c0,3.39-2.01,5.36-5.52,5.36C378.99,317.38,376.5,315.68,376.5,310.67z"/>
	</g>
</g>
</svg>
