<svg xmlns="http://www.w3.org/2000/svg" viewBox="0 0 1914.8 2677.38">
	<style type="text/css">
		path, polygon {fill: #20372c;}
	</style>
	<path d="M848.77 992.03c1.15,0.18 2.13,-0.36 3.28,-0.53 -0.89,2.4 -1.68,3.01 -3.28,0.53z" />
	<path d="M876.95 973.15c-4.88,6.83 -12.94,17.46 -24.91,18.35 2.39,-7.62 3.81,-32.88 24.91,-18.35z" />
	<path d="M816.24 966.41l12.32 -3.37c1.42,9.31 -7,0.62 -12.32,3.37z" />
	<polygon points="836.8,978.73 843.54,985.38 833.17,983.87 " />
	<path d="M610.33 1474.83c3.9,1.33 7.98,3.01 12.5,6.65l-12.5 -6.65z" />
	<path d="M562.56 1472.44c-2.39,0.97 -3.72,2.04 -4.7,2.92 0.18,-1.51 1.6,-2.22 4.7,-2.92z" />
	<path d="M618.49 1454l-1.15 4.43c-0.53,-1.95 -0.18,-3.63 1.15,-4.43z" />
	<path d="M733.89 1209.01c7.62,0.88 14.71,1.51 19.76,1.68 1.33,10.73 -11.34,1.86 -19.76,-1.68z" />
	<path d="M391.4 1494.86l5.67 4.96c-3.45,-0.88 -6.47,-2.04 -5.67,-4.96z" />
	<path d="M455.04 1409.15c3.72,2.22 6.29,4.25 7.98,5.94 -0.8,0 -1.33,0.18 -2.13,0.18l-5.85 -6.12z" />
	<path d="M614.59 1431.04c-0.18,-0.18 -0.36,-0.36 -0.44,-0.71l5.67 -0.36c0.09,2.48 -1.68,2.66 -5.23,1.07z" />
	<path d="M365.34 1518.44c-4.25,-0.97 -9.4,-2.57 -15.87,-5.23 4.52,-1.06 11.44,1.68 15.87,5.23z" />
	<path d="M557.59 1476.07l-0.36 -0.18c0.18,-0.18 0.44,-0.36 0.62,-0.36 -0.18,0.18 -0.27,0.18 -0.27,0.53z" />
	<path d="M480.13 1383.09c-2.13,0.88 -3.72,1.86 -6.12,2.75 -0.36,-2.92 2.57,-3.45 6.12,-2.75z" />
	<path d="M733.89 1209.01c-2.13,-0.18 -4.25,-0.53 -6.47,-0.71 0.98,-1.33 3.46,-0.62 6.47,0.71z" />
	<path d="M844.51 1025.26c-1.95,2.75 -6.47,0 -11.17,-3.01 3.28,0.09 6.83,0.97 11.17,3.01z" />
	<path d="M197.64 2073.4l-0.97 0.97c0,-0.62 0.53,-0.97 0.97,-0.97z" />
	<path d="M289.02 1978.2c1.6,0.53 3.55,0.97 5.85,2.22 0.8,2.22 -2.3,0.53 -5.85,-2.22z" />
	<path d="M209.52 1771.06c4.25,13.39 -18.61,7.44 -23.49,12.76l8.86 3.37 -10.37 1.51 10.81 7.8c-11.7,6.47 -8.86,27.12 -28.54,18.17l17.99 11.52 -20.92 0.53 15.69 2.57c-4.52,14.63 -30.31,22.69 -31.91,25.26l7.09 3.72c1.95,4.43 -3.28,2.75 -6.83,3.19l10.55 5.58c-14.89,15.96 3.37,37.31 -20.74,49.55 -1.6,7.09 5.14,-0.71 10.55,3.37 5.32,8.68 -6.65,10.19 -11.96,8.51 15.87,9.84 17.37,-2.04 24.64,13.39 -10.55,-0.97 15.87,7.44 7.27,13.21l-21.19 -11.35c0.18,6.92 14.27,12.23 7.27,17.99 -13.92,1.68 -14.54,-26.32 -26.41,-15.6 -3.28,7.44 34.04,47.51 15.07,52.3 2.13,18.52 33.33,17.11 17.82,28.54l19.15 -0.01c3.55,6.65 14.09,12.41 5.5,15.96 -8.77,-3.55 -21.1,-6.92 -24.47,-4.08 24.29,-3.01 12.68,29.34 40.51,30.58l-4.25 4.43c1.15,0 3.1,1.15 4.25,2.75l-3.37 7.62c7,-0.88 15.51,-9.13 26.24,6.29l-3.37 12.23c12.14,5.58 14.09,12.59 22.87,18.7l40.15 -12.59c-7.09,-3.72 -14.09,-2.92 -19.23,-9.31 -0.18,-11.88 15.69,2.75 12.14,-11.17l-10.55 -3.37c3.55,1.86 5.14,1.68 5.14,4.08 3.55,6.65 -3.37,2.92 -8.77,-1.15 -8.86,-10.72 3.37,-12.41 12.14,-8.86 5.14,-10.19 -17.82,-16.66 -19.59,-21.19 21.1,8.95 10.37,-15.6 22.69,-14.89l-14.09 -5.23c-9.04,-17.64 6.83,-15.07 13.74,-16.13l-10.55 -5.76c8.77,-8.33 -20.12,-37.49 18.79,-19.32l-7 -3.72c-0.18,-6.29 -3.1,-17.82 9.57,-13.92 -3.9,-3.01 -8.42,-7.44 -8.42,-10.02 14.54,7.62 7.44,-3.9 9.22,-11.7 -6.12,1.33 -22.16,-12.59 -29.16,-11.52 -11.17,-22.07 24.64,5.94 29.6,-2.04 -5.5,-10.99 -12.32,-3.01 -19.41,-6.65 17.37,-4.96 -22.87,-53.45 16.4,-35.63l7.44 13.03c10.55,0.88 12.32,-1.86 8.6,-3.55 0,2.39 -3.37,0.53 -7,-1.33 -7.98,-27.12 39.98,-3.9 42.72,-23.58 -7.09,-3.55 -10.55,-3.01 -16.04,-6.92 -2.31,-11.52 37.58,17.64 31.38,-2.92l-8.86 -3.19c-2.13,-6.83 10.37,-1.68 12.32,0.36 -28.99,-21.36 16.49,-21.89 -16.66,-56.64 19.41,6.12 41.75,-0.36 35.99,-11.17 -13.47,-19.15 -23.13,-7.8 -38.03,-21.89 3.28,-5.23 21.19,3.37 20.39,-8.51 16.49,11.35 23.31,38.65 42.1,30.58l-7.44 -8.33c0.18,2.39 2.31,6.83 -1.33,7.44 -12.5,-2.57 -9.4,-10.19 -13.12,-14.27l15.07 -12.41c18.26,10.99 8.07,17.64 11.79,21.72 4.34,-15.07 -11.7,-47.87 7.27,-51.59l-7.27 -3.37c24.11,-4.79 -26.68,-30.67 8.77,-23.22 -0.62,-9.31 -20.12,-10.55 -15.51,-20.83 1.6,-2.75 7.27,3.37 9.22,5.23 13.47,-7.44 -13.56,-16.49 9.22,-16.13l-20.12 -10.37c20.74,-4.08 61.51,4.25 60.27,-12.23 -14.89,-8.95 -17.64,-1.15 -30.31,-5.76 35.19,2.39 25.08,-33.95 47.42,-38.47 9.84,12.23 32.71,12.23 37.58,27.83 -20.21,-10.02 -10.37,2.39 -15.42,5.76 45.65,19.15 -0.62,-45.47 36.43,-24.64l-13.3 -11.52c3.37,-0.71 17.64,0.97 19.94,7.62l-0.18 -21.54c-14.27,-1.68 -46.36,-6.83 -32.71,6.92 -18.17,-5.76 -6.47,-13.03 -26.59,-20.74 30.31,5.41 -6.47,-13.03 5.05,-20.21 18.17,18.52 34.83,7.98 44.67,15.07 -1.77,-6.12 12.5,-7.44 21.36,-5.76 5.67,-4.96 -3.1,-30.05 10.02,-35.1 -8.77,-0.53 -21.1,-0.36 -34.21,-9.31 10.55,0.18 13.47,-5.41 -1.6,-16.49 -38.73,-1.15 32.53,28.81 4.88,32.44 -20.12,-7.62 -26.86,-6.29 -36.96,-1.51 -8.07,-10.37 -13.47,-11.52 -24.82,-21.01 43.43,14.63 18.79,-23.22 44.85,-24.11 14.27,1.68 35.28,21.01 46.62,11.52l5.14 17.99c-3.55,-18.35 12.68,4.43 22.51,-2.39l-14.45 -4.08c1.15,-7.27 4.52,-8.16 15.24,-5.58l-21.72 -7.27c-0.44,-4.61 0.62,-12.05 11.79,-4.96 -4.08,-3.72 -7.62,-6.47 -10.81,-8.51 3.55,1.33 6.29,1.15 7.98,-2.92 -3.37,0.71 -3.28,3.01 -8.77,-0.53 12.76,-10.99 -18.44,-16.66 -11.52,-24.11 -5.14,-1.51 -9.04,-7.44 -9.57,-12.05 29.52,19.5 43.61,4.96 62.67,11.17l-0.44 -0.18 18.79 -3.72c-3.9,0.71 -10.37,-7.09 -11.52,-12.59l-0.18 0.71c-2.31,-6.83 -34.66,-16.75 -19.41,-22.25l12.15 0c-1.6,0.36 -5.5,-3.72 -7.44,-5.76l11.7 -0.71c-21.89,-27.48 25.88,-6.92 19.15,-26.68 0.36,4.61 -4.52,7.98 -12.14,0 -2.13,-4.43 3.1,-5.23 8.42,-3.9l-3.55 -1.68 30.76 -7.98c-10.81,-5.05 -18.61,5.76 -26.68,-6.92 -11.52,-12.05 6.29,-8.33 9.57,-11.17 7.44,5.76 10.02,17.11 18.44,13.21 -3.28,-3.37 -7.09,-15.24 -14.54,-16.13 12.14,-1.51 23.31,-8.33 40.68,-5.05 -2.13,-4.25 -7.27,-3.37 -8.86,-3.01l1.95 2.04c-6.83,1.15 -20.12,-13.03 -17.2,0.71 -25.62,-16.75 0.36,-16.75 1.42,-26.32l-24.47 -0.53c-22.16,-43.61 32.27,-43.43 44.85,-61.96 4.08,11.17 -6.29,10.55 13.56,23.93 17.02,-4.96 11.7,-6.65 23.31,-15.24l-1.6 0.18c-5.85,-13.21 18.79,-7.27 4.08,-24.11 -12.32,-5.23 4.25,15.78 -17.37,0.18l11.52 -13.39c-15.87,-4.79 -11.7,13.39 -18.44,16.75 -1.42,4.96 8.42,-5.94 21.19,6.29 -9.84,13.03 -25.88,5.94 -50.7,-1.86 -17.64,-6.65 -11.35,-17.28 -9.75,-19.85 28.36,7.44 47.15,2.39 46.36,-18.7l-11.17 -19.68c19.23,4.25 46.36,28.81 50.88,14.09l-14.09 -5.05c-2.75,-6.12 -3.1,-8.95 -2.13,-10.19 -12.32,-1.33 -26.06,-3.19 -38.38,-5.23 -20.12,-25.62 25.79,-10.9 37.94,-16.93 -3.55,-1.86 -7,0.88 -13.92,-2.92 4.88,-19.5 45.03,-12.76 56.99,-21.19 -7.09,-13.21 -13.74,4.08 -28.01,-10.72 10.37,-1.33 1.42,-19.15 17.2,-9.13 -22.87,-13.74 8.42,-15.24 -19.41,-18.97 6.65,-29.16 43.7,-37.85 71.44,-50.08 -7,-4.08 -12.14,-8.16 -15.69,-12.59 -5.14,7.62 -19.15,13.74 -36.61,6.29 -7,-13.39 22.69,-0.18 17.46,-6.65 -7,-1.68 -10.55,3.37 -20.92,-4.96 -7,-15.96 12.14,-6.12 17.46,-8.95l3.37 6.83c24.47,-2.57 41.66,21.72 46.98,2.39 -8.42,-15.6 -10.37,-8.51 -25.88,-21.19 8.77,1.51 0.36,-23.4 19.41,-13.39l-5.5 10.02c9.04,-2.57 13.47,-8.51 22.16,-8.33 -3.72,-2.39 -7.27,-4.79 -9.75,-4.61 8.77,-0.71 12.32,-8.16 24.47,-2.04l-15.42 -15.24c5.05,8.95 -0.36,18.79 -10.72,12.76 -13.74,-12.85 1.95,-14.27 3.9,-19.15 -17.64,13.21 -43.61,-7.8 -44.05,15.6l7 1.68c5.5,19.32 -22.16,11.7 -27.65,20.39 -1.77,-5.05 -7.44,-10.55 -10.99,-11.7 -0.36,28.54 -22.96,38.2 -30.14,64.97l-21.1 -6.92 12.32 10.37c-1.6,14.63 -19.23,-11.88 -22.69,-4.25 1.77,-2.57 3.55,-0.53 7,1.51 -22.69,0.53 7.09,15.78 -1.6,19.32 15.69,7.44 13.92,-8.95 29.6,8.16 -22.69,0.53 -27.57,24.91 -59.47,3.01 -3.37,31.2 -41.31,44.32 -56.73,61.25 3.72,6.65 5.32,1.51 9.04,5.76 -22.96,-5.76 -4.25,34.12 -20.39,22.43 1.95,6.83 12.94,16.93 16.66,21.19 -10.81,-0.88 -18.44,2.22 -24.64,6.83l7.44 -1.15 1.95 2.04 -10.55 1.86 -0.8 -0.97c-14.54,12.05 -22.16,32.27 -48.57,34.12 15.69,-0.71 18.44,15.78 27.39,16.49 -30.49,-10.99 -41.75,5.76 -47.78,21.36 5.5,3.72 9.22,7.8 14.71,9.13l-15.87 0.71 7.27 3.37c-4.25,17.64 -42.9,13.74 -36.25,31.55 6.65,-3.9 12.32,-0.18 21.54,5.23 -7,9.84 -13.12,19.32 -28.54,26.15 1.95,0.53 4.25,1.15 6.12,2.57 0.36,4.79 -8.42,4.25 -13.56,5.23l13.12 9.13c-9.84,2.22 -7.8,14.63 -22.69,14.89 12.94,12.41 -24.11,8.86 -22.96,21.36 -5.14,1.15 19.59,2.92 13.47,11.52 -29.78,-17.46 -7.62,11.17 -39.35,-8.33l6.83 15.24 -16.66 -8.33c25.26,25.62 -19.15,1.68 -15.69,17.82 3.72,1.68 5.32,1.33 7.27,3.19 -5.14,1.15 -11.52,7.27 -16.22,-3.72 -3.1,5.41 -20.92,18.79 0.36,21.36 -9.22,-5.23 2.75,-7.62 7.8,-8.86 13.12,9.13 3.1,13.74 16.49,25.08 -1.6,-0.71 -4.52,-1.15 -7.09,-1.86l7.62 6.47c-20.56,0.36 -16.04,17.28 -39.35,12.23 3.9,3.01 6.03,6.92 3.1,9.66l-16.84 -10.9 -5.85 10.72 27.21 10.99c-1.95,14.8 -34.48,4.79 -44.23,11.35 26.41,20.83 -21.54,11.35 -1.77,35.81l11.96 -2.39c-14.54,12.23 0.8,26.15 -17.64,34.3 -1.6,-18.52 3.9,-14.89 -7.98,-48.04 0.8,25.97 -34.48,20.74 -28.54,47.87 7.27,3.37 14.09,2.04 18.26,10.72 -16.22,-6.47 -9.04,15.78 -24.11,2.04 2.39,8.95 17.46,20.39 17.82,25.08l-30.93 3.19 3.55 1.68c19.76,55.31 -59.56,35.81 -61.87,75.7l9.04 5.58 -17.46 -2.04c12.14,0.53 9.22,10.19 16.49,16.13l-30.93 4.61c8.41,5.42 26.4,17.03 25.95,10.03zm160.79 -240.74l3.9 -3.72c-0.36,-1.51 0,-2.57 2.39,-2.39l-2.39 2.39c0.97,3.72 7,10.02 -3.9,3.72zm294.27 -397.62c8.86,3.55 0.18,4.79 0.18,7.09l7 -5.58c-3.55,-4.43 -5.41,-1.69 -7.18,-1.51zm-186.05 467.91l9.75 9.84 -10.72 -2.57 0.97 -7.27zm-37.94 65.42l10.37 -2.22 1.95 2.04 -10.37 2.04 -1.95 -1.86zm-132.96 10.55c0.97,0 1.6,0 2.92,0.36 -0.62,0 -1.6,-0.18 -2.92,-0.36 -10.99,-0.71 7.62,14.89 -13.92,5.76 -13.47,-16.31 5.5,-7.62 13.92,-5.76zm67.9 -111.59c3.37,-0.71 5.14,-0.97 4.88,-3.37 -7.27,-3.19 -19.76,-5.41 -20.21,-10.02 9.04,2.92 15.42,-3.19 26.59,4.08 -15.78,-1.77 12.85,23.31 -11.26,9.31zm97.77 -147.85l0.18 2.39 12.32 -0.36 -12.5 -2.04zm27.92 -20.3c16.4,6.12 18.97,-4.08 25.79,-7.8 -11.35,-9.66 -29.16,-13.03 -32.09,-5.23 -15.78,0.97 17.11,15.51 6.29,13.03zm-133.84 231.43l10.81 4.96 0.36 2.39 10.19 -2.04c8.6,17.46 -20.21,6.47 -27.21,7.8 3.45,-3.19 33.59,2.75 5.85,-13.12zm176.92 -285.94c12.32,0 29.6,-3.37 38.91,4.43 -18.44,-13.21 -32.35,-10.55 -33.86,-7.8 0.09,2.4 -1.68,2.75 -5.05,3.37zm35.1 24.11c-13.92,2.75 -22.87,-2.57 -44.41,-7.8 -2.75,-13.92 22.87,0.18 32.09,7.8 12.32,0 -0.44,-7.09 -0.8,-11.7l13.12 11.7zm-58.15 -26.59l0.44 5.23c5.32,9.31 26.06,24.64 1.33,16.13l-1.33 -16.13c-1.42,-2.22 -1.68,-4.08 -0.44,-5.23zm46 -71.44l-8.6 -0.97c2.93,-2.93 5.85,-1.42 8.6,0.97l7.27 0.88c1.95,12.32 -2.04,3.81 -7.27,-0.88zm-29.34 58.32l-8.24 8.86c9.22,5.41 8.42,-3.9 8.24,-8.86zm44.4 -44.41c-1.6,5.05 -5.85,17.99 -6.12,15.6 -9.22,-7.98 -0.97,-16.84 6.12,-15.6zm173.02 -196.51l-5.32 5.23 -10.55 -12.85 15.87 7.62zm-41.22 78.27l-5.32 -6.47 3.37 -2.75 1.95 9.22zm-44.32 66.66c-2.57,-2.39 -6.12,-4.79 -9.57,-6.47 -1.77,0.18 -4.08,-0.18 -7.09,-1.68 0.62,-0.97 3.55,0 7.09,1.68 4.7,-0.53 5.85,-5.58 3.1,-10.37 -7.09,-3.72 -8.77,1.33 -14.09,-0.18 -10.99,-17.46 43.87,2.92 -2.57,-25.79 7,1.33 24.47,0.97 29.96,9.84 -7.18,4.96 -11.52,21.8 -6.83,32.97 2.13,2.04 3.55,3.9 3.1,5.41 -1.51,-1.51 -2.48,-3.37 -3.1,-5.41zm-49.55 97.23c-2.75,1.86 -4.7,2.04 -6.47,1.51 -4.7,-0.18 -10.72,-1.86 -16.49,-6.83 8.77,-1.68 11.7,5.23 16.49,6.83 2.75,-0.18 5.14,-0.53 6.47,-1.51zm-7.44 17.91l13.74 -2.57 -12.32 -2.57 26.06 -0c4.43,13.65 -14.71,12.32 -27.48,5.14zm6.74 8.86l-11.79 -5.58 12.68 4.96 -0.88 0.62 2.75 1.33 -14.89 9.84 12.15 -11.17zm-109.91 131.45c34.48,29.87 34.21,4.61 54.07,13.74 -12.14,-8.86 -28.54,-26.95 -36.43,-12.76 -5.5,-20.39 28.81,8.33 1.6,-19.5 -1.15,7.27 -15.07,7.98 -16.66,8.33l2.75 -7.62c-25.79,-11.35 5.05,17.99 -5.32,17.82zm-38.11 77.56l-6.12 8.51 8.07 -6.47 -1.95 -2.04zm-124.98 227.53c9.04,5.41 17.37,28.01 -0.62,19.15 1.24,-7.45 6.12,-13.03 0.62,-19.15zm-63.55 91.3l13.74 -4.61c18.17,16.13 -6.65,8.16 -6.29,15.24 -10.64,-5.4 -1.95,-4.34 -7.44,-10.64zm-43.26 63.11l-5.14 0.71 21.19 11.17 -16.04 -11.88zm28.36 14.89c7.27,8.51 15.87,4.79 15.87,2.39l-15.87 -2.39zm-22.96 69.58l1.6 -4.96 -19.41 -9.31 17.82 14.27zm-15.24 -21.54c12.76,8.33 28.81,21.36 27.21,5.76 -12.5,-10.19 -14.09,-7.62 -26.68,-22.43 -5.14,0.71 -1.6,7.27 -1.6,9.66 3.55,-0.53 -0.18,-7.09 8.77,-1.15 2.3,7.09 -1.68,9.48 -7.71,8.16 -4.52,-3.01 -8.77,-5.41 -11.52,-5.58 3.9,2.84 7.98,4.7 11.52,5.58zm10.19 -43.79c-0.62,-2.39 -1.6,-4.79 -3.37,-6.83l3.55 1.86c4.52,5.5 2.57,5.5 -0.18,4.96 0.8,2.57 1.15,5.23 1.42,7.98 10.02,9.13 21.72,8.51 28.99,11.17 -5.14,0.71 -17.46,-4.61 -13.74,4.43 3.55,1.86 5.32,4.08 7,1.33l-1.42 7.27c-19.41,-5.05 -19.76,-14.63 -20.56,-24.47 -2.31,-2.04 -4.34,-4.43 -6.29,-7.44 -1.24,-1.95 2.04,-0.8 4.61,-0.26zm-55.04 25.79l5.14 -0.71c5.32,1.68 8.86,5.94 12.32,7.8 -3.37,2.92 -13.92,1.86 -17.46,-7.09zm120.37 -185.25c1.95,4.43 17.99,8.95 17.64,1.86l14.71 14.09c-10.81,-7.62 -15.51,2.57 -17.37,2.92 -16.14,-9.22 -7.45,-8.24 -14.98,-18.88zm135.17 -218.4c22.16,12.05 16.66,-8.33 23.84,-7.44 0.8,9.48 -2.75,27.03 -23.84,7.44zm3.9 -26.41c2.31,-3.01 0.8,-5.41 11.17,1.86 5.32,1.33 1.33,-5.05 6.65,-3.72 5.49,12.32 -11.17,0.97 -17.82,1.86 -0.62,0.88 -1.33,1.68 -2.75,2.57 0.17,-1.95 1.33,-2.39 2.75,-2.57zm-79.06 127.37l-17.99 -6.12 -2.92 7.62 20.92 -1.51zm-72.68 53.27c9.04,5.58 4.34,13.39 -0.97,12.05 11.79,7.62 13.56,1.33 17.37,-1.86 1.33,0.18 2.39,-0.36 3.28,-1.68 -1.33,0.18 -2.31,0.88 -3.28,1.68 -3.72,-0.36 -8.86,-5.58 -12.76,-8.33l-2.13 -4.43 -6.83 3.37 5.32 -0.8zm-94.4 115.94c5.67,10.99 2.13,9.13 -3.1,9.84 -3.72,-4.25 -2.13,-9.22 3.1,-9.84zm108.67 -160.7c0.8,11.7 19.76,8.33 22.16,17.28l1.42 -4.96c8.07,15.07 -16.04,-4.43 -15.51,2.75l-0.36 -4.61c-9.57,-10.02 -10.55,-0.53 -19.59,-5.94 -2.21,-6.92 11.52,-9.31 11.88,-4.52zm-120.81 162.38c5.85,15.6 -15.69,-2.57 -20.74,0.53 -5.85,-13.47 13.92,2.66 20.74,-0.53zm56.46 -137.48l-1.77 -2.04 -10.19 1.68 1.95 2.04 10.02 -1.68z" />
	<path d="M292.3 1952.23c0.18,2.92 -0.97,3.9 -2.57,4.43 0.44,-1.86 1.06,-3.37 2.57,-4.43z" />
	<path d="M535.7 1593.07c-2.92,-2.22 -4.08,-3.9 -4.52,-5.41 1.77,1.15 3.19,2.93 4.52,5.41z" />
	<path d="M552.19 1582.26c0.18,-0.18 0.18,-0.36 0.44,-0.53l1.33 0.18 -1.77 0.36z" />
	<path d="M854.88 1040.86c15.51,7.98 0,4.79 -1.95,7.09 1.86,-2.48 -6.74,-11.17 1.95,-7.09z" />
	<path d="M818.19 1041.57c5.05,1.86 9.22,2.04 12.32,0.36 -0.88,1.95 -3.46,2.48 -12.32,-0.36z" />
	<path d="M835.83 1030.67c-0.18,6.12 -2.13,9.66 -5.32,11.35 1.24,-3.01 -2.12,-9.31 5.32,-11.35z" />
	<path d="M783.17 1096.88c10.55,3.55 10.37,-5.76 10.37,-5.76 -1.77,18.97 17.46,10.02 24.29,13.92 -8.6,5.59 -18.97,-2.75 -34.66,-8.16z" />
	<path d="M766.51 1110.44c0.8,-1.33 1.42,-2.92 0.97,-4.96 1.06,3.1 0.44,4.43 -0.97,4.96z" />
	<path d="M771.03 1121.61c-5.14,2.92 -15.69,-3.01 -24.47,-6.65 -2.75,-10.72 14.71,-2.39 19.94,-4.43 -2.12,3.28 -5.49,5.49 4.52,11.08z" />
	<path d="M720.78 1294.81c1.77,-0.36 3.37,-2.92 8.77,0.97l-4.88 7.62c-5.14,0.98 -3.9,-6.38 -3.9,-8.6z" />
	<path d="M676.28 1304.2c-4.88,5.58 11.17,12.41 6.03,13.03l-18.26 -13.56 12.23 0.53z" />
	<path d="M585.25 1233.74l3.1 -0.53c-0.62,0.53 -1.33,0.97 -2.13,1.68l-0.97 -1.15z" />
	<path d="M675.48 1346.57l23.31 10.19c-8.6,1.51 -25,-10.02 -23.31,-10.19z" />
	<polygon points="674.68,1379.63 683.19,1380.52 669.99,1387.61 " />
	<polygon points="646.76,1401.17 650.48,1405.25 640.47,1409.33 " />
	<path d="M438.82 1707.15c-18.44,-10.72 -3.1,-18.52 -5.5,-25.26 20.57,17.46 -13.74,5.05 5.5,25.26z" />
	<path d="M291.77 1935.65l11.96 -8.86c0.53,14.09 -1.59,2.57 -11.96,8.86z" />
	<path d="M1543.59 1984.32c-0.44,0.97 -0.36,2.22 -0.62,3.19 -1.86,-1.33 -2.3,-2.31 0.62,-3.19z" />
	<path d="M1551.39 2016.76c-4.52,-6.65 -11.35,-17.28 -8.42,-29.16 5.94,4.52 28.1,12.85 8.42,29.16z" />
	<path d="M1576.74 1959.59l-0.8 12.85c-8.87,-0.97 1.68,-6.92 0.8,-12.85z" />
	<polygon points="1559.1,1976.34 1551.21,1981.13 1555.73,1971.46 " />
	<path d="M1178.5 1636.68c-2.31,3.55 -5.05,7.27 -9.4,10.9l9.4 -10.9z" />
	<path d="M1193.56 1589.53c-0.36,-2.57 -0.8,-4.08 -1.33,-5.41 1.51,0.71 1.51,2.22 1.33,5.41z" />
	<path d="M1195.34 1649.62l-3.72 -2.04c1.77,0 3.28,0.44 3.72,2.04z" />
	<path d="M1384.49 1817.77c-2.75,7.27 -5.32,14.09 -7.09,18.97 -9.75,-1.33 1.42,-11.52 7.09,-18.97z" />
	<path d="M1224.14 1415.97l-6.12 4.43c1.77,-3.28 3.9,-5.76 6.12,-4.43z" />
	<path d="M1280.08 1497.43c-3.1,3.01 -5.5,5.23 -7.44,6.65 0.18,-0.71 0.18,-1.33 0.44,-2.22l7 -4.43z" />
	<path d="M1217.06 1650.78c0.36,-0.18 0.44,-0.36 0.8,-0.36l-1.15 5.76c-2.4,-0.27 -2.04,-2.04 0.36,-5.4z" />
	<path d="M1212 1385.13c2.31,-3.9 5.32,-8.33 9.84,-13.92 -0.71,4.52 -5.23,10.46 -9.84,13.92z" />
	<path d="M1191.79 1583.76l0.18 -0.36c0.18,0.18 0.18,0.53 0.18,0.71 -0.18,0 -0,-0.36 -0.36,-0.36z" />
	<path d="M1296.12 1527.75c-0.18,-2.22 -0.62,-4.08 -0.62,-6.65 2.75,0.53 2.4,3.46 0.62,6.65z" />
	<path d="M1384.49 1817.77c0.8,-2.04 1.6,-4.08 2.39,-6.29 0.89,1.33 -0.26,3.55 -2.39,6.29z" />
	<path d="M1515.23 1971.29c-1.77,-2.75 2.13,-6.47 6.12,-10.02 -0.98,3.01 -2.75,6.29 -6.12,10.02z" />
	<path d="M800.19 1044.76l-0.44 -1.15c0.62,0.18 0.62,0.62 0.44,1.15z" />
	<path d="M843.45 1166.2c-1.15,1.33 -2.39,2.92 -4.25,4.61 -2.22,0.18 0.53,-2.22 4.25,-4.61z" />
	<path d="M1053.34 1164.87c-13.12,-0.53 1.15,-19.68 -1.42,-25.97l-6.47 7.09 2.92 -10.02 -10.99 7.44c-0.97,-12.76 -19.15,-17.82 -3.55,-32.71l-17.2 12.76 8.07 -19.5 -8.6 13.74c-10.55,-9.31 -6.83,-35.99 -8.42,-38.38l-6.12 5.23c-4.52,0.18 -0.97,-4.08 0,-7.44l-9.22 7.8c-7.27,-19.32 -33.33,-10.02 -33.33,-36.96 -5.32,-4.08 -1.6,5.05 -7.27,8.68 -9.75,1.86 -5.85,-10.02 -2.13,-14.27 -15.07,11.17 -5.5,16.75 -21.89,17.99 5.32,-9.31 -12.94,12.05 -14.27,1.86l18.61 -15.42c-6.03,-2.39 -16.49,8.68 -18.26,0.18 4.52,-13.56 28.54,-3.72 24.47,-18.7 -4.88,-5.76 -54.87,13.92 -50.88,-5.41 -16.66,-4.96 -28.81,24.47 -31.91,5.94l-8.07 17.82c-7.27,0.88 -16.66,8.33 -15.87,-0.97 6.83,-6.83 14.71,-16.75 13.92,-21.01 -7.8,23.58 -30.49,0.53 -43.26,25.79l-1.95 -5.58c-0.44,0.97 -2.39,2.39 -4.08,2.92l-5.05 -6.12c-2.31,6.83 1.33,17.99 -16.4,21.89l-9.22 -7.8c-10.02,9.13 -16.66,8.16 -25.62,14.09l-6.12 42.46c6.12,-5.05 8.42,-12.05 16.22,-14.45 10.19,4.43 -8.86,13.74 4.52,15.6l7.27 -8.51c-3.1,2.57 -3.72,4.25 -5.67,3.37 -7.27,0.88 -0.97,-4.43 4.7,-7.62 12.94,-4.08 9.22,7.8 2.39,14.8 6.65,8.86 21.72,-10.19 26.41,-10.19 -16.66,16.31 9.04,15.78 3.37,26.95l10.37 -11.17c18.97,-1.68 10.02,12.23 7.98,18.97l9.22 -7.8c3.55,11.35 40.15,-4.61 8.6,25.08l6.12 -5.23c5.5,2.22 16.66,3.55 8.24,14.27 4.25,-2.57 9.84,-5.05 12.14,-4.25 -12.68,10.9 0.36,8.51 6.29,12.85 1.33,-6.29 19.94,-16.13 21.89,-23.04 23.67,-2.39 -15.07,20.83 -10.37,28.54 11.79,-1.15 7.62,-10.55 13.56,-15.78 -2.75,18.17 55.04,-2.04 23.93,28.36l-14.27 2.22c-4.88,9.66 -3.37,12.23 -0.36,9.48 -2.13,-0.88 0.97,-3.37 4.08,-6.12 26.41,2.39 -12.94,39.35 3.28,49.02 6.03,-5.41 6.83,-8.95 12.32,-12.76 10.81,1.86 -29.96,29.34 -9.75,30.67l6.29 -7.27c6.83,0.36 -2.57,10.55 -5.05,11.52 29.78,-20.21 12.68,23.58 55.58,3.9 -13.12,16.66 -16.04,40.24 -4.08,38.2 21.72,-6.47 15.42,-19.5 33.33,-28.99 3.37,4.79 -10.81,18.97 -0.36,22.25 -16.04,12.05 -42.72,9.31 -42.46,30.05l10.02 -4.43c-2.13,-0.71 -6.83,-0.18 -6.03,-3.72 6.83,-10.99 12.5,-5.41 17.46,-7.8l5.14 18.52c-16.4,13.92 -18.44,1.86 -23.31,4.08 11.79,9.31 46.36,4.79 42.46,24.29l5.67 -5.94c-4.52,24.91 36.43,-16.13 17.37,15.96 8.6,2.22 16.4,-16.13 23.84,-8.68 1.77,2.39 -5.5,5.94 -7.98,7.27 1.77,15.24 19.15,-8.16 10.99,13.92l16.04 -16.31c-3.72,21.01 -25.44,58.86 -10.02,62.22 12.76,-11.88 6.83,-16.75 15.24,-27.65 -13.74,33.42 21.89,34.12 18.61,57.35 -14.09,6.12 -21.36,28.63 -36.96,28.81 15.42,-16.93 1.33,-10.9 -0.18,-16.75 -31.55,39.35 40.68,13.03 10.55,43.26l14.45 -9.84c-0.36,3.55 -6.29,17.11 -13.12,17.64l19.59 5.76c5.85,-13.74 20.21,-43.79 3.55,-34.3 10.72,-16.13 13.56,-2.92 26.68,-20.39 -14.27,28.36 13.56,-2.92 16.49,10.37 -22.16,12.85 -17.64,32.27 -27.03,40.24 6.03,-0.18 2.92,14.63 -1.15,22.87 2.75,7.09 28.01,4.96 28.81,19.32 2.92,-8.68 6.29,-20.83 18.26,-31.55 -3.1,10.37 0.97,14.8 15.24,2.57 12.32,-38.03 -35.28,25.08 -30.58,-3.19 12.68,-17.82 13.47,-25.08 12.5,-36.16 11.52,-5.23 14.27,-10.19 26.24,-18.97 -26.24,39.18 15.07,24.11 8.07,50.26 -5.67,13.56 -28.99,29.87 -23.67,43.61l-17.64 0.71c17.46,1.15 -7.62,11.52 -4.25,23.04l7.8 -13.39c6.29,2.92 6.12,6.65 0.8,16.66l12.68 -19.85c4.34,0.71 10.72,3.55 1.15,13.03 4.52,-3.19 7.98,-5.94 10.72,-8.68 -2.31,3.01 -2.92,6.12 0.36,8.68 0.36,-3.55 -1.95,-3.9 2.92,-8.68 6.47,15.24 19.94,-14.45 24.82,-5.76 2.75,-4.79 9.22,-7.27 13.47,-6.65 -25.79,24.73 -16.4,42.28 -27.03,59.92l0.36 -0.36 -1.6 19.68c0.36,-4.08 9.22,-8.68 14.45,-8.51l-0.44 -0.36c6.65,-0.88 24.47,-30.84 25.26,-14.45l-3.28 12.23c0.18,-1.68 4.7,-4.79 7.09,-6.12l-2.39 11.7c30.58,-15.78 -0.62,27.48 18.97,24.91 -4.34,-0.71 -6.03,-6.29 3.28,-12.23 4.52,-1.15 4.08,4.25 1.42,9.13l2.39 -3.19 -0.8 32.27c7.44,-9.66 -0.18,-19.85 13.3,-25.08 13.92,-8.86 5.85,8.16 7.62,12.05 -7.09,6.12 -17.99,6.29 -16.66,15.42 3.9,-2.57 15.69,-3.9 18.26,-10.99 -1.77,12.59 1.33,24.91 -6.29,41.57 4.34,-1.15 5.05,-6.47 5.14,-8.16l-2.31 1.33c0.62,-7.09 17.02,-17.11 3.9,-17.28 21.89,-21.89 14.89,4.08 23.31,7.09l6.83 -24.11c45.38,-12.85 30.49,41.39 43.7,58.06 -11.17,1.68 -7.8,-8.51 -25.08,8.33 -0.18,17.99 2.75,13.03 7.44,26.32l0.18 -1.68c13.47,-2.92 1.33,20.21 20.21,9.31 8.07,-10.99 -15.24,0.71 4.7,-17.28l8.77 14.45c8.77,-14.63 -8.77,-14.45 -9.84,-21.89 -3.9,-2.57 2.92,9.66 -11.52,19.68 -8.86,-12.76 1.42,-26.77 15.24,-49.73 10.72,-16.13 18.44,-7.44 20.56,-5.23 -14.09,26.32 -15.07,46.36 4.25,50.08l20.74 -6.65c-9.22,18.17 -38.73,39.18 -26.68,46.98l8.6 -12.76c6.12,-1.33 8.86,-0.97 9.75,0.18 4.7,-11.7 10.19,-24.91 15.42,-36.61 28.54,-13.74 2.92,27.83 4.88,41.22 2.57,-3.01 1.15,-7.09 6.47,-13.21 16.04,9.48 -1.42,47.51 2.57,61.25 13.92,-3.9 0.36,-14.63 17.64,-24.91 -1.77,10.55 16.66,5.94 3.28,19.15 18.97,-18.97 11.17,11.88 22.69,-14.45 24.64,13.56 20.92,52.39 23.49,82.43 5.67,-5.76 10.99,-9.66 16.04,-12.05 -5.14,-7.09 -6.47,-22.25 5.5,-37.49 14.09,-3.37 -6.65,22.25 0.62,18.79 3.55,-6.47 0,-11.17 10.72,-19.15 16.4,-2.75 1.77,13.56 2.75,19.5l-7.09 1.68c-5.14,24.47 -32.09,35.1 -16.4,45.11 16.49,-4.25 10.72,-7.8 26.86,-19.68 -4.25,8.16 20.74,6.65 5.85,22.69l-7.09 -7.98c-0.44,9.48 3.28,15.42 0.36,23.75 3.28,-2.92 6.65,-5.76 7.09,-8.16 -2.13,8.68 3.37,14.27 -6.03,24.47l18.44 -10.9c-9.75,2.39 -16.66,-5.41 -7.98,-13.92 15.87,-10.02 12.14,5.76 15.87,8.95 -6.29,-20.83 20.74,-40.51 -0.18,-47.33l-3.72 6.47c-18.97,0.18 -3.72,-24.73 -9.84,-32.44 5.05,-0.36 11.7,-4.61 13.74,-7.8 -25.62,-7.8 -27.39,-32.71 -49.37,-46.62l12.32 -18.97 -12.94 9.48c-12.68,-5.23 16.22,-16.13 10.37,-21.36 1.77,2.39 -0.62,3.55 -3.37,6.65 6.03,-22.6 -16.4,3.01 -17.02,-6.47 -11.17,13.74 4.08,15.96 -15.87,27.3 6.12,-22.43 -14.54,-33.24 14.27,-59.56 -27.03,-11.17 -28.81,-51.59 -39.8,-71.09 -7,2.22 -2.92,4.96 -7.62,7.62 11.52,-21.72 -29.78,-12.23 -14.89,-25.62 -6.83,0.53 -18.79,9.13 -23.49,11.88 3.55,-10.72 2.92,-18.79 0.44,-26.15l-0.8 7.62 -2.39 1.33 1.15 -10.9 1.15 -0.71c-7,-17.28 -23.31,-29.34 -18.17,-55.84 -3.55,15.78 -19.15,14.89 -22.07,23.58 17.99,-28.01 5.85,-42.9 -6.83,-52.39 -4.7,4.79 -9.4,7.62 -11.96,12.76l3.55 -15.78 -5.05 6.47c-14.71,-7.62 -0.8,-45.47 -18.61,-42.72 1.6,7.44 -3.28,12.23 -10.37,20.21 -7,-8.95 -13.92,-17.28 -15.69,-33.77 -0.97,1.86 -2.31,3.72 -3.9,5.58 -4.25,-0.53 -1.33,-9.13 -0.97,-14.63l-11.79 10.9c0.8,-10.19 -10.81,-10.9 -6.83,-25.79 -14.71,10.02 -1.15,-25.79 -12.32,-27.3 0.44,-5.23 -8.24,18.52 -14.09,10.55 24.29,-25.26 -7.62,-10.19 18.97,-36.61l-15.42 3.01 12.32 -14.27c-30.14,18.79 4.25,-18.97 -10.81,-19.32 -2.57,3.19 -2.75,4.96 -5.05,6.47 0.62,-5.23 -2.57,-12.85 8.24,-14.8 -3.72,-4.08 -9.4,-24.47 -18.44,-4.61 7.44,-7.8 5.85,4.43 5.05,9.66 -11.96,10.72 -12.76,-0.18 -27.03,10.19 1.15,-1.33 2.39,-4.08 3.9,-6.65l-8.07 5.76c6.29,-20.03 -10.02,-19.68 2.13,-40.86 -4.08,3.01 -8.07,4.08 -9.57,0.71l14.89 -13.56 -7.27 -8.33 -18.61 23.4c-11.96,-5.76 7.8,-34.48 5.32,-45.47 -27.03,19.85 -2.31,-23.4 -30.31,-10.9l-2.13 12.05c-5.67,-16.93 -22.69,-6.47 -22.96,-26.32 16.49,3.37 11.17,8.33 43.87,5.58 -22.69,-6.12 -4.88,-38.38 -30.49,-40.07 -5.5,5.94 -7,12.76 -15.87,14.27 11.52,-13.56 -10.37,-13.03 7.09,-23.4 -8.6,-0.18 -23.93,10.72 -28.19,9.66 2.75,-10.02 5.85,-20.21 9.04,-30.23l-2.92 2.92c-27.21,1.15 -29.52,-15.96 -28.54,-34.57 0.62,-18.52 4.52,-39.18 -11.7,-46.8l-8.42 6.65 8.77 -15.6c-5.32,11.17 -12.5,5.41 -20.39,10.19l8.42 -30.23c-7.87,4.78 -24.89,17.64 -18.86,19.67zm146.69 222.3l1.95 4.61c1.42,0 2.31,0.71 1.33,2.92l-1.33 -2.92c-3.37,-0.09 -10.99,4.16 -1.95,-4.61zm272.47 379.81c-5.67,7.98 -4.34,-0.97 -6.29,-1.51l3.1 8.33c4.79,-2.57 2.84,-4.96 3.19,-6.83zm-369 -292.94l-11.79 6.83 5.67 -9.84 6.12 3.01zm-45.65 -56.02l-1.42 10.72 -2.39 1.15 1.6 -10.72 2.21 -1.15zm38.2 -131.01c-0.36,0.88 -0.62,1.51 -1.33,2.75 0.09,-0.53 0.53,-1.51 1.33,-2.75 4.7,-10.19 -15.51,2.57 0.44,-15.07 18.88,-7.63 4.25,7.62 -0.44,15.07zm72.59 96.26c-0.44,3.55 -0.8,5.23 1.33,5.58 5.32,-6.29 11.35,-17.64 15.51,-16.75 -5.5,7.98 -2.57,15.6 -12.5,24.64 6.47,-15.07 -24.82,6.03 -4.34,-13.47zm99.1 130.48l-2.31 -0.36 -3.28 12.23 5.59 -11.88zm10.37 32c-9.84,14.8 -1.6,19.5 0,27.12 11.7,-9.13 19.59,-26.15 13.47,-30.58 3.37,-15.69 -18.7,13.65 -13.47,3.46zm-161.94 -187.47l-8.07 8.95 -2.13 -0.53 -1.95 10.55c-17.99,3.01 1.6,-21.72 2.92,-28.63 1.6,4.26 -14.27,31.56 9.22,9.67zm199.17 241.98c-3.28,12.23 -4.7,30.05 -14.09,37.67 16.66,-15.6 17.99,-30.05 15.87,-32.09 -2.21,-0.36 -2.04,-2.04 -1.77,-5.58zm-31.11 29.69c1.15,-14.27 8.42,-22.25 18.79,-42.46 13.12,0.18 -6.12,22.6 -15.51,30.23 -3.28,12.23 6.47,0.97 10.81,1.51l-14.09 10.72zm39.35 -52.12l-4.88 -0.71c-9.84,3.19 -28.99,20.74 -14.71,-2.22l14.71 2.22c2.48,-0.62 4.25,-0.62 4.88,0.71zm52.21 61.25l3.1 -8.33c2.04,3.46 -0.18,6.12 -3.1,8.33l-2.75 6.92c-11.52,-0.62 -2.92,-2.84 2.75,-6.92zm-44.85 -41.92l-5.85 -10.02c-7.18,7.98 1.42,9.4 5.85,10.02zm28.45 53.98c-4.25,-2.57 -14.54,-9.66 -12.5,-9.31 9.57,-7.63 15.25,2.48 12.5,9.31zm129.24 217.16l-3.1 -6.65 14.71 -6.92 -11.61 13.56zm-58.24 -59.56l7.27 -3.72 1.42 4.08 -8.68 -0.35zm-47.68 -59.39c2.92,-2.04 6.03,-5.05 8.42,-8.16 0.36,-1.86 1.33,-4.08 3.37,-6.65 0.62,0.88 -0.97,3.55 -3.37,6.65 -0.8,4.79 3.55,7.09 8.42,5.41 5.14,-6.29 1.15,-8.95 4.08,-13.92 18.61,-6.92 -14.54,42.9 23.93,3.37 -3.1,6.65 -7.62,24.11 -17.02,27.48 -2.57,-8.07 -16.49,-16.22 -27.83,-14.19 -2.39,1.68 -4.52,2.75 -5.67,1.86 1.77,-0.97 3.72,-1.51 5.67,-1.86zm-74.28 -70.38c-0.8,-3.01 -0.44,-5.05 0.36,-6.83 1.33,-4.61 4.52,-10.37 10.37,-14.89 -0.8,9.13 -7.98,10.55 -10.37,14.89 -0.71,2.92 -1.07,5.32 -0.36,6.83zm-14.27 -11.26l-1.33 14.27 5.5 -11.7 -7 25.97c-13.21,1.33 -6.92,-17.46 2.84,-28.54zm-9.75 4.79l8.07 -10.55 -7.8 11.52 -0.27 -0.98 -1.77 2.39 -4.88 -17.11 6.65 14.71zm-88.28 -138.81c-36.43,26.95 -13.92,32.88 -27.57,50.35 11.35,-10.02 32.09,-21.89 21.54,-33.24 19.76,-0.53 -15.51,26.68 17.02,6.29 -6.29,-2.75 -2.92,-16.75 -2.75,-18.52l6.12 4.61c17.38,-22.69 -17.37,0.88 -14.36,-9.48zm-57.62 -56.82l-5.5 -8.33 3.28 9.66 2.22 -1.33zm-156.27 -189.51c-8.24,6.83 -31.11,7.09 -16.4,-7.09 5.67,3.9 8.95,10.37 16.4,7.09zm-53.98 -91.74l-1.77 14.63c-21.19,11.35 -4.34,-9.13 -10.55,-11.52 9.22,-8.24 4.7,-0.27 12.32,-3.1zm-36.6 -63.46l1.42 -5.05 -18.26 15.78 16.84 -10.72zm-24.47 21.01c-10.19,3.72 -10.72,13.03 -8.6,13.92l8.6 -13.92zm-49.99 -47.87l3.55 3.37 16.04 -14.63 -19.59 11.26zm24.73 -5.94c-12.5,8.86 -30.31,18.79 -16.4,23.22 13.92,-7.8 12.32,-10.37 30.49,-16.49 1.6,-5.05 -5.5,-4.25 -7.62,-5.05 -1.15,3.55 6.12,2.57 -2.75,8.68 -6.92,-0.53 -7.27,-5.22 -3.72,-10.37 4.52,-3.01 8.24,-6.12 9.75,-8.68 -4.08,2.57 -7.44,5.67 -9.75,8.68zm33.24 25.97c2.31,0.18 4.7,0.18 7.27,-0.71l-3.1 2.75c-6.64,2.22 -5.94,0.36 -4.16,-2.04 -2.57,-0.36 -5.05,-0.88 -7.44,-1.68 -12.14,5.94 -16.22,17.28 -21.72,22.87 1.42,-5.05 11.17,-14.63 1.95,-14.63 -3.1,2.57 -5.67,3.55 -4.08,6.12l-5.67 -4.25c12.5,-16.31 20.92,-13.03 29.34,-10.19 2.57,-1.33 5.5,-2.57 9.04,-3.19 2.3,0.27 -0,2.75 -1.42,4.96zm1.15 -61.07l-1.6 5.05c-3.72,4.25 -8.77,5.94 -11.96,8.68 -1.06,-4.43 4.25,-13.74 13.56,-13.74zm109.65 179.14c-4.52,0.36 -14.71,13.92 -8.42,16.13l-17.82 9.13c10.81,-7.8 3.9,-15.78 4.25,-17.46 14.19,-12.15 9.84,-4.17 21.99,-7.8zm141.55 197.04c-17.99,18.52 2.13,18.52 -0.97,25.26 -8.6,-1.51 -23.05,-10.02 0.97,-25.26zm22.34 10.81c2.13,3.01 4.52,2.22 -5.14,10.55 -2.75,4.96 4.08,2.57 1.33,7.44 -12.85,2.04 2.31,-11.34 3.81,-17.99 -0.44,-0.88 -1.15,-1.68 -1.33,-3.19 1.51,0.53 1.6,1.68 1.33,3.19zm-84.91 -112.66l11.79 -15.24 -5.67 -4.96 -6.12 20.21zm-18.88 -85.8c-8.24,6.83 -13.3,-0.18 -10.02,-4.79 -10.99,8.68 -6.29,12.41 -5.05,16.93 -0.62,1.15 -0.62,2.39 0.18,3.55 0.36,-1.33 0.18,-2.39 -0.18,-3.55 1.6,-3.37 8.07,-6.65 12.14,-9.48l4.52 -0.53 -0.44 -7.44 -1.15 5.32zm-61.43 -127.81c-11.7,1.33 -8.77,-1.15 -7.09,-6.29 5.14,-1.86 8.69,1.24 7.09,6.29zm94.75 155.29c-10.37,-2.92 -14.54,16.31 -23.13,15.78l3.72 2.92c-16.04,2.92 9.75,-13.92 3.55,-15.6l4.25 1.15c12.32,-5.94 4.34,-9.84 12.68,-16.75 6.2,-0.27 3.01,13.47 -1.07,12.5zm-91.21 -166.99c-15.69,0 8.6,-13.74 8.24,-19.5 13.65,-0.62 -8.24,11.88 -8.24,19.5zm94.31 98.74l2.39 -1.15 2.57 -10.02 -2.39 1.15 -2.57 10.02z" />
	<path d="M864.63 1178.96c-2.57,-0.97 -3.1,-2.39 -2.75,-4.08 1.33,1.06 2.39,2.22 2.75,4.08z" />
	<path d="M1092.69 1532.36c2.75,-2.39 4.7,-3.01 6.29,-3.01 -1.6,1.33 -3.54,2.3 -6.29,3.01z" />
	<path d="M1097.57 1551.68c0,0.18 0.36,0.36 0.36,0.53l-0.44 1.33 0.09 -1.86z" />
	<path d="M1498.21 1977.22c-12.14,13.03 -4.25,-1.33 -5.85,-3.72 1.68,2.31 12.14,-3.63 5.85,3.72z" />
	<path d="M1509.11 1941.24c-3.28,4.43 -4.7,8.51 -4.25,11.88 -1.42,-1.15 -1.15,-4.08 4.25,-11.88z" />
	<path d="M1513.28 1961.45c-5.32,-1.68 -7.98,-4.61 -8.42,-8.16 2.31,1.86 8.95,0.18 8.42,8.16z" />
	<path d="M1470.38 1892.84c-6.29,9.31 1.95,11.7 1.95,11.7 -16.4,-6.47 -14.09,14.63 -19.94,20.39 -2.13,-10.02 8.42,-17.99 17.99,-32.09z" />
	<path d="M1463.2 1873.08c0.97,1.15 2.13,2.22 4.08,2.22 -2.92,0.44 -3.9,-0.71 -4.08,-2.22z" />
	<path d="M1451.94 1874.76c-0.97,-5.94 7.27,-14.8 13.12,-22.43 10.72,-0.18 -2.31,14.89 -1.77,20.74 -2.31,-2.92 -3.28,-6.83 -11.35,1.68z" />
	<path d="M1311.36 1785.86c-0.18,1.68 1.6,3.9 -3.28,8.33l-5.67 -6.29c0.62,-5.32 6.82,-2.4 8.95,-2.04z" />
	<path d="M1314.91 1739.68c-3.55,-6.12 -14.09,8.51 -13.47,3.01l17.02 -15.24 -3.55 12.23z" />
	<path d="M1402.3 1664.51l-0.36 3.19c-0.36,-0.88 -0.62,-1.51 -0.97,-2.39l1.33 -0.8z" />
	<path d="M1276.97 1729.84l-15.42 21.01c1.15,-8.78 15.77,-22.69 15.42,-21.01z" />
	<polygon points="1247.54,1721.86 1244.44,1730.37 1241.69,1715.57 " />
	<polygon points="1235.49,1689.6 1230.79,1692.52 1229.73,1681.53 " />
	<path d="M1022.41 1403.39c15.87,-14.63 17.37,2.57 24.11,2.57 -22.51,14.63 0.17,-14.89 -24.11,-2.57z" />
	<path d="M879.08 1184.54l2.75 14.63c-12.32,-4.79 -1.51,-2.57 -2.75,-14.63z" />
	<path d="M1073.55 31.2c1.33,0 2.39,-0.88 3.72,-0.97 -1.24,2.84 -2.39,3.9 -3.72,0.97z" />
	<path d="M1108.21 4.43c-6.65,8.95 -17.37,22.87 -30.93,25.79 3.9,-9.48 9.4,-39.89 30.93,-25.79z" />
	<path d="M1040.84 5.94l14.27 -5.94c0.27,10.9 -7.98,1.86 -14.27,5.94z" />
	<polygon points="1062.03,17.46 1068.67,24.11 1057.24,23.93 " />
	<path d="M711.38 641.64c4.08,1.33 7.98,3.37 11.96,7.44l-11.96 -7.44z" />
	<path d="M659.44 641.47c-2.92,1.33 -4.52,2.75 -5.85,3.72 0.53,-2.04 2.3,-2.84 5.85,-3.72z" />
	<path d="M725.38 615.85l-2.31 5.41c0,-2.31 0.62,-4.35 2.31,-5.41z" />
	<path d="M907.53 307.75c8.42,0 16.22,0 21.72,-0.36 -0.44,12.76 -12.94,3.81 -21.72,0.36z" />
	<path d="M466.21 677.81l5.14 5.76c-3.55,-1.06 -6.56,-2.39 -5.14,-5.76z" />
	<path d="M556.44 570.2c3.55,2.57 5.85,4.79 7.27,6.83 -0.8,0 -1.42,0.36 -2.39,0.18l-4.88 -7z" />
	<path d="M726.45 588.02c-0.18,-0.36 -0.36,-0.53 -0.44,-0.88l6.29 -0.88c-0.17,3.19 -2.12,3.63 -5.85,1.77z" />
	<path d="M432 708.47c-4.52,-0.88 -9.75,-2.57 -16.22,-5.41 5.23,-1.5 12.05,1.15 16.22,5.41z" />
	<path d="M653.15 645.9c-0.18,0 -0.18,-0.18 -0.36,-0.18 0.18,-0.18 0.44,-0.36 0.62,-0.53 -0,0.36 -0.18,0.36 -0.27,0.71z" />
	<path d="M589.95 537.5c-2.39,1.15 -4.52,2.57 -7.27,3.55 0.26,-3.72 3.72,-4.43 7.27,-3.55z" />
	<path d="M907.53 307.75c-2.39,0 -4.7,0 -7.09,0 1.42,-1.68 3.99,-1.15 7.09,0z" />
	<path d="M1063.71 71.62c-2.57,3.55 -7.27,0.97 -11.96,-1.86 3.37,-0.36 7.27,0 11.96,1.86z" />
	<path d="M155.72 1409.86l-1.15 1.33c0.17,-0.8 0.71,-1.15 1.15,-1.33z" />
	<path d="M265.71 1278.23c1.77,0.36 3.72,0.71 6.12,1.68 0.8,2.39 -2.39,0.97 -6.12,-1.68z" />
	<path d="M206.59 1039.18c2.39,15.78 -22.07,12.23 -28.36,19.85l9.4 2.75 -11.79 3.55 10.81 7.8c-14.09,10.02 -14.27,34.92 -34.66,27.48l18.26 10.99 -23.31 4.43 17.2 0.18c-7.09,18.79 -37.05,33.77 -39.18,37.31l7.44 3.19c1.6,5.05 -4.08,4.08 -7.98,5.41l10.99 4.96c-18.79,22.6 -1.42,45.11 -29.6,65.15 -2.57,9.13 5.85,-1.86 11.35,1.86 5.05,9.48 -8.6,13.92 -14.27,12.85 16.49,8.68 19.41,-6.12 25.88,11.35 -11.52,0.88 16.84,5.76 6.65,14.63l-22.16 -9.66c-0.62,8.51 14.45,12.05 6.12,20.39 -15.51,4.96 -13.3,-29.34 -27.57,-13.56 -4.52,9.84 32.71,50.88 11.17,60.54 0.44,22.07 35.28,13.74 17.02,30.67l21.19 -4.08c3.28,7.27 14.45,12.05 4.52,17.99 -9.4,-2.57 -22.69,-3.9 -26.68,0.18 27.21,-8.68 11.17,32.62 41.92,28.36l-5.05 6.12c1.33,-0.36 3.28,0.88 4.52,2.39l-4.34 9.84c7.8,-2.39 17.99,-14.09 28.36,2.04l-4.7 15.24c12.94,4.25 14.45,12.05 23.67,17.46l45.2 -22.69c-7.44,-3.19 -15.24,-0.71 -20.39,-7.44 0.8,-14.09 17.02,0.18 14.27,-15.6l-11.17 -1.86c3.72,1.51 5.67,0.97 5.32,3.9 3.37,7.27 -4.08,4.08 -9.4,0.18 -8.77,-10.99 4.7,-15.42 14.09,-12.76 6.47,-13.21 -17.99,-16.49 -19.59,-21.54 22.34,6.83 12.76,-20.74 26.24,-22.25l-14.89 -3.55c-8.24,-19.5 8.86,-19.32 16.66,-21.72l-10.99 -4.96c10.37,-11.52 -17.99,-41.39 22.69,-26.5l-7.27 -3.19c0.44,-7.44 -1.42,-20.74 12.14,-18.35 -3.9,-3.01 -8.42,-7.62 -8.24,-10.55 15.24,6.83 8.77,-5.94 11.52,-15.6 -6.83,2.75 -22.87,-11.35 -30.58,-8.95 -9.57,-24.73 26.41,2.92 32.88,-7.44 -4.7,-12.41 -13.12,-1.51 -20.56,-4.79 19.59,-8.86 -18.26,-60.89 22.51,-45.65l6.47 14.63c11.52,-0.88 13.56,-4.25 10.02,-5.76 -0.18,2.92 -3.9,1.15 -7.62,-0.53 -5.14,-31.55 44.5,-10.9 50.17,-34.75 -7.27,-3.37 -11.17,-2.22 -16.66,-5.94 -0.8,-13.56 38.73,15.96 35.01,-7.8l-9.22 -2.75c-1.33,-7.98 11.7,-3.55 13.47,-1.15 -28.63,-21.72 21.36,-28.54 -9.84,-66.12 20.56,4.96 46,-5.41 41.48,-17.99 -11.52,-21.36 -24.29,-6.65 -38.2,-21.89 4.34,-6.83 22.87,1.51 23.93,-12.59 16.22,11.88 19.15,43.96 41.13,32.09l-6.83 -8.95c-0.18,2.92 1.33,7.98 -2.75,8.95 -13.12,-1.68 -8.6,-11.35 -11.96,-15.78l18.61 -16.49c18.17,11.35 5.85,20.39 9.4,24.73 7.27,-18.7 -4.7,-56.46 16.84,-62.93l-7.27 -3.37c27.39,-7.98 -23.67,-34.48 14.09,-28.81 0.97,-11.17 -20.12,-10.72 -13.12,-23.75 2.31,-3.37 7.27,3.37 9.04,5.58 16.22,-10.19 -11.7,-18.7 13.3,-20.39l-20.12 -10.72c23.67,-6.83 66.74,0.18 68.7,-19.68 -14.45,-9.66 -19.15,0 -31.91,-4.61 38.03,0 34.66,-42.9 60.27,-50.08 8.07,14.27 33.06,12.76 35.19,31.38 -19.94,-10.9 -11.79,3.37 -17.99,7.8 45.65,20.21 9.22,-54.78 45.03,-31.91l-11.96 -13.21c3.9,-0.97 19.15,0.18 20.12,8.16l4.52 -25.97c-15.24,-1.33 -49.11,-5.76 -37.23,10.37 -18.44,-5.76 -4.25,-15.42 -24.47,-23.4 31.91,4.96 -4.25,-15.42 10.19,-24.73 15.69,21.36 36.43,7.62 45.47,15.78 -0.62,-7.09 15.42,-9.66 24.82,-8.16 7.27,-6.29 3.55,-36.34 19.23,-43.08 -9.57,-0.18 -22.96,0.71 -35.19,-9.66 11.52,-0.36 16.04,-7.09 2.13,-19.85 -42.1,0.53 28.99,33.24 -2.13,39 -20.12,-8.33 -28.01,-6.12 -39.98,0 -6.47,-12.05 -11.96,-13.21 -22.34,-24.11 44.23,15.24 25.88,-29.16 54.87,-31.55 15.24,1.33 33.86,23.75 48.57,11.7l1.42 21.54c0.44,-22.07 12.76,4.79 25.26,-3.9l-14.89 -4.25c2.92,-8.95 6.83,-10.02 18.17,-7.62l-22.16 -7.8c0.62,-5.58 3.55,-14.63 14.09,-6.47 -3.55,-4.43 -6.83,-7.44 -9.84,-9.84 3.55,1.51 6.65,1.15 9.4,-3.9 -3.9,0.97 -4.25,3.9 -9.57,-0.18 16.66,-14.09 -16.22,-19.15 -6.83,-28.63 -5.32,-1.51 -8.24,-8.68 -7.62,-14.27 27.65,22.25 46.62,3.72 66.21,10.19l-0.44 -0.36 21.72 -5.58c-4.34,1.15 -9.75,-7.98 -9.57,-14.63l-0.36 0.88c-0.97,-7.98 -34.21,-18.52 -16.22,-25.97l13.47 -0.88c-1.95,0.53 -5.32,-4.08 -7,-6.47l12.94 -1.51c-17.64,-32.09 30.31,-10.02 27.39,-33.59 -0.62,5.58 -6.83,10.02 -13.47,0.71 -1.33,-5.05 4.7,-6.65 10.19,-5.41l-3.55 -1.86 35.81 -11.88c-10.81,-5.41 -22.07,8.33 -27.83,-6.47 -9.84,-13.92 8.86,-10.55 13.3,-14.45 6.83,6.47 7.09,20.03 17.37,14.8 -2.75,-3.9 -4.34,-18.17 -12.5,-18.52 13.92,-2.75 27.65,-11.88 46.45,-9.31 -1.33,-5.05 -7.27,-3.55 -9.22,-3.01l1.6 2.39c-7.98,2.04 -19.23,-14.27 -19.23,2.22 -24.64,-18.52 4.34,-20.39 7.62,-32.09l-26.86 1.33c-14.89,-51.06 45.03,-55.31 63.29,-78.89 2.31,13.03 -9.22,13.21 10.02,27.65 20.12,-7.62 14.54,-8.95 29.34,-20.83l-1.95 0.53c-3.9,-15.42 22.34,-10.99 9.4,-29.69 -12.76,-5.05 1.42,18.79 -19.41,2.04l15.51 -17.46c-16.66,-4.25 -15.51,17.46 -23.84,22.25 -2.75,6.12 10.55,-8.16 22.34,5.41 -13.56,16.93 -29.96,10.19 -55.84,3.01 -18.26,-6.47 -8.86,-19.68 -6.65,-23.04 29.78,6.29 51.85,-2.04 55.22,-27.3l-8.6 -22.43c20.74,3.01 46,29.69 54.07,11.35l-14.71 -4.61c-1.77,-6.92 -1.6,-10.55 -0.36,-12.05 -13.47,-0.36 -28.54,-0.97 -41.92,-2.22 -17.37,-28.54 30.93,-15.78 45.47,-24.73 -3.55,-1.86 -7.98,1.86 -15.07,-1.68 8.86,-24.11 52.65,-20.83 67.72,-32.71 -5.67,-14.89 -16.4,6.65 -29.52,-9.31 11.96,-2.92 5.05,-23.04 21.1,-13.21 -22.96,-13.56 12.14,-19.32 -18.26,-20.21 12.5,-35.81 55.04,-51.23 88.46,-69.94 -7.09,-3.72 -12.32,-8.16 -15.51,-12.76 -7.09,9.84 -23.84,19.15 -42.1,12.59 -5.5,-15.07 25.44,-3.19 20.74,-10.37 -7.44,-0.97 -12.32,5.58 -22.69,-2.92 -5.14,-17.99 14.71,-8.86 21.1,-13.03l2.75 7.44c27.83,-6.47 43.26,20.03 52.3,-3.9 -7.09,-17.46 -10.19,-8.51 -25.79,-21.36 9.57,0.53 4.08,-28.19 23.93,-19.15l-7.62 12.76c10.55,-4.61 16.49,-12.23 26.06,-13.21 -3.72,-2.22 -7.44,-4.61 -10.19,-4.08 9.84,-2.22 15.07,-11.52 27.83,-6.29l-16.66 -16.31c4.25,10.02 -3.37,22.6 -13.92,16.75 -13.47,-13.21 4.52,-17.28 7.27,-23.4 -21.89,18.7 -47.78,-2.75 -51.85,25.44l7.44 0.97c3.28,22.43 -26.59,17.28 -34.21,28.19 -1.15,-5.76 -6.65,-11.35 -10.55,-12.41 -4.88,33.95 -32.09,48.39 -44.23,81.46l-22.34 -5.58 11.96 10.9c-4.34,17.46 -19.59,-11.7 -24.64,-2.39 2.31,-3.19 3.9,-0.97 7.62,0.97 -25.44,3.37 5.14,17.99 -5.14,23.04 16.4,6.92 17.02,-12.23 31.73,6.12 -25.44,3.19 -35.28,33.06 -66.74,10.55 -8.86,37.85 -53.63,56.99 -73.83,78.53 2.92,7.44 5.67,1.33 8.86,5.94 -24.29,-4.96 -10.99,41.22 -26.68,28.63 0.97,7.98 10.99,19.15 14.27,23.75 -11.79,0 -20.92,4.08 -28.63,10.02l8.42 -2.04 1.6 2.39 -11.96 3.01 -0.8 -0.97c-18.44,15.24 -30.76,40.42 -60.27,44.14 17.46,-1.68 17.02,17.64 26.59,17.82 -31.29,-11.17 -47.15,9.48 -57.17,28.54 5.32,4.08 8.42,8.86 14.09,10.02l-17.46 1.68 7.09 3.72c-8.24,21.36 -50.08,18.79 -46.8,39.89 8.24,-4.96 13.47,-0.88 22.34,5.05 -9.84,12.23 -18.79,24.11 -37.05,32.88 2.13,0.36 4.25,1.33 6.12,2.75 -0.62,5.58 -10.19,5.41 -16.04,7.09l12.14 10.55c-11.35,3.01 -11.79,17.99 -28.54,19.15 11.35,14.45 -28.54,12.05 -30.31,26.95 -6.03,1.68 20.74,2.57 11.96,13.21 -28.54,-19.85 -11.17,14.09 -41.31,-7.98l3.72 18.35 -16.22 -9.31c21.72,29.87 -21.36,3.19 -21.54,22.6 3.72,1.86 5.67,1.15 7.27,3.55 -6.03,1.68 -14.45,9.48 -16.84,-3.55 -4.52,6.83 -27.57,24.29 -4.7,26.15 -8.86,-5.76 4.88,-9.48 10.72,-11.17 12.32,10.37 0.18,16.49 12.14,29.69 -1.6,-0.71 -4.7,-1.15 -7.44,-1.68l6.83 7.44c-22.87,1.68 -21.72,22.25 -46.18,17.46 3.55,3.55 5.05,8.16 1.15,11.7l-16.04 -12.05 -9.04 13.74 27.57 11.52c-5.67,18.17 -39.18,8.51 -51.5,17.46 24.47,23.4 -26.59,15.96 -10.19,44.41l13.74 -3.9c-18.79,16.49 -5.05,31.91 -27.21,43.96 2.13,-22.69 7.44,-18.79 1.77,-58.68 -5.05,31.91 -42.9,28.99 -42.28,62.22 7.27,3.37 15.24,0.97 17.99,11.17 -16.66,-6.29 -13.47,20.56 -27.39,5.23 0.8,10.9 15.07,23.22 14.45,28.99l-35.01 7.62 3.72 1.68c11.17,66.03 -73.66,52.39 -83.58,102.82l9.04 5.58 -19.15 0.36c13.47,-1.33 8.6,11.17 15.69,17.28l-35.28 10.9c8.27,5.75 26.44,17.01 27.06,8.5zm228.15 -316.61l5.14 -4.96c0,-1.68 0.62,-3.01 3.28,-3.01l-3.28 3.01c0.09,4.61 5.23,11.97 -5.14,4.96zm409.68 -498.4c9.22,3.19 -0.8,5.58 -1.15,8.51l8.77 -7.62c-3.28,-4.61 -5.58,-1.24 -7.62,-0.89zm-306.77 576.94l8.42 11.35 -11.17 -2.39 2.75 -8.95zm-55.75 81.81l11.79 -3.37 1.6 2.39 -11.7 3.37 -1.68 -2.39zm-148.64 25.62c0.97,0 1.77,-0.18 3.28,0 -0.88,0.18 -2.04,0.18 -3.28,0 -11.96,0.53 5.5,17.46 -16.66,8.68 -11.7,-18.35 7.53,-10.01 16.66,-8.68zm99.1 -143.86c4.08,-1.15 6.03,-1.68 6.12,-4.61 -7.27,-3.37 -20.56,-5.05 -19.94,-10.9 9.22,2.92 17.64,-5.05 28.36,2.92 -16.93,-0.53 8.78,28.01 -14.54,12.59zm142.17 -185.61l-0.36 2.92 13.47 -0.97 -13.12 -1.95zm35.55 -26.15c16.49,6.65 21.72,-5.76 29.96,-10.72 -10.19,-10.99 -28.99,-14.27 -33.86,-4.79 -17.64,1.95 15.07,18.08 3.9,15.51zm-200.67 290.11l10.81 5.05 -0.18 2.92 11.7 -3.37c5.67,20.56 -23.84,9.66 -31.73,11.88 4.52,-3.9 36.43,0.71 9.4,-16.48zm260.24 -358.09c13.47,-0.88 33.24,-5.94 41.75,2.92 -17.37,-14.63 -33.24,-10.55 -35.63,-7.27 -0.27,2.75 -2.22,3.28 -6.12,4.34zm33.24 27.12c-15.69,4.08 -24.64,-1.68 -47.15,-6.83 0,-16.49 25.08,-1.15 33.51,7.62 13.47,-0.88 0.97,-8.51 1.6,-14.09l12.05 13.3zm-58.06 -28.9l-0.62 6.29c3.72,10.99 23.13,28.19 -2.31,19.15l2.31 -19.15c-0.97,-2.48 -0.97,-4.7 0.62,-6.29zm66.12 -88.37l-9.22 -0.53c3.72,-3.72 6.82,-2.12 9.22,0.53l7.8 0.53c-0.53,14.71 -3.1,4.88 -7.8,-0.53zm-44.85 71.8l-10.81 11.17c8.69,5.94 10.02,-5.41 10.81,-11.17zm58.59 -56.2c-2.75,6.29 -10.37,21.89 -10.02,18.97 -8.6,-8.77 2.4,-19.76 10.02,-18.97zm228.86 -253.41l-6.83 6.92 -9.57 -14.09 16.4 7.18zm-59.56 98.92l-4.7 -7.09 4.34 -3.72 0.36 10.82zm-62.22 85c-2.39,-2.57 -6.03,-5.23 -9.4,-6.83 -2.13,0.36 -4.52,0.18 -7.44,-1.33 0.8,-1.15 3.9,-0.36 7.44,1.33 5.32,-0.97 7.44,-7.44 5.5,-12.76 -7.09,-3.72 -9.84,2.57 -15.51,1.15 -8.86,-19.85 48.13,-0.97 2.13,-30.67 7.44,0.88 27.03,-1.15 31.38,8.68 -9.04,6.83 -17.02,27.3 -14.1,40.42 1.95,2.22 3.28,4.43 2.39,6.29 -1.24,-1.77 -1.86,-3.99 -2.39,-6.29zm-75.16 121.61c-3.37,2.39 -5.67,2.75 -7.62,2.22 -5.14,0.18 -11.52,-1.51 -16.66,-6.92 10.02,-2.57 11.79,5.58 16.66,6.92 3.1,-0.18 6.03,-0.89 7.62,-2.22zm-12.32 22.25l15.69 -4.08 -13.12 -2.22 28.99 -1.86c2.04,16.13 -19.06,15.96 -31.55,8.16zm5.49 10.28l-11.79 -5.94 12.76 5.05 -0.97 0.88 2.75 1.33 -18.79 13.03 16.04 -14.36zm-151.75 165.66c30.58,34.48 36.43,3.9 56.02,13.92 -11.35,-10.02 -24.91,-31.2 -36.96,-13.56 -1.15,-24.47 29.6,8.51 6.47,-23.75 -2.92,8.95 -18.26,10.55 -20.21,10.9l4.88 -9.48c-25.53,-12.32 1.33,21.63 -10.19,21.98zm-59.74 96.17l-8.77 10.72 10.55 -8.33 -1.77 -2.39zm-183.3 287.36c9.04,5.58 14.54,31.73 -3.9,23.22 2.75,-9.13 9.04,-16.57 3.9,-23.22zm-83.94 119.48l15.87 -7.62c17.82,16.75 -8.42,10.9 -9.04,19.5 -11.17,-4.96 -1.6,-5.14 -6.83,-11.88zm-55.84 83.94l-5.85 1.86 22.16 9.66 -16.31 -11.52zm29.43 12.94c7,8.86 16.84,3.01 17.2,0.18l-17.2 -0.18zm-32.71 88.02l2.31 -6.29 -20.39 -7.44 18.08 13.74zm-14.54 -23.04c13.12,7.62 29.52,20.21 29.34,1.68 -12.68,-9.84 -14.71,-6.47 -27.03,-22.07 -5.85,1.86 -2.57,9.13 -2.75,12.05 3.9,-1.15 0.62,-8.51 9.75,-3.01 1.86,8.07 -2.84,11.7 -9.31,11.35 -4.7,-2.75 -9.04,-4.79 -11.96,-4.61 3.81,2.75 8.24,4.25 11.96,4.61zm15.87 -54.78c-0.44,-2.75 -1.33,-5.41 -3.1,-7.62l3.72 1.51c4.7,5.76 2.48,6.2 -0.62,6.12 0.44,3.01 0.62,6.12 0.62,9.31 10.02,9.31 23.13,6.12 30.76,8.33 -5.85,1.68 -18.79,-2.57 -15.69,7.62 3.72,1.68 5.5,3.9 7.44,0.36l-2.39 9.13c-20.92,-2.57 -20.21,-14.09 -20.12,-25.62 -2.31,-2.04 -4.34,-4.43 -6.12,-7.98 -0.71,-2.21 2.74,-1.33 5.49,-1.15zm-63.46 41.84l5.85 -1.86c5.67,0.97 9.04,5.41 12.76,6.92 -4.08,4.34 -15.6,5.32 -18.61,-5.05zm157.51 -245.79c1.42,5.05 18.26,8.33 19.15,-0.18l13.92 15.07c-10.81,-7.8 -17.64,5.23 -19.59,5.94 -16.22,-8.95 -6.83,-8.95 -13.47,-20.83zm191.63 -279.65c21.54,13.21 20.12,-11.17 27.65,-10.55 -0.88,11.25 -8.86,32.79 -27.65,10.55zm10.37 -32.71c3.28,-3.9 2.13,-6.65 11.79,1.51 5.67,1.15 2.57,-6.12 8.07,-4.96 3.28,14.98 -12.41,2.13 -19.86,3.46 -0.8,0.97 -1.77,2.22 -3.55,3.19 0.44,-2.12 1.95,-2.84 3.55,-3.19zm-114.34 161.85l-18.61 -5.58 -4.7 9.66 23.31 -4.08zm-90.68 73.83c9.04,5.58 2.39,15.78 -3.28,14.8 11.7,7.62 14.71,0 19.59,-4.61 1.42,0 2.75,-0.71 3.9,-2.39 -1.42,0.53 -2.75,1.33 -3.9,2.39 -4.08,0 -8.77,-5.58 -12.76,-8.68l-1.42 -5.05 -8.07 5.05 5.94 -1.51zm-123.47 157.07c4.7,12.41 1.15,10.9 -4.7,12.59 -3.55,-4.61 -1.24,-10.9 4.7,-12.59zm147.76 -214.06c-1.33,14.27 20.21,7.8 21.19,18.7l2.39 -6.12c6.03,17.46 -16.84,-3.37 -17.64,5.05l0.44 -5.76c-8.6,-11.17 -11.52,0.71 -20.56,-4.96 -1.06,-8.16 14.63,-12.76 14.18,-6.92zm-161.5 218.31c4.34,18.17 -17.2,-0.18 -23.31,4.43 -4.52,-15.33 15.24,0.8 23.31,-4.43zm85.36 -179.14l-1.6 -2.22 -11.79 3.55 1.77 2.22 11.61 -3.55z" />
	<path d="M272.36 1246.5c-0.36,3.55 -1.6,4.96 -3.28,5.58 0.53,-2.04 1.51,-4.08 3.28,-5.58z" />
	<path d="M601.91 788.96c-2.75,-2.39 -3.55,-4.43 -3.72,-6.29 1.51,1.33 2.75,3.19 3.72,6.29z" />
	<path d="M622.3 775.04c0.36,-0.18 0.36,-0.53 0.62,-0.71 0.44,0 0.97,0.18 1.42,0.18l-2.04 0.53z" />
	<path d="M1072.75 88.55c16.22,7.09 -0.8,5.58 -3.28,8.86 2.48,-3.28 -5.76,-12.23 3.28,-8.86z" />
	<path d="M1031.45 95.2c5.32,1.33 10.02,0.88 13.74,-1.51 -1.24,2.48 -4.34,3.72 -13.74,1.51z" />
	<path d="M1052.98 79.42c-1.15,7.27 -3.9,11.88 -7.8,14.45 1.77,-3.72 -0.97,-10.73 7.8,-14.45z" />
	<path d="M982.88 166.46c11.17,2.92 12.76,-8.51 12.76,-8.51 -5.14,23.04 17.82,9.48 25.08,13.21 -10.81,7.98 -21.19,-0.44 -37.85,-4.7z" />
	<path d="M961.96 185.07c1.33,-1.86 2.13,-3.72 1.95,-5.94 0.8,3.45 -0.36,4.96 -1.95,5.94z" />
	<path d="M965.06 198.02c-6.29,4.25 -17.02,-1.51 -26.24,-4.79 -1.33,-12.59 16.66,-4.79 22.96,-8.16 -2.75,4.25 -6.74,7.53 3.28,12.94z" />
	<path d="M875.45 413.49c1.95,-0.53 4.34,-3.72 9.57,0.36l-7 10.02c-5.94,1.33 -2.84,-7.71 -2.57,-10.37z" />
	<path d="M823.86 429.09c-6.65,7.09 9.84,13.92 3.9,15.42l-17.37 -14.8 13.47 -0.62z" />
	<path d="M737.62 352.24l3.37 -0.88c-0.8,0.71 -1.6,1.33 -2.57,2.22l-0.8 -1.33z" />
	<path d="M813.58 480.86l23.67 10.55c-9.84,2.3 -25.62,-10.28 -23.67,-10.55z" />
	<polygon points="805.07,521.19 814.55,521.54 798.07,531.2 " />
	<polygon points="769.26,549.55 772.45,554.16 760.31,560.1 " />
	<path d="M471.7 932.81c-17.99,-11.35 0.18,-22.07 -1.15,-30.05 19.15,19.32 -16.04,7.45 1.15,30.05z" />
	<path d="M273.78 1226.65l14.27 -12.59c-1.15,16.84 -2.13,3.28 -14.27,12.59z" />
	<path d="M1494.84 1317.77c-0.36,1.15 -0.18,2.57 -0.36,3.72 -2.22,-2.04 -2.75,-3.19 0.36,-3.72z" />
	<path d="M1506.81 1357.65c-5.67,-8.68 -14.27,-22.43 -12.32,-36.16 7,6.29 31.73,19.32 12.32,36.16z" />
	<path d="M1527.9 1292.77l0.44 15.24c-9.75,-2.48 0.97,-8.06 -0.44,-15.24z" />
	<polygon points="1510.71,1310.32 1502.64,1314.84 1506.45,1304.03 " />
	<path d="M1070.36 825.56c-2.39,3.55 -5.32,7.09 -10.02,10.19l10.02 -10.19z" />
	<path d="M1085.69 775.31c-0.44,-3.01 -0.97,-4.96 -1.6,-6.47 1.6,0.89 1.77,2.75 1.6,6.47z" />
	<path d="M1089.15 844.71l-4.08 -3.37c1.95,0.53 3.55,1.51 4.08,3.37z" />
	<path d="M1305.16 1090.41c-2.75,8.16 -5.05,15.6 -6.47,20.83 -11.17,-3.55 0.62,-13.21 6.47,-20.83z" />
	<path d="M1108.74 579.06l-6.47 3.9c1.6,-3.37 3.72,-6.12 6.47,-3.9z" />
	<path d="M1178.67 690.39c-3.28,2.92 -6.03,4.61 -8.07,5.76 0.18,-0.88 0.18,-1.51 0.44,-2.39l7.62 -3.37z" />
	<path d="M1113.26 851.89c0.36,-0.18 0.44,-0.18 0.8,-0.36l-1.15 6.47c-2.57,-0.89 -2.39,-2.92 0.36,-6.12z" />
	<path d="M1090.92 539c2.13,-4.25 4.88,-8.95 9.4,-14.8 -0.17,5.32 -4.61,11.61 -9.4,14.8z" />
	<path d="M1083.57 768.22c0,-0.18 0.18,-0.18 0.18,-0.36 0.18,0.18 0.18,0.71 0.18,0.88 0,-0.18 0,-0.36 -0.36,-0.53z" />
	<path d="M1198.09 730.19c-0.36,-2.75 -0.97,-4.96 -0.97,-7.98 3.1,1.24 2.74,4.61 0.97,7.98z" />
	<path d="M1305.16 1090.41c0.8,-2.22 1.42,-4.43 2.31,-6.83 0.97,1.68 -0.36,4.08 -2.31,6.83z" />
	<path d="M1462.58 1297.91c-2.31,-3.37 1.6,-7.27 5.67,-10.99 -0.8,3.37 -2.57,6.92 -5.67,10.99z" />
	<path d="M537.3 136.94l-0.97 -1.33c0.8,0.09 0.97,0.62 0.97,1.33z" />
	<path d="M627.53 267.42c-0.62,1.68 -1.6,3.55 -2.92,5.76 -2.4,0.36 -0.36,-2.57 2.92,-5.76z" />
	<path d="M855.59 251.64c-14.71,-0.53 -5.32,-24.11 -10.55,-31.73l-4.7 8.86 -0.36 -12.23 -9.75 9.31c-5.32,-15.78 -27.65,-20.39 -15.87,-39.35l-14.45 16.13 1.77 -23.93 -4.52 16.93c-15.07,-10.55 -20.92,-42.9 -23.67,-45.65l-4.7 6.83c-4.88,0.71 -2.57,-4.79 -2.75,-8.86l-7 10.02c-15.69,-22.6 -39.98,-9.31 -51.06,-40.68 -7.44,-4.25 0.36,6.12 -4.52,10.99 -9.75,3.19 -10.37,-10.99 -8.07,-16.49 -11.79,14.89 0.8,20.39 -16.4,23.75 2.13,-11.52 -9.22,15.6 -14.54,4.08l13.92 -20.39c-7.44,-2.04 -14.27,12.23 -19.76,2.75 -0.62,-16.31 29.34,-8.16 18.79,-25.08 -7.8,-6.12 -53.27,23.93 -56.82,0.88 -19.76,-3.19 -20.74,32.71 -31.38,11.7l-1.42 21.72c-7.27,2.04 -14.27,12.23 -17.2,1.51 4.52,-8.86 8.86,-21.72 6.12,-26.5 1.33,28.54 -31.73,5.76 -35.28,36.96l-4.25 -5.94c0,1.33 -1.42,3.19 -3.1,4.08l-7.62 -5.94c0.36,8.16 8.24,20.21 -8.77,27.83l-12.5 -7.09c-7,12.23 -14.27,12.41 -21.19,20.56l9.22 48.39c4.52,-6.83 4.34,-14.89 11.52,-18.97 12.32,3.01 -4.25,16.75 10.37,16.49l4.52 -10.9c-2.31,3.37 -2.31,5.41 -4.7,4.79 -7.27,2.22 -2.57,-4.61 2.13,-9.31 11.96,-6.92 12.5,7.09 7.98,15.96 10.02,8.68 19.15,-15.07 23.93,-15.78 -11.52,21.01 15.42,15.96 13.3,29.52l7 -14.27c19.41,-4.96 15.07,12.05 15.24,20.21l7.09 -10.19c7.8,12.05 41.31,-10.9 17.82,26.95l4.7 -6.65c6.47,1.68 18.79,2.04 13.3,15.07 3.72,-3.37 8.86,-6.92 11.52,-6.29 -9.75,13.74 3.28,9.66 10.99,13.92 -0.62,-7.27 15.87,-20.74 15.51,-28.63 24.47,-5.23 -9.04,25.44 -1.6,33.77 12.14,-2.57 4.7,-12.76 9.4,-19.5 2.92,20.83 58.77,-7.27 35.01,30.23l-14.71 3.72c-2.31,11.52 0.36,14.27 2.57,10.9 -2.39,-0.71 0,-4.08 2.39,-7.27 29.52,0.53 -1.6,45.83 18.17,55.66 4.88,-6.65 4.88,-10.72 9.57,-15.24 12.32,1.51 -24.11,35.28 -2.13,35.81l4.88 -8.68c7.44,0.18 0,12.23 -2.39,13.39 26.68,-24.47 19.76,26.15 61.43,2.39 -9.75,19.32 -7.09,46.36 5.14,43.96 22.07,-7.27 12.32,-22.6 29.52,-33.59 4.88,5.58 -7.44,22.25 4.88,25.97 -14.71,13.56 -44.05,10.55 -39.35,34.48l9.84 -5.05c-2.39,-0.71 -7.27,-0.18 -7.27,-4.25 5.05,-12.76 12.32,-6.29 17.2,-8.86l9.75 21.36c-14.89,15.6 -19.59,1.86 -24.47,4.61 14.54,10.55 51.5,6.12 51.32,28.36l5.05 -6.65c-0.18,28.36 37.05,-16.66 21.89,19.32 9.75,3.19 14.89,-17.64 24.64,-8.33 2.39,2.92 -5.05,6.47 -7.44,7.8 4.7,17.82 19.76,-7.8 14.54,16.93l14.89 -17.46c-0.36,24.47 -18.26,65.33 -1.15,71.09 12.68,-12.23 5.32,-18.7 12.76,-30.4 -10.37,37.14 28.54,42.55 27.83,68.87 -14.89,5.05 -20.56,29.69 -37.58,28.01 15.24,-17.28 0.36,-12.23 -1.95,-18.97 -30.76,40.51 46,19.85 15.51,50.26l15.07 -9.13c-0.18,4.08 -5.5,18.52 -12.94,17.99l21.72 9.66c5.5,-14.63 18.97,-46.8 1.42,-38.47 10.37,-16.75 14.71,-0.97 27.65,-18.97 -13.3,30.23 14.71,-0.97 19.15,15.07 -23.31,10.99 -17.2,33.95 -26.86,41.22 6.47,0.88 4.25,16.93 0.18,25.79 3.37,8.33 31.11,10.99 32.71,27.48 2.92,-9.13 5.85,-22.43 18.61,-32.27 -2.92,11.17 1.77,16.93 17.02,6.12 11.52,-41.04 -37.76,21.36 -34.04,-10.19 12.94,-17.99 13.47,-25.97 11.35,-39 12.5,-3.72 15.24,-8.95 27.65,-16.75 -26.06,40.07 18.61,31.38 12.5,60.1 -5.5,14.45 -30.76,28.01 -24.29,44.76l-19.41 -3.01c19.23,5.05 -7.98,11.52 -3.72,25.44l8.07 -13.56c7.09,4.79 7,8.86 1.42,19.15l13.3 -19.85c4.88,1.68 11.96,6.47 1.6,15.07 4.88,-2.57 8.6,-5.05 11.52,-7.44 -2.39,3.01 -2.92,6.29 0.62,10.02 0.18,-4.08 -2.31,-4.96 2.92,-9.13 7.62,19.15 21.72,-11.7 27.39,-0.53 2.92,-4.96 10.02,-6.12 14.71,-4.43 -27.65,22.25 -16.84,44.59 -28.36,62.14l0.36 -0.36 -1.42 22.25c0.36,-4.61 9.84,-7.62 15.69,-6.12l-0.62 -0.53c7.44,0.88 26.41,-29.16 27.65,-10.02l-3.28 13.21c0.18,-2.04 5.14,-4.25 7.8,-5.23l-2.57 12.85c33.51,-10.19 -0.18,31.55 21.54,33.77 -4.88,-1.86 -6.83,-8.86 3.37,-13.21 4.88,-0.18 4.52,5.94 1.77,10.99l2.57 -3.01 -0.18 37.31c8.07,-9.31 -0.8,-23.22 14.09,-25.62 15.24,-6.47 6.65,10.99 8.77,15.96 -7.8,5.23 -19.94,2.39 -18.17,13.56 4.34,-1.86 17.37,-0.36 20.12,-7.98 -1.77,14.09 2.13,29.52 -5.85,46.98 4.88,-0.18 5.32,-6.29 5.5,-8.16l-2.57 0.97c0.62,-8.16 18.44,-15.42 3.9,-19.15 23.67,-19.68 16.66,8.68 26.06,14.63l7 -26.32c49.73,-3.01 35.19,56.02 50.35,79.24 -12.32,-0.88 -8.86,-12.05 -27.39,3.19 0.62,21.01 3.55,16.13 9.4,33.06l0.18 -2.04c14.89,-0.18 2.75,24.11 23.31,15.96 8.42,-10.99 -17.02,-2.92 4.25,-19.15l10.55 19.15c8.86,-15.07 -10.55,-19.15 -12.32,-28.19 -4.52,-4.08 3.9,12.05 -11.7,20.21 -10.81,-17.11 0.36,-31.2 14.54,-54.6 11.35,-16.31 20.12,-4.08 22.34,-0.97 -14.71,27.3 -14.27,50.35 7,59.56l22.51 -2.92c-9.22,19.15 -40.68,37.31 -26.86,49.37l8.77 -13.03c6.83,-0.18 9.75,0.88 10.72,2.57 4.52,-12.85 9.84,-27.12 15.07,-39.89 30.58,-9.84 4.25,33.59 7.62,49.73 2.75,-3.01 0.8,-7.98 6.29,-14.09 18.61,14.27 1.77,55.66 7.27,72.95 14.89,-1.86 -0.62,-17.28 17.46,-26.15 -1.33,12.23 18.61,10.55 5.05,23.4 19.23,-18.79 13.12,16.49 23.67,-12.76 27.65,20.74 27.57,65.5 33.06,102.11 5.67,-5.94 11.17,-9.84 16.22,-11.7 -6.29,-9.31 -9.04,-27.65 2.57,-43.61 15.07,-1.51 -5.32,25.26 2.31,22.43 3.28,-6.92 -0.97,-13.21 9.84,-21.01 17.46,-0.53 3.1,16.31 4.7,23.58l-7.44 0.88c-3.37,28.36 -31.55,36.52 -13.56,51.23 17.64,-2.39 10.81,-7.62 27.21,-19.15 -3.55,8.95 23.67,10.9 9.04,27.65l-8.6 -10.55c0.44,11.17 5.32,18.79 3.1,28.36 3.28,-3.01 6.47,-5.94 6.83,-8.68 -1.33,10.02 5.14,17.46 -3.72,28.19l18.79 -10.37c-10.19,1.51 -18.79,-8.95 -10.19,-17.64 16.04,-9.48 13.74,8.68 18.17,12.85 -9.04,-25.79 18.17,-45.11 -5.32,-56.19l-3.37 6.92c-20.74,-2.57 -6.65,-29.87 -13.74,-39.89 5.5,0.36 12.14,-3.55 14.27,-6.92 -28.36,-13.21 -32.27,-43.08 -57.53,-62.75l11.96 -20.03 -13.3 8.86c-14.09,-8.51 16.49,-15.96 9.84,-23.22 2.13,3.01 -0.44,4.08 -3.28,6.92 5.14,-25.26 -17.46,0.53 -18.79,-10.55 -11.35,13.92 5.32,19.5 -15.42,29.16 5.14,-25.26 -17.82,-42.1 11.79,-67.01 -30.76,-17.82 -33.68,-65.5 -46.45,-90.23 -7.62,0.97 -2.92,5.05 -8.07,7.09 11.79,-22.43 -33.24,-20.39 -17.2,-32.62 -7.44,-0.97 -20.39,6.12 -25.44,8.16 3.72,-11.52 2.75,-21.19 -0.18,-30.05l-0.62 8.68 -2.57 0.97 0.97 -12.23 1.15 -0.53c-7.8,-21.54 -26.41,-39.18 -20.92,-68.7 -3.72,17.28 -20.74,12.41 -23.84,21.72 19.23,-27.65 5.67,-48.04 -8.24,-62.14 -5.14,4.25 -10.19,6.29 -13.12,11.35l3.72 -17.28 -5.32 6.12c-16.66,-12.85 -1.95,-52.91 -21.72,-54.42 1.95,9.13 -3.28,13.21 -11.17,20.74 -7.98,-12.41 -15.69,-23.75 -18.26,-43.61 -0.97,2.04 -2.39,3.9 -4.25,5.41 -4.88,-1.86 -1.77,-11.17 -1.6,-17.28l-12.76 9.48c0.44,-11.7 -12.68,-15.42 -8.86,-31.91 -16.04,7.98 -2.39,-30.58 -15.42,-35.46 0.36,-6.12 -8.24,19.68 -15.24,8.86 25.79,-23.58 -9.22,-13.92 18.97,-38.65l-17.37 -0.36 12.76 -13.92c-32.71,14.8 3.28,-21.54 -14.09,-25.97 -2.57,3.19 -2.75,5.23 -5.14,6.47 0.18,-6.12 -4.34,-16.13 7.98,-15.78 -4.7,-5.94 -13.92,-32.09 -22.07,-10.19 7.62,-7.62 7.09,6.83 7,12.85 -12.68,9.84 -14.71,-3.19 -29.78,5.76 1.15,-1.33 2.31,-4.43 3.72,-6.92l-8.6 5.05c4.88,-22.69 -13.56,-26.15 -2.75,-49.02 -4.25,2.75 -8.6,3.19 -10.81,-1.33l15.24 -13.21 -9.75 -11.7 -17.82 24.64c-14.71,-9.31 3.28,-40.07 -1.42,-54.16 -27.57,19.15 -7,-29.34 -36.79,-19.15l-0.18 14.27c-9.57,-21.89 -27.21,-11.35 -31.73,-35.46 19.76,6.65 14.71,11.17 51.85,13.56 -27.21,-11.35 -14.45,-48.22 -44.23,-54.34 -5.05,6.65 -5.05,14.8 -14.89,15.6 10.02,-15.07 -14.71,-17.28 2.57,-28.01 -9.84,-1.33 -24.82,10.19 -29.6,8.51l2.39 -35.99 -2.39 3.19c-61.87,-1.68 -27.57,-82.96 -70.29,-102.29l-7.27 7.98 4.7 -18.97c-2.31,13.56 -12.32,6.47 -19.59,12.23l-0.62 -36.96c-7.52,5.51 -22.06,21.47 -14.61,23.68zm222.04 287.18l2.92 6.12c1.6,0.36 2.57,1.15 1.95,3.9l-1.95 -3.9c-4.25,-0.97 -12.14,2.57 -2.92,-6.12zm320.96 510.72c-5.67,8.16 -4.88,-2.04 -7.09,-3.01l4.08 10.19c5.14,-1.95 2.93,-5.14 3.02,-7.18zm-419.43 -426.25l-12.5 5.94 5.14 -10.55 7.36 4.61zm-57.17 -70.73l-0.18 12.23 -2.57 1.15 0.36 -12.05 2.39 -1.33zm17.28 -151.12c-0.18,0.97 -0.36,1.68 -0.8,3.19 0,-0.8 0.36,-1.86 0.8,-3.19 2.75,-11.88 -17.02,2.04 -3.28,-18.17 19.5,-7.8 6.92,9.66 3.28,18.17zm101.4 126.4c-0.18,4.08 -0.18,6.12 2.31,6.92 5.05,-6.47 10.19,-18.97 15.24,-17.28 -5.14,8.51 -0.36,18.35 -10.55,27.12 5.32,-16.58 -27.21,2.92 -7,-16.75zm125.07 178.34l-2.39 -0.97 -3.1 13.39 5.49 -12.41zm12.76 40.15c-10.72,14.63 -1.33,22.43 0.62,31.55 12.76,-7.44 21.19,-25.08 14.09,-32.09 3.63,-17.46 -20.21,10.91 -14.71,0.53zm-201.3 -257.05l-7.62 9.66 -2.39 -0.88 -0.18 12.23c-19.76,1.51 -2.13,-25.26 -2.13,-33.42 2.57,5.14 -10.19,35.72 12.32,12.41zm244.11 330.17c-3.28,13.21 -4.7,33.59 -15.07,39.89 18.17,-13.56 19.23,-29.87 17.02,-32.88 -2.31,-1.07 -2.13,-3.1 -1.95,-7zm-33.68 26.15c0.97,-16.31 8.86,-23.4 19.94,-44.14 14.54,3.72 -6.29,24.64 -16.66,30.84 -3.28,13.21 7.27,2.92 12.14,4.79l-15.42 8.51zm42.55 -49.9l-5.32 -2.04c-10.81,1.15 -31.73,16.13 -16.4,-6.47l16.4 6.47c2.4,-0.35 4.35,0.18 5.32,2.04zm58.68 84.3l3.28 -8.86c2.22,4.52 -0.27,7 -3.28,8.86l-2.92 7.44c-12.85,-3.81 -3.28,-3.99 2.92,-7.44zm-50.26 -60.01l-6.65 -13.03c-7.89,7.27 1.77,10.99 6.65,13.03zm32.44 69.76c-4.7,-4.08 -16.4,-14.89 -13.92,-14.09 10.28,-6.12 16.75,6.91 13.92,14.09zm152.37 281.25l-4.08 -8.16 15.51 -5.76 -11.44 13.92zm-68.16 -81.46l7.8 -2.92 1.95 5.05 -9.75 -2.13zm-55.58 -80.04c3.1,-1.68 6.47,-4.61 8.86,-7.44 0.36,-2.04 1.15,-4.43 3.55,-6.92 0.8,0.97 -0.8,3.9 -3.55,6.92 -0.62,5.41 4.25,8.95 9.57,8.33 5.5,-6.12 0.8,-10.19 3.72,-15.24 20.21,-4.08 -14.09,46.8 26.41,9.31 -3.1,7.09 -7.44,26.5 -17.46,28.36 -3.1,-10.46 -18.61,-23.14 -31.11,-23.31 -2.57,1.33 -4.88,2.04 -6.12,0.88 1.77,-0.88 3.81,-1.06 6.12,-0.88zm-84.56 -100.61c-1.15,-3.9 -0.62,-6.12 0.36,-7.8 1.33,-5.05 4.7,-10.9 11.17,-14.63 -0.8,10.37 -8.42,10.19 -11.17,14.63 -0.8,3.02 -1.15,5.76 -0.36,7.8zm-16.04 -17.02l-1.15 16.13 5.85 -12.23 -7.09 28.54c-14.62,-1.68 -8.15,-22.07 2.4,-32.44zm-10.64 3.1l8.77 -10.02 -8.24 11.35 -0.53 -1.33 -1.95 2.22 -5.85 -21.19 7.8 18.97zm-101.93 -183.56c-39.35,22.6 -13.92,34.57 -28.54,51.59 12.14,-8.86 34.83,-17.64 22.69,-33.06 22.07,4.08 -16.22,27.12 19.15,11.35 -7.09,-4.79 -3.9,-20.21 -3.9,-22.07l7 6.83c18.26,-22.25 -19.41,-3.28 -16.4,-14.63zm-68.34 -78.36l-7 -10.72 4.52 11.88 2.48 -1.15zm-205.37 -236.04c-7.27,7.8 -31.91,8.51 -19.76,-7.98 7.44,4.25 12.5,11.88 19.76,7.98zm-84.65 -104.33l2.75 16.93c-19.41,14.63 -7.62,-10.37 -15.07,-12.41 7.09,-10.11 4.88,-0.62 12.32,-4.52zm-60.8 -69.94l-0.18 -6.12 -14.09 20.21 14.27 -14.09zm-18.88 27.03c-9.75,5.41 -7,16.13 -4.34,16.93l4.34 -16.93zm-70.2 -47.15l5.05 3.19 11.7 -18.97 -16.75 15.78zm24.2 -10.73c-10.02,11.7 -25.08,25.79 -8.77,28.81 11.79,-10.9 9.4,-13.56 26.24,-23.04 -0.18,-6.12 -7.44,-4.08 -10.02,-4.79 0.18,4.08 7.44,2.04 0.36,10.19 -7.62,0.35 -9.75,-4.88 -7.8,-11.17 3.55,-4.25 6.47,-8.16 7,-11.17 -3.46,3.55 -5.94,7.45 -7,11.17zm44.85 25.09c2.57,0 5.14,-0.36 7.62,-1.68l-2.39 3.37c-6.38,3.63 -6.2,1.24 -5.23,-1.68 -2.75,0 -5.67,-0.53 -8.42,-0.97 -10.72,8.33 -11.17,21.72 -15.07,28.81 -0.18,-5.94 6.83,-18.17 -2.92,-16.75 -2.31,3.37 -4.88,4.79 -2.31,7.27l-7.44 -3.9c7.44,-20.21 17.46,-17.64 27.65,-15.42 2.31,-1.86 5.05,-3.55 8.6,-4.79 2.31,-0.36 0.71,2.92 -0.09,5.76zm-21.89 -70.02l0.18 6.12c-2.31,5.41 -7.09,8.16 -9.4,11.52 -2.57,-4.79 -0.62,-16.31 9.22,-17.64zm179.67 199.17c-4.88,0.53 -12.14,16.66 -4.88,18.79l-17.2 10.99c9.75,-9.13 -0.18,-18.35 -0.18,-20.39 12.32,-14.54 9.93,-5.14 22.25,-9.4zm197.22 242.24c-17.82,18.52 4.34,21.89 1.6,29.16 -9.66,-3.37 -26.68,-15.42 -1.6,-29.16zm26.06 16.67c2.57,3.9 5.14,3.37 -4.7,11.35 -2.75,5.23 4.7,3.72 2.13,8.95 -14.09,0 1.77,-12.5 2.57,-20.3 -0.62,-0.97 -1.42,-2.22 -1.77,-4.08 1.77,0.97 1.95,2.57 1.77,4.08zm-112.39 -144.39l10.02 -17.28 -7.27 -6.47 -2.75 23.75zm-41.75 -103.35c-7.44,7.8 -14.71,-0.71 -12.32,-5.94 -9.84,10.02 -3.72,14.63 -1.15,20.21 -0.36,1.33 -0.18,2.92 1.15,4.25 0,-1.51 -0.44,-2.92 -1.15,-4.25 0.97,-3.9 7.27,-7.62 10.99,-10.9l4.88 -0.53 -2.39 -8.95 -0 6.12zm-108.67 -150.95c-12.32,2.57 -9.84,-0.88 -10.02,-6.92 4.79,-2.75 9.84,0.8 10.02,6.92zm153.16 185.79c-12.32,-4.08 -12.32,18.52 -22.16,17.28l4.88 3.55c-17.2,2.57 7.44,-15.96 0,-18.35l5.05 1.68c12.32,-6.29 2.39,-11.52 9.84,-19.32 7.27,0.35 7.27,16.84 2.39,15.16zm-153.52 -200.06c-17.37,0.97 4.52,-17.11 1.77,-23.93 14.71,-1.86 -4.52,14.89 -1.77,23.93zm138.36 117.36l2.39 -1.15 -0.18 -12.23 -2.39 1.33 0.18 12.05z" />
	<path d="M654.12 279.47c-3.1,-0.88 -4.08,-2.39 -4.25,-4.25 1.77,0.8 3.37,2.21 4.25,4.25z" />
	<path d="M971.88 688.44c2.92,-2.22 5.05,-2.57 6.65,-2.39 -1.68,1.42 -3.72,2.3 -6.65,2.39z" />
	<path d="M978.36 711.22c0.18,0.36 0.36,0.53 0.44,0.71l-0.44 1.33 0 -2.04z" />
	<path d="M1444.58 1302.34c-11.7,13.74 -4.7,-2.22 -6.65,-5.41 2.13,3.19 12.86,-2.39 6.65,5.41z" />
	<path d="M1452.38 1261.04c-2.92,4.79 -4.08,9.31 -3.28,13.56 -1.59,-1.68 -1.59,-5.05 3.28,-13.56z" />
	<path d="M1459.21 1285.68c-6.03,-2.92 -9.22,-6.83 -10.02,-10.99 2.75,2.66 9.66,1.68 10.02,10.99z" />
	<path d="M1405.58 1196.95c-6.12,10.02 3.28,14.27 3.28,14.27 -18.44,-10.72 -14.09,14.8 -19.76,20.74 -3.64,-12.32 7.27,-20.12 16.48,-35.01z" />
	<path d="M1395.83 1172.14c1.15,1.51 2.57,3.01 4.7,3.37 -3.19,-0.09 -4.34,-1.42 -4.7,-3.37z" />
	<path d="M1383.51 1172.14c-1.6,-7.09 6.83,-15.96 12.5,-23.93 11.52,1.86 -1.15,17.28 -0.18,24.11 -2.75,-4.08 -4.34,-8.6 -12.32,-0.18z" />
	<path d="M1222.1 1034.93c-0.18,2.04 1.95,5.05 -3.28,9.13l-6.65 -8.95c0.71,-6.12 7.45,-1.15 9.93,-0.18z" />
	<path d="M1224.32 981.48c-4.25,-7.98 -15.24,6.29 -14.71,0.18l18.26 -13.39 -3.54 13.21z" />
	<path d="M1318.45 915.8l-0.36 3.55c-0.36,-0.97 -0.62,-2.04 -1.15,-3.01l1.51 -0.53z" />
	<path d="M1181.78 959.94l-16.4 20.56c0.62,-10.19 16.58,-22.6 16.4,-20.56z" />
	<polygon points="1148.54,942.65 1145.44,951.6 1141.89,933.61 " />
	<polygon points="1134.44,901.61 1129.48,903.74 1127.8,890.71 " />
	<path d="M880.5 532.71c14.89,-15.42 19.59,4.43 26.86,4.79 -22.34,15.07 -2.04,-16.93 -26.86,-4.79z" />
	<path d="M671.4 284.35l7.62 16.31c-14.71,-4.26 -2.39,-2.75 -7.62,-16.31z" />
	<path d="M1867.65 2540.16c0.8,0.97 2.31,1.68 3.37,2.57 -3.37,0.62 -4.96,0.09 -3.37,-2.57z" />
	<path d="M1914.8 2555.23c-12.5,-0.71 -32.09,-2.39 -43.7,-12.59 11.16,-1.68 42.19,-13.92 43.7,12.59z" />
	<path d="M1868.62 2497.53l14.89 9.13c-9.57,6.29 -6.92,-5.85 -14.89,-9.13z" />
	<polygon points="1872.52,2522.52 1870.93,2532 1863.48,2521.99 " />
	<path d="M1080.02 2596.8c1.6,4.08 2.75,8.68 1.95,14.63l-1.95 -14.63z" />
	<path d="M1043.77 2553.72c-3.28,-1.51 -5.5,-2.22 -7.44,-2.57 2.13,-0.71 4.08,0.18 7.44,2.57z" />
	<path d="M1112.46 2592.37l-6.29 1.33c2.04,-1.33 4.16,-1.95 6.29,-1.33z" />
	<path d="M1509.2 2557.8c5.67,7.09 11.17,13.56 15.24,17.99 -11.52,7.27 -12.14,-8.68 -15.24,-17.99z" />
	<path d="M876.15 2416.24l-1.42 7.8c-1.86,-3.55 -2.66,-6.92 1.42,-7.8z" />
	<path d="M1033.22 2424.75c0.18,4.43 0,7.8 -0.62,10.19 -0.62,-0.71 -1.33,-0.97 -1.95,-1.86l2.57 -8.33z" />
	<path d="M1137.55 2576.41c0.18,-0.36 0.18,-0.53 0.36,-0.88l5.14 4.79c-2.75,1.59 -4.52,0.17 -5.5,-3.9z" />
	<path d="M825.45 2406.76c-2.31,-4.25 -4.52,-9.66 -6.65,-16.75 4.88,3.37 7.27,10.81 6.65,16.75z" />
	<path d="M1035.35 2551.15c0,-0.18 0,-0.18 0,-0.36 0.36,0 0.62,0.18 0.97,0.36 -0.36,0.18 -0.62,0 -0.97,0z" />
	<path d="M1085.43 2432.38c-2.75,-1.33 -5.32,-2.22 -8.24,-3.9 3.37,-1.86 6.38,0.36 8.24,3.9z" />
	<path d="M1509.2 2557.8c-1.6,-2.04 -3.28,-3.9 -4.88,-6.12 2.48,0.36 3.81,2.66 4.88,6.12z" />
	<path d="M1824.93 2554.07c-5.05,-0.36 -5.85,-5.76 -6.29,-11.52 2.57,2.84 4.61,6.38 6.29,11.52z" />
	<path d="M13.01 2583.41l-1.95 -0.18c0.89,-0.53 1.51,-0.18 1.95,0.18z" />
	<path d="M205.97 2605.48c0.97,1.68 1.77,3.72 2.57,6.12 -1.77,2.13 -2.57,-1.42 -2.57,-6.12z" />
	<path d="M381.47 2416.95c-12.32,11.35 -25.44,-11.52 -36.25,-12.59l3.72 9.48 -10.99 -7.98 0.18 13.74c-18.17,-6.29 -40.51,8.16 -47.15,-13.74l2.31 22.07 -19.23 -17.28 10.99 14.8c-21.54,4.96 -54.25,-12.23 -58.77,-12.23l1.95 8.16c-3.55,4.25 -6.29,-1.15 -10.02,-3.9l2.92 12.23c-32.35,-3.37 -41.31,24.29 -77.56,11.35 -9.84,2.92 5.5,4.08 5.5,10.9 -5.5,9.66 -18.17,0.53 -20.74,-5.05 2.75,19.15 18.17,13.39 6.47,28.63 -8.24,-9.48 5.5,17.82 -8.86,13.92l-5.5 -24.64c-8.07,4.25 -1.77,19.15 -14.45,16.66 -14.45,-10.9 17.99,-27.65 -5.32,-31.55 -11.7,1.51 -25.26,56.64 -47.95,43.08 -19.94,12.59 9.84,38.38 -17.37,31.91l17.37 16.31c-4.52,6.92 -1.95,19.32 -13.74,13.92 -3.55,-9.48 -10.81,-21.89 -17.2,-23.22 25.44,18.97 -22.87,27.83 0.62,52.3l-8.86 -0.97c1.15,0.97 1.33,3.37 0.62,5.23l-11.79 1.51c7.27,5.41 24.64,7.98 16.22,25.97l-17.37 4.25c4.34,13.74 -1.95,19.32 -1.15,30.23l50.52 26.95c-1.95,-8.33 -9.22,-13.56 -6.29,-21.89 13.56,-7.09 10.81,14.89 23.84,3.72l-5.5 -10.9c0.97,4.08 2.75,5.41 0,6.83 -4.52,6.92 -6.47,-1.15 -6.29,-8.16 4.7,-13.74 17.37,-4.43 21.1,5.23 16.49,-1.51 3.55,-24.73 7.27,-28.99 8.24,23.22 27.57,-0.36 37.58,10.55l-6.47 -15.07c12.68,-17.99 23.84,-3.01 31.11,2.22l-2.75 -12.41c17.46,2.39 26.06,-39 39.35,4.61l-1.77 -8.16c7.09,-3.9 17.99,-13.03 24.82,0 0.18,-5.05 1.33,-11.52 4.25,-13.03 3.9,16.93 11.35,4.08 21.89,0.97 -7,-4.43 -4.88,-26.32 -12.14,-31.55 16.22,-22.43 14.89,24.47 28.54,24.11 8.07,-11.17 -7.27,-12.23 -9.4,-20.39 21.1,12.05 42.9,-50.7 56.37,-7.09l-8.86 14.09c8.42,9.31 12.94,9.31 11.79,5.05 -2.75,1.33 -3.55,-2.75 -4.52,-6.83 25.08,-22.69 39.71,31.73 65.15,22.69 -1.95,-8.16 -5.67,-10.9 -5.85,-17.64 11.7,-8.68 11.79,42.28 30.58,25.08l-3.9 -9.48c6.29,-5.76 10.99,7.8 10.19,10.72 0,-37.14 40.15,1.15 52.65,-47.33 9.57,20.21 36.25,35.81 44.23,24.47 11.35,-22.43 -10.72,-24.29 -6.65,-45.11 9.04,-0.36 14.27,20.21 27.65,12.76 0.62,20.74 -26.24,42.46 -0.44,53.63l3.37 -11.17c-2.57,1.51 -6.12,5.76 -9.84,3.19 -7.62,-12.05 4.25,-13.92 5.85,-19.5l27.57 5.76c2.39,21.89 -14.09,17.11 -15.69,22.69 21.72,-5.05 47.15,-37.85 67.54,-23.58l-2.13 -8.16c26.06,18.17 14.27,-40.51 35.28,-5.58 10.72,-5.94 -4.34,-23.22 11.96,-25.26 4.52,-0.18 2.13,8.16 1.33,10.99 20.21,7.27 8.42,-21.01 27.21,-1.15l-4.34 -23.22c22.34,15.42 46.36,55.66 65.15,45.29 -1.42,-17.82 -13.3,-15.96 -18.17,-29.52 26.41,31.73 61.87,2.75 86.15,19.5 -6.83,15.42 11.96,35.28 -2.92,48.39 -4.34,-23.04 -11.35,-7.62 -19.41,-10.19 14.27,50.35 54.78,-25.79 59.56,17.99l3.1 -17.99c3.72,2.57 13.3,15.96 7,21.72l26.06 -12.23c-9.57,-13.39 -29.6,-44.14 -35.28,-24.64 -7.98,-18.79 10.55,-12.85 3.37,-34.57 18.17,29.52 10.55,-12.85 28.81,-6.83 -7.8,26.15 18.79,34.75 18.26,47.33 5.85,-4.96 19.23,6.83 24.64,15.6 10.55,2.22 34.3,-19.15 51.32,-10.55 -6.47,-7.98 -16.84,-18.52 -16.4,-35.1 8.42,9.13 17.46,8.86 18.79,-10.55 -30.14,-34.48 -8.77,44.41 -35.63,22.25 -7,-21.72 -14.45,-26.95 -28.19,-33.06 6.03,-12.76 3.1,-17.99 5.5,-33.24 17.64,46 43.7,3.55 66.21,25.97 9.57,13.39 3.1,42.55 23.93,47.15l-17.82 14.45c19.59,-13.21 4.88,13.56 21.19,18.35l-6.83 -14.89c9.84,-3.01 13.56,-0.53 19.23,10.37l-8.77 -23.04c5.32,-2.92 15.24,-6.12 15.51,7.62 1.33,-5.58 1.77,-10.19 1.6,-14.09 1.15,3.9 3.72,6.29 10.02,5.41 -3.72,-2.57 -6.29,-0.97 -6.65,-7.98 24.11,5.05 5.14,-25.26 20.21,-23.22 -2.39,-5.23 1.77,-12.05 7,-15.07 0.18,36.52 29.78,40.86 37.76,61.07l-0.18 -0.53 20.21 14.45c-4.08,-2.92 0.18,-12.85 6.03,-16.75l-0.97 0.18c6.29,-5.76 -8.07,-39.71 11.17,-29.16l10.19 10.72c-1.77,-1.33 -0.18,-6.92 0.8,-9.66l10.55 9.84c15.51,-34.3 30.14,18.97 48.57,2.04 -5.32,2.92 -13.56,0.53 -10.19,-10.72 3.55,-4.25 9.04,-0.18 11.96,5.05l-0.97 -4.08 35.63 22.25c-2.92,-12.41 -22.87,-13.03 -13.92,-27.12 5.14,-16.75 15.42,0.97 21.89,2.22 -0.8,9.66 -12.5,18.17 -0.62,23.4 1.42,-4.79 12.68,-14.8 7.27,-21.54 12.14,9.84 29.78,15.78 40.68,32.88 3.37,-4.25 -1.95,-8.16 -3.72,-9.48l-0.8 2.75c-7.27,-5.23 -1.15,-24.73 -15.51,-14.8 -1.33,-31.73 20.74,-8.86 33.33,-13.21l-20.12 -21.54c34.04,-43.61 79.86,3.72 113.37,4.96 -10.02,9.66 -18.17,0.36 -17.2,24.91 20.74,12.23 17.99,6.65 38.73,11.88l-1.77 -1.33c10.81,-12.59 25.26,12.05 32.53,-10.02 -4.34,-13.74 -15.42,12.59 -15.24,-14.89l26.24 2.57c-7.98,-16.49 -26.24,-2.57 -36.07,-6.47 -7.27,1.51 14.45,3.9 10.72,21.89 -24.47,-1.15 -29.78,-18.97 -41.66,-44.94 -7.09,-19.15 10.99,-19.32 15.51,-19.5 15.42,28.81 37.94,42.1 62.31,29.87l13.74 -20.56c11.7,19.32 5.67,56.46 27.57,52.3l-6.12 -15.07c4.88,-5.76 8.07,-7.62 10.37,-7.44 -9.04,-11.52 -18.79,-24.64 -27.03,-36.61 13.12,-31.55 35.28,16.66 53.27,23.58 -0.8,-4.08 -7.09,-5.41 -8.86,-13.74 27.57,-6.92 54.78,31.91 75.43,38.03 9.4,-13.56 -17.02,-10.02 -11.96,-30.58 10.72,8.51 23.84,-9.13 26.06,10.19 -3.72,-27.48 25.44,-0.88 5.32,-27.48 20.12,-5.05 40.95,-0.88 61.69,6.65 20.74,7.98 41.13,19.5 60.72,28.54 -1.42,-8.33 -1.15,-15.07 0.97,-20.74 -13.56,-0.53 -33.24,-9.48 -39.89,-28.99 9.75,-13.39 20.21,20.03 23.31,11.88 -4.25,-6.92 -13.3,-7.44 -12.76,-21.01 12.5,-14.8 17.99,7.44 26.06,10.72l-4.88 6.65c24.64,20.21 11.52,48.48 38.91,42.72 10.81,-16.13 0.8,-13.74 1.77,-34.3 5.85,8.51 28.01,-12.85 33.24,9.66l-16.49 0.53c11.17,6.47 22.07,7.44 29.52,15.07 -0.44,-4.61 -0.8,-9.13 -3.28,-10.99 8.77,7.27 20.56,6.65 24.11,20.74l4.25 -21.89c-6.12,9.31 -22.51,9.66 -24.47,-2.75 2.92,-19.15 18.61,-5.76 25.88,-6.83 -31.38,-8.68 -29.6,-43.26 -57.62,-30.67l4.25 7.09c-17.82,15.6 -33.51,-12.85 -48.39,-13.21 4.34,-4.25 5.67,-12.23 4.08,-16.13 -33.68,15.24 -65.24,0 -103,9.13l-10.37 -22.25 -1.33 16.49c-18.61,6.47 -3.1,-23.4 -14.89,-22.43 4.52,0.18 3.55,2.92 4.34,6.92 -20.56,-19.68 -12.32,14.89 -24.11,9.13 5.05,17.99 22.69,7.27 16.49,30.58 -20.39,-19.68 -53.63,-10.72 -55.58,-50.52 -39.89,15.07 -87.93,-11.35 -120.99,-15.42 -4.7,6.92 2.75,5.41 0.97,10.99 -12.76,-23.22 -44.05,15.6 -44.05,-5.05 -6.29,5.58 -9.22,20.74 -10.99,26.32 -8.24,-10.02 -18.26,-14.89 -28.81,-17.99l7.8 5.76 -0.8 2.75 -10.99 -8.16 0.44 -1.15c-26.59,-6.47 -56.99,-0.97 -81.1,-23.22 13.74,13.39 -3.55,24.73 3.1,32.88 -12.14,-32.71 -41.66,-33.59 -65.24,-30.23 0.18,6.92 -1.6,12.41 1.15,17.82l-13.74 -13.39 1.95 8.16c-24.64,6.29 -51.67,-30.05 -67.9,-14.27 10.02,3.72 10.19,10.72 11.35,21.72 -17.64,-0.71 -34.3,-0.97 -55.04,-10.55 1.15,2.04 1.95,4.25 1.95,6.83 -5.32,2.92 -11.96,-5.05 -17.46,-8.95l-0.44 16.49c-10.72,-7.44 -24.11,1.15 -36.79,-11.7 -4.7,18.17 -30.58,-16.31 -44.85,-8.51 -5.67,-3.9 12.32,18.7 -3.28,17.99 -2.75,-35.81 -20.12,-0.53 -22.07,-39l-13.3 14.27 -3.37 -19.15c-10.81,36.34 -17.82,-15.78 -34.66,-4.08 0.97,4.08 2.92,5.41 1.95,8.16 -5.67,-3.9 -18.44,-6.12 -8.77,-16.13 -9.04,0.36 -40.33,-7.8 -26.06,12.23 -1.33,-10.99 11.7,-1.86 17.37,2.04 -0.44,16.49 -14.27,10.37 -17.37,28.36 -0.44,-1.86 -2.31,-4.61 -3.72,-7.27l-1.77 10.19c-17.46,-17.82 -34.66,-4.25 -47.42,-27.48 -0.62,5.05 -3.55,9.13 -9.4,8.16l-0.62 -20.74 -18.17 0.88 9.04 29.87c-19.76,6.47 -34.48,-27.3 -51.06,-32.09 -3.55,34.57 -32.27,-12.23 -45.83,18.7l12.94 8.95c-27.39,-5.58 -31.38,15.24 -56.99,3.9 21.36,-12.05 21.72,-5.05 52.47,-33.95 -31.29,15.07 -54.87,-18.17 -83.58,2.39 2.13,8.16 9.4,13.21 2.57,21.89 -6.03,-17.64 -27.21,1.15 -23.31,-19.68 -8.77,7.27 -10.02,26.68 -15.42,29.52l-30.58 -24.73 0.97 4.08c-50.35,49.02 -96.08,-30.4 -146.69,-9.13l1.15 10.99 -12.94 -15.96c10.19,10.72 -4.25,13.92 -4.88,23.58l-33.06 -23.58c-2.02,9.66 0.11,31.73 8.18,27.3zm433.61 0.71l7.8 1.33c1.6,-0.97 3.28,-1.33 5.05,0.88l-5.05 -0.88c-3.9,2.75 -6.65,11.52 -7.8,-1.33zm724.25 37.32c3.55,9.66 -5.5,2.75 -8.24,4.08l12.76 2.92c1.95,-5.67 -2.75,-5.67 -4.52,-7zm-721.15 95.99l-4.08 13.92 -5.85 -10.72 9.92 -3.19zm-110.8 3.54l11.17 7.8 -0.8 2.92 -11.17 -7.8 0.8 -2.92zm-125.24 -108.58c0.62,0.88 1.33,1.33 2.13,2.75 -0.62,-0.53 -1.42,-1.51 -2.13,-2.75 -8.77,-9.84 -11.7,15.07 -18.97,-8.86 8.15,-20.65 14,0.62 18.97,8.86zm194.56 -4.52c3.72,2.57 5.67,3.9 8.24,2.39 -2.13,-8.16 -9.75,-20.21 -4.34,-23.22 4.08,9.48 16.66,11.52 17.2,25.26 -11.44,-14.62 -18.35,24.2 -21.1,-4.43zm261.57 3.9l-2.75 1.51 10.37 10.55 -7.62 -12.05zm47.77 13.2c5.85,17.64 20.39,14.45 30.49,18.17 2.39,-15.24 -7.98,-32.71 -19.76,-31.02 -14.18,-13.29 -5.05,23.58 -10.73,12.85zm-393.9 11.52l3.1 12.23 -2.57 1.51 11.17 7.8c-14.09,17.11 -24.91,-14.09 -32.35,-19.15 6.2,0.98 24.38,30.4 20.65,-2.39zm495.3 -3.9c10.19,10.72 28.54,23.75 26.86,36.34 0.44,-23.4 -14.09,-33.95 -18.79,-33.77 -2.57,1.33 -4.34,0.18 -8.07,-2.57zm-0.18 44.14c-14.71,-10.55 -15.87,-21.54 -27.21,-43.26 14.45,-10.02 18.61,20.03 17.02,32.44 10.19,10.72 8.07,-4.43 13.47,-7.27l-3.28 18.08zm-15.69 -65.68l-6.03 3.19c-7,9.84 -8.24,36.34 -18.44,9.84l18.44 -9.84c1.6,-2.13 3.55,-3.55 6.03,-3.19zm123.83 1.06l-6.03 -7.98c5.94,0.62 6.73,4.17 6.03,7.98l5.05 6.83c-13.12,8.42 -6.47,0.27 -5.05,-6.83zm-94.58 6.38l-17.37 -2.22c1.24,10.91 11.88,5.15 17.37,2.22zm90.76 14.27c-7.27,1.51 -26.41,4.79 -23.84,3.19 1.6,-12.32 19.15,-10.01 23.84,-3.19zm382.56 41.75l-10.81 -1.68 6.03 -16.31 4.79 17.99zm-128.61 7.27l2.92 -8.16 6.29 1.33 -9.22 6.83zm-118.07 -1.51c0.62,-3.55 0.36,-8.16 -0.44,-11.88 -1.77,-1.51 -3.28,-3.55 -4.08,-7.09 1.6,0 3.1,3.01 4.08,7.09 4.7,3.72 11.79,1.86 15.07,-3.19 -1.77,-8.16 -9.04,-6.83 -11.79,-12.23 11.17,-19.5 34.48,39.89 28.54,-16.66 4.52,6.83 19.94,22.07 14.27,31.73 -12.49,-3.73 -36.16,1.68 -45.64,12.23 -0.62,3.01 -1.6,5.23 -3.72,5.76 0.62,-2.21 2.04,-4.08 3.72,-5.76zm-159.28 10.81c-4.52,-1.33 -6.29,-3.01 -7.27,-4.96 -3.9,-4.25 -6.83,-10.55 -5.67,-18.17 9.4,6.83 3.37,13.21 5.67,18.17 2.48,2.66 4.88,4.52 7.27,4.96zm-28.01 3.46l14.54 10.72 -7.27 -12.23 22.07 22.87c-12.77,11.17 -27.39,-6.29 -29.34,-21.36zm-5.14 10.81l-3.1 -13.39 4.7 13.74 -1.6 -0.35 0.62 3.01 -24.64 -7.62 24.02 4.61zm-251.38 -24.11c-8.42,46.45 22.34,32.62 27.39,54.78 0.8,-15.6 9.75,-39.89 -14.27,-38.82 20.56,-15.96 13.47,29.87 25.26,-9.13 -9.84,3.01 -22.07,-8.86 -23.84,-10.02l11.7 -1.86c-7.09,-28.63 -17.99,14.27 -26.24,5.05zm-126.13 9.57l-15.42 -0.71 14.71 3.55 0.71 -2.84zm-380.52 21c1.33,10.9 -18.26,31.02 -23.31,10.55 9.93,-3.28 20.92,-2.21 23.31,-10.55zm-163.71 -1.15l17.37 9.13c-3.1,24.91 -15.51,-0.88 -23.67,3.55 -2.75,-12.41 3.54,-4.25 6.29,-12.68zm-112.93 0.27l-5.5 -4.08 5.85 24.64 -0.35 -20.56zm7.62 32.79c-3.55,10.99 8.42,16.31 11.17,14.89l-11.17 -14.89zm-102.02 21.36l7.27 -1.51 -6.47 -21.89 -0.8 23.4zm11.88 -25.62c1.6,15.78 0.8,36.96 17.46,26.5 0.8,-16.49 -3.72,-16.49 2.57,-35.81 -5.5,-4.08 -10.02,3.01 -12.76,4.43 3.72,2.75 8.07,-4.25 9.04,6.83 -6.12,6.2 -12.59,3.99 -16.31,-1.95 -0.44,-5.58 -1.42,-10.55 -3.55,-13.03 -0.18,5.05 1.24,9.66 3.55,13.03zm60.36 -17.11c2.31,-2.04 4.08,-4.08 5.05,-6.92l0.97 4.08c-2.3,7.18 -4.25,5.5 -6.03,2.84 -2.39,2.22 -5.14,4.08 -8.07,5.94 -1.95,13.92 9.57,23.4 12.5,31.2 -5.5,-4.08 -10.02,-17.64 -17.37,-9.13 0.97,4.08 0,6.92 4.52,6.83l-10.02 3.01c-11.35,-19.32 -0.44,-25.44 10.19,-31.73 0.36,-3.01 1.15,-6.29 3.28,-9.84 1.77,-2.22 3.37,1.15 4.96,3.72zm-79.68 -31.38l5.32 4.08c2.75,5.41 0.97,10.99 1.95,15.07 -6.3,-1.33 -14.54,-10.9 -7.27,-19.14zm326 -6.12c-3.55,4.25 5.05,20.56 13.12,16.13l-4.08 20.74c-0.36,-13.74 -16.66,-11.7 -18.44,-13.03 -3.19,-19.32 3.28,-11.17 9.39,-23.84zm378.83 -8.16c3.55,25.97 23.93,9.84 28.63,16.66 -10.64,5.85 -35.1,12.68 -28.63,-16.66zm35.81 -11.34c5.67,0.18 7.27,-2.39 7,10.9 2.92,5.41 7.27,-1.68 10.02,3.72 -10.82,11.61 -10.55,-9.22 -17.02,-14.63 -1.42,0 -3.28,-0.18 -5.32,-0.97 2.22,-0.98 3.9,-0.27 5.32,0.97zm-221.59 3.37l-7.98 -18.97 -11.7 1.86 19.68 17.11zm-127.1 -31.73c1.15,10.99 -12.32,11.52 -15.24,6.12 1.15,14.45 10.02,12.41 17.37,13.92 0.97,1.15 2.39,1.86 4.7,1.86 -1.42,-0.97 -3.1,-1.51 -4.7,-1.86 -2.75,-3.37 -0.97,-10.72 -1.15,-15.78l3.55 -4.25 -10.02 -3.72 5.49 3.72zm-222.04 -13.03c-7.98,11.35 -8.86,7.27 -14.45,3.19 1.68,-5.41 8.95,-7.18 14.45,-3.19zm288.96 -0.89c-13.47,7.44 7,21.72 -1.95,28.99l7.09 -1.68c-11.35,15.6 -8.6,-16.31 -16.66,-11.7l5.32 -3.01c4.08,-13.92 -8.42,-9.31 -9.75,-20.21 6.56,-5.76 21.27,4.7 15.95,7.62zm-301.72 -8.33c-13.47,14.09 -10.99,-14.89 -19.23,-17.46 10.64,-12.59 9.13,13.56 19.23,17.46zm215.39 -32.09l0.8 -2.75 -10.99 -7.8 -0.8 2.75 10.99 7.8z" />
	<path d="M239.3 2593.25c-3.37,1.68 -5.5,1.51 -7.44,0.36 2.39,-0.71 4.87,-1.07 7.44,-0.36z" />
	<path d="M874.21 2596.62c0.18,-3.72 1.33,-5.76 2.92,-6.92 -0.18,2.04 -0.8,4.34 -2.92,6.92z" />
	<path d="M900.71 2605.13c0.36,0.18 0.62,0 0.97,0 0.36,0.36 0.62,0.88 0.8,1.15l-1.77 -1.15z" />
	<path d="M1815.79 2571.54c4.34,18.17 -5.67,2.39 -10.02,2.22 4.35,0.17 7,-12.06 10.02,-2.22z" />
	<path d="M1782.11 2539.63c2.39,5.41 6.03,9.13 10.55,10.99 -2.92,0.18 -6.03,-1.86 -10.55,-10.99z" />
	<path d="M1810.66 2549.11c-7.09,3.19 -13.3,3.19 -17.99,1.33 4.52,-0.44 8.95,-6.74 17.99,-1.33z" />
	<path d="M1685.77 2538.56c5.05,11.17 16.04,6.12 16.04,6.12 -23.93,8.86 3.72,20.83 5.14,29.16 -14.19,-4.7 -13.56,-18.26 -21.19,-35.28z" />
	<path d="M1655.01 2531.65c2.39,0 4.7,-0.36 6.65,-1.86 -2.48,2.75 -4.7,2.75 -6.65,1.86z" />
	<path d="M1645.79 2541.84c-8.07,-2.92 -10.37,-15.24 -13.74,-24.91 10.19,-8.51 15.69,11.35 22.96,14.8 -5.85,-0.09 -11.52,-1.6 -9.22,10.1z" />
	<path d="M1394.42 2594.05c1.77,1.33 6.29,1.33 6.29,8.16l-13.56 0.18c-5.41,-4.08 4.52,-6.91 7.27,-8.33z" />
	<path d="M1344.69 2560.28c-10.81,-1.15 -5.32,16.66 -10.81,12.59l0.8 -23.4 10.02 10.81z" />
	<path d="M1351.69 2441.86l3.28 2.39c-1.33,-0.36 -2.39,-0.53 -3.72,-0.88l0.44 -1.51z" />
	<path d="M1292.4 2583.23l7.44 25.97c-9.13,-6.65 -9.22,-27.3 -7.44,-25.97z" />
	<polygon points="1251.09,2600.7 1257.38,2608.85 1237.44,2601.05 " />
	<polygon points="1201.19,2588.11 1199.42,2593.78 1185.67,2587.31 " />
	<path d="M656.34 2576.23c-2.57,-21.89 19.59,-13.21 25.79,-19.15 -3.9,27.83 -17.64,-8.78 -25.79,19.15z" />
	<path d="M258.44 2583.06l21.1 4.96c-16.4,8.78 -4.79,0.09 -21.1,-4.96z" />
</svg>
