<svg xmlns="http://www.w3.org/2000/svg" viewBox="0 0 933.51 526.46">
	<style type="text/css">
		path, polygon {fill: #fff;}
	</style>
	<path d="M439.44 118.66c0.14,0.02 0.26,-0.04 0.41,-0.06 -0.11,0.3 -0.23,0.38 -0.41,0.06z" />
	<path d="M442.95 116.43c-0.61,0.81 -1.62,2.09 -3.12,2.19 0.32,-0.92 0.5,-3.94 3.12,-2.19z" />
	<path d="M435.36 115.61l1.54 -0.4c0.19,1.11 -0.89,0.08 -1.54,0.4z" />
	<polygon points="437.94,117.09 438.79,117.87 437.49,117.7 " />
	<path d="M409.55 176.43c0.48,0.17 0.99,0.37 1.56,0.8l-1.56 -0.8z" />
	<path d="M403.56 176.15c-0.3,0.12 -0.47,0.24 -0.59,0.34 0.02,-0.2 0.21,-0.26 0.59,-0.34z" />
	<path d="M410.56 173.94l-0.14 0.53c-0.04,-0.25 -0.02,-0.43 0.14,-0.53z" />
	<path d="M425.03 144.61c0.96,0.1 1.85,0.19 2.48,0.21 0.16,1.27 -1.42,0.24 -2.48,-0.21z" />
	<path d="M382.11 178.83l0.71 0.59c-0.41,-0.1 -0.79,-0.27 -0.71,-0.59z" />
	<path d="M390.11 168.58c0.46,0.26 0.79,0.51 0.99,0.71 -0.1,0 -0.16,0.02 -0.26,0.02l-0.73 -0.73z" />
	<path d="M410.08 171.18c-0.03,-0.02 -0.05,-0.04 -0.07,-0.08l0.71 -0.04c0.04,0.28 -0.18,0.32 -0.64,0.12z" />
	<path d="M378.86 181.65c-0.52,-0.12 -1.17,-0.31 -1.99,-0.63 0.57,-0.12 1.43,0.2 1.99,0.63z" />
	<path d="M402.95 176.56l-0.04 -0.02c0.02,-0.02 0.06,-0.04 0.08,-0.04 -0.02,0.04 -0.04,0.04 -0.04,0.06z" />
	<path d="M393.23 165.45c-0.26,0.11 -0.47,0.23 -0.77,0.33 -0.02,-0.37 0.34,-0.43 0.77,-0.33z" />
	<path d="M425.03 144.61c-0.26,-0.02 -0.53,-0.06 -0.81,-0.08 0.14,-0.14 0.43,-0.08 0.81,0.08z" />
	<path d="M438.91 122.63c-0.24,0.33 -0.81,0 -1.4,-0.36 0.39,0.02 0.83,0.12 1.4,0.36z" />
	<path d="M357.86 248.03l-0.12 0.12c0,-0.1 0.06,-0.12 0.12,-0.12z" />
	<path d="M369.3 236.65c0.21,0.06 0.45,0.12 0.74,0.26 0.1,0.24 -0.29,0.06 -0.74,-0.26z" />
	<path d="M359.34 211.85c0.53,1.6 -2.33,0.89 -2.94,1.52l1.11 0.4 -1.29 0.19 1.36 0.93c-1.47,0.77 -1.12,3.25 -3.58,2.17l2.26 1.38 -2.62 0.06 1.97 0.31c-0.57,1.74 -3.8,2.72 -4,3.02l0.89 0.45c0.25,0.53 -0.4,0.32 -0.85,0.38l1.32 0.67c-1.87,1.91 0.42,4.47 -2.6,5.93 -0.2,0.85 0.65,-0.08 1.32,0.41 0.67,1.03 -0.83,1.21 -1.5,1.01 1.99,1.18 2.17,-0.24 3.08,1.6 -1.32,-0.12 1.99,0.9 0.92,1.59l-2.66 -1.36c0.02,0.83 1.78,1.46 0.91,2.15 -1.75,0.2 -1.83,-3.15 -3.31,-1.87 -0.4,0.89 4.26,5.68 1.89,6.25 0.26,2.21 4.18,2.05 2.23,3.41l2.42 0c0.44,0.79 1.76,1.48 0.69,1.91 -1.1,-0.43 -2.64,-0.83 -3.07,-0.49 3.05,-0.36 1.59,3.51 5.08,3.65l-0.53 0.53c0.14,0 0.38,0.14 0.53,0.33l-0.43 0.91c0.87,-0.1 1.95,-1.1 3.29,0.75l-0.43 1.46c1.52,0.67 1.77,1.5 2.86,2.23l5.04 -1.5c-0.9,-0.44 -1.77,-0.34 -2.42,-1.11 -0.02,-1.42 1.97,0.32 1.52,-1.34l-1.32 -0.41c0.45,0.22 0.65,0.2 0.65,0.49 0.45,0.79 -0.42,0.34 -1.09,-0.14 -1.12,-1.28 0.42,-1.48 1.52,-1.06 0.65,-1.22 -2.23,-1.99 -2.46,-2.54 2.64,1.08 1.3,-1.86 2.85,-1.78l-1.77 -0.63c-1.14,-2.11 0.85,-1.81 1.72,-1.93l-1.31 -0.69c1.09,-0.99 -2.52,-4.48 2.35,-2.31l-0.87 -0.45c-0.02,-0.75 -0.39,-2.13 1.19,-1.66 -0.48,-0.37 -1.05,-0.89 -1.05,-1.2 1.83,0.91 0.93,-0.47 1.16,-1.4 -0.77,0.16 -2.78,-1.5 -3.66,-1.38 -1.4,-2.64 3.09,0.71 3.72,-0.24 -0.69,-1.32 -1.55,-0.37 -2.44,-0.79 2.17,-0.59 -2.86,-6.4 2.05,-4.27l0.93 1.57c1.32,0.1 1.55,-0.23 1.08,-0.43 0,0.29 -0.43,0.06 -0.87,-0.16 -1,-3.25 5.01,-0.47 5.36,-2.82 -0.9,-0.43 -1.32,-0.37 -2.01,-0.83 -0.29,-1.38 4.7,2.11 3.93,-0.35l-1.11 -0.39c-0.27,-0.81 1.3,-0.2 1.54,0.05 -3.63,-2.56 2.07,-2.62 -2.09,-6.78 2.44,0.73 5.24,-0.04 4.51,-1.34 -1.69,-2.3 -2.91,-0.94 -4.77,-2.62 0.4,-0.63 2.66,0.41 2.55,-1.01 2.07,1.36 2.93,4.62 5.28,3.65l-0.93 -1c0.02,0.29 0.28,0.82 -0.17,0.9 -1.56,-0.31 -1.17,-1.22 -1.64,-1.71l1.89 -1.48c2.29,1.32 1.01,2.11 1.48,2.6 0.55,-1.81 -1.46,-5.72 0.91,-6.17l-0.91 -0.41c3.02,-0.56 -3.35,-3.67 1.09,-2.78 -0.08,-1.11 -2.51,-1.26 -1.94,-2.49 0.2,-0.33 0.91,0.4 1.15,0.63 1.69,-0.9 -1.7,-1.97 1.16,-1.93l-2.52 -1.24c2.6,-0.49 7.72,0.51 7.55,-1.46 -1.86,-1.08 -2.21,-0.14 -3.79,-0.69 4.4,0.28 3.14,-4.06 5.94,-4.61 1.24,1.46 4.1,1.46 4.71,3.33 -2.53,-1.2 -1.3,0.29 -1.92,0.69 5.72,2.29 -0.09,-5.44 4.56,-2.94l-1.66 -1.38c0.42,-0.08 2.21,0.12 2.49,0.91l-0.02 -2.58c-1.78,-0.2 -5.8,-0.81 -4.1,0.84 -2.27,-0.69 -0.81,-1.57 -3.32,-2.48 3.79,0.65 -0.82,-1.56 0.62,-2.41 2.28,2.21 4.37,0.95 5.61,1.8 -0.23,-0.73 1.56,-0.89 2.67,-0.69 0.72,-0.59 -0.38,-3.59 1.26,-4.2 -1.09,-0.06 -2.63,-0.04 -4.28,-1.11 1.32,0.02 1.69,-0.65 -0.2,-1.97 -4.85,-0.14 4.08,3.45 0.61,3.87 -2.52,-0.91 -3.37,-0.75 -4.63,-0.18 -1.01,-1.24 -1.68,-1.38 -3.11,-2.52 5.44,1.75 2.36,-2.78 5.63,-2.88 1.78,0.21 4.42,2.52 5.84,1.38l0.65 2.15c-0.45,-2.19 1.58,0.53 2.82,-0.28l-1.81 -0.49c0.15,-0.87 0.57,-0.97 1.91,-0.67l-2.72 -0.87c-0.06,-0.55 0.08,-1.44 1.48,-0.59 -0.5,-0.45 -0.95,-0.77 -1.36,-1.01 0.45,0.16 0.8,0.14 1,-0.35 -0.43,0.08 -0.41,0.37 -1.1,-0.06 1.61,-1.32 -2.31,-1.99 -1.44,-2.88 -0.65,-0.18 -1.13,-0.89 -1.19,-1.44 3.69,2.33 5.45,0.59 7.85,1.34l-0.06 -0.02 2.35 -0.45c-0.49,0.08 -1.3,-0.85 -1.44,-1.5l-0.02 0.08c-0.28,-0.81 -4.34,-2.01 -2.43,-2.66l1.52 0c-0.21,0.04 -0.69,-0.44 -0.94,-0.69l1.47 -0.08c-2.74,-3.29 3.24,-0.83 2.39,-3.19 0.04,0.55 -0.57,0.96 -1.52,0 -0.27,-0.52 0.38,-0.62 1.05,-0.46l-0.44 -0.21 3.85 -0.95c-1.36,-0.61 -2.33,0.69 -3.35,-0.83 -1.44,-1.44 0.8,-1 1.2,-1.34 0.94,0.69 1.26,2.05 2.31,1.58 -0.4,-0.4 -0.89,-1.82 -1.82,-1.93 1.52,-0.18 2.92,-0.99 5.09,-0.6 -0.26,-0.51 -0.91,-0.41 -1.11,-0.37l0.24 0.24c-0.85,0.15 -2.52,-1.56 -2.15,0.09 -3.21,-2.01 0.04,-2.01 0.18,-3.15l-3.06 -0.06c-2.78,-5.22 4.04,-5.2 5.62,-7.41 0.51,1.34 -0.79,1.26 1.7,2.86 2.13,-0.59 1.46,-0.79 2.93,-1.82l-0.21 0.02c-0.73,-1.59 2.36,-0.88 0.51,-2.89 -1.54,-0.62 0.53,1.89 -2.17,0.03l1.44 -1.61c-1.99,-0.57 -1.46,1.61 -2.31,2.01 -0.19,0.59 1.05,-0.71 2.65,0.75 -1.23,1.56 -3.24,0.71 -6.35,-0.22 -2.21,-0.79 -1.42,-2.07 -1.21,-2.38 3.55,0.9 5.9,0.29 5.8,-2.23l-1.4 -2.35c2.41,0.51 5.8,3.45 6.37,1.68l-1.76 -0.61c-0.35,-0.73 -0.39,-1.07 -0.27,-1.21 -1.54,-0.17 -3.26,-0.39 -4.81,-0.63 -2.51,-3.07 3.23,-1.3 4.75,-2.03 -0.44,-0.23 -0.87,0.1 -1.74,-0.35 0.61,-2.33 5.64,-1.52 7.14,-2.53 -0.91,-1.59 -1.73,0.48 -3.51,-1.28 1.3,-0.17 0.18,-2.3 2.15,-1.1 -2.86,-1.64 1.05,-1.83 -2.44,-2.27 0.84,-3.49 5.48,-4.53 8.95,-5.99 -0.87,-0.49 -1.52,-0.97 -1.96,-1.5 -0.65,0.91 -2.4,1.64 -4.59,0.75 -0.87,-1.6 2.84,-0.02 2.19,-0.79 -0.87,-0.2 -1.32,0.41 -2.62,-0.59 -0.87,-1.91 1.52,-0.73 2.19,-1.07l0.43 0.81c3.06,-0.31 5.22,2.59 5.89,0.28 -1.06,-1.86 -1.3,-1.01 -3.25,-2.54 1.09,0.19 0.04,-2.8 2.43,-1.6l-0.69 1.2c1.14,-0.31 1.69,-1.02 2.78,-1 -0.46,-0.28 -0.91,-0.56 -1.21,-0.54 1.09,-0.08 1.54,-0.98 3.06,-0.25l-1.93 -1.82c0.63,1.07 -0.04,2.25 -1.34,1.52 -1.72,-1.54 0.25,-1.71 0.49,-2.29 -2.21,1.58 -5.46,-0.94 -5.52,1.86l0.87 0.21c0.69,2.31 -2.78,1.4 -3.47,2.43 -0.22,-0.61 -0.93,-1.26 -1.38,-1.4 -0.04,3.41 -2.88,4.57 -3.77,7.77l-2.64 -0.83 1.54 1.24c-0.2,1.74 -2.41,-1.42 -2.84,-0.51 0.23,-0.3 0.45,-0.06 0.88,0.18 -2.85,0.07 0.89,1.89 -0.21,2.32 1.97,0.89 1.75,-1.08 3.72,0.97 -2.84,0.06 -3.45,2.98 -7.45,0.37 -0.43,3.73 -5.18,5.29 -7.1,7.32 0.46,0.79 0.67,0.18 1.13,0.69 -2.88,-0.69 -0.53,4.08 -2.55,2.68 0.24,0.81 1.62,2.03 2.09,2.54 -1.36,-0.1 -2.32,0.26 -3.09,0.81l0.93 -0.14 0.25 0.24 -1.32 0.22 -0.1 -0.12c-1.83,1.44 -2.78,3.86 -6.09,4.08 1.97,-0.08 2.31,1.89 3.43,1.97 -3.82,-1.32 -5.24,0.69 -5.99,2.56 0.69,0.44 1.16,0.93 1.85,1.09l-1.99 0.08 0.91 0.41c-0.53,2.11 -5.38,1.64 -4.54,3.78 0.83,-0.47 1.54,-0.02 2.7,0.62 -0.88,1.18 -1.65,2.32 -3.58,3.13 0.25,0.06 0.53,0.14 0.78,0.3 0.04,0.57 -1.06,0.51 -1.71,0.63l1.64 1.1c-1.23,0.26 -0.97,1.74 -2.84,1.79 1.63,1.48 -3.02,1.05 -2.88,2.55 -0.65,0.14 2.46,0.35 1.69,1.38 -3.74,-2.09 -0.96,1.34 -4.94,-0.99l0.86 1.82 -2.09 -0.99c3.16,3.06 -2.4,0.2 -1.97,2.13 0.46,0.2 0.67,0.16 0.91,0.39 -0.65,0.14 -1.44,0.87 -2.03,-0.45 -0.38,0.65 -2.62,2.25 0.04,2.56 -1.15,-0.63 0.35,-0.91 0.98,-1.06 1.64,1.1 0.38,1.65 2.07,3.01 -0.21,-0.08 -0.57,-0.15 -0.9,-0.23l0.96 0.77c-2.58,0.04 -2.01,2.07 -4.93,1.47 0.48,0.36 0.75,0.83 0.38,1.15l-2.11 -1.3 -0.73 1.28 3.41 1.32c-0.24,1.77 -4.32,0.57 -5.54,1.36 3.31,2.5 -2.7,1.36 -0.22,4.28l1.5 -0.28c-1.83,1.46 0.1,3.12 -2.21,4.1 -0.21,-2.21 0.48,-1.79 -1,-5.74 0.1,3.1 -4.32,2.47 -3.57,5.72 0.91,0.4 1.77,0.24 2.29,1.28 -2.03,-0.77 -1.13,1.88 -3.02,0.24 0.3,1.08 2.19,2.44 2.23,3l-3.87 0.39 0.44 0.2c2.48,6.62 -7.47,4.29 -7.75,9.05l1.14 0.67 -2.19 -0.24c1.52,0.06 1.15,1.22 2.06,1.93l-3.87 0.55c0.97,0.68 3.2,2.04 3.16,1.21zm20.15 -28.8l0.49 -0.45c-0.04,-0.18 0,-0.3 0.3,-0.28l-0.3 0.28c0.1,0.45 0.85,1.22 -0.49,0.45zm36.88 -47.55c1.11,0.43 0.02,0.57 0.02,0.85l0.87 -0.67c-0.47,-0.52 -0.67,-0.2 -0.89,-0.18zm-23.32 55.97l1.22 1.18 -1.34 -0.31 0.12 -0.87zm-4.75 7.81l1.3 -0.26 0.24 0.24 -1.3 0.25 -0.24 -0.23zm-16.66 1.26c0.12,0 0.2,0 0.36,0.04 -0.08,0.02 -0.22,0 -0.36,-0.04 -1.38,-0.08 0.95,1.79 -1.75,0.69 -1.68,-1.93 0.67,-0.91 1.75,-0.69zm8.5 -13.35c0.43,-0.08 0.65,-0.12 0.61,-0.41 -0.91,-0.38 -2.48,-0.65 -2.54,-1.19 1.14,0.34 1.93,-0.39 3.33,0.48 -1.97,-0.18 1.61,2.8 -1.4,1.12zm12.24 -17.66l0.02 0.29 1.54 -0.04 -1.56 -0.25zm3.51 -2.43c2.05,0.73 2.37,-0.49 3.23,-0.94 -1.42,-1.15 -3.66,-1.56 -4.02,-0.62 -1.99,0.1 2.15,1.86 0.79,1.56zm-16.76 27.68l1.36 0.59 0.04 0.28 1.28 -0.24c1.07,2.09 -2.54,0.77 -3.41,0.93 0.4,-0.36 4.18,0.33 0.73,-1.56zm22.14 -34.22c1.54,0 3.71,-0.4 4.87,0.53 -2.32,-1.58 -4.06,-1.26 -4.24,-0.93 0.02,0.28 -0.19,0.34 -0.63,0.4zm4.4 2.91c-1.74,0.32 -2.86,-0.31 -5.56,-0.94 -0.34,-1.66 2.86,0.02 4.02,0.94 1.54,0 -0.06,-0.86 -0.1,-1.4l1.64 1.4zm-7.28 -3.19l0.06 0.63c0.67,1.12 3.26,2.94 0.16,1.93l-0.16 -1.93c-0.17,-0.26 -0.23,-0.49 -0.06,-0.63zm5.78 -8.54l-1.08 -0.13c0.35,-0.36 0.73,-0.16 1.08,0.13l0.91 0.1c0.23,1.48 -0.26,0.46 -0.91,-0.1zm-3.69 6.98l-1.04 1.05c1.16,0.65 1.08,-0.48 1.04,-1.05zm5.58 -5.34c-0.21,0.61 -0.73,2.15 -0.77,1.87 -1.16,-0.94 -0.13,-1.99 0.77,-1.87zm21.65 -23.5l-0.67 0.63 -1.32 -1.54 1.99 0.91zm-5.13 9.36l-0.67 -0.78 0.42 -0.32 0.25 1.1zm-5.59 7.97c-0.32,-0.28 -0.79,-0.57 -1.19,-0.77 -0.23,0.02 -0.51,-0.02 -0.89,-0.2 0.08,-0.12 0.44,0 0.89,0.2 0.59,-0.06 0.73,-0.67 0.38,-1.24 -0.89,-0.44 -1.09,0.17 -1.76,-0.02 -1.38,-2.09 5.5,0.35 -0.33,-3.08 0.88,0.16 3.07,0.12 3.76,1.17 -0.9,0.59 -1.42,2.6 -0.86,3.94 0.27,0.24 0.45,0.47 0.39,0.65 -0.16,-0.18 -0.28,-0.41 -0.39,-0.65zm-6.19 11.63c-0.34,0.22 -0.58,0.24 -0.81,0.18 -0.59,-0.02 -1.34,-0.22 -2.07,-0.81 1.1,-0.2 1.46,0.63 2.07,0.81 0.35,0 0.65,-0.04 0.81,-0.18zm-0.93 2.15l1.73 -0.3 -1.55 -0.31 3.27 0c0.55,1.62 -1.84,1.48 -3.45,0.61zm0.85 1.08l-1.48 -0.67 1.59 0.58 -0.11 0.09 0.35 0.16 -1.87 1.18 1.52 -1.34zm-13.8 15.7c4.33,3.57 4.29,0.55 6.78,1.65 -1.52,-1.06 -3.57,-3.23 -4.56,-1.53 -0.69,-2.43 3.61,1 0.2,-2.33 -0.14,0.87 -1.89,0.95 -2.09,0.99l0.34 -0.91c-3.2,-1.34 0.65,2.15 -0.67,2.13zm-4.74 9.3l-0.77 1.01 1.01 -0.77 -0.24 -0.24zm-15.69 27.21c1.14,0.65 2.17,3.35 -0.08,2.29 0.18,-0.89 0.79,-1.56 0.08,-2.29zm-7.94 10.92l1.73 -0.55c2.27,1.93 -0.83,0.98 -0.79,1.83 -1.36,-0.65 -0.25,-0.53 -0.94,-1.28zm-5.43 7.53l-0.65 0.08 2.65 1.34 -2 -1.42zm3.55 1.8c0.91,1.02 1.99,0.57 1.99,0.29l-1.99 -0.29zm-2.89 8.32l0.21 -0.58 -2.44 -1.12 2.23 1.7zm-1.88 -2.57c1.6,0.99 3.61,2.56 3.41,0.69 -1.57,-1.22 -1.77,-0.91 -3.35,-2.68 -0.65,0.08 -0.2,0.87 -0.2,1.16 0.44,-0.07 -0.02,-0.86 1.09,-0.15 0.31,0.84 -0.22,1.12 -0.95,0.98 -0.57,-0.37 -1.1,-0.65 -1.44,-0.67 0.48,0.32 0.99,0.57 1.44,0.67zm1.26 -5.26c-0.09,-0.28 -0.21,-0.57 -0.43,-0.81l0.45 0.22c0.58,0.65 0.34,0.67 -0.02,0.59 0.1,0.31 0.14,0.63 0.18,0.96 1.26,1.09 2.72,1.01 3.63,1.33 -0.65,0.09 -2.19,-0.54 -1.72,0.53 0.44,0.23 0.67,0.49 0.87,0.17l-0.18 0.87c-2.44,-0.61 -2.48,-1.75 -2.58,-2.92 -0.29,-0.25 -0.55,-0.53 -0.79,-0.9 -0.15,-0.24 0.26,-0.1 0.59,-0.04zm-6.88 3.11l0.65 -0.08c0.66,0.2 1.09,0.71 1.54,0.93 -0.43,0.34 -1.75,0.22 -2.19,-0.85zm15.07 -22.16c0.25,0.52 2.26,1.07 2.22,0.22l1.84 1.68c-1.36,-0.91 -1.95,0.31 -2.17,0.35 -2.05,-1.1 -0.93,-0.98 -1.89,-2.25zm16.93 -26.12c2.78,1.44 2.09,-1 2.98,-0.9 0.12,1.12 -0.34,3.23 -2.98,0.9zm0.49 -3.19c0.28,-0.36 0.1,-0.65 1.4,0.23 0.67,0.16 0.16,-0.61 0.83,-0.45 0.71,1.5 -1.38,0.14 -2.23,0.22 -0.08,0.1 -0.17,0.2 -0.35,0.31 0.02,-0.21 0.16,-0.29 0.35,-0.31zm-9.89 15.24l-2.25 -0.73 -0.36 0.91 2.61 -0.18zm-9.11 6.4c1.14,0.66 0.55,1.6 -0.12,1.44 1.48,0.91 1.7,0.16 2.17,-0.23 0.16,0.02 0.31,-0.04 0.41,-0.2 -0.17,0.02 -0.29,0.1 -0.41,0.2 -0.47,-0.04 -1.11,-0.67 -1.6,-0.99l-0.27 -0.53 -0.85 0.41 0.67 -0.1zm-11.85 13.84c0.71,1.31 0.26,1.09 -0.39,1.17 -0.44,-0.51 -0.26,-1.07 0.39,-1.17zm13.64 -19.22c0.1,1.4 2.47,0.99 2.78,2.07l0.18 -0.59c1.01,1.81 -2.01,-0.53 -1.95,0.32l-0.04 -0.54c-1.2,-1.2 -1.32,-0.07 -2.45,-0.71 -0.31,-0.82 1.42,-1.1 1.48,-0.55zm-15.14 19.42c0.73,1.86 -1.97,-0.31 -2.6,0.06 -0.73,-1.58 1.75,0.34 2.6,-0.06zm7.08 -16.44l-0.22 -0.24 -1.28 0.2 0.24 0.24 1.26 -0.2z" />
	<path d="M369.71 233.54c0.02,0.35 -0.12,0.47 -0.32,0.53 0.04,-0.23 0.14,-0.41 0.32,-0.53z" />
	<path d="M400.21 190.56c-0.36,-0.27 -0.51,-0.47 -0.57,-0.65 0.21,0.14 0.41,0.34 0.57,0.65z" />
	<path d="M402.28 189.28c0.02,-0.02 0.02,-0.04 0.06,-0.06l0.17 0.02 -0.23 0.04z" />
	<path d="M440.19 124.5c1.95,0.96 0,0.57 -0.24,0.85 0.24,-0.28 -0.84,-1.31 0.24,-0.85z" />
	<path d="M435.6 124.6c0.63,0.23 1.16,0.25 1.55,0.04 -0.1,0.23 -0.45,0.31 -1.55,-0.04z" />
	<path d="M437.82 123.31c-0.02,0.73 -0.27,1.15 -0.67,1.35 0.16,-0.36 -0.29,-1.11 0.67,-1.35z" />
	<path d="M431.22 131.22c1.32,0.43 1.32,-0.69 1.32,-0.69 -0.22,2.27 2.19,1.2 3.04,1.66 -1.09,0.67 -2.39,-0.32 -4.36,-0.97z" />
	<path d="M429.11 132.84c0.1,-0.16 0.18,-0.34 0.12,-0.59 0.16,0.37 0.06,0.51 -0.12,0.59z" />
	<path d="M429.68 134.18c-0.65,0.35 -1.97,-0.36 -3.07,-0.79 -0.34,-1.28 1.85,-0.28 2.5,-0.53 -0.26,0.37 -0.67,0.65 0.57,1.32z" />
	<path d="M423.39 154.88c0.22,-0.04 0.42,-0.34 1.09,0.12l-0.61 0.92c-0.62,0.1 -0.46,-0.75 -0.48,-1.04z" />
	<path d="M417.83 156c-0.61,0.67 1.4,1.48 0.75,1.56l-2.29 -1.62 1.54 0.06z" />
	<path d="M406.4 147.6l0.39 -0.06c-0.08,0.06 -0.16,0.12 -0.27,0.2l-0.12 -0.14z" />
	<path d="M417.73 161.09l2.92 1.22c-1.08,0.16 -3.15,-1.2 -2.92,-1.22z" />
	<polygon points="417.6,165.05 418.7,165.15 417.04,165.98 " />
	<polygon points="414.13,167.63 414.6,168.09 413.34,168.6 " />
	<path d="M388.06 204.2c-2.32,-1.28 -0.39,-2.22 -0.69,-3.03 2.59,2.09 -1.71,0.63 0.69,3.03z" />
	<path d="M369.65 231.55l1.5 -1.05c0.06,1.68 -0.2,0.3 -1.5,1.05z" />
	<path d="M526.5 237.38c-0.06,0.12 -0.04,0.26 -0.08,0.38 -0.22,-0.18 -0.29,-0.3 0.08,-0.38z" />
	<path d="M527.47 241.23c-0.56,-0.79 -1.42,-2.07 -1.05,-3.49 0.75,0.55 3.53,1.56 1.05,3.49z" />
	<path d="M530.64 234.41l-0.1 1.55c-1.1,-0.15 0.2,-0.84 0.1,-1.55z" />
	<polygon points="528.45,236.4 527.43,236.99 528.02,235.83 " />
	<path d="M480.74 195.77c-0.29,0.43 -0.63,0.88 -1.18,1.3l1.18 -1.3z" />
	<path d="M482.64 190.15c-0.04,-0.3 -0.1,-0.49 -0.16,-0.65 0.16,0.06 0.19,0.27 0.16,0.65z" />
	<path d="M482.85 197.32l-0.47 -0.25c0.24,0 0.43,0.08 0.47,0.25z" />
	<path d="M506.57 217.43c-0.34,0.87 -0.67,1.68 -0.89,2.27 -1.22,-0.14 0.18,-1.38 0.89,-2.27z" />
	<path d="M486.48 169.37l-0.77 0.53c0.22,-0.37 0.49,-0.69 0.77,-0.53z" />
	<path d="M493.48 179.13c-0.38,0.37 -0.69,0.63 -0.93,0.79 0.02,-0.08 0.02,-0.16 0.06,-0.26l0.87 -0.53z" />
	<path d="M485.57 197.48c0.04,-0.02 0.06,-0.04 0.1,-0.04l-0.14 0.69c-0.29,-0.04 -0.27,-0.27 0.04,-0.65z" />
	<path d="M484.94 165.7c0.28,-0.47 0.67,-1 1.24,-1.67 -0.09,0.55 -0.65,1.26 -1.24,1.67z" />
	<path d="M482.42 189.46l0.02 -0.04c0.02,0.02 0.02,0.06 0.02,0.08 -0.02,-0.02 -0.02,-0.04 -0.04,-0.04z" />
	<path d="M495.49 182.77c-0.02,-0.27 -0.08,-0.49 -0.08,-0.8 0.32,0.04 0.28,0.39 0.08,0.8z" />
	<path d="M506.57 217.43c0.1,-0.25 0.2,-0.49 0.31,-0.75 0.1,0.16 -0.06,0.42 -0.31,0.75z" />
	<path d="M522.95 235.81c-0.22,-0.32 0.26,-0.77 0.77,-1.19 -0.12,0.34 -0.37,0.73 -0.77,1.19z" />
	<path d="M433.33 124.97l-0.06 -0.14c0.08,0.04 0.08,0.1 0.06,0.14z" />
	<path d="M438.77 139.52c-0.14,0.16 -0.3,0.34 -0.53,0.55 -0.28,0 0.04,-0.29 0.53,-0.55z" />
	<path d="M465.07 139.34c-1.64,-0.06 0.14,-2.36 -0.18,-3.11l-0.81 0.85 0.36 -1.19 -1.38 0.89c-0.12,-1.52 -2.39,-2.13 -0.45,-3.92l-2.15 1.53 1.02 -2.34 -1.08 1.65c-1.32,-1.12 -0.85,-4.31 -1.05,-4.59l-0.77 0.63c-0.57,0.02 -0.13,-0.49 0,-0.9l-1.16 0.94c-0.91,-2.31 -4.18,-1.2 -4.18,-4.43 -0.67,-0.48 -0.21,0.61 -0.92,1.04 -1.21,0.22 -0.73,-1.2 -0.26,-1.7 -1.89,1.33 -0.69,2 -2.74,2.15 0.67,-1.12 -1.62,1.44 -1.78,0.22l2.33 -1.85c-0.75,-0.28 -2.07,1.04 -2.29,0.02 0.56,-1.62 3.57,-0.44 3.06,-2.23 -0.61,-0.69 -6.88,1.66 -6.37,-0.65 -2.09,-0.59 -3.61,2.92 -4,0.71l-1.01 2.13c-0.92,0.1 -2.09,1 -1.99,-0.12 0.85,-0.81 1.84,-2.01 1.74,-2.52 -0.97,2.83 -3.81,0.07 -5.41,3.09l-0.25 -0.67c-0.06,0.12 -0.3,0.28 -0.51,0.35l-0.62 -0.74c-0.29,0.82 0.16,2.16 -2.05,2.62l-1.16 -0.93c-1.26,1.09 -2.09,0.97 -3.21,1.68l-0.77 5.08c0.77,-0.61 1.06,-1.44 2.03,-1.73 1.28,0.53 -1.12,1.64 0.57,1.87l0.91 -1.02c-0.38,0.31 -0.47,0.51 -0.71,0.41 -0.91,0.1 -0.12,-0.53 0.59,-0.91 1.62,-0.49 1.16,0.93 0.3,1.76 0.84,1.06 2.72,-1.22 3.31,-1.22 -2.09,1.95 1.14,1.89 0.43,3.23l1.3 -1.34c2.37,-0.2 1.25,1.46 0.99,2.28l1.16 -0.94c0.44,1.36 5.03,-0.55 1.07,3.01l0.77 -0.63c0.69,0.26 2.09,0.42 1.04,1.7 0.53,-0.3 1.24,-0.61 1.52,-0.51 -1.58,1.3 0.04,1.02 0.79,1.55 0.17,-0.76 2.5,-1.93 2.74,-2.77 2.97,-0.28 -1.89,2.5 -1.3,3.41 1.48,-0.14 0.96,-1.25 1.71,-1.88 -0.35,2.17 6.9,-0.25 3,3.39l-1.78 0.26c-0.61,1.16 -0.43,1.46 -0.04,1.14 -0.27,-0.11 0.12,-0.41 0.5,-0.73 3.31,0.28 -1.62,4.7 0.41,5.86 0.75,-0.65 0.85,-1.08 1.54,-1.52 1.36,0.22 -3.75,3.51 -1.22,3.67l0.79 -0.87c0.86,0.04 -0.32,1.26 -0.62,1.38 3.73,-2.42 1.58,2.82 6.96,0.46 -1.65,1.99 -2.01,4.81 -0.51,4.57 2.72,-0.77 1.93,-2.33 4.18,-3.47 0.43,0.57 -1.36,2.27 -0.04,2.66 -2.01,1.44 -5.36,1.12 -5.32,3.59l1.26 -0.53c-0.26,-0.08 -0.85,-0.02 -0.75,-0.44 0.85,-1.32 1.56,-0.65 2.19,-0.94l0.65 2.22c-2.05,1.66 -2.31,0.22 -2.92,0.48 1.48,1.12 5.8,0.57 5.32,2.91l0.71 -0.72c-0.57,2.99 4.56,-1.92 2.17,1.91 1.07,0.27 2.05,-1.93 2.98,-1.03 0.22,0.28 -0.69,0.71 -0.99,0.87 0.22,1.83 2.39,-0.97 1.38,1.66l2.01 -1.94c-0.47,2.51 -3.21,7.04 -1.26,7.44 1.6,-1.42 0.85,-2.01 1.91,-3.31 -1.73,4 2.73,4.08 2.33,6.86 -1.77,0.74 -2.68,3.43 -4.63,3.45 1.93,-2.03 0.17,-1.29 -0.02,-2.01 -3.96,4.71 5.1,1.57 1.32,5.18l1.81 -1.18c-0.04,0.43 -0.79,2.05 -1.65,2.11l2.46 0.71c0.73,-1.64 2.54,-5.23 0.45,-4.1 1.33,-1.92 1.7,-0.34 3.34,-2.43 -1.78,3.39 1.71,-0.35 2.07,1.24 -2.78,1.54 -2.21,3.85 -3.38,4.81 0.75,-0.02 0.36,1.74 -0.15,2.74 0.35,0.85 3.51,0.58 3.62,2.31 0.36,-1.04 0.79,-2.5 2.29,-3.78 -0.39,1.24 0.12,1.77 1.91,0.31 1.54,-4.55 -4.43,3 -3.84,-0.39 1.58,-2.13 1.69,-3 1.56,-4.32 1.44,-0.63 1.79,-1.22 3.29,-2.27 -3.29,4.69 1.89,2.88 1.02,6.01 -0.71,1.62 -3.64,3.57 -2.97,5.21l-2.21 0.08c2.19,0.14 -0.95,1.38 -0.53,2.76l0.98 -1.6c0.79,0.34 0.77,0.79 0.1,1.99l1.58 -2.38c0.55,0.08 1.34,0.43 0.14,1.57 0.57,-0.39 1,-0.71 1.34,-1.04 -0.28,0.37 -0.36,0.73 0.04,1.04 0.04,-0.43 -0.24,-0.47 0.37,-1.04 0.81,1.83 2.49,-1.72 3.1,-0.69 0.35,-0.57 1.16,-0.87 1.69,-0.79 -3.23,2.96 -2.05,5.05 -3.39,7.16l0.04 -0.04 -0.2 2.36c0.04,-0.49 1.15,-1.04 1.8,-1.02l-0.06 -0.04c0.83,-0.1 3.07,-3.69 3.17,-1.72l-0.41 1.46c0.02,-0.2 0.59,-0.57 0.89,-0.73l-0.3 1.4c3.83,-1.89 -0.08,3.29 2.37,2.98 -0.54,-0.08 -0.75,-0.75 0.41,-1.46 0.57,-0.14 0.51,0.51 0.18,1.1l0.31 -0.39 -0.1 3.86c0.93,-1.16 -0.02,-2.38 1.66,-3.01 1.74,-1.05 0.73,0.98 0.95,1.44 -0.89,0.73 -2.25,0.75 -2.09,1.85 0.49,-0.3 1.97,-0.47 2.3,-1.32 -0.23,1.5 0.16,2.98 -0.8,4.97 0.55,-0.14 0.63,-0.77 0.65,-0.97l-0.28 0.16c0.08,-0.85 2.13,-2.05 0.49,-2.07 2.74,-2.62 1.86,0.49 2.92,0.85l0.85 -2.88c5.68,-1.54 3.82,4.95 5.48,6.94 -1.4,0.21 -0.97,-1.01 -3.14,1 -0.02,2.15 0.34,1.56 0.93,3.14l0.02 -0.2c1.68,-0.35 0.16,2.41 2.54,1.12 1.01,-1.32 -1.91,0.08 0.59,-2.07l1.09 1.72c1.1,-1.74 -1.09,-1.72 -1.24,-2.62 -0.48,-0.3 0.37,1.16 -1.44,2.36 -1.11,-1.53 0.19,-3.21 1.91,-5.95 1.34,-1.93 2.31,-0.89 2.58,-0.63 -1.77,3.15 -1.89,5.54 0.53,5.99l2.59 -0.79c-1.15,2.17 -4.85,4.69 -3.35,5.62l1.08 -1.52c0.77,-0.17 1.12,-0.12 1.22,0.02 0.59,-1.4 1.28,-2.99 1.93,-4.39 3.57,-1.64 0.36,3.33 0.6,4.93 0.35,-0.36 0.15,-0.85 0.82,-1.58 2.01,1.14 -0.19,5.68 0.32,7.33 1.75,-0.47 0.04,-1.75 2.21,-2.99 -0.22,1.26 2.09,0.71 0.41,2.3 2.37,-2.28 1.4,1.42 2.84,-1.73 3.09,1.63 2.62,6.27 2.94,9.87 0.71,-0.69 1.38,-1.16 2.01,-1.45 -0.65,-0.85 -0.81,-2.65 0.69,-4.48 1.77,-0.41 -0.83,2.66 0.08,2.25 0.45,-0.77 0,-1.34 1.34,-2.29 2.05,-0.33 0.23,1.62 0.35,2.33l-0.9 0.21c-0.64,2.92 -4.01,4.2 -2.04,5.39 2.06,-0.5 1.33,-0.93 3.36,-2.35 -0.52,0.97 2.6,0.79 0.73,2.72l-0.89 -0.95c-0.06,1.13 0.41,1.84 0.04,2.84 0.41,-0.35 0.83,-0.69 0.89,-0.98 -0.26,1.04 0.43,1.71 -0.75,2.92l2.32 -1.29c-1.22,0.28 -2.09,-0.65 -1,-1.67 1.99,-1.2 1.52,0.69 1.99,1.08 -0.79,-2.5 2.6,-4.85 -0.02,-5.66l-0.47 0.77c-2.37,0.02 -0.46,-2.97 -1.23,-3.88 0.63,-0.04 1.46,-0.55 1.72,-0.93 -3.2,-0.94 -3.43,-3.92 -6.19,-5.58l1.54 -2.28 -1.62 1.14c-1.58,-0.63 2.03,-1.93 1.3,-2.56 0.22,0.29 -0.08,0.43 -0.43,0.79 0.75,-2.7 -2.05,0.37 -2.13,-0.77 -1.4,1.65 0.51,1.91 -1.99,3.27 0.78,-2.68 -1.82,-3.98 1.79,-7.12 -3.39,-1.34 -3.61,-6.17 -4.99,-8.51 -0.87,0.27 -0.37,0.59 -0.96,0.92 1.45,-2.6 -3.73,-1.47 -1.86,-3.07 -0.85,0.06 -2.36,1.1 -2.94,1.42 0.44,-1.28 0.36,-2.25 0.06,-3.12l-0.1 0.91 -0.31 0.16 0.14 -1.3 0.14 -0.08c-0.87,-2.07 -2.92,-3.51 -2.27,-6.67 -0.44,1.88 -2.39,1.78 -2.76,2.82 2.25,-3.35 0.73,-5.14 -0.85,-6.27 -0.59,0.56 -1.18,0.91 -1.5,1.52l0.44 -1.89 -0.63 0.77c-1.84,-0.91 -0.1,-5.44 -2.33,-5.11 0.2,0.89 -0.41,1.46 -1.3,2.41 -0.87,-1.07 -1.74,-2.07 -1.97,-4.04 -0.12,0.23 -0.28,0.45 -0.48,0.67 -0.53,-0.06 -0.17,-1.09 -0.13,-1.74l-1.48 1.3c0.1,-1.22 -1.36,-1.3 -0.87,-3.09 -1.85,1.2 -0.14,-3.08 -1.54,-3.26 0.06,-0.63 -1.04,2.21 -1.77,1.25 3.05,-3.02 -0.95,-1.21 2.38,-4.38l-1.93 0.37 1.54 -1.71c-3.77,2.25 0.53,-2.27 -1.36,-2.31 -0.32,0.38 -0.34,0.59 -0.63,0.77 0.08,-0.63 -0.32,-1.54 1.04,-1.77 -0.47,-0.48 -1.18,-2.92 -2.32,-0.54 0.94,-0.94 0.73,0.52 0.63,1.15 -1.5,1.28 -1.6,-0.02 -3.39,1.22 0.15,-0.16 0.31,-0.49 0.49,-0.79l-1.01 0.69c0.79,-2.4 -1.26,-2.36 0.26,-4.89 -0.51,0.36 -0.99,0.49 -1.2,0.08l1.87 -1.62 -0.91 -1 -2.34 2.8c-1.5,-0.69 0.98,-4.12 0.67,-5.44 -3.39,2.38 -0.28,-2.8 -3.79,-1.3l-0.27 1.45c-0.71,-2.03 -2.84,-0.78 -2.88,-3.15 2.07,0.41 1.4,0.99 5.5,0.67 -2.84,-0.73 -0.61,-4.59 -3.81,-4.79 -0.69,0.71 -0.88,1.52 -1.99,1.71 1.44,-1.63 -1.3,-1.57 0.89,-2.81 -1.07,-0.02 -3,1.28 -3.53,1.16 0.35,-1.2 0.73,-2.41 1.14,-3.61l-0.37 0.34c-3.41,0.15 -3.69,-1.9 -3.57,-4.14 0.08,-2.21 0.57,-4.68 -1.46,-5.6l-1.06 0.79 1.1 -1.86c-0.67,1.34 -1.56,0.65 -2.56,1.22l1.06 -3.62c-1,0.57 -3.13,2.11 -2.36,2.34zm18.39 26.6l0.24 0.55c0.18,0 0.28,0.08 0.16,0.34l-0.16 -0.34c-0.45,-0.02 -1.38,0.49 -0.24,-0.55zm34.13 45.44c-0.71,0.95 -0.55,-0.12 -0.79,-0.18l0.39 0.99c0.6,-0.3 0.36,-0.59 0.4,-0.81zm-46.25 -35.07l-1.48 0.81 0.71 -1.17 0.77 0.36zm-5.7 -6.67l-0.18 1.27 -0.31 0.15 0.21 -1.28 0.28 -0.14zm4.77 -15.67c-0.04,0.1 -0.08,0.18 -0.16,0.32 0.02,-0.08 0.08,-0.2 0.16,-0.32 0.59,-1.22 -1.95,0.3 0.06,-1.81 2.37,-0.93 0.55,0.92 -0.06,1.81zm9.09 11.48c-0.06,0.43 -0.1,0.63 0.16,0.67 0.67,-0.75 1.42,-2.11 1.95,-2 -0.69,0.95 -0.32,1.86 -1.56,2.94 0.83,-1.77 -3.09,0.73 -0.55,-1.61zm12.44 15.63l-0.28 -0.04 -0.41 1.46 0.69 -1.42zm1.28 3.84c-1.24,1.76 -0.2,2.33 0,3.24 1.46,-1.09 2.45,-3.12 1.68,-3.65 0.45,-1.91 -2.33,1.6 -1.68,0.41zm-20.28 -22.45l-1.01 1.08 -0.26 -0.06 -0.25 1.25c-2.25,0.37 0.21,-2.59 0.37,-3.43 0.18,0.51 -1.81,3.8 1.15,1.16zm24.95 28.96c-0.41,1.46 -0.59,3.59 -1.77,4.51 2.09,-1.87 2.25,-3.6 1.99,-3.84 -0.27,-0.04 -0.27,-0.26 -0.22,-0.67zm-3.88 3.55c0.14,-1.7 1.06,-2.66 2.35,-5.07 1.65,0.02 -0.77,2.7 -1.94,3.61 -0.41,1.46 0.81,0.12 1.36,0.18l-1.77 1.28zm4.93 -6.23l-0.61 -0.08c-1.24,0.39 -3.63,2.48 -1.84,-0.26l1.84 0.26c0.29,-0.1 0.53,-0.1 0.61,0.08zm6.54 7.31l0.38 -1c0.24,0.43 -0.02,0.75 -0.38,1l-0.35 0.83c-1.44,-0.08 -0.36,-0.32 0.35,-0.83zm-5.63 -5.01l-0.73 -1.2c-0.91,0.97 0.19,1.11 0.73,1.2zm3.58 6.45c-0.53,-0.31 -1.83,-1.16 -1.57,-1.12 1.18,-0.89 1.91,0.31 1.57,1.12zm16.19 25.97l-0.39 -0.79 1.85 -0.83 -1.46 1.62zm-7.31 -7.12l0.92 -0.45 0.18 0.49 -1.1 -0.04zm-5.96 -7.1c0.36,-0.24 0.75,-0.61 1.05,-0.97 0.04,-0.23 0.17,-0.49 0.43,-0.8 0.08,0.11 -0.12,0.43 -0.43,0.8 -0.1,0.56 0.45,0.85 1.06,0.64 0.65,-0.75 0.14,-1.07 0.51,-1.66 2.33,-0.83 -1.83,5.14 3,0.41 -0.39,0.79 -0.95,2.88 -2.13,3.28 -0.33,-0.97 -2.07,-1.92 -3.49,-1.7 -0.31,0.2 -0.57,0.32 -0.71,0.22 0.2,-0.12 0.44,-0.18 0.71,-0.22zm-9.34 -8.4c-0.1,-0.37 -0.06,-0.61 0.04,-0.81 0.17,-0.55 0.57,-1.24 1.3,-1.79 -0.1,1.09 -0.99,1.26 -1.3,1.79 -0.08,0.32 -0.12,0.62 -0.04,0.81zm-1.78 -1.36l-0.17 1.7 0.69 -1.4 -0.87 3.11c-1.64,0.18 -0.87,-2.07 0.35,-3.41zm-1.22 0.59l1.01 -1.26 -0.97 1.38 -0.04 -0.12 -0.22 0.28 -0.61 -2.05 0.83 1.77zm-11.06 -16.6c-4.57,3.22 -1.75,3.93 -3.45,6.02 1.42,-1.19 4.02,-2.61 2.7,-3.97 2.47,-0.07 -1.95,3.18 2.13,0.75 -0.79,-0.33 -0.37,-2.01 -0.35,-2.22l0.78 0.55c2.17,-2.72 -2.2,0.1 -1.81,-1.13zm-7.23 -6.8l-0.68 -1 0.4 1.16 0.28 -0.16zm-19.58 -22.69c-1.03,0.81 -3.89,0.85 -2.05,-0.85 0.73,0.48 1.14,1.25 2.05,0.85zm-6.74 -10.98l-0.22 1.75c-2.66,1.36 -0.55,-1.1 -1.32,-1.38 1.14,-0.96 0.59,0 1.54,-0.37zm-4.58 -7.59l0.18 -0.61 -2.29 1.89 2.11 -1.28zm-3.07 2.52c-1.28,0.44 -1.34,1.56 -1.07,1.66l1.07 -1.66zm-6.27 -5.71l0.45 0.41 2.01 -1.74 -2.46 1.33zm3.11 -0.71c-1.57,1.06 -3.8,2.26 -2.05,2.78 1.74,-0.93 1.54,-1.23 3.81,-1.96 0.21,-0.61 -0.69,-0.51 -0.95,-0.61 -0.14,0.42 0.77,0.3 -0.35,1.03 -0.89,-0.08 -0.91,-0.63 -0.46,-1.24 0.57,-0.36 1.03,-0.73 1.21,-1.03 -0.52,0.3 -0.95,0.67 -1.21,1.03zm4.14 3.11c0.28,0.02 0.59,0.02 0.91,-0.08l-0.39 0.32c-0.81,0.27 -0.73,0.04 -0.52,-0.24 -0.33,-0.04 -0.63,-0.1 -0.94,-0.2 -1.52,0.71 -2.03,2.07 -2.72,2.74 0.19,-0.61 1.4,-1.75 0.25,-1.75 -0.39,0.3 -0.71,0.43 -0.51,0.73l-0.71 -0.51c1.56,-1.94 2.62,-1.56 3.67,-1.21 0.33,-0.17 0.69,-0.31 1.14,-0.39 0.3,0 0.02,0.32 -0.18,0.59zm0.14 -7.31l-0.2 0.61c-0.47,0.51 -1.1,0.71 -1.51,1.04 -0.1,-0.53 0.55,-1.65 1.71,-1.65zm13.76 21.43c-0.57,0.04 -1.85,1.67 -1.06,1.93l-2.23 1.1c1.36,-0.94 0.49,-1.89 0.53,-2.09 1.76,-1.46 1.24,-0.51 2.76,-0.94zm17.74 23.56c-2.26,2.22 0.26,2.22 -0.13,3.03 -1.09,-0.2 -2.9,-1.2 0.13,-3.03zm2.78 1.3c0.26,0.37 0.56,0.27 -0.65,1.26 -0.35,0.59 0.5,0.31 0.16,0.89 -1.6,0.25 0.32,-1.36 0.49,-2.15 -0.07,-0.1 -0.15,-0.2 -0.17,-0.38 0.21,0.06 0.21,0.2 0.17,0.38zm-10.62 -13.47l1.48 -1.83 -0.71 -0.59 -0.77 2.42zm-2.37 -10.29c-1.04,0.81 -1.67,-0.02 -1.26,-0.57 -1.38,1.04 -0.79,1.48 -0.63,2.03 -0.08,0.14 -0.08,0.28 0.02,0.43 0.04,-0.17 0.02,-0.29 -0.02,-0.43 0.2,-0.41 1.01,-0.79 1.52,-1.14l0.57 -0.06 -0.06 -0.89 -0.14 0.63zm-7.69 -15.26c-1.47,0.16 -1.1,-0.14 -0.9,-0.75 0.63,-0.23 1.08,0.14 0.9,0.75zm11.87 18.57c-1.3,-0.35 -1.83,1.95 -2.9,1.88l0.46 0.35c-2.01,0.34 1.22,-1.66 0.45,-1.87l0.53 0.14c1.54,-0.71 0.54,-1.17 1.58,-2 0.77,-0.02 0.39,1.62 -0.12,1.5zm-11.43 -19.99c-1.97,0 1.08,-1.65 1.04,-2.34 1.7,-0.08 -1.04,1.44 -1.04,2.34zm11.81 11.83l0.31 -0.14 0.32 -1.2 -0.3 0.14 -0.33 1.2z" />
	<path d="M441.41 141.04c-0.33,-0.12 -0.39,-0.28 -0.35,-0.49 0.19,0.13 0.31,0.27 0.35,0.49z" />
	<path d="M470 183.29c0.35,-0.28 0.59,-0.36 0.79,-0.36 -0.2,0.18 -0.44,0.3 -0.79,0.36z" />
	<path d="M470.59 185.63c0,0.02 0.04,0.04 0.04,0.06l-0.06 0.16 0.02 -0.22z" />
	<path d="M520.82 236.5c-1.52,1.57 -0.53,-0.16 -0.73,-0.44 0.2,0.3 1.5,-0.43 0.73,0.44z" />
	<path d="M522.18 232.2c-0.41,0.53 -0.59,1.02 -0.53,1.42 -0.18,-0.14 -0.14,-0.47 0.53,-1.42z" />
	<path d="M522.68 234.62c-0.66,-0.21 -0.99,-0.55 -1.05,-0.98 0.28,0.25 1.14,0.04 1.05,0.98z" />
	<path d="M517.33 226.42c-0.79,1.11 0.24,1.4 0.24,1.4 -2.05,-0.77 -1.76,1.74 -2.5,2.43 -0.28,-1.17 1.06,-2.15 2.26,-3.83z" />
	<path d="M516.43 224.06c0.13,0.14 0.27,0.27 0.51,0.27 -0.38,0.04 -0.49,-0.08 -0.51,-0.27z" />
	<path d="M515.01 224.27c-0.12,-0.71 0.92,-1.77 1.65,-2.68 1.34,-0.02 -0.29,1.78 -0.23,2.47 -0.28,-0.36 -0.42,-0.81 -1.42,0.21z" />
	<path d="M497.4 213.63c-0.02,0.21 0.2,0.47 -0.41,1l-0.71 -0.75c0.08,-0.63 0.83,-0.31 1.12,-0.25z" />
	<path d="M497.84 208.11c-0.44,-0.73 -1.76,1.02 -1.68,0.37l2.13 -1.83 -0.45 1.46z" />
	<path d="M508.8 199.12l-0.04 0.39c-0.04,-0.1 -0.08,-0.18 -0.12,-0.29l0.16 -0.1z" />
	<path d="M493.1 206.94l-1.93 2.51c0.12,-1.05 1.95,-2.72 1.93,-2.51z" />
	<polygon points="489.38,205.98 489,207 488.65,205.23 " />
	<polygon points="487.88,202.11 487.31,202.47 487.15,201.15 " />
	<path d="M461.19 167.89c1.99,-1.74 2.18,0.3 3.03,0.3 -2.82,1.75 0.02,-1.78 -3.03,-0.3z" />
	<path d="M443.24 141.71l0.34 1.75c-1.54,-0.57 -0.2,-0.33 -0.34,-1.75z" />
	<path d="M467.59 3.75c0.16,0 0.3,-0.1 0.46,-0.12 -0.16,0.35 -0.28,0.47 -0.46,0.12z" />
	<path d="M471.93 0.53c-0.83,1.07 -2.17,2.74 -3.88,3.08 0.51,-1.13 1.2,-4.75 3.88,-3.08z" />
	<path d="M463.49 0.71l1.78 -0.71c0.04,1.3 -0.99,0.22 -1.78,0.71z" />
	<polygon points="466.17,2.09 467,2.9 465.56,2.88 " />
	<path d="M422.21 76.77c0.51,0.16 0.99,0.41 1.5,0.89l-1.5 -0.89z" />
	<path d="M415.72 76.73c-0.37,0.16 -0.57,0.33 -0.73,0.45 0.06,-0.25 0.28,-0.33 0.73,-0.45z" />
	<path d="M423.96 73.67l-0.29 0.65c0,-0.29 0.1,-0.51 0.29,-0.65z" />
	<path d="M446.81 36.83c1.05,0.02 2.03,0 2.72,-0.04 -0.09,1.52 -1.63,0.45 -2.72,0.04z" />
	<path d="M391.51 81.07l0.65 0.69c-0.45,-0.1 -0.84,-0.26 -0.65,-0.69z" />
	<path d="M402.81 68.21c0.45,0.3 0.73,0.57 0.91,0.81 -0.1,0 -0.18,0.04 -0.3,0.02l-0.61 -0.83z" />
	<path d="M424.12 70.36c-0.02,-0.04 -0.04,-0.06 -0.06,-0.1l0.79 -0.1c-0.04,0.34 -0.29,0.4 -0.73,0.2z" />
	<path d="M387.2 84.75c-0.56,-0.1 -1.21,-0.31 -2.03,-0.65 0.65,-0.17 1.53,0.16 2.03,0.65z" />
	<path d="M414.93 77.26c-0.02,0 -0.02,-0.02 -0.05,-0.02 0.03,-0.02 0.07,-0.04 0.11,-0.06 -0.02,0.04 -0.06,0.06 -0.06,0.08z" />
	<path d="M407.01 64.29c-0.3,0.14 -0.57,0.31 -0.91,0.43 0.04,-0.43 0.44,-0.51 0.91,-0.43z" />
	<path d="M446.81 36.83c-0.31,0 -0.59,0 -0.9,0 0.19,-0.2 0.51,-0.16 0.9,0z" />
	<path d="M466.35 8.56c-0.33,0.43 -0.91,0.13 -1.5,-0.22 0.42,-0.04 0.91,0.02 1.5,0.22z" />
	<path d="M352.6 168.66l-0.14 0.16c0,-0.1 0.06,-0.14 0.14,-0.16z" />
	<path d="M366.38 152.91c0.23,0.04 0.47,0.09 0.77,0.21 0.08,0.28 -0.32,0.12 -0.77,-0.21z" />
	<path d="M358.97 124.32c0.31,1.89 -2.76,1.46 -3.55,2.37l1.18 0.33 -1.48 0.42 1.36 0.94c-1.77,1.2 -1.79,4.18 -4.34,3.29l2.29 1.32 -2.92 0.52 2.15 0.02c-0.89,2.26 -4.65,4.04 -4.91,4.47l0.93 0.38c0.2,0.61 -0.51,0.49 -0.99,0.65l1.38 0.59c-2.36,2.7 -0.19,5.4 -3.72,7.79 -0.32,1.1 0.73,-0.22 1.42,0.23 0.63,1.13 -1.07,1.66 -1.78,1.54 2.07,1.03 2.43,-0.73 3.24,1.36 -1.44,0.1 2.09,0.69 0.84,1.74l-2.78 -1.15c-0.09,1.01 1.8,1.44 0.77,2.43 -1.95,0.59 -1.67,-3.51 -3.45,-1.62 -0.57,1.18 4.1,6.09 1.4,7.24 0.06,2.64 4.42,1.65 2.13,3.68l2.66 -0.49c0.4,0.87 1.8,1.44 0.57,2.15 -1.18,-0.3 -2.85,-0.47 -3.35,0.02 3.41,-1.03 1.4,3.9 5.25,3.39l-0.63 0.73c0.17,-0.04 0.41,0.1 0.57,0.28l-0.55 1.18c0.98,-0.28 2.26,-1.68 3.56,0.24l-0.59 1.83c1.62,0.51 1.8,1.44 2.96,2.09l5.66 -2.72c-0.93,-0.38 -1.91,-0.08 -2.55,-0.89 0.1,-1.69 2.13,0.02 1.78,-1.87l-1.4 -0.22c0.47,0.18 0.71,0.12 0.67,0.47 0.43,0.87 -0.51,0.48 -1.18,0.02 -1.09,-1.32 0.59,-1.85 1.77,-1.53 0.81,-1.58 -2.25,-1.96 -2.46,-2.57 2.8,0.81 1.61,-2.48 3.29,-2.66l-1.87 -0.43c-1.03,-2.33 1.12,-2.31 2.09,-2.6l-1.38 -0.58c1.3,-1.38 -2.25,-4.96 2.85,-3.17l-0.92 -0.39c0.06,-0.89 -0.18,-2.47 1.52,-2.19 -0.48,-0.36 -1.05,-0.91 -1.03,-1.26 1.91,0.82 1.09,-0.71 1.44,-1.86 -0.85,0.32 -2.86,-1.36 -3.84,-1.08 -1.19,-2.96 3.31,0.35 4.12,-0.89 -0.58,-1.48 -1.64,-0.18 -2.57,-0.57 2.45,-1.05 -2.3,-7.28 2.82,-5.46l0.81 1.75c1.44,-0.1 1.7,-0.51 1.26,-0.69 -0.02,0.34 -0.49,0.14 -0.96,-0.06 -0.65,-3.78 5.58,-1.3 6.29,-4.16 -0.91,-0.41 -1.4,-0.27 -2.09,-0.71 -0.1,-1.63 4.85,1.9 4.39,-0.94l-1.16 -0.32c-0.16,-0.96 1.46,-0.43 1.69,-0.14 -3.6,-2.6 2.67,-3.41 -1.24,-7.92 2.58,0.59 5.76,-0.65 5.19,-2.15 -1.44,-2.56 -3.04,-0.79 -4.79,-2.62 0.55,-0.81 2.87,0.19 3.01,-1.5 2.03,1.42 2.39,5.26 5.15,3.84l-0.85 -1.08c-0.02,0.35 0.16,0.95 -0.34,1.08 -1.65,-0.21 -1.08,-1.36 -1.51,-1.89l2.34 -1.97c2.27,1.36 0.73,2.44 1.17,2.96 0.92,-2.23 -0.58,-6.75 2.12,-7.53l-0.92 -0.4c3.43,-0.96 -2.96,-4.12 1.77,-3.45 0.12,-1.34 -2.52,-1.28 -1.65,-2.84 0.29,-0.41 0.92,0.4 1.14,0.67 2.03,-1.22 -1.46,-2.24 1.66,-2.44l-2.51 -1.28c2.96,-0.81 8.36,0.02 8.6,-2.35 -1.8,-1.16 -2.39,0 -3.99,-0.55 4.76,0 4.34,-5.13 7.54,-5.99 1.02,1.71 4.14,1.53 4.41,3.76 -2.5,-1.3 -1.48,0.4 -2.25,0.93 5.72,2.42 1.15,-6.55 5.64,-3.81l-1.5 -1.59c0.48,-0.12 2.39,0.02 2.51,0.98l0.57 -3.11c-1.91,-0.16 -6.15,-0.69 -4.67,1.24 -2.31,-0.69 -0.53,-1.85 -3.06,-2.8 4,0.59 -0.53,-1.85 1.28,-2.96 1.96,2.55 4.56,0.91 5.7,1.88 -0.08,-0.85 1.93,-1.15 3.1,-0.97 0.92,-0.75 0.45,-4.34 2.42,-5.15 -1.2,-0.02 -2.88,0.08 -4.4,-1.16 1.44,-0.04 2,-0.85 0.26,-2.38 -5.28,0.07 3.63,3.98 -0.26,4.67 -2.52,-0.99 -3.52,-0.73 -5.02,0 -0.81,-1.44 -1.5,-1.58 -2.8,-2.88 5.54,1.83 3.25,-3.49 6.88,-3.77 1.91,0.16 4.24,2.84 6.09,1.4l0.18 2.57c0.06,-2.63 1.61,0.57 3.17,-0.46l-1.87 -0.51c0.37,-1.08 0.85,-1.2 2.27,-0.91l-2.78 -0.94c0.09,-0.67 0.45,-1.74 1.77,-0.77 -0.45,-0.53 -0.85,-0.89 -1.24,-1.18 0.45,0.19 0.83,0.15 1.18,-0.46 -0.49,0.12 -0.53,0.46 -1.2,-0.02 2.09,-1.69 -2.03,-2.3 -0.85,-3.43 -0.67,-0.19 -1.04,-1.04 -0.95,-1.71 3.47,2.66 5.84,0.45 8.3,1.22l-0.07 -0.04 2.72 -0.67c-0.54,0.14 -1.21,-0.95 -1.19,-1.74l-0.04 0.1c-0.13,-0.96 -4.29,-2.22 -2.03,-3.11l1.68 -0.1c-0.24,0.06 -0.67,-0.49 -0.87,-0.77l1.62 -0.18c-2.21,-3.84 3.8,-1.2 3.43,-4.02 -0.08,0.67 -0.85,1.2 -1.68,0.08 -0.17,-0.61 0.59,-0.79 1.28,-0.65l-0.45 -0.22 4.48 -1.42c-1.36,-0.65 -2.76,0.99 -3.49,-0.77 -1.23,-1.67 1.12,-1.26 1.67,-1.73 0.85,0.77 0.89,2.4 2.17,1.77 -0.35,-0.47 -0.55,-2.18 -1.56,-2.22 1.74,-0.32 3.47,-1.42 5.82,-1.11 -0.16,-0.61 -0.91,-0.43 -1.16,-0.37l0.21 0.29c-1,0.24 -2.42,-1.71 -2.42,0.26 -3.08,-2.21 0.55,-2.43 0.96,-3.83l-3.37 0.16c-1.87,-6.11 5.64,-6.62 7.93,-9.44 0.29,1.56 -1.15,1.58 1.26,3.31 2.52,-0.91 1.83,-1.08 3.67,-2.5l-0.24 0.06c-0.49,-1.84 2.8,-1.31 1.18,-3.55 -1.61,-0.61 0.18,2.26 -2.44,0.25l1.95 -2.09c-2.09,-0.51 -1.95,2.09 -2.98,2.65 -0.35,0.74 1.32,-0.97 2.8,0.65 -1.71,2.05 -3.76,1.22 -7,0.37 -2.3,-0.77 -1.12,-2.36 -0.84,-2.76 3.74,0.75 6.5,-0.24 6.92,-3.27l-1.07 -2.68c2.6,0.37 5.76,3.55 6.78,1.36l-1.85 -0.54c-0.22,-0.84 -0.2,-1.26 -0.04,-1.45 -1.69,-0.04 -3.57,-0.12 -5.26,-0.26 -2.17,-3.41 3.88,-1.89 5.71,-2.96 -0.45,-0.23 -1,0.22 -1.89,-0.21 1.11,-2.88 6.59,-2.49 8.48,-3.91 -0.71,-1.79 -2.05,0.79 -3.69,-1.12 1.5,-0.34 0.63,-2.76 2.64,-1.58 -2.89,-1.62 1.52,-2.31 -2.3,-2.42 1.57,-4.28 6.9,-6.12 11.08,-8.36 -0.89,-0.44 -1.54,-0.97 -1.95,-1.52 -0.89,1.18 -2.98,2.29 -5.27,1.5 -0.69,-1.8 3.19,-0.38 2.6,-1.23 -0.94,-0.13 -1.55,0.67 -2.84,-0.35 -0.65,-2.15 1.84,-1.05 2.63,-1.56l0.35 0.89c3.49,-0.77 5.42,2.4 6.55,-0.47 -0.89,-2.09 -1.28,-1.01 -3.2,-2.55 1.19,0.06 0.5,-3.37 3,-2.3l-0.95 1.53c1.31,-0.55 2.07,-1.47 3.26,-1.59 -0.46,-0.26 -0.93,-0.55 -1.28,-0.48 1.24,-0.27 1.89,-1.38 3.49,-0.76l-1.88 -1.88c0.52,1.19 -0.43,2.7 -1.75,2.01 -1.68,-1.59 0.57,-2.07 0.91,-2.8 -2.73,2.23 -5.98,-0.33 -6.49,3.04l0.93 0.12c0.41,2.68 -3.32,2.07 -4.28,3.37 -0.14,-0.69 -0.83,-1.36 -1.32,-1.48 -0.61,4.06 -4.01,5.78 -5.54,9.74l-2.8 -0.67 1.5 1.3c-0.54,2.09 -2.45,-1.4 -3.08,-0.29 0.28,-0.38 0.49,-0.12 0.95,0.13 -3.18,0.4 0.65,2.15 -0.65,2.76 2.05,0.83 2.14,-1.47 3.98,0.73 -3.18,0.38 -4.42,3.95 -8.36,1.25 -1.11,4.53 -6.72,6.82 -9.25,9.4 0.36,0.89 0.71,0.16 1.11,0.71 -3.04,-0.59 -1.38,4.93 -3.35,3.43 0.13,0.95 1.38,2.29 1.79,2.84 -1.48,0 -2.62,0.49 -3.59,1.2l1.05 -0.24 0.21 0.28 -1.5 0.36 -0.11 -0.12c-2.31,1.83 -3.85,4.83 -7.55,5.28 2.2,-0.2 2.14,2.11 3.33,2.13 -3.91,-1.34 -5.9,1.14 -7.16,3.41 0.67,0.49 1.05,1.06 1.76,1.2l-2.19 0.2 0.9 0.45c-1.04,2.55 -6.28,2.25 -5.87,4.77 1.04,-0.59 1.69,-0.11 2.8,0.6 -1.24,1.47 -2.35,2.89 -4.65,3.94 0.27,0.04 0.53,0.16 0.78,0.33 -0.09,0.67 -1.28,0.65 -2.01,0.85l1.52 1.26c-1.42,0.36 -1.48,2.15 -3.57,2.29 1.42,1.73 -3.58,1.44 -3.8,3.23 -0.75,0.2 2.6,0.3 1.5,1.58 -3.57,-2.37 -1.4,1.69 -5.17,-0.95l0.47 2.19 -2.03 -1.12c2.71,3.57 -2.68,0.39 -2.7,2.7 0.46,0.22 0.71,0.14 0.91,0.43 -0.75,0.2 -1.81,1.13 -2.11,-0.43 -0.57,0.81 -3.45,2.9 -0.59,3.13 -1.12,-0.69 0.61,-1.14 1.34,-1.34 1.54,1.23 0.02,1.97 1.52,3.55 -0.2,-0.08 -0.59,-0.14 -0.93,-0.2l0.85 0.89c-2.86,0.2 -2.72,2.66 -5.78,2.09 0.44,0.42 0.63,0.97 0.14,1.4l-2.01 -1.44 -1.14 1.64 3.45 1.38c-0.71,2.17 -4.91,1.02 -6.45,2.09 3.06,2.8 -3.33,1.91 -1.28,5.32l1.72 -0.47c-2.35,1.97 -0.62,3.82 -3.41,5.26 0.27,-2.72 0.94,-2.25 0.23,-7.02 -0.63,3.81 -5.38,3.47 -5.3,7.44 0.91,0.41 1.91,0.13 2.25,1.34 -2.09,-0.75 -1.68,2.46 -3.43,0.63 0.11,1.3 1.89,2.78 1.81,3.47l-4.38 0.92 0.46 0.2c1.4,7.89 -9.23,6.27 -10.47,12.3l1.14 0.67 -2.4 0.04c1.69,-0.17 1.08,1.34 1.97,2.07l-4.42 1.29c0.77,0.61 3.04,1.95 3.14,0.94zm28.58 -37.89l0.65 -0.59c0,-0.2 0.08,-0.36 0.4,-0.36l-0.4 0.36c0.02,0.57 0.65,1.44 -0.65,0.59zm51.34 -59.6c1.16,0.38 -0.1,0.67 -0.14,1.01l1.1 -0.91c-0.41,-0.57 -0.71,-0.16 -0.96,-0.1zm-38.45 69.02l1.05 1.36 -1.4 -0.29 0.35 -1.07zm-6.97 9.78l1.49 -0.41 0.2 0.29 -1.46 0.4 -0.23 -0.28zm-18.65 3.06c0.13,0 0.23,-0.02 0.41,0 -0.1,0.02 -0.24,0.02 -0.41,0 -1.5,0.06 0.69,2.09 -2.09,1.04 -1.44,-2.19 0.98,-1.2 2.09,-1.04zm12.44 -17.23c0.51,-0.14 0.76,-0.2 0.78,-0.54 -0.92,-0.41 -2.58,-0.61 -2.5,-1.3 1.16,0.34 2.21,-0.61 3.55,0.34 -2.13,-0.06 1.1,3.37 -1.83,1.5zm17.82 -22.2l-0.04 0.35 1.69 -0.12 -1.65 -0.23zm4.45 -3.1c2.07,0.79 2.72,-0.69 3.75,-1.28 -1.28,-1.32 -3.63,-1.71 -4.24,-0.57 -2.21,0.22 1.89,2.15 0.49,1.85zm-25.15 34.7l1.36 0.61 -0.02 0.34 1.46 -0.4c0.71,2.45 -2.98,1.15 -3.97,1.42 0.54,-0.49 4.56,0.06 1.17,-1.97zm32.61 -42.84c1.69,-0.1 4.17,-0.71 5.24,0.34 -2.17,-1.74 -4.16,-1.25 -4.46,-0.87 -0.04,0.35 -0.29,0.41 -0.78,0.53zm4.14 3.23c-1.96,0.48 -3.08,-0.21 -5.9,-0.82 0,-1.96 3.14,-0.14 4.2,0.92 1.68,-0.1 0.12,-1.02 0.2,-1.69l1.5 1.59zm-7.24 -3.43l-0.08 0.75c0.47,1.32 2.9,3.37 -0.29,2.29l0.29 -2.29c-0.12,-0.31 -0.12,-0.57 0.08,-0.75zm8.28 -10.58l-1.16 -0.06c0.47,-0.46 0.84,-0.26 1.16,0.06l0.97 0.07c-0.06,1.74 -0.38,0.56 -0.97,-0.07zm-5.64 8.59l-1.36 1.34c1.11,0.71 1.28,-0.65 1.36,-1.34zm7.34 -6.74c-0.34,0.75 -1.29,2.62 -1.25,2.27 -1.06,-1.03 0.3,-2.37 1.25,-2.27zm28.68 -30.3l-0.85 0.83 -1.2 -1.68 2.05 0.85zm-7.47 11.83l-0.59 -0.85 0.55 -0.45 0.04 1.3zm-7.79 10.17c-0.31,-0.3 -0.75,-0.63 -1.18,-0.81 -0.26,0.04 -0.57,0.02 -0.93,-0.16 0.1,-0.15 0.48,-0.04 0.93,0.16 0.67,-0.12 0.94,-0.89 0.69,-1.52 -0.89,-0.45 -1.24,0.3 -1.95,0.14 -1.11,-2.38 6.03,-0.12 0.27,-3.67 0.93,0.1 3.39,-0.15 3.93,1.03 -1.11,0.81 -2.13,3.25 -1.76,4.83 0.24,0.26 0.4,0.53 0.3,0.75 -0.16,-0.22 -0.24,-0.49 -0.3,-0.75zm-9.42 14.55c-0.42,0.29 -0.71,0.33 -0.95,0.26 -0.65,0.02 -1.44,-0.18 -2.09,-0.83 1.26,-0.3 1.48,0.67 2.09,0.83 0.4,-0.02 0.75,-0.1 0.95,-0.26zm-1.52 2.66l1.97 -0.49 -1.64 -0.26 3.63 -0.22c0.22,1.9 -2.4,1.9 -3.96,0.97zm0.69 1.24l-1.48 -0.71 1.6 0.61 -0.12 0.1 0.35 0.16 -2.36 1.56 2.01 -1.72zm-19.01 19.8c3.83,4.12 4.56,0.47 7.02,1.67 -1.42,-1.2 -3.13,-3.74 -4.63,-1.63 -0.14,-2.92 3.71,1.02 0.81,-2.84 -0.36,1.08 -2.29,1.26 -2.54,1.3l0.61 -1.13c-3.2,-1.47 0.17,2.59 -1.27,2.63zm-7.49 11.51l-1.1 1.28 1.32 -0.99 -0.22 -0.29zm-22.98 34.38c1.14,0.67 1.83,3.79 -0.48,2.78 0.32,-1.1 1.11,-1.99 0.48,-2.78zm-10.53 14.28l1.99 -0.91c2.23,2.01 -1.06,1.3 -1.14,2.34 -1.38,-0.59 -0.2,-0.61 -0.85,-1.43zm-6.98 10.03l-0.73 0.22 2.78 1.16 -2.05 -1.38zm3.69 1.56c0.88,1.06 2.12,0.37 2.16,0.02l-2.16 -0.02zm-4.09 10.52l0.28 -0.76 -2.56 -0.89 2.28 1.65zm-1.83 -2.76c1.64,0.91 3.69,2.41 3.67,0.2 -1.58,-1.18 -1.84,-0.77 -3.39,-2.64 -0.73,0.22 -0.32,1.1 -0.34,1.44 0.49,-0.14 0.08,-1.01 1.22,-0.36 0.24,0.99 -0.37,1.42 -1.16,1.36 -0.59,-0.33 -1.14,-0.57 -1.5,-0.55 0.48,0.34 1.01,0.52 1.5,0.55zm1.99 -6.56c-0.06,-0.32 -0.17,-0.65 -0.39,-0.91l0.47 0.18c0.57,0.71 0.28,0.77 -0.08,0.73 0.06,0.37 0.08,0.73 0.08,1.12 1.26,1.11 2.9,0.73 3.85,0.99 -0.73,0.2 -2.35,-0.3 -1.96,0.91 0.46,0.21 0.69,0.47 0.93,0.04l-0.3 1.1c-2.62,-0.31 -2.54,-1.69 -2.52,-3.06 -0.29,-0.25 -0.55,-0.53 -0.77,-0.96 -0.1,-0.24 0.34,-0.16 0.69,-0.14zm-7.98 5.03l0.73 -0.22c0.71,0.12 1.14,0.65 1.61,0.83 -0.51,0.51 -1.93,0.61 -2.34,-0.61zm19.77 -29.42c0.18,0.61 2.31,0.99 2.39,-0.02l1.75 1.8c-1.36,-0.93 -2.19,0.63 -2.46,0.71 -2.05,-1.05 -0.85,-1.05 -1.68,-2.49zm24.01 -33.45c2.69,1.59 2.51,-1.34 3.47,-1.26 -0.15,1.36 -1.12,3.94 -3.47,1.26zm1.27 -3.89c0.41,-0.47 0.27,-0.79 1.49,0.18 0.71,0.14 0.32,-0.73 1.01,-0.59 0.43,1.79 -1.54,0.24 -2.5,0.41 -0.1,0.12 -0.22,0.26 -0.44,0.38 0.08,-0.26 0.24,-0.34 0.44,-0.38zm-14.32 19.34l-2.34 -0.67 -0.59 1.15 2.93 -0.48zm-11.35 8.82c1.14,0.67 0.31,1.89 -0.4,1.77 1.46,0.91 1.84,0 2.45,-0.55 0.18,0 0.35,-0.08 0.49,-0.28 -0.18,0.06 -0.35,0.16 -0.49,0.28 -0.51,0 -1.09,-0.67 -1.6,-1.03l-0.18 -0.61 -1.02 0.61 0.75 -0.19zm-15.48 18.8c0.59,1.48 0.14,1.3 -0.59,1.5 -0.45,-0.53 -0.14,-1.28 0.59,-1.5zm18.51 -25.61c-0.17,1.7 2.53,0.93 2.65,2.23l0.31 -0.73c0.75,2.09 -2.11,-0.41 -2.21,0.61l0.06 -0.69c-1.08,-1.34 -1.44,0.08 -2.58,-0.59 -0.14,-0.96 1.83,-1.5 1.77,-0.83zm-20.22 26.11c0.55,2.18 -2.15,-0.02 -2.92,0.53 -0.57,-1.8 1.91,0.12 2.92,-0.53zm10.68 -21.41l-0.21 -0.26 -1.48 0.43 0.23 0.26 1.46 -0.43z" />
	<path d="M367.21 149.1c-0.04,0.42 -0.2,0.59 -0.4,0.67 0.06,-0.25 0.18,-0.47 0.4,-0.67z" />
	<path d="M408.49 94.37c-0.34,-0.29 -0.44,-0.53 -0.46,-0.76 0.2,0.17 0.36,0.39 0.46,0.76z" />
	<path d="M411.05 92.72c0.04,-0.02 0.04,-0.06 0.08,-0.08 0.06,0 0.12,0.02 0.18,0.02l-0.26 0.06z" />
	<path d="M467.49 10.61c2.03,0.86 -0.11,0.67 -0.41,1.06 0.3,-0.39 -0.73,-1.48 0.41,-1.06z" />
	<path d="M462.31 11.41c0.67,0.16 1.26,0.1 1.73,-0.19 -0.15,0.31 -0.53,0.43 -1.73,0.19z" />
	<path d="M465.01 9.52c-0.14,0.87 -0.49,1.42 -0.97,1.72 0.24,-0.46 -0.13,-1.3 0.97,-1.72z" />
	<path d="M456.24 19.93c1.4,0.34 1.61,-1.02 1.61,-1.02 -0.65,2.76 2.23,1.14 3.14,1.59 -1.38,0.95 -2.66,-0.06 -4.75,-0.57z" />
	<path d="M453.61 22.16c0.14,-0.22 0.26,-0.45 0.24,-0.71 0.1,0.39 -0.02,0.59 -0.24,0.71z" />
	<path d="M454.01 23.68c-0.79,0.51 -2.13,-0.18 -3.29,-0.57 -0.16,-1.5 2.09,-0.56 2.89,-0.97 -0.37,0.53 -0.88,0.91 0.4,1.54z" />
	<path d="M442.79 49.46c0.24,-0.07 0.55,-0.45 1.2,0.04l-0.88 1.19c-0.75,0.17 -0.36,-0.89 -0.32,-1.23z" />
	<path d="M436.29 51.32c-0.83,0.85 1.24,1.67 0.49,1.85l-2.17 -1.77 1.68 -0.08z" />
	<path d="M425.5 42.13l0.42 -0.1c-0.1,0.08 -0.2,0.16 -0.32,0.26l-0.1 -0.16z" />
	<path d="M435.04 57.51l2.96 1.26c-1.24,0.3 -3.21,-1.2 -2.96,-1.26z" />
	<polygon points="433.96,62.36 435.14,62.4 433.09,63.56 " />
	<polygon points="429.46,65.75 429.86,66.3 428.34,67.01 " />
	<path d="M392.18 111.6c-2.26,-1.36 0.02,-2.64 -0.15,-3.6 2.42,2.32 -1.98,0.88 0.15,3.6z" />
	<path d="M367.4 146.72l1.78 -1.5c-0.16,2.03 -0.26,0.41 -1.78,1.5z" />
	<path d="M520.37 157.62c-0.04,0.14 -0.02,0.31 -0.04,0.47 -0.26,-0.25 -0.32,-0.41 0.04,-0.47z" />
	<path d="M521.89 162.41c-0.71,-1.03 -1.78,-2.68 -1.54,-4.32 0.87,0.75 3.98,2.29 1.54,4.32z" />
	<path d="M524.51 154.66l0.06 1.83c-1.2,-0.31 0.14,-0.98 -0.06,-1.83z" />
	<polygon points="522.36,156.73 521.37,157.3 521.85,155.98 " />
	<path d="M467.2 98.77c-0.3,0.43 -0.67,0.85 -1.26,1.22l1.26 -1.22z" />
	<path d="M469.13 92.74c-0.06,-0.36 -0.12,-0.59 -0.2,-0.77 0.2,0.12 0.22,0.35 0.2,0.77z" />
	<path d="M469.54 101.06l-0.51 -0.4c0.26,0.04 0.44,0.18 0.51,0.4z" />
	<path d="M496.61 130.45c-0.35,0.97 -0.63,1.86 -0.81,2.49 -1.41,-0.42 0.1,-1.6 0.81,-2.49z" />
	<path d="M471.99 69.26l-0.81 0.47c0.22,-0.41 0.49,-0.71 0.81,-0.47z" />
	<path d="M480.78 82.58c-0.41,0.34 -0.75,0.54 -1.02,0.69 0.02,-0.11 0.02,-0.19 0.06,-0.29l0.96 -0.4z" />
	<path d="M472.56 101.92c0.04,-0.03 0.06,-0.03 0.1,-0.05l-0.14 0.78c-0.31,-0.13 -0.29,-0.37 0.04,-0.73z" />
	<path d="M469.78 64.47c0.26,-0.5 0.61,-1.07 1.18,-1.76 -0.04,0.65 -0.59,1.4 -1.18,1.76z" />
	<path d="M468.87 91.91c0,-0.02 0.02,-0.02 0.02,-0.04 0.02,0.02 0.02,0.08 0.02,0.1 -0.02,-0.02 -0.02,-0.06 -0.04,-0.06z" />
	<path d="M483.21 87.34c-0.04,-0.32 -0.12,-0.58 -0.12,-0.95 0.39,0.16 0.35,0.55 0.12,0.95z" />
	<path d="M496.61 130.45c0.1,-0.27 0.18,-0.53 0.28,-0.81 0.12,0.2 -0.02,0.48 -0.28,0.81z" />
	<path d="M516.35 155.27c-0.28,-0.41 0.21,-0.88 0.71,-1.32 -0.12,0.4 -0.32,0.83 -0.71,1.32z" />
	<path d="M400.39 16.38l-0.12 -0.17c0.1,0.03 0.14,0.11 0.12,0.17z" />
	<path d="M411.7 32c-0.08,0.21 -0.2,0.43 -0.37,0.69 -0.28,0.04 -0.04,-0.32 0.37,-0.69z" />
	<path d="M440.29 30.12c-1.84,-0.06 -0.67,-2.89 -1.32,-3.8l-0.59 1.06 -0.04 -1.46 -1.21 1.11c-0.67,-1.89 -3.47,-2.43 -1.99,-4.71l-1.81 1.93 0.23 -2.86 -0.57 2.03c-1.89,-1.26 -2.62,-5.14 -2.97,-5.46l-0.58 0.81c-0.61,0.08 -0.33,-0.57 -0.35,-1.05l-0.89 1.19c-1.97,-2.7 -5.01,-1.11 -6.39,-4.87 -0.94,-0.5 0.04,0.73 -0.57,1.32 -1.22,0.39 -1.3,-1.32 -1.02,-1.97 -1.48,1.79 0.11,2.44 -2.05,2.84 0.27,-1.38 -1.15,1.87 -1.82,0.49l1.74 -2.43c-0.93,-0.25 -1.78,1.46 -2.47,0.32 -0.08,-1.95 3.67,-0.97 2.35,-3 -0.97,-0.73 -6.68,2.86 -7.12,0.1 -2.48,-0.39 -2.6,3.92 -3.94,1.4l-0.18 2.6c-0.91,0.24 -1.79,1.46 -2.15,0.18 0.56,-1.06 1.11,-2.6 0.77,-3.17 0.16,3.41 -3.96,0.69 -4.43,4.43l-0.52 -0.71c0,0.16 -0.19,0.38 -0.39,0.48l-0.95 -0.71c0.04,0.98 1.03,2.42 -1.1,3.33l-1.56 -0.85c-0.87,1.46 -1.79,1.48 -2.66,2.46l1.16 5.78c0.56,-0.81 0.54,-1.79 1.44,-2.27 1.54,0.36 -0.53,2.01 1.3,1.97l0.56 -1.3c-0.28,0.4 -0.28,0.65 -0.58,0.56 -0.92,0.27 -0.33,-0.54 0.26,-1.11 1.5,-0.83 1.56,0.85 0.99,1.91 1.26,1.03 2.4,-1.81 3.01,-1.89 -1.44,2.51 1.92,1.91 1.66,3.53l0.87 -1.7c2.44,-0.59 1.89,1.44 1.91,2.41l0.89 -1.22c0.98,1.44 5.18,-1.3 2.24,3.23l0.58 -0.79c0.82,0.2 2.36,0.24 1.67,1.8 0.46,-0.4 1.11,-0.83 1.44,-0.75 -1.22,1.65 0.4,1.16 1.38,1.67 -0.08,-0.88 1.99,-2.48 1.95,-3.43 3.06,-0.63 -1.14,3.04 -0.21,4.04 1.53,-0.31 0.59,-1.53 1.18,-2.34 0.37,2.5 7.37,-0.87 4.38,3.61l-1.84 0.45c-0.29,1.38 0.04,1.71 0.32,1.3 -0.3,-0.08 0,-0.49 0.31,-0.87 3.69,0.06 -0.21,5.48 2.27,6.65 0.61,-0.79 0.61,-1.28 1.2,-1.82 1.54,0.18 -3.03,4.22 -0.27,4.28l0.61 -1.04c0.94,0.02 0,1.47 -0.3,1.61 3.35,-2.93 2.47,3.12 7.69,0.28 -1.22,2.31 -0.89,5.54 0.65,5.26 2.76,-0.88 1.54,-2.7 3.69,-4.02 0.61,0.67 -0.93,2.66 0.61,3.1 -1.85,1.63 -5.52,1.26 -4.93,4.12l1.24 -0.6c-0.31,-0.09 -0.92,-0.03 -0.92,-0.51 0.63,-1.52 1.55,-0.75 2.16,-1.06l1.21 2.56c-1.86,1.87 -2.45,0.22 -3.06,0.55 1.82,1.26 6.45,0.73 6.43,3.39l0.63 -0.8c-0.02,3.39 4.65,-1.98 2.74,2.32 1.22,0.38 1.87,-2.11 3.09,-1 0.3,0.35 -0.63,0.77 -0.94,0.94 0.59,2.13 2.48,-0.94 1.83,2.03l1.86 -2.09c-0.04,2.92 -2.29,7.81 -0.14,8.5 1.59,-1.46 0.67,-2.23 1.61,-3.63 -1.3,4.44 3.57,5.09 3.49,8.24 -1.87,0.61 -2.58,3.55 -4.71,3.34 1.91,-2.07 0.04,-1.46 -0.25,-2.27 -3.85,4.85 5.77,2.38 1.95,6.01l1.87 -1.16c-0.02,0.49 -0.69,2.21 -1.62,2.15l2.72 1.16c0.69,-1.74 2.37,-5.6 0.18,-4.61 1.3,-2.01 1.85,-0.12 3.47,-2.27 -1.66,3.61 1.85,-0.12 2.39,1.81 -2.92,1.32 -2.15,4.06 -3.37,4.93 0.82,0.1 0.53,2.03 0.03,3.08 0.42,1 3.89,1.32 4.09,3.29 0.37,-1.09 0.74,-2.68 2.34,-3.85 -0.37,1.33 0.22,2.03 2.13,0.73 1.44,-4.91 -4.73,2.55 -4.26,-1.22 1.62,-2.15 1.68,-3.11 1.42,-4.67 1.56,-0.44 1.91,-1.07 3.47,-2.01 -3.27,4.79 2.33,3.76 1.56,7.19 -0.69,1.72 -3.86,3.35 -3.04,5.35l-2.44 -0.36c2.42,0.61 -0.99,1.38 -0.47,3.04l1.02 -1.62c0.89,0.57 0.87,1.06 0.18,2.29l1.67 -2.37c0.61,0.2 1.5,0.77 0.2,1.8 0.61,-0.3 1.07,-0.6 1.44,-0.89 -0.3,0.37 -0.37,0.75 0.08,1.2 0.02,-0.49 -0.28,-0.59 0.37,-1.1 0.95,2.3 2.72,-1.4 3.43,-0.06 0.36,-0.59 1.25,-0.73 1.84,-0.53 -3.47,2.66 -2.11,5.34 -3.55,7.43l0.04 -0.04 -0.18 2.66c0.04,-0.55 1.24,-0.91 1.97,-0.73l-0.08 -0.06c0.93,0.1 3.3,-3.49 3.47,-1.2l-0.41 1.58c0.02,-0.24 0.65,-0.5 0.97,-0.62l-0.32 1.54c4.2,-1.22 -0.02,3.77 2.7,4.04 -0.61,-0.23 -0.85,-1.06 0.42,-1.59 0.61,-0.02 0.57,0.71 0.23,1.32l0.32 -0.36 -0.02 4.46c1.02,-1.12 -0.08,-2.78 1.77,-3.06 1.9,-0.77 0.83,1.32 1.09,1.9 -0.97,0.63 -2.49,0.29 -2.27,1.63 0.55,-0.23 2.17,-0.04 2.52,-0.96 -0.23,1.69 0.26,3.54 -0.73,5.63 0.6,-0.02 0.66,-0.76 0.68,-0.98l-0.32 0.12c0.08,-0.97 2.31,-1.84 0.49,-2.29 2.96,-2.35 2.09,1.04 3.26,1.74l0.88 -3.14c6.23,-0.37 4.4,6.7 6.31,9.48 -1.54,-0.1 -1.12,-1.44 -3.43,0.38 0.08,2.52 0.45,1.93 1.18,3.96l0.02 -0.24c1.86,-0.02 0.34,2.88 2.92,1.9 1.05,-1.31 -2.13,-0.34 0.53,-2.29l1.32 2.29c1.11,-1.8 -1.32,-2.29 -1.55,-3.36 -0.56,-0.49 0.49,1.44 -1.46,2.41 -1.36,-2.05 0.04,-3.73 1.83,-6.53 1.42,-1.95 2.51,-0.49 2.8,-0.13 -1.85,3.27 -1.79,6.03 0.87,7.13l2.82 -0.35c-1.16,2.3 -5.09,4.47 -3.37,5.91l1.1 -1.57c0.85,-0.02 1.22,0.11 1.34,0.31 0.57,-1.54 1.24,-3.25 1.89,-4.77 3.83,-1.18 0.52,4.02 0.95,5.95 0.34,-0.37 0.1,-0.96 0.79,-1.69 2.33,1.71 0.22,6.66 0.91,8.73 1.87,-0.22 -0.08,-2.07 2.2,-3.13 -0.17,1.46 2.33,1.26 0.6,2.8 2.42,-2.25 1.65,1.97 2.97,-1.52 3.47,2.48 3.45,7.84 4.14,12.22 0.71,-0.71 1.4,-1.18 2.03,-1.4 -0.79,-1.12 -1.14,-3.31 0.32,-5.22 1.89,-0.18 -0.67,3.03 0.31,2.68 0.4,-0.83 -0.13,-1.58 1.23,-2.51 2.19,-0.07 0.39,1.94 0.59,2.82l-0.93 0.1c-0.43,3.39 -3.96,4.36 -1.71,6.13 2.22,-0.29 1.36,-0.92 3.41,-2.3 -0.44,1.08 2.97,1.3 1.14,3.31l-1.08 -1.26c0.07,1.34 0.67,2.26 0.39,3.39 0.41,-0.36 0.81,-0.71 0.85,-1.03 -0.16,1.19 0.65,2.09 -0.46,3.37l2.35 -1.24c-1.28,0.18 -2.35,-1.08 -1.28,-2.11 2.01,-1.14 1.73,1.03 2.27,1.54 -1.13,-3.09 2.28,-5.4 -0.67,-6.72l-0.42 0.83c-2.6,-0.3 -0.83,-3.57 -1.73,-4.76 0.67,0.04 1.53,-0.43 1.79,-0.84 -3.55,-1.58 -4.04,-5.15 -7.2,-7.51l1.5 -2.39 -1.67 1.06c-1.76,-1.02 2.07,-1.91 1.24,-2.79 0.26,0.37 -0.06,0.49 -0.41,0.84 0.65,-3.03 -2.19,0.06 -2.35,-1.26 -1.42,1.66 0.67,2.33 -1.93,3.49 0.65,-3.03 -2.23,-5.03 1.48,-8.02 -3.85,-2.13 -4.22,-7.83 -5.82,-10.79 -0.95,0.12 -0.37,0.61 -1.01,0.85 1.48,-2.68 -4.14,-2.44 -2.16,-3.9 -0.91,-0.12 -2.55,0.73 -3.18,0.98 0.46,-1.38 0.34,-2.54 -0.02,-3.59l-0.08 1.03 -0.33 0.12 0.12 -1.46 0.15 -0.06c-0.98,-2.58 -3.31,-4.69 -2.62,-8.22 -0.47,2.07 -2.6,1.48 -2.99,2.6 2.42,-3.31 0.71,-5.74 -1.03,-7.43 -0.65,0.51 -1.28,0.75 -1.64,1.36l0.46 -2.07 -0.67 0.73c-2.09,-1.54 -0.24,-6.33 -2.72,-6.51 0.25,1.09 -0.4,1.58 -1.4,2.47 -0.99,-1.48 -1.97,-2.84 -2.29,-5.21 -0.12,0.24 -0.3,0.46 -0.53,0.65 -0.61,-0.23 -0.22,-1.34 -0.2,-2.07l-1.6 1.13c0.06,-1.4 -1.59,-1.84 -1.12,-3.81 -2.01,0.95 -0.3,-3.65 -1.93,-4.24 0.04,-0.73 -1.03,2.35 -1.91,1.05 3.23,-2.82 -1.15,-1.66 2.38,-4.62l-2.17 -0.04 1.6 -1.67c-4.1,1.77 0.41,-2.57 -1.76,-3.1 -0.33,0.38 -0.35,0.63 -0.65,0.77 0.02,-0.73 -0.55,-1.93 0.99,-1.89 -0.59,-0.71 -1.75,-3.83 -2.74,-1.22 0.95,-0.91 0.89,0.82 0.87,1.55 -1.58,1.17 -1.84,-0.39 -3.73,0.69 0.14,-0.17 0.28,-0.53 0.47,-0.84l-1.08 0.61c0.61,-2.72 -1.7,-3.12 -0.35,-5.86 -0.52,0.32 -1.07,0.38 -1.35,-0.16l1.9 -1.59 -1.21 -1.4 -2.24 2.94c-1.84,-1.11 0.41,-4.78 -0.18,-6.47 -3.45,2.29 -0.87,-3.51 -4.61,-2.29l-0.02 1.7c-1.19,-2.62 -3.41,-1.36 -3.97,-4.24 2.47,0.79 1.84,1.34 6.49,1.62 -3.41,-1.36 -1.81,-5.76 -5.54,-6.49 -0.63,0.79 -0.63,1.77 -1.87,1.87 1.26,-1.81 -1.84,-2.07 0.33,-3.35 -1.24,-0.16 -3.11,1.22 -3.72,1.01l0.31 -4.3 -0.31 0.39c-7.75,-0.21 -3.45,-9.93 -8.8,-12.24l-0.92 0.95 0.59 -2.27c-0.28,1.62 -1.54,0.77 -2.45,1.46l-0.09 -4.42c-0.88,0.74 -2.71,2.63 -1.78,2.92zm27.8 34.33l0.37 0.73c0.2,0.04 0.32,0.15 0.24,0.47l-0.24 -0.47c-0.51,-0.1 -1.5,0.31 -0.37,-0.73zm40.25 61.11c-0.71,0.97 -0.61,-0.25 -0.9,-0.37l0.51 1.22c0.65,-0.24 0.37,-0.61 0.39,-0.85zm-52.58 -51l-1.57 0.71 0.65 -1.26 0.92 0.55zm-7.17 -8.46l-0.02 1.46 -0.32 0.14 0.04 -1.44 0.3 -0.16zm2.19 -18.06c-0.02,0.12 -0.04,0.2 -0.1,0.38 -0.02,-0.1 0.02,-0.24 0.1,-0.38 0.35,-1.43 -2.13,0.24 -0.4,-2.18 2.41,-0.93 0.85,1.14 0.4,2.18zm12.71 15.11c-0.02,0.49 -0.02,0.73 0.28,0.84 0.63,-0.77 1.28,-2.28 1.91,-2.07 -0.65,1.01 -0.04,2.19 -1.32,3.24 0.67,-1.99 -3.41,0.35 -0.87,-2.01zm15.64 21.31l-0.3 -0.12 -0.39 1.6 0.69 -1.48zm1.63 4.81c-1.34,1.75 -0.16,2.68 0.08,3.78 1.6,-0.9 2.66,-3.01 1.76,-3.84 0.45,-2.07 -2.53,1.32 -1.84,0.06zm-25.23 -30.72l-0.95 1.15 -0.31 -0.1 -0.02 1.46c-2.47,0.19 -0.26,-3.02 -0.26,-3.99 0.3,0.6 -1.3,4.24 1.54,1.48zm30.59 39.47c-0.41,1.58 -0.59,4.02 -1.89,4.77 2.27,-1.63 2.41,-3.57 2.13,-3.94 -0.29,-0.1 -0.29,-0.34 -0.24,-0.83zm-4.25 3.14c0.13,-1.94 1.12,-2.8 2.5,-5.27 1.83,0.44 -0.79,2.94 -2.09,3.69 -0.43,1.58 0.91,0.35 1.52,0.57l-1.93 1.01zm5.34 -5.96l-0.67 -0.25c-1.36,0.15 -3.98,1.93 -2.05,-0.77l2.05 0.77c0.33,-0.04 0.57,0.02 0.67,0.25zm7.35 10.06l0.4 -1.05c0.29,0.55 0,0.85 -0.4,1.05l-0.37 0.9c-1.58,-0.45 -0.4,-0.49 0.37,-0.9zm-6.27 -7.16l-0.84 -1.56c-0.99,0.87 0.23,1.32 0.84,1.56zm4.04 8.34c-0.59,-0.49 -2.05,-1.79 -1.75,-1.68 1.3,-0.75 2.13,0.83 1.75,1.68zm19.09 33.65l-0.51 -0.98 1.95 -0.69 -1.44 1.67zm-8.52 -9.74l0.97 -0.35 0.25 0.61 -1.22 -0.26zm-6.98 -9.6c0.38,-0.21 0.81,-0.55 1.11,-0.89 0.04,-0.25 0.15,-0.53 0.45,-0.84 0.1,0.12 -0.1,0.47 -0.45,0.84 -0.08,0.64 0.53,1.07 1.2,0.99 0.69,-0.73 0.1,-1.22 0.47,-1.83 2.53,-0.48 -1.77,5.6 3.31,1.12 -0.39,0.85 -0.94,3.16 -2.2,3.39 -0.38,-1.24 -2.31,-2.74 -3.89,-2.78 -0.33,0.16 -0.61,0.24 -0.77,0.1 0.24,-0.08 0.5,-0.1 0.77,-0.1zm-10.58 -12.04c-0.12,-0.46 -0.08,-0.73 0.04,-0.93 0.17,-0.61 0.59,-1.3 1.4,-1.75 -0.1,1.24 -1.05,1.22 -1.4,1.75 -0.1,0.37 -0.14,0.71 -0.04,0.93zm-2 -2.01l-0.15 1.93 0.73 -1.46 -0.89 3.41c-1.83,-0.22 -1.03,-2.64 0.31,-3.88zm-1.34 0.37l1.09 -1.2 -1.03 1.36 -0.06 -0.16 -0.27 0.26 -0.73 -2.53 1 2.27zm-12.79 -21.96c-4.93,2.7 -1.74,4.14 -3.57,6.17 1.52,-1.05 4.36,-2.11 2.84,-3.96 2.76,0.49 -2.03,3.25 2.39,1.36 -0.89,-0.56 -0.48,-2.41 -0.48,-2.63l0.87 0.81c2.31,-2.66 -2.41,-0.41 -2.05,-1.75zm-8.56 -9.39l-0.88 -1.28 0.57 1.42 0.31 -0.14zm-25.74 -28.21c-0.91,0.93 -3.99,1.01 -2.47,-0.96 0.95,0.49 1.56,1.4 2.47,0.96zm-10.61 -12.5l0.35 2.03c-2.44,1.74 -0.96,-1.24 -1.89,-1.49 0.91,-1.19 0.63,-0.08 1.54,-0.54zm-7.61 -8.34l-0.02 -0.73 -1.76 2.41 1.78 -1.68zm-2.35 3.2c-1.22,0.65 -0.88,1.93 -0.55,2.03l0.55 -2.03zm-8.79 -5.64l0.63 0.39 1.46 -2.28 -2.09 1.89zm3.02 -1.26c-1.26,1.4 -3.14,3.09 -1.09,3.45 1.48,-1.3 1.17,-1.62 3.29,-2.76 -0.02,-0.73 -0.94,-0.49 -1.26,-0.57 0.02,0.49 0.93,0.25 0.04,1.22 -0.98,0.04 -1.22,-0.59 -0.98,-1.34 0.45,-0.51 0.82,-0.97 0.88,-1.34 -0.43,0.41 -0.73,0.9 -0.88,1.34zm5.6 2.99c0.33,0 0.65,-0.04 0.96,-0.21l-0.31 0.41c-0.77,0.42 -0.75,0.14 -0.65,-0.2 -0.34,0 -0.71,-0.07 -1.05,-0.13 -1.34,1 -1.4,2.6 -1.89,3.45 -0.02,-0.71 0.85,-2.17 -0.36,-2.01 -0.31,0.41 -0.61,0.57 -0.29,0.88l-0.93 -0.47c0.93,-2.41 2.19,-2.11 3.47,-1.85 0.28,-0.22 0.63,-0.42 1.07,-0.56 0.29,-0.02 0.11,0.36 -0.02,0.69zm-2.74 -8.39l0.02 0.74c-0.28,0.64 -0.89,0.97 -1.17,1.38 -0.33,-0.57 -0.08,-1.95 1.15,-2.12zm22.53 23.83c-0.61,0.06 -1.52,1.99 -0.61,2.25l-2.15 1.32c1.22,-1.1 -0.02,-2.19 -0.02,-2.43 1.54,-1.73 1.24,-0.61 2.78,-1.14zm24.7 29c-2.23,2.21 0.55,2.62 0.2,3.49 -1.22,-0.41 -3.33,-1.85 -0.2,-3.49zm3.29 1.99c0.32,0.46 0.64,0.4 -0.59,1.36 -0.35,0.63 0.59,0.44 0.26,1.07 -1.76,0 0.2,-1.52 0.33,-2.43 -0.09,-0.12 -0.19,-0.27 -0.23,-0.49 0.21,0.1 0.25,0.28 0.23,0.49zm-14.11 -17.27l1.26 -2.07 -0.91 -0.77 -0.35 2.84zm-5.21 -12.36c-0.94,0.93 -1.85,-0.08 -1.55,-0.71 -1.23,1.2 -0.46,1.74 -0.14,2.41 -0.04,0.17 -0.02,0.35 0.14,0.51 0,-0.18 -0.06,-0.34 -0.14,-0.51 0.12,-0.46 0.91,-0.91 1.38,-1.3l0.61 -0.06 -0.3 -1.07 0 0.73zm-13.62 -18.06c-1.54,0.3 -1.24,-0.1 -1.26,-0.83 0.61,-0.33 1.24,0.1 1.26,0.83zm19.18 22.22c-1.55,-0.49 -1.55,2.21 -2.78,2.07l0.61 0.43c-2.16,0.3 0.93,-1.91 0,-2.2l0.62 0.21c1.55,-0.75 0.31,-1.38 1.24,-2.32 0.94,0.04 0.94,1.99 0.31,1.81zm-19.24 -23.95c-2.17,0.12 0.57,-2.05 0.22,-2.86 1.87,-0.2 -0.57,1.81 -0.22,2.86zm17.35 14.07l0.3 -0.15 -0.02 -1.46 -0.3 0.17 0.02 1.44z" />
	<path d="M415.05 33.42c-0.39,-0.1 -0.51,-0.28 -0.53,-0.5 0.22,0.12 0.41,0.26 0.53,0.5z" />
	<path d="M454.86 82.37c0.37,-0.26 0.63,-0.3 0.83,-0.28 -0.22,0.14 -0.46,0.26 -0.83,0.28z" />
	<path d="M455.65 85.09c0.02,0.04 0.04,0.06 0.07,0.08l-0.07 0.17 0 -0.25z" />
	<path d="M514.1 155.79c-1.46,1.65 -0.59,-0.26 -0.85,-0.64 0.26,0.38 1.6,-0.31 0.85,0.64z" />
	<path d="M515.07 150.86c-0.36,0.57 -0.5,1.12 -0.4,1.63 -0.22,-0.23 -0.22,-0.61 0.4,-1.63z" />
	<path d="M515.93 153.81c-0.75,-0.35 -1.16,-0.82 -1.26,-1.32 0.32,0.32 1.22,0.2 1.26,1.32z" />
	<path d="M509.19 143.17c-0.77,1.2 0.41,1.71 0.41,1.71 -2.32,-1.28 -1.77,1.76 -2.48,2.47 -0.43,-1.46 0.93,-2.39 2.07,-4.18z" />
	<path d="M507.99 140.21c0.14,0.18 0.33,0.36 0.59,0.41 -0.43,0 -0.55,-0.17 -0.59,-0.41z" />
	<path d="M506.45 140.21c-0.2,-0.85 0.85,-1.91 1.56,-2.86 1.44,0.22 -0.14,2.07 -0.02,2.88 -0.36,-0.47 -0.55,-1.04 -1.54,-0.02z" />
	<path d="M486.22 123.79c-0.02,0.25 0.24,0.61 -0.41,1.1l-0.83 -1.08c0.06,-0.73 0.93,-0.14 1.24,-0.02z" />
	<path d="M486.48 117.4c-0.53,-0.95 -1.91,0.75 -1.85,0.02l2.3 -1.6 -0.45 1.58z" />
	<path d="M498.29 109.55l-0.04 0.42c-0.04,-0.12 -0.08,-0.24 -0.14,-0.36l0.18 -0.06z" />
	<path d="M481.14 114.82l-2.05 2.46c0.1,-1.2 2.09,-2.68 2.05,-2.46z" />
	<polygon points="477,112.75 476.6,113.85 476.17,111.7 " />
	<polygon points="475.24,107.86 474.61,108.11 474.41,106.54 " />
	<path d="M443.42 63.74c1.86,-1.84 2.45,0.53 3.37,0.57 -2.8,1.79 -0.29,-2.05 -3.37,-0.57z" />
	<path d="M417.22 34.03l0.95 1.95c-1.84,-0.51 -0.32,-0.34 -0.95,-1.95z" />
	<path d="M567.11 303.86c0.1,0.12 0.28,0.2 0.42,0.3 -0.44,0.06 -0.65,0.02 -0.42,-0.3z" />
	<path d="M573.01 305.66c-1.56,-0.08 -4.01,-0.28 -5.48,-1.5 1.4,-0.22 5.28,-1.66 5.48,1.5z" />
	<path d="M567.23 298.74l1.87 1.1c-1.2,0.75 -0.88,-0.71 -1.87,-1.1z" />
	<polygon points="567.7,301.73 567.51,302.88 566.56,301.67 " />
	<path d="M468.42 310.64c0.2,0.48 0.34,1.03 0.24,1.74l-0.24 -1.74z" />
	<path d="M463.85 305.48c-0.4,-0.18 -0.69,-0.26 -0.93,-0.3 0.28,-0.1 0.51,0.02 0.93,0.3z" />
	<path d="M472.48 310.11l-0.79 0.16c0.24,-0.16 0.52,-0.24 0.79,-0.16z" />
	<path d="M522.2 305.97c0.71,0.85 1.4,1.62 1.91,2.15 -1.47,0.85 -1.53,-1.03 -1.91,-2.15z" />
	<path d="M442.85 289.02l-0.18 0.94c-0.21,-0.41 -0.33,-0.81 0.18,-0.94z" />
	<path d="M462.55 290.06c0.02,0.53 0,0.93 -0.08,1.22 -0.08,-0.09 -0.16,-0.13 -0.24,-0.23l0.32 -0.99z" />
	<path d="M475.62 308.2c0.02,-0.04 0.02,-0.06 0.04,-0.1l0.65 0.57c-0.34,0.18 -0.56,0.02 -0.69,-0.47z" />
	<path d="M436.52 287.89c-0.29,-0.51 -0.57,-1.16 -0.83,-2.01 0.6,0.4 0.91,1.3 0.83,2.01z" />
	<path d="M462.82 305.18c0,-0.02 0,-0.02 0,-0.04 0.04,0 0.08,0.02 0.12,0.04 -0.06,0 -0.08,-0.02 -0.12,0z" />
	<path d="M469.09 290.97c-0.35,-0.16 -0.67,-0.26 -1.04,-0.46 0.43,-0.23 0.8,0.04 1.04,0.46z" />
	<path d="M522.2 305.97c-0.21,-0.24 -0.41,-0.47 -0.61,-0.73 0.28,0.04 0.47,0.32 0.61,0.73z" />
	<path d="M561.75 305.52c-0.63,-0.04 -0.73,-0.69 -0.79,-1.38 0.3,0.35 0.59,0.77 0.79,1.38z" />
	<path d="M334.72 309.03l-0.24 -0.02c0.1,-0.06 0.18,-0.04 0.24,0.02z" />
	<path d="M358.87 311.67c0.13,0.2 0.23,0.45 0.33,0.73 -0.2,0.25 -0.33,-0.18 -0.33,-0.73z" />
	<path d="M380.87 289.1c-1.54,1.36 -3.18,-1.38 -4.54,-1.5l0.46 1.14 -1.38 -0.95 0.02 1.64c-2.27,-0.75 -5.07,0.97 -5.9,-1.64l0.28 2.63 -2.41 -2.07 1.38 1.77c-2.7,0.59 -6.8,-1.46 -7.37,-1.46l0.24 0.97c-0.44,0.51 -0.79,-0.14 -1.25,-0.46l0.36 1.46c-4.06,-0.41 -5.17,2.9 -9.72,1.36 -1.24,0.34 0.69,0.48 0.69,1.3 -0.69,1.15 -2.27,0.06 -2.6,-0.61 0.35,2.29 2.28,1.6 0.81,3.43 -1.03,-1.14 0.69,2.13 -1.11,1.66l-0.69 -2.94c-1.02,0.51 -0.22,2.29 -1.83,1.99 -1.8,-1.3 2.26,-3.31 -0.67,-3.78 -1.46,0.18 -3.16,6.78 -6,5.16 -2.5,1.5 1.23,4.58 -2.18,3.81l2.18 1.95c-0.57,0.83 -0.25,2.31 -1.73,1.66 -0.45,-1.13 -1.36,-2.61 -2.15,-2.78 3.19,2.28 -2.86,3.33 0.08,6.25l-1.11 -0.12c0.14,0.12 0.16,0.41 0.08,0.63l-1.48 0.18c0.91,0.65 3.08,0.96 2.02,3.11l-2.17 0.51c0.55,1.64 -0.24,2.31 -0.14,3.61l6.33 3.22c-0.24,-0.99 -1.15,-1.62 -0.79,-2.61 1.71,-0.86 1.36,1.78 2.99,0.44l-0.69 -1.3c0.12,0.49 0.34,0.65 0,0.82 -0.57,0.83 -0.82,-0.15 -0.8,-0.98 0.59,-1.64 2.18,-0.53 2.64,0.63 2.07,-0.18 0.45,-2.96 0.92,-3.47 1.03,2.78 3.45,-0.04 4.7,1.26l-0.81 -1.81c1.58,-2.15 2.99,-0.36 3.9,0.27l-0.35 -1.48c2.19,0.28 3.27,-4.67 4.93,0.54l-0.22 -0.97c0.89,-0.47 2.25,-1.56 3.11,0 0.02,-0.61 0.16,-1.38 0.52,-1.56 0.49,2.03 1.42,0.48 2.74,0.12 -0.87,-0.53 -0.61,-3.15 -1.52,-3.78 2.03,-2.67 1.87,2.93 3.57,2.89 1.02,-1.34 -0.91,-1.47 -1.17,-2.44 2.63,1.44 5.37,-6.07 7.06,-0.85l-1.12 1.68c1.06,1.12 1.63,1.12 1.48,0.61 -0.34,0.16 -0.44,-0.32 -0.56,-0.81 3.14,-2.72 4.97,3.79 8.15,2.72 -0.24,-0.97 -0.71,-1.3 -0.73,-2.11 1.47,-1.04 1.49,5.05 3.84,3l-0.49 -1.13c0.79,-0.69 1.38,0.93 1.28,1.27 0,-4.44 5.03,0.15 6.6,-5.66 1.19,2.42 4.54,4.28 5.54,2.92 1.42,-2.68 -1.34,-2.9 -0.84,-5.39 1.14,-0.04 1.79,2.41 3.47,1.52 0.09,2.47 -3.28,5.07 -0.06,6.41l0.43 -1.34c-0.33,0.18 -0.77,0.69 -1.24,0.39 -0.95,-1.44 0.53,-1.67 0.73,-2.34l3.45 0.69c0.31,2.62 -1.76,2.05 -1.97,2.72 2.72,-0.61 5.91,-4.52 8.47,-2.82l-0.27 -0.97c3.27,2.17 1.79,-4.85 4.43,-0.67 1.34,-0.71 -0.55,-2.78 1.5,-3.03 0.57,-0.02 0.26,0.98 0.16,1.32 2.54,0.88 1.06,-2.51 3.41,-0.14l-0.55 -2.78c2.8,1.85 5.81,6.66 8.16,5.42 -0.18,-2.13 -1.66,-1.91 -2.27,-3.53 3.31,3.79 7.75,0.32 10.79,2.33 -0.85,1.85 1.51,4.22 -0.36,5.79 -0.55,-2.76 -1.42,-0.92 -2.44,-1.22 1.79,6.03 6.86,-3.09 7.47,2.15l0.39 -2.15c0.46,0.3 1.66,1.91 0.87,2.6l3.27 -1.47c-1.2,-1.6 -3.72,-5.27 -4.43,-2.94 -0.99,-2.25 1.32,-1.54 0.43,-4.14 2.27,3.53 1.32,-1.54 3.61,-0.81 -0.97,3.13 2.36,4.16 2.3,5.66 0.73,-0.59 2.41,0.81 3.08,1.87 1.32,0.26 4.3,-2.29 6.43,-1.26 -0.81,-0.95 -2.11,-2.21 -2.05,-4.2 1.06,1.1 2.2,1.06 2.36,-1.26 -3.76,-4.12 -1.1,5.32 -4.47,2.66 -0.87,-2.6 -1.8,-3.23 -3.53,-3.96 0.75,-1.52 0.39,-2.15 0.69,-3.97 2.21,5.49 5.48,0.42 8.3,3.1 1.2,1.6 0.39,5.09 3.01,5.64l-2.24 1.73c2.46,-1.59 0.61,1.62 2.66,2.19l-0.85 -1.79c1.24,-0.36 1.7,-0.06 2.41,1.24l-1.09 -2.76c0.67,-0.35 1.91,-0.73 1.95,0.91 0.16,-0.67 0.22,-1.22 0.2,-1.68 0.14,0.46 0.47,0.75 1.26,0.65 -0.47,-0.31 -0.79,-0.12 -0.83,-0.96 3.02,0.61 0.65,-3.02 2.53,-2.78 -0.3,-0.63 0.23,-1.44 0.88,-1.8 0.02,4.36 3.73,4.89 4.72,7.3l-0.02 -0.06 2.54 1.73c-0.51,-0.35 0.02,-1.55 0.75,-2.01l-0.12 0.02c0.79,-0.69 -1.01,-4.75 1.4,-3.49l1.28 1.28c-0.22,-0.17 -0.02,-0.84 0.1,-1.16l1.32 1.18c1.95,-4.1 3.77,2.27 6.09,0.24 -0.67,0.34 -1.71,0.06 -1.28,-1.28 0.45,-0.51 1.14,-0.02 1.5,0.61l-0.12 -0.49 4.46 2.66c-0.36,-1.48 -2.86,-1.56 -1.74,-3.25 0.65,-2.01 1.93,0.13 2.74,0.27 -0.1,1.15 -1.56,2.17 -0.08,2.8 0.18,-0.57 1.58,-1.77 0.91,-2.58 1.52,1.18 3.73,1.89 5.09,3.94 0.43,-0.51 -0.24,-0.98 -0.46,-1.14l-0.1 0.33c-0.92,-0.65 -0.15,-2.97 -1.95,-1.77 -0.17,-3.79 2.59,-1.06 4.18,-1.58l-2.52 -2.58c4.26,-5.22 10.01,0.45 14.21,0.59 -1.26,1.15 -2.28,0.04 -2.15,2.98 2.59,1.46 2.25,0.79 4.85,1.42l-0.23 -0.16c1.36,-1.5 3.17,1.44 4.08,-1.2 -0.55,-1.64 -1.93,1.5 -1.91,-1.78l3.29 0.3c-0.99,-1.97 -3.29,-0.3 -4.52,-0.77 -0.92,0.18 1.8,0.47 1.34,2.62 -3.07,-0.15 -3.74,-2.28 -5.22,-5.38 -0.89,-2.29 1.38,-2.31 1.95,-2.34 1.93,3.45 4.75,5.04 7.81,3.58l1.73 -2.46c1.46,2.31 0.71,6.76 3.45,6.25l-0.77 -1.81c0.61,-0.68 1.01,-0.91 1.29,-0.89 -1.13,-1.38 -2.37,-2.94 -3.38,-4.38 1.64,-3.78 4.42,1.99 6.67,2.82 -0.1,-0.49 -0.89,-0.65 -1.11,-1.64 3.45,-0.84 6.86,3.81 9.45,4.54 1.18,-1.62 -2.13,-1.2 -1.5,-3.65 1.34,1.01 2.99,-1.1 3.27,1.22 -0.47,-3.29 3.19,-0.11 0.67,-3.29 2.51,-0.61 5.13,-0.1 7.73,0.79 2.6,0.95 5.16,2.33 7.61,3.41 -0.18,-1 -0.14,-1.81 0.12,-2.48 -1.7,-0.06 -4.16,-1.13 -4.99,-3.47 1.22,-1.6 2.54,2.4 2.92,1.42 -0.52,-0.83 -1.66,-0.89 -1.6,-2.51 1.56,-1.77 2.25,0.89 3.27,1.28l-0.61 0.79c3.08,2.41 1.44,5.8 4.87,5.11 1.36,-1.93 0.1,-1.64 0.22,-4.1 0.73,1.02 3.51,-1.54 4.16,1.16l-2.07 0.06c1.4,0.77 2.76,0.89 3.7,1.81 -0.07,-0.55 -0.11,-1.1 -0.41,-1.32 1.1,0.87 2.58,0.79 3.02,2.47l0.53 -2.62c-0.77,1.12 -2.82,1.16 -3.06,-0.32 0.36,-2.29 2.33,-0.69 3.24,-0.81 -3.93,-1.04 -3.71,-5.18 -7.22,-3.68l0.53 0.86c-2.24,1.86 -4.2,-1.54 -6.07,-1.59 0.55,-0.5 0.71,-1.46 0.51,-1.92 -4.22,1.82 -8.18,0 -12.91,1.09l-1.3 -2.66 -0.16 1.97c-2.34,0.77 -0.39,-2.8 -1.87,-2.68 0.57,0.02 0.45,0.35 0.55,0.83 -2.58,-2.35 -1.54,1.79 -3.02,1.1 0.62,2.15 2.84,0.87 2.07,3.65 -2.56,-2.35 -6.72,-1.28 -6.97,-6.04 -4.99,1.8 -11.01,-1.36 -15.16,-1.85 -0.58,0.83 0.35,0.65 0.13,1.32 -1.61,-2.78 -5.52,1.87 -5.52,-0.61 -0.82,0.67 -1.16,2.48 -1.38,3.14 -1.04,-1.19 -2.3,-1.78 -3.62,-2.15l0.98 0.69 -0.1 0.33 -1.38 -0.98 0.06 -0.14c-3.33,-0.77 -7.15,-0.12 -10.17,-2.78 1.73,1.6 -0.45,2.96 0.39,3.94 -1.53,-3.92 -5.22,-4.02 -8.18,-3.61 0.02,0.83 -0.2,1.48 0.14,2.13l-1.72 -1.61 0.24 0.98c-3.09,0.75 -6.48,-3.59 -8.5,-1.71 1.25,0.45 1.27,1.28 1.42,2.6 -2.22,-0.08 -4.31,-0.12 -6.9,-1.26 0.14,0.25 0.24,0.51 0.24,0.81 -0.67,0.35 -1.5,-0.6 -2.19,-1.07l-0.06 1.97c-1.34,-0.9 -3.03,0.14 -4.61,-1.4 -0.59,2.17 -3.84,-1.95 -5.62,-1.02 -0.71,-0.46 1.54,2.24 -0.41,2.15 -0.34,-4.28 -2.51,-0.06 -2.76,-4.66l-1.66 1.7 -0.43 -2.29c-1.36,4.34 -2.23,-1.89 -4.34,-0.49 0.12,0.49 0.36,0.65 0.24,0.97 -0.71,-0.46 -2.31,-0.73 -1.09,-1.92 -1.14,0.04 -5.06,-0.94 -3.27,1.46 -0.16,-1.32 1.46,-0.22 2.17,0.24 -0.06,1.97 -1.78,1.24 -2.17,3.39 -0.06,-0.22 -0.28,-0.55 -0.47,-0.87l-0.22 1.22c-2.19,-2.14 -4.34,-0.51 -5.95,-3.29 -0.08,0.61 -0.44,1.09 -1.17,0.97l-0.08 -2.47 -2.28 0.1 1.14 3.57c-2.48,0.77 -4.32,-3.27 -6.39,-3.84 -0.45,4.14 -4.04,-1.46 -5.75,2.24l1.63 1.07c-3.43,-0.67 -3.94,1.83 -7.14,0.47 2.67,-1.44 2.71,-0.61 6.57,-4.06 -3.92,1.8 -6.88,-2.17 -10.47,0.28 0.26,0.98 1.18,1.59 0.32,2.62 -0.75,-2.11 -3.41,0.14 -2.92,-2.35 -1.09,0.87 -1.26,3.18 -1.93,3.53l-3.83 -2.97 0.12 0.49c-6.31,5.87 -12.04,-3.63 -18.39,-1.09l0.14 1.31 -1.62 -1.9c1.28,1.28 -0.53,1.66 -0.61,2.82l-4.14 -2.82c-0.17,1.3 0.1,3.92 1.09,3.39zm54.35 0.09l0.97 0.16c0.21,-0.12 0.41,-0.16 0.63,0.1l-0.63 -0.1c-0.48,0.34 -0.85,1.38 -0.97,-0.16zm90.73 4.46c0.45,1.16 -0.69,0.33 -1.03,0.49l1.6 0.34c0.24,-0.65 -0.32,-0.65 -0.57,-0.83zm-90.35 11.49l-0.5 1.66 -0.73 -1.28 1.23 -0.38zm-13.88 0.44l1.4 0.94 -0.1 0.34 -1.4 -0.93 0.1 -0.35zm-15.7 -12.99c0.08,0.11 0.16,0.17 0.26,0.33 -0.06,-0.08 -0.16,-0.18 -0.26,-0.33 -1.1,-1.17 -1.47,1.81 -2.38,-1.05 1.02,-2.5 1.75,0.04 2.38,1.05zm24.39 -0.56c0.47,0.3 0.71,0.46 1.03,0.28 -0.26,-0.97 -1.21,-2.41 -0.54,-2.78 0.5,1.14 2.09,1.38 2.15,3.02 -1.42,-1.72 -2.3,2.93 -2.64,-0.52zm32.77 0.46l-0.34 0.19 1.3 1.25 -0.96 -1.44zm5.99 1.59c0.73,2.11 2.56,1.72 3.81,2.17 0.31,-1.83 -0.99,-3.92 -2.47,-3.72 -1.77,-1.56 -0.63,2.85 -1.34,1.55zm-49.35 1.38l0.38 1.46 -0.32 0.18 1.4 0.93c-1.77,2.05 -3.13,-1.68 -4.06,-2.29 0.79,0.12 3.06,3.65 2.6,-0.28zm62.05 -0.45c1.28,1.28 3.58,2.84 3.37,4.34 0.06,-2.8 -1.76,-4.06 -2.35,-4.04 -0.33,0.17 -0.57,0 -1.02,-0.3zm-0.04 5.28c-1.84,-1.26 -1.98,-2.58 -3.41,-5.18 1.81,-1.2 2.34,2.4 2.13,3.88 1.28,1.28 1.02,-0.53 1.69,-0.87l-0.41 2.17zm-1.96 -7.86l-0.76 0.39c-0.87,1.18 -1.03,4.34 -2.31,1.18l2.31 -1.18c0.21,-0.27 0.45,-0.43 0.76,-0.39zm15.52 0.1l-0.75 -0.95c0.75,0.1 0.83,0.51 0.75,0.95l0.63 0.82c-1.65,1.01 -0.79,0.06 -0.63,-0.82zm-11.83 0.78l-2.17 -0.27c0.12,1.32 1.48,0.61 2.17,0.27zm11.34 1.72c-0.91,0.18 -3.31,0.57 -2.98,0.39 0.22,-1.49 2.41,-1.2 2.98,-0.39zm47.96 4.99l-1.36 -0.2 0.75 -1.95 0.61 2.15zm-16.12 0.88l0.37 -0.98 0.79 0.16 -1.16 0.82zm-14.79 -0.21c0.08,-0.42 0.04,-0.97 -0.06,-1.42 -0.23,-0.18 -0.41,-0.42 -0.51,-0.85 0.2,0 0.39,0.36 0.51,0.85 0.59,0.45 1.48,0.22 1.89,-0.38 -0.23,-0.98 -1.14,-0.82 -1.49,-1.47 1.4,-2.33 4.33,4.77 3.58,-1.98 0.56,0.81 2.49,2.63 1.78,3.79 -1.56,-0.42 -4.5,0.22 -5.7,1.46 -0.08,0.37 -0.2,0.63 -0.47,0.69 0.06,-0.24 0.25,-0.46 0.47,-0.69zm-19.95 1.3c-0.57,-0.16 -0.81,-0.36 -0.91,-0.59 -0.49,-0.5 -0.85,-1.26 -0.71,-2.17 1.17,0.81 0.42,1.58 0.71,2.17 0.28,0.31 0.61,0.55 0.91,0.59zm-3.53 0.41l1.83 1.28 -0.92 -1.47 2.76 2.74c-1.58,1.36 -3.41,-0.75 -3.67,-2.55zm-0.63 1.3l-0.39 -1.61 0.59 1.65 -0.2 -0.04 0.08 0.36 -3.08 -0.91 3 0.55zm-31.52 -2.89c-1.05,5.57 2.8,3.9 3.43,6.56 0.11,-1.87 1.22,-4.77 -1.78,-4.65 2.58,-1.91 1.68,3.57 3.16,-1.09 -1.23,0.36 -2.76,-1.06 -2.98,-1.2l1.46 -0.22c-0.89,-3.43 -2.23,1.72 -3.29,0.6zm-15.8 1.16l-1.93 -0.08 1.84 0.43 0.09 -0.35zm-47.67 2.5c0.16,1.3 -2.3,3.71 -2.93,1.26 1.26,-0.37 2.62,-0.27 2.93,-1.26zm-20.52 -0.12l2.17 1.09c-0.39,2.98 -1.95,-0.1 -2.96,0.43 -0.35,-1.48 0.46,-0.53 0.79,-1.52zm-14.13 0.04l-0.69 -0.49 0.73 2.94 -0.04 -2.45zm0.96 3.91c-0.45,1.32 1.05,1.95 1.4,1.79l-1.4 -1.79zm-12.79 2.54l0.92 -0.18 -0.82 -2.62 -0.1 2.8zm1.46 -3.05c0.21,1.89 0.11,4.43 2.2,3.17 0.1,-1.97 -0.47,-1.97 0.32,-4.28 -0.69,-0.49 -1.26,0.36 -1.6,0.53 0.46,0.32 1.01,-0.51 1.13,0.81 -0.77,0.73 -1.56,0.47 -2.05,-0.23 -0.06,-0.66 -0.18,-1.25 -0.44,-1.56 0,0.61 0.18,1.16 0.44,1.56zm7.59 -2.04c0.29,-0.25 0.51,-0.49 0.63,-0.84l0.12 0.49c-0.28,0.87 -0.52,0.67 -0.75,0.35 -0.3,0.26 -0.65,0.48 -1.01,0.71 -0.24,1.66 1.2,2.8 1.56,3.73 -0.69,-0.49 -1.26,-2.11 -2.17,-1.1 0.12,0.49 0,0.84 0.57,0.82l-1.26 0.36c-1.42,-2.31 -0.06,-3.04 1.28,-3.79 0.04,-0.37 0.14,-0.75 0.4,-1.18 0.23,-0.26 0.41,0.14 0.63,0.45zm-9.98 -3.78l0.67 0.49c0.34,0.65 0.12,1.32 0.24,1.8 -0.79,-0.14 -1.82,-1.29 -0.91,-2.29zm40.85 -0.71c-0.45,0.51 0.63,2.46 1.64,1.93l-0.5 2.47c-0.04,-1.64 -2.09,-1.4 -2.32,-1.56 -0.4,-2.29 0.41,-1.34 1.18,-2.84zm47.47 -0.97c0.44,3.1 3,1.17 3.59,1.99 -1.34,0.71 -4.4,1.5 -3.59,-1.99zm4.48 -1.36c0.71,0.02 0.92,-0.29 0.87,1.3 0.37,0.64 0.92,-0.21 1.26,0.44 -1.36,1.4 -1.32,-1.11 -2.13,-1.74 -0.18,0 -0.4,-0.02 -0.67,-0.12 0.29,-0.11 0.49,-0.03 0.67,0.12zm-27.76 0.38l-0.99 -2.27 -1.47 0.22 2.46 2.05zm-15.93 -3.79c0.14,1.32 -1.54,1.38 -1.91,0.73 0.14,1.72 1.26,1.48 2.17,1.66 0.13,0.14 0.31,0.22 0.59,0.22 -0.18,-0.12 -0.38,-0.18 -0.59,-0.22 -0.34,-0.4 -0.12,-1.28 -0.14,-1.89l0.45 -0.5 -1.26 -0.45 0.69 0.45zm-27.84 -1.54c-1,1.36 -1.12,0.87 -1.81,0.38 0.22,-0.67 1.12,-0.85 1.81,-0.38zm36.2 -0.11c-1.68,0.9 0.87,2.6 -0.24,3.47l0.89 -0.2c-1.42,1.87 -1.08,-1.95 -2.09,-1.4l0.67 -0.36c0.51,-1.67 -1.06,-1.12 -1.22,-2.42 0.81,-0.69 2.68,0.55 1.99,0.91zm-37.81 -0.99c-1.68,1.68 -1.38,-1.79 -2.41,-2.09 1.34,-1.52 1.16,1.62 2.41,2.09zm27.01 -3.86l0.11 -0.32 -1.38 -0.94 -0.11 0.33 1.38 0.93z" />
	<path d="M363.07 310.19c-0.42,0.2 -0.69,0.18 -0.93,0.04 0.31,-0.08 0.61,-0.12 0.93,-0.04z" />
	<path d="M442.63 310.6c0.02,-0.45 0.16,-0.69 0.36,-0.84 -0.02,0.27 -0.12,0.53 -0.36,0.84z" />
	<path d="M445.93 311.61c0.04,0.02 0.09,0 0.13,0 0.04,0.04 0.08,0.1 0.1,0.14l-0.23 -0.14z" />
	<path d="M560.59 307.61c0.55,2.17 -0.71,0.29 -1.25,0.27 0.56,0.02 0.87,-1.44 1.25,-0.27z" />
	<path d="M556.37 303.78c0.31,0.65 0.75,1.09 1.32,1.32 -0.36,0.04 -0.75,-0.21 -1.32,-1.32z" />
	<path d="M559.96 304.93c-0.89,0.39 -1.66,0.39 -2.25,0.17 0.57,-0.06 1.12,-0.84 2.25,-0.17z" />
	<path d="M544.32 303.68c0.63,1.33 2.03,0.73 2.03,0.73 -3.01,1.05 0.46,2.49 0.65,3.49 -1.81,-0.57 -1.75,-2.22 -2.68,-4.22z" />
	<path d="M540.44 302.84c0.31,0 0.59,-0.04 0.83,-0.22 -0.3,0.32 -0.56,0.32 -0.83,0.22z" />
	<path d="M539.28 304.06c-1.01,-0.34 -1.29,-1.83 -1.72,-2.98 1.28,-1.02 1.97,1.36 2.88,1.76 -0.71,0 -1.42,-0.18 -1.16,1.22z" />
	<path d="M507.81 310.31c0.22,0.16 0.79,0.16 0.79,0.98l-1.7 0.02c-0.67,-0.49 0.56,-0.84 0.91,-1z" />
	<path d="M501.58 306.25c-1.36,-0.14 -0.67,1.99 -1.36,1.5l0.1 -2.8 1.26 1.3z" />
	<path d="M502.45 292.11l0.41 0.28c-0.16,-0.04 -0.31,-0.06 -0.47,-0.1l0.06 -0.18z" />
	<path d="M495 309.01l0.94 3.11c-1.14,-0.79 -1.14,-3.27 -0.94,-3.11z" />
	<polygon points="489.83,311.1 490.62,312.06 488.14,311.12 " />
	<polygon points="483.58,309.6 483.38,310.27 481.65,309.5 " />
	<path d="M415.31 308.16c-0.32,-2.62 2.46,-1.58 3.23,-2.29 -0.47,3.33 -2.19,-1.04 -3.23,2.29z" />
	<path d="M365.45 308.99l2.64 0.59c-2.03,1.04 -0.57,0 -2.64,-0.59z" />
	<polygon points="0,390.59 17.43,390.59 17.43,481.33 54.22,481.33 54.22,496.36 0,496.36 " />
	<polygon points="132.74,482.52 132.74,496.38 75.09,496.38 75.09,390.61 131.71,390.61 131.71,404.47 92.5,404.47 92.5,435.16 129.29,435.16 129.29,449.02 92.5,449.02 92.5,482.54 132.74,482.54 " />
	<path d="M147.78 465.68l16.68 -5.22c1.93,16.69 8.2,24.3 21.15,24.3 9.09,0 14.75,-5.97 14.75,-15.65 0,-9.54 -3.73,-14.14 -13.25,-17.29l-13.86 -4.32c-14.45,-4.63 -21.9,-15.65 -21.9,-30.1 0,-18.32 13.25,-29.34 32.77,-29.34 18.92,0 31.44,8.48 33.98,30.24l-15.79 5.51c-1.79,-15.19 -7.9,-22.2 -18.63,-22.2 -9.38,0 -14.9,5.67 -14.9,14.31 0,7.89 4.18,13.42 12.97,16.4l14.14 4.77c15.2,5.07 22.35,14.89 22.35,30.84 0,18.47 -12.08,30.99 -33.08,30.99 -22.18,-0.02 -34.7,-11.18 -37.38,-33.24zm42.01 -98.02l16.23 0 -14.75 16.38 -14 0 12.52 -16.38z" />
	<path d="M241.05 390.59l19.66 0 32.47 65.41c2.38,4.91 3.88,9.84 5.22,16.4l0.3 0c-0.44,-6.42 -0.58,-13.26 -0.58,-20.56l0 -61.23 16.23 0 0 105.77 -18.33 0 -33.52 -67.63c-2.37,-4.77 -4.18,-10.74 -5.52,-16.54l-0.3 0c0.3,5.66 0.58,12.07 0.58,19.07l0 65.1 -16.23 0 0 -105.79 0.02 0z" />
	<path d="M391.22 468.36l-31.43 0 -7.31 28 -17.74 0 30.4 -105.77 20.56 0 30.54 105.77 -17.73 0 -7.29 -28zm-3.57 -13.25l-9.38 -35.76c-1.03,-4.32 -1.78,-8.48 -2.67,-13.42l-0.31 0c-0.75,4.92 -1.64,9.1 -2.54,13.42l-9.37 35.76 24.27 0z" />
	<polygon points="505.33,445.43 493.56,463.16 493.56,496.38 476.13,496.38 476.13,390.61 493.56,390.61 493.56,441.85 527.09,390.61 546.75,390.61 517.41,432.62 548.54,496.38 529.02,496.38 " />
	<path d="M645.52 513.65c-2.09,8.65 -7.75,12.81 -16.39,12.81 -9.24,0 -15.65,-4.77 -15.65,-13.42 0,-7 4.46,-12.52 12.8,-16.68l-7.3 -28 -31.44 0 -7.3 28 -17.74 0 30.4 -105.77 20.56 0 30.54 105.77 -3.73 0c-10.74,3.43 -15.65,9.38 -15.65,15.49 0,3.57 1.93,5.52 5.22,5.52 3.12,0 4.91,-2.23 6.1,-6.42l9.58 2.7zm-30.07 -58.54l-9.38 -35.76c-1.03,-4.32 -1.78,-8.48 -2.68,-13.42l-0.3 0c-0.75,4.92 -1.65,9.1 -2.54,13.42l-9.37 35.76 24.27 0z" />
	<path d="M730.45 421.89c0,20.86 -12.07,32.77 -32.47,32.77l-15.93 0 0 41.7 -17.43 0 0 -105.77 33.08 0c20.68,0 32.75,11.92 32.75,31.3zm-18.63 0c0,-12.08 -5.8,-18.33 -16.54,-18.33l-13.25 0 0 37.99 13.42 0c10.43,0 16.37,-6.72 16.37,-19.66z" />
	<polygon points="750.87,496.36 750.87,390.59 768.3,390.59 768.3,496.36 " />
	<polygon points="855.16,482.52 855.16,496.38 797.5,496.38 797.5,390.61 854.12,390.61 854.12,404.47 814.93,404.47 814.93,435.16 851.73,435.16 851.73,449.02 814.93,449.02 814.93,482.54 855.16,482.54 " />
	<polygon points="879.29,390.59 896.72,390.59 896.72,481.33 933.51,481.33 933.51,496.36 879.29,496.36 " />
</svg>
